<svg width="44" height="52" viewBox="0 0 44 52" fill="none" xmlns="http://www.w3.org/2000/svg">
<path d="M22 2C11.2304 2 2.5 10.7089 2.5 21.452C2.5 32.1949 11.2304 40.904 22 40.904C32.7695 40.904 41.5 32.1949 41.5 21.452C41.5 10.7089 32.7695 2 22 2Z" stroke="#808080" stroke-width="3.38465" stroke-linecap="round" stroke-linejoin="round"/>
<path d="M6.92847 33.7956C6.92847 33.7956 11.2751 28.2601 22 28.2601C32.725 28.2601 37.0718 33.7956 37.0718 33.7956" stroke="#808080" stroke-width="3.38465" stroke-linecap="round" stroke-linejoin="round"/>
<path d="M22 21.452C25.231 21.452 27.85 18.8394 27.85 15.6164C27.85 12.3935 25.231 9.78082 22 9.78082C18.7691 9.78082 16.15 12.3935 16.15 15.6164C16.15 18.8394 18.7691 21.452 22 21.452Z" stroke="#808080" stroke-width="3.38465" stroke-linecap="round" stroke-linejoin="round"/>
</svg>
