<svg width="44" height="52" viewBox="0 0 44 52" fill="none" xmlns="http://www.w3.org/2000/svg">
<path d="M31.75 22.4246C32.2884 22.4246 32.725 21.9891 32.725 21.452C32.725 20.915 32.2884 20.4794 31.75 20.4794C31.2116 20.4794 30.775 20.915 30.775 21.452C30.775 21.9891 31.2116 22.4246 31.75 22.4246Z" stroke="#808080" stroke-width="3.38465" stroke-linecap="round" stroke-linejoin="round"/>
<path d="M22 22.4246C22.5384 22.4246 22.975 21.9891 22.975 21.452C22.975 20.915 22.5384 20.4794 22 20.4794C21.4616 20.4794 21.025 20.915 21.025 21.452C21.025 21.9891 21.4616 22.4246 22 22.4246Z" stroke="#808080" stroke-width="3.38465" stroke-linecap="round" stroke-linejoin="round"/>
<path d="M12.25 22.4246C12.7885 22.4246 13.225 21.9891 13.225 21.452C13.225 20.915 12.7885 20.4794 12.25 20.4794C11.7116 20.4794 11.275 20.915 11.275 21.452C11.275 21.9891 11.7116 22.4246 12.25 22.4246Z" stroke="#808080" stroke-width="3.38465" stroke-linecap="round" stroke-linejoin="round"/>
<path d="M22 40.904C32.7695 40.904 41.5 32.1949 41.5 21.452C41.5 10.7089 32.7695 2 22 2C11.2304 2 2.5 10.7089 2.5 21.452C2.5 24.995 3.44959 28.3168 5.10875 31.178L3.475 39.9314L12.25 38.3017C15.1182 39.9567 18.4483 40.904 22 40.904Z" stroke="#808080" stroke-width="3.38465" stroke-linecap="round" stroke-linejoin="round"/>
</svg>
