<svg width="44" height="56" viewBox="0 0 44 56" fill="none" xmlns="http://www.w3.org/2000/svg">
<path d="M15.162 39.4402H10.8287C6.04218 39.4402 2.16199 35.5694 2.16199 30.7948V17.1949C2.16199 14.1717 3.74498 11.3682 6.3367 9.80135L17.17 3.25187C19.931 1.58271 23.3929 1.58271 26.1539 3.25187L36.9873 9.80135C39.579 11.3682 41.162 14.1717 41.162 17.1949V30.7948C41.162 35.5694 37.2817 39.4402 32.4953 39.4402H28.162M15.162 39.4402V30.7948C15.162 27.2137 18.072 24.3108 21.662 24.3108C25.2519 24.3108 28.162 27.2137 28.162 30.7948V39.4402M15.162 39.4402H28.162" stroke="#34345D" stroke-width="3.76072" stroke-linecap="round" stroke-linejoin="round"/>
<line x1="33.0015" y1="54" x2="12.0015" y2="54" stroke="#34345D" stroke-width="4" stroke-linecap="round"/>
</svg>
