<svg width="270" height="260" viewBox="0 0 270 260" fill="none" xmlns="http://www.w3.org/2000/svg">
<rect width="270" height="260" rx="60" fill="#34345D"/>
<g clip-path="url(#clip0_262_605)">
<path d="M213.438 153.584C214.552 150.385 213.736 147.213 211.615 146.499C209.493 145.784 206.871 147.799 205.757 150.998C204.643 154.196 205.459 157.369 207.581 158.083C209.702 158.798 212.325 156.783 213.438 153.584Z" fill="#F4F4F4"/>
<path d="M205.885 150.99C207.395 150.32 207.776 147.936 206.735 145.666C205.694 143.395 203.626 142.097 202.115 142.767C200.604 143.437 200.224 145.82 201.265 148.091C202.305 150.362 204.374 151.659 205.885 150.99Z" fill="#F4F4F4"/>
<path d="M203.028 156.266H211.108C211.819 156.266 212.501 156.543 213.003 157.038C213.506 157.532 213.788 158.202 213.788 158.901V162.517C213.788 163.216 213.506 163.886 213.003 164.38C212.501 164.875 211.819 165.152 211.108 165.152H203.028V156.266Z" fill="#F4F4F4"/>
<g opacity="0.05">
<path d="M203.028 156.266H211.108C211.819 156.266 212.501 156.543 213.003 157.038C213.506 157.532 213.788 158.202 213.788 158.901V162.517C213.788 163.216 213.506 163.886 213.003 164.38C212.501 164.875 211.819 165.152 211.108 165.152H203.028V156.266Z" fill="#292A2E"/>
</g>
<g opacity="0.05">
<path d="M212.756 150.131H212.746C212.73 150.129 212.714 150.124 212.701 150.115C212.687 150.106 212.676 150.094 212.668 150.079C212.638 150.008 212.636 149.929 212.663 149.856C212.709 149.664 212.697 149.463 212.629 149.277C212.62 149.253 212.621 149.226 212.632 149.202C212.643 149.179 212.663 149.16 212.687 149.151C212.712 149.142 212.74 149.143 212.764 149.154C212.788 149.165 212.807 149.184 212.816 149.209C212.881 149.386 212.904 149.576 212.881 149.763C212.997 149.659 213.126 149.571 213.266 149.502C213.277 149.496 213.29 149.492 213.303 149.491C213.316 149.49 213.329 149.492 213.342 149.496C213.354 149.5 213.366 149.507 213.376 149.515C213.386 149.523 213.394 149.534 213.4 149.545C213.405 149.557 213.409 149.569 213.41 149.582C213.411 149.595 213.409 149.608 213.405 149.62C213.401 149.632 213.394 149.643 213.386 149.653C213.377 149.663 213.367 149.671 213.355 149.677C213.154 149.78 212.976 149.922 212.833 150.096C212.823 150.107 212.812 150.116 212.799 150.122C212.785 150.128 212.771 150.131 212.756 150.131Z" fill="#292A2E"/>
<path d="M209.734 147.797C209.721 147.797 209.708 147.794 209.696 147.79C209.627 147.754 209.574 147.693 209.549 147.621C209.464 147.444 209.328 147.297 209.158 147.197C209.135 147.184 209.118 147.163 209.111 147.138C209.104 147.113 209.108 147.086 209.121 147.063C209.134 147.041 209.156 147.024 209.182 147.018C209.207 147.011 209.234 147.014 209.257 147.027C209.42 147.121 209.557 147.252 209.658 147.409C209.682 147.255 209.725 147.104 209.788 146.961C209.799 146.937 209.818 146.918 209.843 146.909C209.868 146.899 209.895 146.9 209.919 146.91C209.944 146.921 209.963 146.94 209.972 146.964C209.982 146.989 209.981 147.016 209.971 147.039C209.881 147.248 209.834 147.473 209.834 147.7C209.834 147.726 209.823 147.75 209.804 147.769C209.785 147.787 209.76 147.797 209.734 147.797Z" fill="#292A2E"/>
<path d="M207.186 150.958C207.173 150.958 207.16 150.956 207.148 150.951C207.079 150.916 207.027 150.856 207.002 150.784C206.917 150.607 206.78 150.459 206.61 150.359C206.587 150.346 206.57 150.325 206.563 150.299C206.556 150.274 206.56 150.248 206.573 150.225C206.586 150.202 206.608 150.186 206.633 150.179C206.659 150.172 206.686 150.176 206.709 150.189C206.871 150.283 207.009 150.414 207.11 150.571C207.133 150.417 207.177 150.266 207.24 150.123C207.245 150.111 207.253 150.1 207.262 150.091C207.271 150.082 207.283 150.075 207.295 150.071C207.307 150.066 207.32 150.064 207.333 150.064C207.346 150.064 207.359 150.067 207.371 150.072C207.383 150.077 207.394 150.085 207.403 150.094C207.412 150.103 207.419 150.114 207.424 150.126C207.429 150.138 207.431 150.151 207.431 150.164C207.431 150.177 207.428 150.189 207.422 150.201C207.332 150.41 207.286 150.635 207.286 150.861C207.285 150.887 207.275 150.912 207.256 150.93C207.237 150.948 207.212 150.958 207.186 150.958Z" fill="#292A2E"/>
<path d="M209.891 150.48C209.878 150.48 209.865 150.478 209.853 150.473C209.784 150.437 209.732 150.377 209.706 150.305C209.621 150.128 209.485 149.981 209.315 149.881C209.293 149.867 209.277 149.846 209.271 149.821C209.265 149.797 209.269 149.771 209.282 149.749C209.294 149.727 209.315 149.711 209.34 149.704C209.365 149.697 209.391 149.699 209.414 149.711C209.577 149.805 209.714 149.936 209.815 150.093C209.838 149.939 209.882 149.788 209.945 149.645C209.955 149.621 209.975 149.602 210 149.593C210.024 149.583 210.052 149.584 210.076 149.594C210.1 149.604 210.119 149.624 210.129 149.648C210.139 149.672 210.138 149.699 210.128 149.723C210.037 149.932 209.991 150.156 209.991 150.383C209.99 150.409 209.98 150.434 209.961 150.452C209.942 150.47 209.917 150.48 209.891 150.48Z" fill="#292A2E"/>
<path d="M211.611 153.245C211.596 153.245 211.58 153.241 211.566 153.235C211.552 153.227 211.539 153.216 211.53 153.203C211.52 153.19 211.515 153.175 211.513 153.159C211.51 153.082 211.537 153.008 211.588 152.95C211.701 152.787 211.764 152.596 211.768 152.399C211.768 152.386 211.77 152.374 211.775 152.362C211.78 152.35 211.788 152.339 211.797 152.33C211.806 152.321 211.817 152.314 211.829 152.309C211.841 152.304 211.854 152.302 211.867 152.302C211.88 152.302 211.893 152.304 211.905 152.309C211.918 152.314 211.928 152.322 211.938 152.331C211.947 152.34 211.954 152.351 211.959 152.363C211.964 152.375 211.966 152.388 211.966 152.4C211.963 152.59 211.914 152.776 211.824 152.944C211.971 152.889 212.124 152.855 212.28 152.841C212.306 152.839 212.332 152.848 212.352 152.865C212.372 152.881 212.385 152.905 212.387 152.931C212.389 152.944 212.387 152.957 212.383 152.969C212.379 152.981 212.373 152.993 212.364 153.002C212.356 153.012 212.345 153.02 212.334 153.026C212.322 153.032 212.309 153.036 212.296 153.037C212.072 153.058 211.855 153.125 211.659 153.233C211.644 153.241 211.628 153.245 211.611 153.245Z" fill="#292A2E"/>
<path d="M207.414 154.947C207.4 154.947 207.386 154.944 207.373 154.939C207.305 154.901 207.255 154.839 207.231 154.765C207.152 154.586 207.021 154.434 206.854 154.329C206.842 154.323 206.832 154.314 206.823 154.304C206.815 154.293 206.809 154.281 206.806 154.268C206.803 154.255 206.802 154.242 206.804 154.229C206.806 154.216 206.811 154.203 206.818 154.192C206.825 154.181 206.834 154.171 206.845 154.164C206.856 154.156 206.868 154.151 206.882 154.148C206.895 154.145 206.908 154.145 206.921 154.147C206.935 154.15 206.947 154.155 206.958 154.162C207.118 154.262 207.251 154.397 207.347 154.557C207.375 154.403 207.424 154.254 207.491 154.112C207.503 154.09 207.523 154.073 207.548 154.065C207.572 154.057 207.599 154.059 207.622 154.07C207.645 154.081 207.663 154.1 207.672 154.124C207.682 154.147 207.681 154.174 207.671 154.197C207.574 154.403 207.521 154.626 207.514 154.852C207.513 154.878 207.502 154.902 207.483 154.919C207.465 154.937 207.44 154.947 207.414 154.947V154.947Z" fill="#292A2E"/>
<path d="M209.911 155.858C209.908 155.858 209.905 155.858 209.901 155.858C209.885 155.856 209.869 155.851 209.856 155.842C209.842 155.833 209.831 155.82 209.823 155.806C209.794 155.735 209.791 155.656 209.817 155.584C209.864 155.392 209.852 155.19 209.784 155.004C209.775 154.98 209.776 154.953 209.787 154.929C209.798 154.906 209.818 154.887 209.843 154.878C209.867 154.869 209.895 154.87 209.919 154.881C209.943 154.891 209.962 154.911 209.971 154.935C210.037 155.113 210.059 155.302 210.037 155.49C210.152 155.386 210.282 155.298 210.421 155.229C210.433 155.222 210.446 155.218 210.459 155.217C210.472 155.215 210.486 155.217 210.499 155.221C210.512 155.224 210.524 155.231 210.534 155.239C210.544 155.248 210.552 155.258 210.558 155.27C210.565 155.282 210.568 155.295 210.569 155.308C210.57 155.321 210.568 155.334 210.563 155.347C210.559 155.359 210.552 155.371 210.543 155.38C210.534 155.39 210.523 155.398 210.511 155.403C210.309 155.507 210.131 155.649 209.988 155.823C209.979 155.834 209.967 155.843 209.954 155.849C209.941 155.855 209.926 155.858 209.911 155.858Z" fill="#292A2E"/>
</g>
<g opacity="0.05">
<path d="M205.434 146.503H205.424C205.408 146.502 205.392 146.496 205.379 146.487C205.365 146.478 205.354 146.466 205.346 146.452C205.316 146.381 205.314 146.301 205.341 146.229C205.387 146.037 205.375 145.835 205.307 145.65C205.298 145.625 205.299 145.598 205.31 145.575C205.321 145.551 205.341 145.533 205.365 145.524C205.39 145.514 205.418 145.515 205.442 145.526C205.466 145.537 205.484 145.557 205.494 145.581C205.559 145.758 205.582 145.948 205.559 146.135C205.675 146.032 205.804 145.944 205.944 145.874C205.955 145.868 205.968 145.864 205.982 145.862C205.995 145.861 206.008 145.862 206.021 145.866C206.034 145.87 206.046 145.876 206.056 145.885C206.067 145.893 206.075 145.904 206.081 145.916C206.087 145.927 206.091 145.94 206.091 145.953C206.092 145.967 206.09 145.98 206.086 145.992C206.081 146.005 206.074 146.016 206.065 146.026C206.056 146.036 206.045 146.043 206.033 146.049C205.832 146.152 205.654 146.295 205.511 146.468C205.502 146.479 205.49 146.488 205.477 146.494C205.463 146.5 205.449 146.503 205.434 146.503Z" fill="#292A2E"/>
<path d="M203.339 144.309C203.326 144.309 203.313 144.306 203.301 144.302C203.232 144.266 203.179 144.206 203.154 144.133C203.069 143.957 202.933 143.809 202.762 143.709C202.741 143.696 202.725 143.674 202.719 143.65C202.713 143.625 202.717 143.599 202.729 143.577C202.742 143.555 202.763 143.539 202.788 143.532C202.813 143.525 202.839 143.527 202.862 143.539C203.025 143.634 203.162 143.765 203.263 143.921C203.286 143.767 203.33 143.616 203.393 143.473C203.398 143.461 203.405 143.45 203.415 143.441C203.424 143.432 203.435 143.425 203.448 143.42C203.46 143.415 203.473 143.413 203.486 143.413C203.499 143.413 203.512 143.416 203.525 143.421C203.537 143.426 203.548 143.434 203.557 143.443C203.566 143.453 203.573 143.464 203.578 143.476C203.582 143.488 203.585 143.501 203.584 143.514C203.584 143.527 203.581 143.54 203.575 143.552C203.485 143.76 203.439 143.985 203.438 144.212C203.438 144.237 203.428 144.262 203.409 144.28C203.39 144.299 203.365 144.309 203.339 144.309Z" fill="#292A2E"/>
<path d="M203.003 146.644C202.99 146.644 202.977 146.641 202.965 146.636C202.896 146.6 202.843 146.54 202.818 146.467C202.733 146.291 202.597 146.144 202.426 146.044C202.415 146.038 202.405 146.029 202.397 146.019C202.389 146.009 202.383 145.997 202.38 145.985C202.373 145.959 202.377 145.933 202.39 145.91C202.403 145.888 202.425 145.871 202.45 145.864C202.476 145.858 202.503 145.861 202.526 145.874C202.689 145.968 202.826 146.099 202.927 146.256C202.95 146.102 202.994 145.951 203.057 145.808C203.067 145.784 203.087 145.765 203.112 145.756C203.136 145.746 203.164 145.747 203.188 145.757C203.212 145.768 203.231 145.787 203.241 145.811C203.251 145.835 203.25 145.862 203.239 145.886C203.149 146.095 203.103 146.32 203.102 146.547C203.102 146.572 203.092 146.597 203.073 146.615C203.054 146.634 203.029 146.644 203.003 146.644Z" fill="#292A2E"/>
<path d="M204.723 149.407C204.699 149.407 204.675 149.398 204.657 149.382C204.639 149.366 204.627 149.344 204.624 149.321C204.622 149.244 204.649 149.17 204.7 149.112C204.813 148.95 204.875 148.758 204.88 148.561C204.88 148.535 204.89 148.511 204.909 148.493C204.928 148.474 204.953 148.464 204.979 148.464C204.992 148.464 205.005 148.467 205.017 148.472C205.029 148.477 205.04 148.484 205.049 148.493C205.059 148.503 205.066 148.514 205.071 148.525C205.076 148.537 205.078 148.55 205.078 148.563C205.075 148.753 205.026 148.939 204.936 149.106C205.082 149.052 205.236 149.017 205.391 149.004C205.418 149.002 205.443 149.011 205.463 149.027C205.483 149.044 205.496 149.068 205.499 149.093C205.5 149.106 205.498 149.119 205.494 149.131C205.491 149.144 205.484 149.155 205.476 149.165C205.467 149.175 205.457 149.183 205.445 149.189C205.434 149.195 205.421 149.198 205.408 149.199C205.184 149.22 204.967 149.287 204.77 149.396C204.756 149.403 204.74 149.407 204.723 149.407Z" fill="#292A2E"/>
<path d="M202.638 148.799C202.568 148.792 202.502 148.763 202.45 148.716C202.294 148.599 202.105 148.532 201.909 148.523C201.896 148.523 201.883 148.52 201.871 148.515C201.859 148.509 201.848 148.502 201.84 148.492C201.831 148.483 201.824 148.472 201.819 148.46C201.814 148.448 201.812 148.435 201.813 148.422C201.813 148.409 201.816 148.396 201.821 148.384C201.826 148.373 201.834 148.362 201.843 148.353C201.853 148.344 201.864 148.337 201.877 148.333C201.889 148.329 201.902 148.327 201.915 148.327C202.103 148.335 202.286 148.387 202.449 148.48C202.398 148.331 202.367 148.175 202.357 148.018C202.356 147.992 202.365 147.967 202.382 147.947C202.4 147.928 202.424 147.916 202.451 147.915C202.464 147.913 202.477 147.915 202.49 147.918C202.502 147.922 202.514 147.929 202.524 147.938C202.534 147.946 202.542 147.957 202.547 147.969C202.552 147.981 202.555 147.993 202.556 148.006C202.571 148.233 202.633 148.453 202.737 148.656C202.744 148.67 202.748 148.685 202.747 148.701C202.747 148.717 202.743 148.733 202.735 148.746C202.727 148.76 202.716 148.772 202.703 148.781C202.689 148.79 202.674 148.795 202.658 148.797C202.651 148.798 202.645 148.798 202.638 148.799Z" fill="#292A2E"/>
</g>
<path d="M194.41 159.629H175.667V164.992H194.41V159.629Z" fill="#F4F4F4"/>
<path opacity="0.05" d="M191.893 159.629H189.438V164.992H191.893V159.629Z" fill="#292A2E"/>
<path d="M188.274 160.794H178.062V163.972H188.274V160.794Z" fill="white"/>
<path d="M178.133 152.848L160.718 160.329L162.9 165.243L180.316 157.763L178.133 152.848Z" fill="#F4F4F4"/>
<path opacity="0.05" d="M178.133 152.848L160.718 160.329L162.9 165.243L180.316 157.763L178.133 152.848Z" fill="#292A2E"/>
<path d="M165.338 158.344L163.056 159.324L165.239 164.239L167.521 163.259L165.338 158.344Z" fill="white"/>
<path d="M176.382 154.872L166.893 158.948L168.187 161.86L177.675 157.785L176.382 154.872Z" fill="white"/>
<path opacity="0.05" d="M165.395 212.198H160.685V215.291H165.395V212.198Z" fill="#292A2E"/>
<path opacity="0.05" d="M234.551 212.198H229.841V215.291H234.551V212.198Z" fill="#292A2E"/>
<path d="M238.869 165.066H156.367V212.198H238.869V165.066Z" fill="#F4F4F4"/>
<path opacity="0.03" d="M238.869 165.066H156.367V212.198H238.869V165.066Z" fill="#292A2E"/>
<path d="M227.472 165.066H144.97V212.198H227.472V165.066Z" fill="#F4F4F4"/>
<path opacity="0.05" d="M153.998 212.198H149.287V215.291H153.998V212.198Z" fill="#292A2E"/>
<path opacity="0.05" d="M223.154 212.198H218.444V215.291H223.154V212.198Z" fill="#292A2E"/>
<path opacity="0.7" d="M225.163 167.98H147.278V179.934H225.163V167.98Z" fill="white"/>
<path opacity="0.7" d="M225.163 182.86H147.278V194.814H225.163V182.86Z" fill="white"/>
<path opacity="0.7" d="M225.163 197.739H147.278V209.693H225.163V197.739Z" fill="white"/>
<path opacity="0.05" d="M161.054 175.63C161.993 175.63 162.754 174.881 162.754 173.957C162.754 173.034 161.993 172.285 161.054 172.285C160.114 172.285 159.353 173.034 159.353 173.957C159.353 174.881 160.114 175.63 161.054 175.63Z" fill="#292A2E"/>
<path opacity="0.05" d="M211.388 175.63C212.327 175.63 213.088 174.881 213.088 173.957C213.088 173.034 212.327 172.285 211.388 172.285C210.448 172.285 209.687 173.034 209.687 173.957C209.687 174.881 210.448 175.63 211.388 175.63Z" fill="#292A2E"/>
<path opacity="0.05" d="M161.054 190.51C161.993 190.51 162.754 189.761 162.754 188.837C162.754 187.913 161.993 187.164 161.054 187.164C160.114 187.164 159.353 187.913 159.353 188.837C159.353 189.761 160.114 190.51 161.054 190.51Z" fill="#292A2E"/>
<path opacity="0.05" d="M211.388 190.51C212.327 190.51 213.088 189.761 213.088 188.837C213.088 187.913 212.327 187.164 211.388 187.164C210.448 187.164 209.687 187.913 209.687 188.837C209.687 189.761 210.448 190.51 211.388 190.51Z" fill="#292A2E"/>
<path opacity="0.05" d="M161.054 205.389C161.993 205.389 162.754 204.64 162.754 203.717C162.754 202.793 161.993 202.044 161.054 202.044C160.114 202.044 159.353 202.793 159.353 203.717C159.353 204.64 160.114 205.389 161.054 205.389Z" fill="#292A2E"/>
<path opacity="0.05" d="M211.388 205.389C212.327 205.389 213.088 204.64 213.088 203.717C213.088 202.793 212.327 202.044 211.388 202.044C210.448 202.044 209.687 202.793 209.687 203.717C209.687 204.64 210.448 205.389 211.388 205.389Z" fill="#292A2E"/>
<path d="M215.481 52.4361H179.114V98.9858H215.481V52.4361Z" fill="#F4F4F4"/>
<path d="M215.48 98.9858H216.66V52.4361H215.48V98.9858Z" fill="#F4F4F4"/>
<path opacity="0.05" d="M215.48 98.9858H216.66V52.4361H215.48V98.9858Z" fill="#292A2E"/>
<path opacity="0.05" d="M208.856 60.9158H185.739V90.5063H208.856V60.9158Z" fill="#292A2E"/>
<path opacity="0.03" d="M208.856 60.9158H207.651V90.5063H208.856V60.9158Z" fill="#292A2E"/>
<path d="M245.222 110.433H215.48V139.95H245.222V110.433Z" fill="#F4F4F4"/>
<path opacity="0.05" d="M239.804 115.81H220.898V134.573H239.804V115.81Z" fill="#292A2E"/>
<path d="M245.222 139.95H246.402V110.433H245.222V139.95Z" fill="#F4F4F4"/>
<path opacity="0.05" d="M245.222 139.95H246.402V110.433H245.222V139.95Z" fill="#292A2E"/>
<path opacity="0.03" d="M239.804 115.81H238.599V134.573H239.804V115.81Z" fill="#292A2E"/>
<path d="M100.914 62.0266H25.0231V136.658H100.914V62.0266Z" fill="#F4F4F4"/>
<path d="M101.784 62.0266H100.914V136.658H101.784V62.0266Z" fill="#F4F4F4"/>
<path opacity="0.05" d="M101.784 62.0266H100.914V136.658H101.784V62.0266Z" fill="#292A2E"/>
<path opacity="0.05" d="M82.5291 113.454V93.9279H66.2645V105.272H41.0706V125.358H30.3628V136.658H41.0706H43.1333H97.2632V113.454H82.5291Z" fill="#292A2E"/>
<path opacity="0.34" d="M80.1962 96.0479H68.3522V98.1679H80.1962V96.0479Z" fill="#FFFFFA"/>
<path opacity="0.34" d="M80.1962 100.441H68.3522V102.561H80.1962V100.441Z" fill="#FFFFFA"/>
<path opacity="0.34" d="M80.1962 104.834H68.3522V106.954H80.1962V104.834Z" fill="#FFFFFA"/>
<path opacity="0.34" d="M95.1632 115.512H92.9801V117.632H95.1632V115.512Z" fill="#FFFFFA"/>
<path opacity="0.34" d="M95.1632 119.905H92.9801V122.025H95.1632V119.905Z" fill="#FFFFFA"/>
<path opacity="0.34" d="M95.1632 124.298H92.9801V126.418H95.1632V124.298Z" fill="#FFFFFA"/>
<path opacity="0.34" d="M91.1246 115.512H88.9415V117.632H91.1246V115.512Z" fill="#FFFFFA"/>
<path opacity="0.34" d="M91.1246 119.905H88.9415V122.025H91.1246V119.905Z" fill="#FFFFFA"/>
<path opacity="0.34" d="M91.1246 124.298H88.9415V126.418H91.1246V124.298Z" fill="#FFFFFA"/>
<path opacity="0.34" d="M87.1952 115.512H85.0121V117.632H87.1952V115.512Z" fill="#FFFFFA"/>
<path opacity="0.34" d="M87.1952 119.905H85.0121V122.025H87.1952V119.905Z" fill="#FFFFFA"/>
<path opacity="0.34" d="M87.1952 124.298H85.0121V126.418H87.1952V124.298Z" fill="#FFFFFA"/>
<path d="M100.914 98.9238H85.6435V62.0266H84.3807V98.9238H43.1334V62.0266H41.8706V98.9238H25.0231V100.166H41.8706V136.658H43.1334V100.166H84.3807V136.658H85.6435V100.166H100.914V98.9238Z" fill="white"/>
<path d="M103.937 136.568H22V139.05H103.937V136.568Z" fill="#F4F4F4"/>
<path opacity="0.1" d="M103.937 136.568H22V139.05H103.937V136.568Z" fill="#292A2E"/>
<path opacity="0.1" d="M105.12 136.568H103.937V139.05H105.12V136.568Z" fill="#292A2E"/>
<path opacity="0.1" d="M105.12 136.568H103.937V139.05H105.12V136.568Z" fill="#292A2E"/>
<path d="M54.8777 150.7L189.255 150.7C192.555 150.7 195.23 148.069 195.23 144.824V48.0716C195.23 44.8264 192.555 42.1957 189.255 42.1957L54.8777 42.1957C51.5778 42.1957 48.9026 44.8264 48.9026 48.0716V144.824C48.9026 148.069 51.5778 150.7 54.8777 150.7Z" fill="white"/>
<path d="M48.7034 144.824V48.0719C48.7052 46.4622 49.3562 44.9188 50.5136 43.7805C51.671 42.6422 53.2403 42.0019 54.8772 42H189.255C190.892 42.0018 192.461 42.6421 193.618 43.7804C194.776 44.9188 195.427 46.4621 195.429 48.0719V144.824C195.427 146.433 194.776 147.977 193.618 149.115C192.461 150.253 190.892 150.894 189.255 150.895H54.8772C53.2404 150.893 51.6711 150.253 50.5137 149.115C49.3563 147.977 48.7052 146.433 48.7034 144.824ZM54.8772 42.3917C53.3459 42.3935 51.8778 42.9925 50.795 44.0573C49.7122 45.1222 49.1032 46.566 49.1014 48.0719V144.824C49.1031 146.33 49.7122 147.773 50.795 148.838C51.8778 149.903 53.3459 150.502 54.8772 150.504H189.255C190.786 150.502 192.254 149.903 193.337 148.838C194.42 147.773 195.029 146.33 195.03 144.824V48.0719C195.029 46.566 194.42 45.1222 193.337 44.0573C192.254 42.9924 190.786 42.3934 189.255 42.3917H54.8772Z" fill="#292A2E"/>
<path d="M48.9038 48.071V53.9837H195.23V48.071C195.23 47.2993 195.075 46.5352 194.775 45.8222C194.474 45.1093 194.034 44.4615 193.479 43.9158C192.924 43.3702 192.266 42.9374 191.541 42.6421C190.816 42.3469 190.039 42.195 189.254 42.1951H54.8772C53.2928 42.1955 51.7735 42.8148 50.6533 43.9167C49.5331 45.0186 48.9038 46.5129 48.9038 48.071Z" fill="#292A2E"/>
<path d="M147.891 123.908H181.483L186.556 127.645V108.147C186.556 107.769 186.48 107.396 186.333 107.047C186.186 106.699 185.971 106.382 185.7 106.115C185.429 105.848 185.107 105.637 184.752 105.492C184.398 105.348 184.018 105.274 183.634 105.274H147.891C147.507 105.274 147.127 105.348 146.773 105.492C146.418 105.637 146.096 105.848 145.825 106.115C145.553 106.382 145.338 106.698 145.191 107.047C145.044 107.396 144.969 107.769 144.969 108.147V121.035C144.969 121.413 145.044 121.786 145.191 122.135C145.338 122.484 145.553 122.8 145.825 123.067C146.096 123.334 146.418 123.546 146.773 123.69C147.127 123.834 147.507 123.908 147.891 123.908Z" fill="#367CFF"/>
<path opacity="0.11" d="M147.891 123.908H181.483L186.556 127.645V108.147C186.556 107.769 186.48 107.396 186.333 107.047C186.186 106.699 185.971 106.382 185.7 106.115C185.429 105.848 185.107 105.637 184.752 105.492C184.398 105.348 184.018 105.274 183.634 105.274H147.891C147.507 105.274 147.127 105.348 146.773 105.492C146.418 105.637 146.096 105.848 145.825 106.115C145.553 106.382 145.338 106.698 145.191 107.047C145.044 107.396 144.969 107.769 144.969 108.147V121.035C144.969 121.413 145.044 121.786 145.191 122.135C145.338 122.484 145.553 122.8 145.825 123.067C146.096 123.334 146.418 123.546 146.773 123.69C147.127 123.834 147.507 123.908 147.891 123.908Z" fill="white"/>
<path opacity="0.49" d="M147.891 123.908H181.483L186.556 127.645V108.147C186.556 107.769 186.48 107.396 186.333 107.047C186.186 106.699 185.971 106.382 185.7 106.115C185.429 105.848 185.107 105.637 184.752 105.492C184.398 105.348 184.018 105.274 183.634 105.274H147.891C147.507 105.274 147.127 105.348 146.773 105.492C146.418 105.637 146.096 105.848 145.825 106.115C145.553 106.382 145.338 106.698 145.191 107.047C145.044 107.396 144.969 107.769 144.969 108.147V121.035C144.969 121.413 145.044 121.786 145.191 122.135C145.338 122.484 145.553 122.8 145.825 123.067C146.096 123.334 146.418 123.546 146.773 123.69C147.127 123.834 147.507 123.908 147.891 123.908Z" fill="white"/>
<path d="M148.55 113.029H182.975C182.992 113.03 183.009 113.027 183.025 113.021C183.041 113.015 183.056 113.006 183.068 112.994C183.081 112.983 183.091 112.969 183.097 112.953C183.104 112.938 183.108 112.921 183.108 112.904C183.108 112.887 183.104 112.871 183.097 112.855C183.091 112.84 183.081 112.826 183.068 112.814C183.056 112.802 183.041 112.793 183.025 112.787C183.009 112.781 182.992 112.779 182.975 112.779H148.55C148.533 112.779 148.516 112.781 148.5 112.787C148.484 112.793 148.469 112.802 148.457 112.814C148.444 112.826 148.435 112.84 148.428 112.855C148.421 112.871 148.418 112.887 148.418 112.904C148.418 112.921 148.421 112.938 148.428 112.953C148.435 112.969 148.444 112.983 148.457 112.994C148.469 113.006 148.484 113.015 148.5 113.021C148.516 113.027 148.533 113.03 148.55 113.029Z" fill="white"/>
<path d="M148.55 109.473H182.975C182.992 109.473 183.009 109.471 183.025 109.465C183.041 109.459 183.056 109.45 183.068 109.438C183.081 109.426 183.091 109.412 183.097 109.397C183.104 109.381 183.108 109.365 183.108 109.348C183.108 109.331 183.104 109.314 183.097 109.299C183.091 109.283 183.081 109.269 183.068 109.257C183.056 109.246 183.041 109.237 183.025 109.231C183.009 109.225 182.992 109.222 182.975 109.223H148.55C148.533 109.222 148.516 109.225 148.5 109.231C148.484 109.237 148.469 109.246 148.457 109.257C148.444 109.269 148.435 109.283 148.428 109.299C148.421 109.314 148.418 109.331 148.418 109.348C148.418 109.365 148.421 109.381 148.428 109.397C148.435 109.412 148.444 109.426 148.457 109.438C148.469 109.45 148.484 109.459 148.5 109.465C148.516 109.471 148.533 109.473 148.55 109.473Z" fill="white"/>
<path d="M148.55 116.779H182.975C182.992 116.779 183.009 116.777 183.025 116.771C183.041 116.765 183.056 116.756 183.068 116.744C183.081 116.732 183.091 116.718 183.097 116.703C183.104 116.687 183.108 116.671 183.108 116.654C183.108 116.637 183.104 116.62 183.097 116.605C183.091 116.589 183.081 116.575 183.068 116.563C183.056 116.552 183.041 116.543 183.025 116.537C183.009 116.531 182.992 116.528 182.975 116.529H148.55C148.533 116.528 148.516 116.531 148.5 116.537C148.484 116.543 148.469 116.552 148.457 116.563C148.444 116.575 148.435 116.589 148.428 116.605C148.421 116.62 148.418 116.637 148.418 116.654C148.418 116.671 148.421 116.687 148.428 116.703C148.435 116.718 148.444 116.732 148.457 116.744C148.469 116.756 148.484 116.765 148.5 116.771C148.516 116.777 148.533 116.779 148.55 116.779Z" fill="white"/>
<path d="M148.55 120.528H168.995C169.028 120.527 169.059 120.513 169.082 120.49C169.104 120.466 169.117 120.435 169.117 120.403C169.117 120.371 169.104 120.34 169.082 120.317C169.059 120.293 169.028 120.28 168.995 120.278H148.55C148.533 120.277 148.516 120.28 148.5 120.286C148.484 120.292 148.469 120.301 148.457 120.313C148.444 120.325 148.435 120.339 148.428 120.354C148.421 120.37 148.418 120.386 148.418 120.403C148.418 120.42 148.421 120.437 148.428 120.452C148.435 120.468 148.444 120.482 148.457 120.493C148.469 120.505 148.484 120.514 148.5 120.52C148.516 120.526 148.533 120.529 148.55 120.528Z" fill="white"/>
<path d="M145.846 95.8435H181.826L186.555 99.3266V84.5923C186.555 83.8821 186.268 83.2009 185.757 82.6986C185.247 82.1964 184.554 81.9142 183.832 81.9142H145.844C145.122 81.9142 144.429 82.1964 143.919 82.6986C143.408 83.2009 143.121 83.8821 143.121 84.5923V93.1654C143.121 93.5172 143.191 93.8656 143.328 94.1906C143.465 94.5156 143.666 94.8109 143.919 95.0596C144.172 95.3083 144.473 95.5055 144.803 95.6401C145.134 95.7746 145.488 95.8437 145.846 95.8435Z" fill="#367CFF"/>
<path opacity="0.11" d="M145.846 95.8435H181.826L186.555 99.3266V84.5923C186.555 83.8821 186.268 83.2009 185.757 82.6986C185.247 82.1964 184.554 81.9142 183.832 81.9142H145.844C145.122 81.9142 144.429 82.1964 143.919 82.6986C143.408 83.2009 143.121 83.8821 143.121 84.5923V93.1654C143.121 93.5172 143.191 93.8656 143.328 94.1906C143.465 94.5156 143.666 94.8109 143.919 95.0596C144.172 95.3083 144.473 95.5055 144.803 95.6401C145.134 95.7746 145.488 95.8437 145.846 95.8435Z" fill="white"/>
<path opacity="0.49" d="M145.846 95.8435H181.826L186.555 99.3266V84.5923C186.555 83.8821 186.268 83.2009 185.757 82.6986C185.247 82.1964 184.554 81.9142 183.832 81.9142H145.844C145.122 81.9142 144.429 82.1964 143.919 82.6986C143.408 83.2009 143.121 83.8821 143.121 84.5923V93.1654C143.121 93.5172 143.191 93.8656 143.328 94.1906C143.465 94.5156 143.666 94.8109 143.919 95.0596C144.172 95.3083 144.473 95.5055 144.803 95.6401C145.134 95.7746 145.488 95.8437 145.846 95.8435Z" fill="white"/>
<path d="M146.46 85.7018H183.218C183.248 85.7004 183.277 85.6876 183.298 85.6659C183.319 85.6442 183.331 85.6153 183.331 85.5853C183.331 85.5553 183.319 85.5264 183.298 85.5048C183.277 85.4831 183.248 85.4702 183.218 85.4689H146.46C146.43 85.4702 146.401 85.4831 146.38 85.5048C146.359 85.5264 146.347 85.5553 146.347 85.5853C146.347 85.6153 146.359 85.6442 146.38 85.6659C146.401 85.6876 146.43 85.7004 146.46 85.7018Z" fill="white"/>
<path d="M146.46 89.197H183.218C183.248 89.1957 183.277 89.1828 183.298 89.1611C183.319 89.1394 183.331 89.1106 183.331 89.0806C183.331 89.0505 183.319 89.0217 183.298 89C183.277 88.9783 183.248 88.9654 183.218 88.9641H146.46C146.43 88.9654 146.401 88.9783 146.38 89C146.359 89.0217 146.347 89.0505 146.347 89.0806C146.347 89.1106 146.359 89.1394 146.38 89.1611C146.401 89.1828 146.43 89.1957 146.46 89.197Z" fill="white"/>
<path d="M146.46 92.6923H170.186C170.202 92.6929 170.218 92.6905 170.233 92.6849C170.248 92.6794 170.261 92.6709 170.273 92.66C170.285 92.6491 170.294 92.6361 170.3 92.6216C170.306 92.6071 170.31 92.5915 170.31 92.5758C170.31 92.5601 170.306 92.5445 170.3 92.53C170.294 92.5155 170.285 92.5024 170.273 92.4916C170.261 92.4807 170.248 92.4722 170.233 92.4667C170.218 92.4611 170.202 92.4586 170.186 92.4593H146.46C146.43 92.4607 146.401 92.4735 146.38 92.4952C146.359 92.5169 146.347 92.5458 146.347 92.5758C146.347 92.6058 146.359 92.6347 146.38 92.6564C146.401 92.6781 146.43 92.6909 146.46 92.6923Z" fill="white"/>
<path d="M228.062 215.864C228.062 215.864 227.009 221.234 221.896 221.534C216.783 221.834 217.891 225.839 217.891 225.839H237.431V216.239L228.062 215.864Z" fill="#367CFF"/>
<path d="M238.756 117.898C238.756 117.898 238.695 116.284 238.707 119.946C238.756 133.606 238.293 219.292 238.293 219.292L225.454 219.185L217.677 117.343L238.756 117.898Z" fill="#262626"/>
<path d="M206.137 215.864C206.137 215.864 205.084 221.234 199.971 221.534C194.858 221.834 195.967 225.839 195.967 225.839H215.507V216.239L206.137 215.864Z" fill="#367CFF"/>
<path d="M203.653 118.959C203.653 118.959 202.049 165.645 202.216 167.927L203.724 218.937L216.352 219.166L218.388 166.081C218.388 166.081 219.722 151.438 223.32 137.84C225.161 130.861 226.269 123.715 226.626 116.514L203.653 118.959Z" fill="#262626"/>
<path d="M220.313 152.059L219.26 136.224C219.26 136.224 218.179 142.807 218.179 148.481C218.179 151.255 218.76 162.236 218.76 162.236L220.313 152.059Z" fill="#0A0A0A"/>
<path d="M238.895 117.897L238.938 117.899C238.938 117.899 238.907 117.103 238.895 117.897Z" fill="#333333"/>
<path d="M238.843 117.897L238.885 117.899C238.885 117.899 238.854 117.103 238.843 117.897Z" fill="#333333"/>
<path d="M168.485 80.0032C168.563 79.8526 168.685 79.7292 168.837 79.6503C168.989 79.5713 169.162 79.5406 169.332 79.5624C169.33 79.5476 169.334 79.5327 169.341 79.5197C169.349 79.5097 169.359 79.5019 169.371 79.4971C169.383 79.4923 169.396 79.4907 169.409 79.4924L168.835 79.0877C168.663 78.9721 168.54 78.7991 168.487 78.6008C168.435 78.4025 168.458 78.1923 168.551 78.0092C168.649 77.8311 168.81 77.6951 169.004 77.6276C169.198 77.5602 169.411 77.566 169.601 77.6441C169.599 77.6361 169.605 77.6285 169.606 77.6211L169.37 77.4548C169.209 77.3452 169.091 77.1841 169.036 76.9988C168.982 76.8135 168.994 76.6154 169.071 76.438C169.122 76.3278 169.196 76.2299 169.29 76.1515C169.384 76.0732 169.494 76.0162 169.613 75.9848C169.732 75.9534 169.856 75.9483 169.977 75.9699C170.098 75.9915 170.213 76.0392 170.313 76.1096L170.857 76.4933C170.859 76.4901 170.857 76.4864 170.859 76.4834C170.861 76.4805 170.867 76.4795 170.87 76.4763C170.745 76.338 170.672 76.162 170.662 75.9772C170.652 75.7925 170.706 75.6099 170.816 75.4593C171.072 75.0527 171.666 75.1358 172.018 75.3838L175.222 77.5606L174.65 76.6124C174.534 76.4299 174.494 76.2112 174.536 76.0005C174.579 75.7897 174.7 75.6026 174.877 75.4768C174.971 75.4151 175.077 75.3728 175.188 75.3526C175.299 75.3323 175.413 75.3345 175.523 75.359C175.633 75.3834 175.737 75.4297 175.828 75.4949C175.919 75.5602 175.996 75.643 176.054 75.7384L179.18 80.9158C179.547 81.5232 179.659 82.2473 179.491 82.9343C179.324 83.6213 178.891 84.2171 178.284 84.5951C177.58 85.0334 176.759 85.2549 175.926 85.2314C175.094 85.2079 174.287 84.9404 173.61 84.4631L168.771 81.0521C168.61 80.9345 168.494 80.7669 168.442 80.5765C168.391 80.3862 168.406 80.1841 168.485 80.0032Z" fill="#E98862"/>
<g opacity="0.25">
<path d="M174.028 78.6443C174.016 78.6602 173.999 78.6709 173.979 78.6742C173.959 78.6775 173.939 78.6731 173.922 78.662L170.878 76.5881C170.869 76.5826 170.862 76.5755 170.856 76.5671C170.85 76.5587 170.846 76.5493 170.844 76.5393C170.842 76.5293 170.842 76.519 170.844 76.5091C170.846 76.4991 170.85 76.4896 170.856 76.4813C170.862 76.4729 170.869 76.4658 170.878 76.4604C170.887 76.455 170.897 76.4514 170.907 76.4498C170.917 76.4482 170.928 76.4486 170.938 76.4511C170.948 76.4536 170.957 76.458 170.965 76.4642L174.01 78.5381C174.026 78.5495 174.038 78.5669 174.041 78.5866C174.045 78.6062 174.041 78.6265 174.029 78.643L174.028 78.6443Z" fill="#0C0C0C"/>
</g>
<g opacity="0.25">
<path d="M173.135 79.9899C173.123 80.0059 173.106 80.0166 173.086 80.0199C173.066 80.0232 173.046 80.0188 173.029 80.0076L169.633 77.6932C169.616 77.6818 169.604 77.6644 169.601 77.6447C169.597 77.6251 169.602 77.6048 169.613 77.5883C169.625 77.5725 169.643 77.5617 169.663 77.5582C169.682 77.5547 169.703 77.5586 169.72 77.5693L173.117 79.8848C173.133 79.8962 173.145 79.9137 173.148 79.9333C173.152 79.953 173.148 79.9733 173.136 79.9897L173.135 79.9899Z" fill="#0C0C0C"/>
</g>
<g opacity="0.25">
<path d="M172.176 81.453C172.164 81.469 172.147 81.4798 172.127 81.4831C172.107 81.4864 172.087 81.4819 172.07 81.4707L169.36 79.6246C169.352 79.619 169.345 79.6118 169.339 79.6035C169.334 79.5952 169.33 79.5859 169.328 79.5761C169.326 79.5664 169.327 79.5564 169.329 79.5467C169.331 79.5371 169.335 79.5279 169.341 79.5198C169.346 79.5116 169.354 79.5047 169.362 79.4993C169.371 79.494 169.38 79.4903 169.39 79.4885C169.4 79.4867 169.41 79.4869 169.42 79.489C169.43 79.4911 169.439 79.4951 169.447 79.5007L172.158 81.3468C172.174 81.3582 172.186 81.3756 172.189 81.3953C172.193 81.4149 172.189 81.4352 172.177 81.4516L172.176 81.453Z" fill="#0C0C0C"/>
</g>
<path d="M181.025 79.7363L190.209 95.1181L201.415 80.6636L210.722 88.9145L194.829 109.156L194.725 109.3C194.089 110.157 193.241 110.84 192.262 111.286C191.283 111.732 190.205 111.925 189.129 111.847C188.053 111.77 187.015 111.424 186.112 110.843C185.209 110.262 184.472 109.465 183.97 108.526L170.91 85.2685L181.025 79.7363Z" fill="#367CFF"/>
<path d="M191.11 96.9676C191.128 96.9677 191.146 96.9634 191.163 96.955C191.19 96.9412 191.211 96.9171 191.221 96.8882C191.23 96.8593 191.228 96.8279 191.214 96.8008L190.313 95.0658C190.307 95.0519 190.297 95.0395 190.285 95.0293C190.274 95.0191 190.26 95.0113 190.245 95.0063C190.231 95.0014 190.215 94.9994 190.199 95.0005C190.184 95.0017 190.169 95.0058 190.155 95.0128C190.141 95.0198 190.129 95.0295 190.118 95.0412C190.108 95.053 190.101 95.0666 190.096 95.0813C190.092 95.096 190.09 95.1114 190.092 95.1267C190.093 95.1419 190.098 95.1567 190.106 95.1702L191.006 96.9052C191.016 96.924 191.03 96.9398 191.049 96.9508C191.067 96.9618 191.088 96.9676 191.11 96.9676Z" fill="#0C0C0C"/>
<path d="M231.654 59.8706C231.654 59.8706 232.084 65.2782 233.345 67.2277C236.976 72.8395 238.083 79.1868 234.553 82.5494C231.023 85.912 208.256 86.2174 206.442 78.5959C204.915 72.1794 208.023 71.4522 208.718 66.1359C209.033 63.7307 209.918 58.6849 209.918 58.6849" fill="#0A0A0A"/>
<path d="M212.24 77.3776C212.279 77.3726 212.715 84.489 221.122 83.8685C226.942 83.4399 229.017 77.3675 229.151 77.3675C228.523 77.2363 227.467 77.0463 227.188 76.8994C226.271 76.415 225.137 75.9114 224.842 74.161C224.672 73.1513 224.961 67.9918 224.872 66.9711L215.938 68.9321C216.063 71.0875 216.937 76.0846 213.874 76.969C213.364 77.1154 212.815 77.2498 212.24 77.3776Z" fill="#E98862"/>
<path opacity="0.52" d="M215.812 74.9267C215.952 74.4833 216.042 74.026 216.08 73.5632C216.179 72.5072 216.159 71.4437 216.022 70.3918C217.838 70.1509 219.548 69.414 220.96 68.2646C221.125 68.867 222.038 71.5001 221.785 72.0722C221.308 73.1546 219.064 74.9267 215.812 74.9267Z" fill="#0C0C0C"/>
<path d="M216.996 72.6869C220.522 72.982 225.062 71.5449 225.952 66.9216L226.755 62.7502C227.644 58.1271 225.896 53.9199 221.47 53.0961C217.044 52.2723 213.014 55.4043 212.125 60.0273L211.769 61.8743C211.428 63.6481 210.705 72.1606 216.996 72.6869Z" fill="#E98862"/>
<path d="M213.031 62.0755C213.337 62.0755 213.586 61.8312 213.586 61.5298C213.586 61.2284 213.337 60.9841 213.031 60.9841C212.724 60.9841 212.476 61.2284 212.476 61.5298C212.476 61.8312 212.724 62.0755 213.031 62.0755Z" fill="#0C0C0C"/>
<path d="M218.715 62.8222C219.022 62.8222 219.27 62.5779 219.27 62.2765C219.27 61.9751 219.022 61.7308 218.715 61.7308C218.409 61.7308 218.16 61.9751 218.16 62.2765C218.16 62.5779 218.409 62.8222 218.715 62.8222Z" fill="#0C0C0C"/>
<path opacity="0.52" d="M215.596 66.2775L215.587 66.2761C215.408 66.2414 215.23 66.197 215.056 66.1432C214.796 66.0608 214.455 65.9245 214.499 65.6935C214.55 65.43 215.831 62.7244 215.977 62.4167C215.983 62.4034 215.992 62.3914 216.003 62.3815C216.014 62.3716 216.027 62.3639 216.041 62.3589C216.055 62.3539 216.07 62.3516 216.085 62.3523C216.1 62.3529 216.114 62.3565 216.128 62.3627C216.141 62.3689 216.153 62.3776 216.163 62.3885C216.174 62.3993 216.181 62.412 216.186 62.4258C216.192 62.4396 216.194 62.4542 216.193 62.4689C216.193 62.4835 216.189 62.4979 216.183 62.5112C215.636 63.6634 214.757 65.5576 214.723 65.735C214.752 65.8172 215.184 65.9734 215.629 66.0563C215.658 66.0613 215.684 66.0773 215.702 66.101C215.719 66.1246 215.726 66.154 215.722 66.1829C215.718 66.2117 215.702 66.2377 215.678 66.2554C215.655 66.273 215.625 66.2811 215.596 66.2775Z" fill="#0C0C0C"/>
<path opacity="0.52" d="M216.251 68.2738C215.529 68.1816 214.839 67.9239 214.237 67.5214C214.225 67.5134 214.214 67.503 214.205 67.4909C214.197 67.4788 214.191 67.4652 214.188 67.4508C214.185 67.4365 214.185 67.4217 214.187 67.4072C214.19 67.3928 214.196 67.3791 214.204 67.3668C214.212 67.3545 214.223 67.3439 214.235 67.3356C214.247 67.3273 214.261 67.3215 214.276 67.3184C214.29 67.3154 214.305 67.3152 214.32 67.3179C214.335 67.3206 214.349 67.3262 214.361 67.3342C215.664 68.169 216.959 68.3039 218.105 67.7243C218.129 67.7119 218.152 67.7007 218.177 67.6908C218.205 67.6807 218.236 67.6821 218.264 67.6947C218.291 67.7073 218.312 67.7301 218.322 67.758C218.333 67.7859 218.331 67.8167 218.318 67.8435C218.305 67.8704 218.282 67.8911 218.254 67.9012C218.245 67.9049 218.231 67.9127 218.209 67.9241C217.607 68.2298 216.925 68.3516 216.251 68.2738Z" fill="#0C0C0C"/>
<path d="M230.296 64.204L226.329 63.4886C223.324 62.2928 222.415 57.1782 222.415 57.1782C222.415 57.1782 218.765 60.6767 209.919 58.687C209.919 58.687 211.693 46.5556 224.761 50.082C228.975 51.2195 231.999 55.3953 231.621 60.9764C231.357 64.8871 230.296 64.204 230.296 64.204Z" fill="#0A0A0A"/>
<path d="M225.406 68.2789C226.751 68.5292 228.114 67.3169 228.369 65.9943C228.625 64.6717 227.674 63.7389 226.329 63.4885L225.465 64.2458L224.251 68.0634L225.406 68.2789Z" fill="#E98862"/>
<path d="M215.166 60.2053C214.774 59.9563 214.32 59.8156 213.854 59.7978C213.624 59.7878 213.394 59.8118 213.171 59.8689C212.951 59.9245 212.739 60.0073 212.539 60.1152C212.512 60.1294 212.492 60.1533 212.483 60.182C212.473 60.2106 212.475 60.2417 212.488 60.2688C212.502 60.296 212.525 60.317 212.554 60.3275C212.583 60.338 212.614 60.3373 212.642 60.3253L212.651 60.3217C212.835 60.2327 213.03 60.1667 213.231 60.1252C213.43 60.0834 213.634 60.0714 213.836 60.0897C214.237 60.1227 214.623 60.2596 214.953 60.4864L214.963 60.494C214.982 60.5076 215.004 60.5173 215.027 60.5227C215.05 60.5281 215.073 60.529 215.096 60.5254C215.119 60.5218 215.142 60.5138 215.162 60.5017C215.182 60.4897 215.199 60.4739 215.213 60.4552C215.227 60.4366 215.237 60.4154 215.242 60.393C215.248 60.3706 215.248 60.3473 215.245 60.3245C215.241 60.3018 215.233 60.2799 215.221 60.2603C215.208 60.2406 215.192 60.2235 215.173 60.2099L215.166 60.2053Z" fill="#0C0C0C"/>
<path d="M218.705 61.0248C219.096 60.9306 219.505 60.9397 219.892 61.0514C220.087 61.1065 220.273 61.1902 220.443 61.2997C220.615 61.41 220.773 61.541 220.912 61.6898L220.918 61.6962C220.94 61.7177 220.969 61.73 221 61.7305C221.031 61.731 221.061 61.7198 221.083 61.6991C221.106 61.6785 221.119 61.65 221.121 61.6197C221.122 61.5895 221.112 61.5598 221.092 61.5369C220.945 61.3655 220.778 61.2128 220.593 61.0826C220.406 60.9503 220.201 60.8464 219.983 60.7742C219.541 60.6246 219.067 60.5948 218.609 60.6879C218.586 60.6928 218.565 60.702 218.545 60.7151C218.526 60.7281 218.51 60.7448 218.497 60.7642C218.484 60.7835 218.475 60.8051 218.471 60.8278C218.467 60.8504 218.467 60.8737 218.472 60.8962C218.477 60.9187 218.487 60.94 218.5 60.959C218.513 60.9779 218.53 60.9941 218.55 61.0066C218.569 61.0191 218.591 61.0276 218.614 61.0318C218.638 61.0359 218.661 61.0356 218.684 61.0307L218.691 61.0291L218.705 61.0248Z" fill="#0C0C0C"/>
<path opacity="0.52" d="M216.098 69.3225C215.967 69.3079 215.838 69.2823 215.711 69.2461C215.697 69.2422 215.683 69.2355 215.671 69.2264C215.659 69.2173 215.649 69.206 215.642 69.1931C215.634 69.1802 215.63 69.1659 215.628 69.1512C215.626 69.1365 215.627 69.1216 215.632 69.1074C215.636 69.0931 215.643 69.0798 215.652 69.0683C215.662 69.0567 215.673 69.0471 215.687 69.04C215.7 69.033 215.714 69.0285 215.729 69.027C215.744 69.0255 215.759 69.027 215.774 69.0313C216.535 69.2465 216.967 68.9613 216.986 68.9491C217.01 68.9321 217.041 68.9254 217.071 68.9306C217.1 68.9358 217.127 68.9523 217.144 68.9767C217.162 69.001 217.168 69.0311 217.163 69.0604C217.158 69.0897 217.141 69.1157 217.116 69.1327C216.809 69.3098 216.449 69.3769 216.098 69.3225Z" fill="#0C0C0C"/>
<path d="M226.319 63.4392L226.359 63.3311C221.331 61.5564 222.561 56.7048 222.574 56.656L222.461 56.6268C222.448 56.6766 221.19 61.6285 226.319 63.4392Z" fill="#0C0C0C"/>
<path opacity="0.1" d="M220.296 65.9701C220.342 65.5513 219.909 65.1621 219.328 65.1007C218.748 65.0393 218.24 65.329 218.194 65.7477C218.149 66.1664 218.582 66.5556 219.162 66.617C219.743 66.6784 220.25 66.3888 220.296 65.9701Z" fill="#0C0C0C"/>
<path opacity="0.1" d="M213.019 65.0154C212.973 65.4335 212.465 65.7229 211.884 65.6621C211.784 65.6515 211.685 65.6306 211.589 65.5999C211.557 65.1024 211.549 64.6235 211.559 64.1802C211.719 64.1387 211.886 64.1271 212.051 64.1462C212.631 64.207 213.065 64.596 213.019 65.0154Z" fill="#0C0C0C"/>
<path d="M201.794 93.0449C202.059 96.1042 203.347 115.191 203.601 118.959H238.689C238.887 115.56 239.777 100.699 240.529 94.053C241.246 87.711 242.654 84.5356 241.622 82.6609C239.937 79.5966 235.328 77.8258 232.187 77.4066C230.269 77.1512 227.383 76.9681 227.383 76.9681C227.383 76.9681 227.139 81.8284 221.313 82.0987C213.383 82.4659 213.913 76.9681 213.874 76.9681C212.589 76.9681 205.25 77.7678 203.454 78.8144C198.562 81.6646 201.232 86.5623 201.794 93.0449Z" fill="#367CFF"/>
<path d="M201.514 108.063C201.525 107.895 201.588 107.734 201.696 107.603C201.804 107.472 201.951 107.377 202.116 107.331C202.111 107.323 202.108 107.313 202.107 107.302C202.106 107.292 202.108 107.282 202.112 107.273C202.117 107.264 202.123 107.255 202.131 107.249C202.14 107.243 202.149 107.239 202.159 107.237L201.47 107.086C201.266 107.046 201.084 106.935 200.956 106.773C200.829 106.611 200.766 106.409 200.778 106.205C200.797 106.003 200.891 105.816 201.043 105.679C201.194 105.542 201.392 105.466 201.597 105.464C201.593 105.457 201.595 105.448 201.593 105.441L201.309 105.379C201.117 105.341 200.944 105.238 200.82 105.089C200.696 104.939 200.628 104.752 200.628 104.559C200.631 104.438 200.66 104.319 200.715 104.211C200.77 104.103 200.849 104.008 200.946 103.933C201.042 103.859 201.155 103.806 201.274 103.779C201.394 103.752 201.519 103.752 201.639 103.778L202.292 103.92C202.292 103.917 202.29 103.914 202.29 103.911C202.291 103.907 202.296 103.904 202.298 103.9C202.128 103.821 201.99 103.687 201.907 103.521C201.824 103.355 201.801 103.166 201.841 102.986C201.915 102.512 202.495 102.36 202.917 102.452L206.733 103.217L205.828 102.566C205.649 102.443 205.524 102.257 205.479 102.047C205.434 101.837 205.471 101.617 205.584 101.433C205.646 101.341 205.726 101.261 205.82 101.199C205.914 101.138 206.02 101.096 206.13 101.076C206.241 101.056 206.355 101.058 206.465 101.083C206.575 101.108 206.679 101.155 206.77 101.22L211.713 104.774C212.293 105.191 212.685 105.814 212.805 106.51C212.926 107.207 212.765 107.922 212.358 108.504C211.886 109.179 211.219 109.7 210.444 110C209.669 110.299 208.82 110.365 208.007 110.187L202.194 108.919C201.999 108.873 201.826 108.763 201.703 108.608C201.579 108.452 201.512 108.26 201.514 108.063Z" fill="#E98862"/>
<g opacity="0.25">
<path d="M206.069 104.674C206.064 104.694 206.052 104.71 206.036 104.721C206.019 104.732 205.998 104.736 205.979 104.732L202.351 104C202.331 103.996 202.313 103.984 202.302 103.968C202.291 103.951 202.287 103.931 202.291 103.911C202.295 103.891 202.307 103.874 202.324 103.863C202.341 103.852 202.362 103.848 202.381 103.852L206.01 104.584C206.019 104.586 206.029 104.59 206.037 104.595C206.046 104.601 206.053 104.608 206.058 104.616C206.064 104.624 206.068 104.634 206.069 104.643C206.071 104.653 206.071 104.663 206.069 104.673L206.069 104.674Z" fill="#0C0C0C"/>
</g>
<g opacity="0.25">
<path d="M205.785 106.257C205.78 106.276 205.768 106.293 205.751 106.304C205.735 106.314 205.714 106.318 205.695 106.314L201.646 105.497C201.637 105.495 201.627 105.491 201.619 105.486C201.611 105.48 201.603 105.473 201.598 105.465C201.592 105.457 201.589 105.447 201.587 105.438C201.585 105.428 201.585 105.418 201.587 105.408C201.592 105.389 201.604 105.372 201.62 105.362C201.637 105.351 201.657 105.346 201.677 105.35L205.726 106.166C205.736 106.168 205.746 106.172 205.754 106.178C205.762 106.183 205.769 106.19 205.775 106.199C205.78 106.207 205.784 106.216 205.786 106.226C205.788 106.236 205.788 106.246 205.786 106.255L205.785 106.257Z" fill="#0C0C0C"/>
</g>
<g opacity="0.25">
<path d="M205.487 107.973C205.483 107.992 205.471 108.008 205.454 108.019C205.437 108.03 205.417 108.033 205.397 108.029L202.168 107.378C202.158 107.376 202.148 107.372 202.14 107.367C202.132 107.361 202.125 107.354 202.119 107.346C202.113 107.338 202.11 107.328 202.108 107.319C202.106 107.309 202.106 107.299 202.108 107.289C202.11 107.28 202.114 107.27 202.119 107.262C202.125 107.254 202.132 107.247 202.141 107.242C202.149 107.236 202.159 107.232 202.168 107.231C202.178 107.229 202.188 107.229 202.198 107.231L205.428 107.882C205.448 107.886 205.465 107.898 205.477 107.914C205.488 107.931 205.492 107.951 205.488 107.971L205.487 107.973Z" fill="#0C0C0C"/>
</g>
<path d="M208.367 112.45L239.901 118.054C240.885 118.159 241.88 118.039 242.809 117.702C243.738 117.366 244.575 116.822 245.254 116.114C245.933 115.406 246.437 114.553 246.724 113.621C247.012 112.69 247.076 111.706 246.912 110.746L242.497 84.9404C242.357 84.1245 242.055 83.3437 241.609 82.6425C241.162 81.9413 240.58 81.3334 239.895 80.8536C239.209 80.3737 238.435 80.0313 237.615 79.8459C236.795 79.6605 235.946 79.6358 235.116 79.7731C234.287 79.9103 233.493 80.207 232.779 80.646C232.066 81.085 231.448 81.6579 230.96 82.3319C230.472 83.0058 230.124 83.7677 229.936 84.574C229.747 85.3803 229.722 86.2152 229.862 87.0311L232.872 104.795L209.753 101.94L208.367 112.45Z" fill="#367CFF"/>
<path d="M239.901 118.169C239.93 118.169 239.958 118.158 239.979 118.139C240.001 118.119 240.014 118.093 240.017 118.064C240.019 118.036 240.011 118.007 239.993 117.984C239.976 117.962 239.95 117.946 239.921 117.941L208.496 112.356L209.853 102.068L232.857 104.909C232.875 104.911 232.894 104.909 232.911 104.903C232.928 104.897 232.943 104.888 232.956 104.875C232.969 104.862 232.978 104.846 232.983 104.829C232.989 104.812 232.99 104.794 232.987 104.776L231.074 93.4229C231.071 93.4079 231.066 93.3936 231.058 93.3807C231.05 93.3679 231.039 93.3567 231.027 93.3479C231.014 93.3391 231 93.3329 230.985 93.3296C230.97 93.3262 230.955 93.3259 230.939 93.3285C230.909 93.3335 230.882 93.3503 230.864 93.375C230.846 93.3997 230.838 93.4305 230.843 93.4605L232.731 104.662L209.767 101.826C209.736 101.822 209.705 101.83 209.681 101.849C209.656 101.868 209.64 101.895 209.636 101.925L208.25 112.435C208.246 112.464 208.254 112.493 208.271 112.517C208.289 112.541 208.316 112.557 208.345 112.562L239.879 118.167C239.886 118.168 239.893 118.169 239.901 118.169Z" fill="#0C0C0C"/>
<path d="M232.849 104.767L232.812 104.994L234.84 105.313L234.877 105.087L232.849 104.767Z" fill="#0C0C0C"/>
<path d="M202.062 95.0311L201.829 95.0441L202.109 99.9024L202.342 99.8894L202.062 95.0311Z" fill="#0C0C0C"/>
<path d="M173.163 73.03H125.189L117.945 78.366V50.5203C117.945 49.4321 118.384 48.3885 119.167 47.619C119.949 46.8495 121.01 46.4172 122.117 46.4172H173.163C174.269 46.4173 175.331 46.8496 176.113 47.6191C176.895 48.3886 177.335 49.4322 177.335 50.5203V68.9272C177.335 70.0153 176.895 71.0589 176.113 71.8283C175.331 72.5977 174.269 73.03 173.163 73.03Z" fill="#367CFF"/>
<path opacity="0.11" d="M173.163 73.03H125.189L117.945 78.366V50.5203C117.945 49.4321 118.384 48.3885 119.167 47.619C119.949 46.8495 121.01 46.4172 122.117 46.4172H173.163C174.269 46.4173 175.331 46.8496 176.113 47.6191C176.895 48.3886 177.335 49.4322 177.335 50.5203V68.9272C177.335 70.0153 176.895 71.0589 176.113 71.8283C175.331 72.5977 174.269 73.03 173.163 73.03Z" fill="white"/>
<path d="M123.058 57.4931H172.223C172.271 57.4931 172.317 57.4743 172.351 57.4408C172.385 57.4073 172.404 57.3619 172.404 57.3146C172.404 57.2672 172.385 57.2218 172.351 57.1883C172.317 57.1549 172.271 57.136 172.223 57.136H123.058C123.01 57.136 122.964 57.1549 122.93 57.1883C122.896 57.2218 122.877 57.2672 122.877 57.3146C122.877 57.3619 122.896 57.4073 122.93 57.4408C122.964 57.4743 123.01 57.4931 123.058 57.4931Z" fill="white"/>
<path d="M123.058 52.4139H172.223C172.271 52.4139 172.317 52.3951 172.351 52.3616C172.385 52.3281 172.404 52.2827 172.404 52.2353C172.404 52.188 172.385 52.1426 172.351 52.1091C172.317 52.0756 172.271 52.0568 172.223 52.0568H123.058C123.01 52.0568 122.964 52.0756 122.93 52.1091C122.896 52.1426 122.877 52.188 122.877 52.2353C122.877 52.2827 122.896 52.3281 122.93 52.3616C122.964 52.3951 123.01 52.4139 123.058 52.4139Z" fill="white"/>
<path d="M123.058 62.8477H172.223C172.271 62.8477 172.317 62.8289 172.351 62.7954C172.385 62.7619 172.404 62.7165 172.404 62.6692C172.404 62.6218 172.385 62.5764 172.351 62.543C172.317 62.5095 172.271 62.4907 172.223 62.4907H123.058C123.01 62.4907 122.964 62.5095 122.93 62.543C122.896 62.5764 122.877 62.6218 122.877 62.6692C122.877 62.7165 122.896 62.7619 122.93 62.7954C122.964 62.8289 123.01 62.8477 123.058 62.8477Z" fill="white"/>
<path d="M123.058 68.2025H152.256C152.305 68.2025 152.351 68.1837 152.385 68.1502C152.419 68.1167 152.438 68.0713 152.438 68.024C152.438 67.9766 152.419 67.9312 152.385 67.8977C152.351 67.8643 152.305 67.8455 152.256 67.8455H123.058C123.01 67.8455 122.964 67.8643 122.93 67.8977C122.896 67.9312 122.877 67.9766 122.877 68.024C122.877 68.0713 122.896 68.1167 122.93 68.1502C122.964 68.1837 123.01 68.2025 123.058 68.2025Z" fill="white"/>
<path d="M51.3419 195.834C51.28 195.834 51.2207 195.81 51.1769 195.767C50.8479 195.443 50.3122 189.512 48.8688 171.851C48.2782 164.625 47.7203 157.799 47.3131 153.651C47.2842 153.355 47.1673 153.32 47.1288 153.309C46.5715 153.143 44.8768 154.458 43.9304 155.609C43.9111 155.632 43.8873 155.651 43.8604 155.666C43.8335 155.68 43.804 155.689 43.7735 155.692C43.743 155.696 43.7122 155.693 43.6828 155.684C43.6534 155.676 43.626 155.662 43.6022 155.643C43.5784 155.624 43.5586 155.6 43.544 155.574C43.5293 155.547 43.5201 155.518 43.5169 155.488C43.5137 155.458 43.5165 155.428 43.5252 155.399C43.5339 155.37 43.5483 155.343 43.5676 155.32C44.1934 154.559 46.2327 152.564 47.2632 152.869C47.4708 152.931 47.7287 153.108 47.7765 153.607C48.1839 157.758 48.7418 164.586 49.3329 171.814C50.21 182.546 51.2035 194.705 51.5302 195.47C51.5553 195.505 51.5703 195.545 51.5735 195.587C51.5767 195.629 51.568 195.672 51.5484 195.709C51.5288 195.747 51.4991 195.778 51.4624 195.8C51.4258 195.822 51.3837 195.834 51.3407 195.834H51.3419Z" fill="#494949"/>
<path d="M46.714 161.262C50.5859 158.21 51.8693 153.46 49.5804 150.651C47.2915 147.843 42.2971 148.041 38.4252 151.093C34.5532 154.146 33.2699 158.896 35.5588 161.704C37.8477 164.512 42.842 164.315 46.714 161.262Z" fill="#0CBC8B"/>
<path opacity="0.2" d="M46.714 161.262C50.5859 158.21 51.8693 153.46 49.5804 150.651C47.2915 147.843 42.2971 148.041 38.4252 151.093C34.5532 154.146 33.2699 158.896 35.5588 161.704C37.8477 164.512 42.842 164.315 46.714 161.262Z" fill="white"/>
<path d="M36.6437 162.418C36.6166 162.418 36.5903 162.409 36.5695 162.392C36.546 162.372 36.5312 162.344 36.5283 162.314C36.5254 162.284 36.5347 162.254 36.5541 162.231L47.5889 149.145C47.6087 149.121 47.6371 149.107 47.6679 149.104C47.6988 149.101 47.7295 149.11 47.7533 149.13C47.7771 149.149 47.7921 149.177 47.795 149.207C47.7978 149.238 47.7883 149.268 47.7686 149.291L36.7338 162.378C36.7227 162.391 36.7089 162.401 36.6933 162.408C36.6778 162.415 36.6608 162.418 36.6437 162.418Z" fill="white"/>
<path d="M53.7485 193.028C53.7225 193.028 53.6966 193.023 53.672 193.015C53.6136 192.995 53.5656 192.953 53.5386 192.898C53.5117 192.843 53.5079 192.78 53.5283 192.723L57.673 181C57.7951 180.656 58.003 180.347 58.2779 180.102C58.5527 179.857 58.8857 179.684 59.2463 179.598C59.6068 179.513 59.9835 179.517 60.3417 179.612C60.6999 179.707 61.0282 179.888 61.2965 180.14L63.4878 182.199C63.5107 182.219 63.5293 182.244 63.5423 182.272C63.5553 182.3 63.5625 182.33 63.5636 182.36C63.5646 182.391 63.5595 182.421 63.5484 182.45C63.5373 182.478 63.5206 182.505 63.4991 182.527C63.4777 182.549 63.4519 182.566 63.4234 182.579C63.3949 182.591 63.3643 182.597 63.3332 182.598C63.3021 182.598 63.2713 182.592 63.2425 182.581C63.2137 182.569 63.1876 182.552 63.1656 182.531L60.9741 180.472C60.7622 180.273 60.5031 180.13 60.2203 180.055C59.9376 179.981 59.6403 179.977 59.3557 180.045C59.0712 180.112 58.8083 180.249 58.5914 180.442C58.3744 180.635 58.2102 180.879 58.1138 181.151L53.9688 192.874C53.9529 192.919 53.9231 192.958 53.8836 192.985C53.8442 193.013 53.797 193.028 53.7485 193.028Z" fill="#494949"/>
<path d="M69.61 188.689C72.4795 186.455 72.309 181.542 69.2291 177.716C66.1493 173.89 61.3264 172.598 58.4569 174.832C55.5875 177.066 55.758 181.978 58.8378 185.805C61.9177 189.631 66.7406 190.922 69.61 188.689Z" fill="#0CBC8B"/>
<path d="M49.4587 195.086C49.4062 195.086 49.3554 195.068 49.3143 195.036C49.2732 195.004 49.2442 194.96 49.2321 194.909L42.277 166.308C42.2295 166.113 42.1282 165.935 41.9843 165.793C41.8404 165.651 41.6595 165.55 41.4614 165.503C41.2634 165.455 41.0558 165.463 40.8616 165.524C40.6675 165.585 40.4942 165.697 40.3608 165.849L38.2165 168.286C38.1965 168.309 38.1721 168.328 38.1446 168.342C38.1172 168.355 38.0872 168.364 38.0564 168.366C38.0257 168.368 37.9948 168.365 37.9655 168.355C37.9362 168.346 37.9092 168.33 37.8858 168.311C37.8625 168.291 37.8435 168.267 37.8297 168.239C37.816 168.212 37.8078 168.183 37.8058 168.152C37.8037 168.122 37.8077 168.092 37.8177 168.063C37.8276 168.034 37.8432 168.008 37.8636 167.985L40.0078 165.549C40.1974 165.333 40.4437 165.173 40.7198 165.086C40.9958 165 41.2908 164.99 41.5723 165.057C41.8538 165.125 42.1109 165.267 42.3153 165.469C42.5197 165.671 42.6635 165.925 42.7308 166.202L49.6869 194.804C49.7012 194.863 49.6911 194.925 49.6587 194.977C49.6264 195.029 49.5744 195.066 49.5142 195.08C49.496 195.084 49.4773 195.086 49.4587 195.086Z" fill="#494949"/>
<path d="M46.8924 174.639C47.7379 169.831 45.5001 165.435 41.894 164.822C38.2879 164.209 34.6791 167.61 33.8335 172.419C32.988 177.227 35.2258 181.623 38.8319 182.236C42.438 182.849 46.0468 179.448 46.8924 174.639Z" fill="#0CBC8B"/>
<path d="M51.3422 195.834C51.3326 195.834 51.323 195.833 51.3135 195.832C51.283 195.828 51.2536 195.819 51.2269 195.804C51.2002 195.789 51.1768 195.769 51.1579 195.746C51.139 195.722 51.1251 195.695 51.1169 195.666C51.1087 195.637 51.1065 195.606 51.1102 195.576L55.552 160.111C55.6004 159.724 55.7612 159.36 56.0151 159.061C56.269 158.763 56.6052 158.543 56.9833 158.427C57.3614 158.312 57.7653 158.307 58.1464 158.412C58.5275 158.517 58.8697 158.728 59.1317 159.02L64.2088 164.675C64.2498 164.72 64.2707 164.78 64.2669 164.841C64.2631 164.902 64.2348 164.959 64.1884 164.999C64.142 165.039 64.0812 165.06 64.0194 165.056C63.9576 165.052 63.8998 165.024 63.8588 164.979L58.7816 159.324C58.5792 159.099 58.3148 158.935 58.0202 158.854C57.7257 158.773 57.4136 158.777 57.1213 158.866C56.8291 158.955 56.5692 159.125 56.373 159.356C56.1767 159.587 56.0524 159.868 56.015 160.167L51.5734 195.632C51.5666 195.687 51.5393 195.739 51.4967 195.776C51.4541 195.813 51.3992 195.834 51.3422 195.834Z" fill="#494949"/>
<path d="M69.4158 167.817C71.1872 164.668 69.103 160.2 64.7607 157.838C60.4184 155.476 55.4623 156.114 53.6909 159.263C51.9196 162.412 54.0037 166.88 58.346 169.242C62.6883 171.604 67.6444 170.966 69.4158 167.817Z" fill="#0CBC8B"/>
<path opacity="0.2" d="M69.61 188.689C72.4795 186.455 72.309 181.542 69.2291 177.716C66.1493 173.89 61.3264 172.598 58.4569 174.832C55.5875 177.066 55.758 181.978 58.8378 185.805C61.9177 189.631 66.7406 190.922 69.61 188.689Z" fill="white"/>
<path opacity="0.5" d="M46.8924 174.639C47.7379 169.831 45.5001 165.435 41.894 164.822C38.2879 164.209 34.6791 167.61 33.8335 172.419C32.988 177.227 35.2258 181.623 38.8319 182.236C42.438 182.849 46.0468 179.448 46.8924 174.639Z" fill="white"/>
<path opacity="0.5" d="M69.4158 167.817C71.1872 164.668 69.103 160.2 64.7607 157.838C60.4184 155.476 55.4623 156.114 53.6909 159.263C51.9196 162.412 54.0037 166.88 58.346 169.242C62.6883 171.604 67.6444 170.966 69.4158 167.817Z" fill="white"/>
<path d="M57.0232 225.926H45.6604L43.7776 190.174H58.906L57.0232 225.926Z" fill="#292A2E"/>
<path opacity="0.3" d="M57.0232 225.926H45.6604L43.7776 190.174H58.906L57.0232 225.926Z" fill="white"/>
<path d="M69.6106 188.803C69.593 188.803 69.5756 188.799 69.5598 188.791C69.544 188.784 69.5301 188.773 69.5191 188.759L58.3656 174.902C58.3464 174.879 58.3376 174.848 58.3412 174.818C58.3447 174.788 58.3604 174.76 58.3846 174.741C58.4089 174.722 58.4398 174.714 58.4705 174.717C58.5013 174.721 58.5293 174.736 58.5485 174.76L69.7021 188.617C69.7211 188.64 69.7298 188.671 69.7262 188.701C69.7226 188.731 69.7071 188.758 69.6829 188.777C69.6624 188.793 69.637 188.802 69.6106 188.803Z" fill="white"/>
<path d="M68.674 168.927C68.6492 168.927 68.6252 168.919 68.6054 168.904L54.3331 158.656C54.3086 158.638 54.2923 158.611 54.2878 158.581C54.2833 158.551 54.2908 158.521 54.3089 158.496C54.3269 158.472 54.354 158.456 54.3843 158.451C54.4145 158.446 54.4455 158.453 54.4705 158.47L68.7431 168.719C68.7626 168.733 68.7771 168.753 68.7844 168.776C68.7917 168.799 68.7915 168.824 68.7837 168.847C68.776 168.87 68.7611 168.89 68.7413 168.904C68.7214 168.918 68.6975 168.925 68.6731 168.925L68.674 168.927Z" fill="white"/>
<path d="M38.2529 182.086C38.2427 182.086 38.2326 182.085 38.2228 182.083C38.1929 182.075 38.1674 182.055 38.1519 182.029C38.1364 182.003 38.1322 181.971 38.1402 181.942L42.6835 165.202C42.6872 165.187 42.6939 165.173 42.7032 165.161C42.7125 165.149 42.7241 165.139 42.7374 165.131C42.7508 165.123 42.7655 165.118 42.7809 165.116C42.7962 165.114 42.8118 165.115 42.8268 165.119C42.8418 165.123 42.8558 165.129 42.868 165.139C42.8803 165.148 42.8905 165.16 42.8982 165.173C42.9058 165.186 42.9107 165.201 42.9125 165.216C42.9144 165.231 42.9131 165.246 42.9089 165.261L38.3653 182.001C38.3587 182.026 38.3441 182.047 38.3238 182.063C38.3035 182.078 38.2785 182.086 38.2529 182.086Z" fill="white"/>
<path opacity="0.2" d="M87.2278 129.54C103.055 129.54 115.885 116.922 115.885 101.358C115.885 85.7933 103.055 73.1757 87.2278 73.1757C71.4007 73.1757 58.5703 85.7933 58.5703 101.358C58.5703 116.922 71.4007 129.54 87.2278 129.54Z" fill="#367CFF"/>
<path d="M59.7367 130.669C58.3678 127.768 57.6579 124.608 57.6566 121.409C57.6552 118.211 58.3623 115.05 59.7288 112.147C61.0953 109.245 63.0883 106.67 65.5692 104.601C68.0501 102.533 70.9595 101.02 74.0949 100.17L75.999 106.939C73.8631 107.518 71.8811 108.547 70.1909 109.956C68.5006 111.364 67.1427 113.118 66.2116 115.095C65.2804 117.072 64.7984 119.225 64.7991 121.404C64.7997 123.583 65.283 125.735 66.2154 127.711L59.7367 130.669Z" fill="#367CFF"/>
<path d="M60.1103 139.95C59.7147 139.95 59.3268 139.843 58.9894 139.639C58.6521 139.436 58.3785 139.145 58.1991 138.798C57.6977 137.83 57.3952 136.774 57.3088 135.691C57.2225 134.608 57.3539 133.518 57.6956 132.485C58.3857 130.398 59.8905 128.667 61.879 127.671C62.8636 127.178 63.9373 126.88 65.0388 126.795C66.1403 126.71 67.2481 126.84 68.2988 127.176C70.4208 127.854 72.1818 129.334 73.1943 131.29C73.4456 131.787 73.4871 132.362 73.3099 132.889C73.1326 133.416 72.7509 133.854 72.2477 134.106C71.7445 134.358 71.1604 134.404 70.6226 134.235C70.0847 134.066 69.6364 133.695 69.3752 133.202C68.8785 132.243 68.0145 131.517 66.9734 131.184C65.9322 130.851 64.7991 130.938 63.8234 131.426C62.8477 131.915 62.1093 132.764 61.7706 133.788C61.4319 134.812 61.5207 135.926 62.0174 136.886C62.1836 137.207 62.2633 137.565 62.2488 137.925C62.2344 138.285 62.1263 138.635 61.935 138.943C61.7436 139.25 61.4753 139.504 61.1557 139.68C60.8361 139.857 60.4758 139.949 60.1094 139.95H60.1103Z" fill="#292A2E"/>
<path d="M115.199 110.37C111.24 110.373 107.353 109.336 103.939 107.367L107.545 101.303C110.586 103.047 114.148 103.703 117.625 103.158C121.103 102.614 124.281 100.904 126.622 98.3171L131.959 102.985C128.152 107.207 122.837 109.824 117.119 110.29C116.477 110.344 115.837 110.371 115.199 110.37Z" fill="#367CFF"/>
<path d="M133.654 104.142C132.059 104.139 130.498 103.691 129.152 102.849C127.807 102.007 126.732 100.806 126.054 99.3865C125.376 97.967 125.122 96.3872 125.322 94.8312C125.522 93.2752 126.167 91.8072 127.183 90.5981C127.362 90.3848 127.583 90.2083 127.831 90.0786C128.08 89.949 128.352 89.8688 128.632 89.8426C128.912 89.8164 129.195 89.8447 129.464 89.9259C129.733 90.0072 129.983 90.1397 130.2 90.316C130.417 90.4923 130.597 90.7088 130.728 90.9534C130.86 91.1979 130.942 91.4655 130.968 91.741C130.995 92.0165 130.966 92.2945 130.884 92.559C130.801 92.8236 130.666 93.0695 130.487 93.2829C129.794 94.1132 129.464 95.1798 129.569 96.2489C129.675 97.318 130.207 98.3025 131.049 98.9867C131.891 99.6709 132.974 99.999 134.062 99.8991C135.149 99.7992 136.152 99.2795 136.851 98.4539C137.03 98.2405 137.25 98.064 137.499 97.9344C137.747 97.8048 138.019 97.7246 138.3 97.6984C138.58 97.6722 138.862 97.7005 139.131 97.7817C139.4 97.8629 139.651 97.9955 139.867 98.1718C140.084 98.348 140.264 98.5646 140.396 98.8091C140.528 99.0536 140.609 99.3213 140.636 99.5968C140.662 99.8723 140.634 100.15 140.551 100.415C140.468 100.679 140.334 100.925 140.154 101.139C139.453 101.978 138.588 102.673 137.612 103.182C136.635 103.691 135.566 104.005 134.465 104.105C134.194 104.13 133.923 104.143 133.654 104.142Z" fill="#292A2E"/>
<path d="M69.2987 100.538L74.0343 126.874C74.6464 130.278 76.4582 133.362 79.1518 135.583C81.8454 137.805 85.2486 139.023 88.7642 139.023C92.1915 139.023 95.5149 137.865 98.1783 135.744C100.842 133.623 102.684 130.666 103.396 127.37L109.192 100.538H69.2987Z" fill="#367CFF"/>
<path d="M89.2451 106.338C100.261 106.338 109.192 103.741 109.192 100.538C109.192 97.3354 100.261 94.7388 89.2451 94.7388C78.2289 94.7388 69.2985 97.3354 69.2985 100.538C69.2985 103.741 78.2289 106.338 89.2451 106.338Z" fill="#292A2E"/>
<path d="M108.735 84.972C108.735 93.499 100.008 97.6016 89.245 97.6016C78.4816 97.6016 69.7551 93.499 69.7551 84.972C69.7551 76.4451 78.4819 66.7228 89.245 66.7228C100.008 66.7228 108.735 76.4451 108.735 84.972Z" fill="#367CFF"/>
<path d="M99.8969 74.6245H88.8106C85.3356 74.6245 82.5186 77.3948 82.5186 80.8121V80.8123C82.5186 84.2296 85.3356 86.9998 88.8106 86.9998H99.8969C103.372 86.9998 106.189 84.2296 106.189 80.8123V80.8121C106.189 77.3948 103.372 74.6245 99.8969 74.6245Z" fill="white"/>
<path d="M94.0233 83.0615C93.8339 83.0615 93.6522 82.9875 93.5183 82.8558C93.3843 82.7241 93.3091 82.5454 93.3091 82.3591C93.3122 82.0431 93.2517 81.7296 93.1309 81.4368C93.0101 81.1439 92.8314 80.8775 92.6053 80.653C92.3792 80.4284 92.1101 80.2501 91.8135 80.1285C91.5169 80.0068 91.1987 79.9442 90.8774 79.9442C90.556 79.9442 90.2378 80.0068 89.9412 80.1285C89.6446 80.2501 89.3755 80.4284 89.1494 80.653C88.9233 80.8775 88.7446 81.1439 88.6239 81.4368C88.5031 81.7296 88.4425 82.0431 88.4456 82.3591C88.4456 82.5454 88.3704 82.7241 88.2364 82.8558C88.1025 82.9875 87.9208 83.0615 87.7314 83.0615C87.542 83.0615 87.3603 82.9875 87.2263 82.8558C87.0924 82.7241 87.0171 82.5454 87.0171 82.3591C87.0132 81.8581 87.1101 81.3613 87.3023 80.8973C87.4945 80.4333 87.7783 80.0113 88.1371 79.6557C88.4959 79.3 88.9228 79.0178 89.3931 78.8251C89.8635 78.6325 90.3679 78.5333 90.8774 78.5333C91.3868 78.5333 91.8913 78.6325 92.3616 78.8251C92.8319 79.0178 93.2588 79.3 93.6176 79.6557C93.9765 80.0113 94.2602 80.4333 94.4524 80.8973C94.6446 81.3613 94.7415 81.8581 94.7376 82.3591C94.7376 82.4514 94.7192 82.5427 94.6833 82.628C94.6474 82.7132 94.5948 82.7906 94.5284 82.8559C94.4621 82.9211 94.3834 82.9728 94.2967 83.0081C94.21 83.0434 94.1171 83.0616 94.0233 83.0615Z" fill="#292A2E"/>
<path d="M103.738 83.0615C103.549 83.0615 103.367 82.9875 103.233 82.8558C103.099 82.7241 103.024 82.5454 103.024 82.3591C103.027 82.0431 102.966 81.7296 102.846 81.4368C102.725 81.1439 102.546 80.8775 102.32 80.653C102.094 80.4284 101.825 80.2501 101.528 80.1285C101.232 80.0068 100.914 79.9442 100.592 79.9442C100.271 79.9442 99.9526 80.0068 99.656 80.1285C99.3594 80.2501 99.0903 80.4284 98.8642 80.653C98.6381 80.8775 98.4594 81.1439 98.3386 81.4368C98.2178 81.7296 98.1573 82.0431 98.1604 82.3591C98.1604 82.5454 98.0852 82.7241 97.9512 82.8558C97.8173 82.9875 97.6356 83.0615 97.4462 83.0615C97.2567 83.0615 97.0751 82.9875 96.9411 82.8558C96.8072 82.7241 96.7319 82.5454 96.7319 82.3591C96.728 81.8581 96.8249 81.3613 97.0171 80.8973C97.2093 80.4333 97.493 80.0113 97.8519 79.6557C98.2107 79.3 98.6376 79.0178 99.1079 78.8251C99.5782 78.6325 100.083 78.5333 100.592 78.5333C101.102 78.5333 101.606 78.6325 102.076 78.8251C102.547 79.0178 102.974 79.3 103.332 79.6557C103.691 80.0113 103.975 80.4333 104.167 80.8973C104.359 81.3613 104.456 81.8581 104.452 82.3591C104.452 82.4514 104.434 82.5427 104.398 82.628C104.362 82.7132 104.31 82.7906 104.243 82.8559C104.177 82.9211 104.098 82.9728 104.011 83.0081C103.925 83.0434 103.832 83.0616 103.738 83.0615Z" fill="#292A2E"/>
<path d="M89.2406 60.1233L88.375 60.165L88.8019 68.7427L89.6675 68.701L89.2406 60.1233Z" fill="#367CFF"/>
<path d="M88.8393 62.3368C89.714 62.3368 90.4232 61.6395 90.4232 60.7792C90.4232 59.919 89.714 59.2216 88.8393 59.2216C87.9645 59.2216 87.2554 59.919 87.2554 60.7792C87.2554 61.6395 87.9645 62.3368 88.8393 62.3368Z" fill="#292A2E"/>
<path d="M183.935 133.933H128.799C126.238 133.933 124.161 135.974 124.161 138.493C124.161 141.012 126.238 143.054 128.799 143.054H183.935C186.496 143.054 188.573 141.012 188.573 138.493C188.573 135.974 186.496 133.933 183.935 133.933Z" fill="white"/>
<path d="M183.936 143.226H128.799C128.164 143.23 127.534 143.111 126.946 142.875C126.359 142.639 125.824 142.292 125.374 141.852C124.923 141.412 124.566 140.888 124.322 140.312C124.078 139.736 123.952 139.118 123.952 138.493C123.952 137.869 124.078 137.251 124.322 136.674C124.566 136.098 124.923 135.575 125.374 135.135C125.824 134.695 126.359 134.347 126.946 134.111C127.534 133.875 128.164 133.756 128.799 133.76H183.936C185.207 133.769 186.422 134.272 187.318 135.158C188.213 136.045 188.715 137.244 188.715 138.493C188.715 139.743 188.213 140.942 187.318 141.828C186.422 142.715 185.207 143.217 183.936 143.226ZM128.799 134.105C128.21 134.1 127.626 134.211 127.081 134.43C126.536 134.648 126.04 134.971 125.622 135.379C125.204 135.787 124.873 136.272 124.646 136.806C124.42 137.341 124.303 137.914 124.303 138.493C124.303 139.072 124.42 139.646 124.646 140.18C124.873 140.715 125.204 141.2 125.622 141.608C126.04 142.016 126.536 142.338 127.081 142.557C127.626 142.776 128.21 142.886 128.799 142.882H183.936C185.114 142.874 186.241 142.407 187.071 141.585C187.901 140.763 188.367 139.652 188.367 138.493C188.367 137.335 187.901 136.223 187.071 135.401C186.241 134.579 185.114 134.113 183.936 134.105H128.799Z" fill="#292A2E"/>
<path d="M243.02 226H42.2523C42.2308 226 42.2096 225.996 42.1898 225.988C42.1699 225.98 42.1519 225.968 42.1368 225.953C42.1216 225.938 42.1096 225.92 42.1014 225.901C42.0932 225.881 42.0889 225.86 42.0889 225.839C42.0889 225.818 42.0932 225.797 42.1014 225.778C42.1096 225.758 42.1216 225.741 42.1368 225.726C42.1519 225.711 42.1699 225.699 42.1898 225.691C42.2096 225.683 42.2308 225.679 42.2523 225.679H243.02C243.064 225.679 243.105 225.696 243.136 225.726C243.167 225.756 243.184 225.797 243.184 225.839C243.184 225.882 243.167 225.923 243.136 225.953C243.105 225.983 243.064 226 243.02 226Z" fill="#292A2E"/>
</g>
<defs>
<clipPath id="clip0_262_605">
<rect width="225" height="184" fill="white" transform="translate(22 42)"/>
</clipPath>
</defs>
</svg>
