<svg width="270" height="260" viewBox="0 0 270 260" fill="none" xmlns="http://www.w3.org/2000/svg">
<path d="M210 0H60C26.8629 0 0 26.8629 0 60V200C0 233.137 26.8629 260 60 260H210C243.137 260 270 233.137 270 200V60C270 26.8629 243.137 0 210 0Z" fill="#34345D"/>
<path d="M32.2734 29.2499L31.2451 29.0214C31.4824 28.082 31.667 27.5234 31.667 27.498L32.6689 27.8281C32.6689 27.8535 32.4844 28.3613 32.2734 29.2499Z" fill="#34345D"/>
<path d="M17.2178 221.482L17.1914 220.467C18.1406 220.441 19.1689 220.314 20.25 220.137L20.4346 221.127C19.3008 221.355 18.2197 221.457 17.2178 221.482ZM13.9746 221.279C12.8408 221.076 11.8125 220.721 10.8633 220.238L11.3643 219.349C12.208 219.781 13.1572 220.086 14.1855 220.289L13.9746 221.279ZM23.5195 220.39L23.2295 219.426L23.3086 219.4C24.3105 219.096 25.2598 218.765 26.1562 218.435L26.5518 219.375C25.6289 219.73 24.6533 220.086 23.625 220.39H23.5195ZM8.22656 218.283C7.48828 217.521 6.88184 216.658 6.38086 215.668L7.33008 215.211C7.77832 216.099 8.3584 216.912 9.01758 217.598L8.22656 218.283ZM29.4258 218.029L28.9248 217.14C29.8213 216.658 30.665 216.125 31.5088 215.541L32.1416 216.353C31.2715 216.963 30.375 217.521 29.4258 218.029ZM34.5938 214.373L33.8555 213.637C34.5674 212.976 35.2793 212.266 35.9912 211.478L36.7822 212.139C36.0703 212.951 35.332 213.687 34.5938 214.373ZM38.7861 209.752L37.9424 209.142C38.5225 208.381 39.1289 207.568 39.7354 206.68L40.6055 207.238C39.999 208.127 39.3926 208.99 38.7861 209.752ZM42.3457 204.674L41.4492 204.14C41.9766 203.328 42.5039 202.49 43.084 201.551L43.9805 202.058C43.4004 203.023 42.873 203.861 42.3457 204.674ZM45.5625 199.443L44.6397 198.935C45.1406 198.098 45.6416 197.209 46.1689 196.295L47.0918 196.777C46.5645 197.717 46.0635 198.605 45.5625 199.443ZM48.6211 194.137L47.6982 193.654C48.1729 192.791 48.6738 191.902 49.2012 190.988L50.124 191.471C49.5967 192.385 49.0957 193.273 48.6211 194.137ZM51.6006 188.805L50.6777 188.322C51.1523 187.459 51.6533 186.57 52.1543 185.656L53.0772 186.139C52.5762 187.027 52.1016 187.916 51.6006 188.805ZM54.6064 183.498L53.71 182.939C54.2373 182.127 54.8965 181.34 55.7139 180.476L56.4785 181.162C55.7402 181.974 55.0811 182.762 54.6064 183.498ZM58.7197 179.105L58.0342 178.344C58.7725 177.734 59.5635 177.074 60.4863 176.389L61.1455 177.176C60.1963 177.887 59.4316 178.496 58.7197 179.105ZM63.624 175.373L62.9912 174.56C63.7295 174.053 64.5469 173.469 65.5488 172.783L66.1553 173.621C65.1533 174.307 64.3359 174.865 63.624 175.373ZM68.7393 171.869L68.1328 171.031C68.9766 170.447 69.8467 169.863 70.6904 169.279L71.2969 170.117C70.4531 170.701 69.583 171.285 68.7393 171.869ZM73.8809 168.314L73.248 167.502C74.1445 166.867 74.9619 166.258 75.7529 165.674L76.4121 166.486C75.5947 167.07 74.7773 167.654 73.8809 168.314ZM78.8643 164.531L78.1787 163.744C78.9961 163.084 79.7871 162.398 80.5254 161.764L81.2373 162.5C80.499 163.185 79.708 163.871 78.8643 164.531ZM83.5312 160.392L82.7666 159.682C83.5049 158.945 84.2168 158.209 84.876 157.473L85.667 158.133C85.0078 158.869 84.2959 159.631 83.5312 160.392ZM87.6445 155.721L86.8008 155.137C87.4072 154.324 87.9873 153.461 88.4883 152.648L89.3848 153.156C88.8838 153.994 88.3037 154.857 87.6445 155.721ZM211.544 151.074C211.307 151.074 211.069 151.074 210.832 151.074V150.058C211.887 150.058 212.941 150.058 213.943 150.008L213.996 151.023C213.205 151.049 212.388 151.074 211.544 151.074ZM207.668 150.947C206.64 150.896 205.585 150.795 204.504 150.693L204.609 149.678C205.664 149.779 206.719 149.855 207.721 149.932L207.668 150.947ZM217.187 150.795L217.081 149.779C218.136 149.678 219.164 149.525 220.166 149.348L220.351 150.338C219.322 150.541 218.268 150.693 217.187 150.795ZM90.8877 150.389L89.9121 149.982C90.334 149.094 90.7031 148.154 91.0195 147.215L92.0215 147.519C91.6787 148.51 91.3096 149.474 90.8877 150.389ZM201.34 150.338C200.312 150.211 199.257 150.033 198.202 149.855L198.387 148.865C199.441 149.043 200.47 149.195 201.472 149.322L201.34 150.338ZM223.462 149.703L223.198 148.713C224.227 148.459 225.202 148.129 226.151 147.799L226.52 148.738C225.545 149.094 224.517 149.424 223.462 149.703ZM195.091 149.322C194.063 149.119 193.034 148.891 192.006 148.662L192.243 147.672C193.271 147.9 194.3 148.129 195.302 148.307L195.091 149.322ZM188.921 147.926C187.919 147.672 186.891 147.418 185.862 147.113L186.152 146.148C187.181 146.428 188.183 146.707 189.185 146.935L188.921 147.926ZM229.447 147.469L228.973 146.58C229.896 146.123 230.792 145.59 231.609 145.031L232.216 145.869C231.319 146.453 230.396 146.986 229.447 147.469ZM182.83 146.25C181.828 145.945 180.826 145.641 179.824 145.31L180.167 144.346C181.169 144.676 182.171 144.98 183.173 145.26L182.83 146.25ZM92.8652 144.549L91.8369 144.32C92.0478 143.381 92.2324 142.416 92.417 141.375L93.4717 141.527C93.2871 142.594 93.1025 143.584 92.8652 144.549ZM176.845 144.346C175.869 144.016 174.867 143.66 173.865 143.305L174.234 142.365C175.21 142.721 176.212 143.076 177.187 143.406L176.845 144.346ZM234.694 143.914L233.982 143.178C234.721 142.517 235.433 141.781 236.065 140.994L236.883 141.629C236.197 142.441 235.485 143.203 234.694 143.914ZM170.912 142.213C169.937 141.832 168.961 141.451 167.985 141.07L168.381 140.131C169.356 140.512 170.332 140.892 171.281 141.273L170.912 142.213ZM165.059 139.851C164.083 139.445 163.134 139.039 162.158 138.607L162.606 137.693C163.556 138.099 164.531 138.531 165.48 138.937L165.059 139.851ZM238.702 139.09L237.806 138.582C238.307 137.744 238.781 136.855 239.203 135.941L240.179 136.348C239.73 137.287 239.229 138.201 238.702 139.09ZM93.8672 138.506L92.8125 138.404C92.918 137.363 93.0234 136.322 93.1025 135.383L94.1572 135.484C94.0781 136.398 93.9727 137.439 93.8672 138.506ZM159.311 137.338C158.361 136.906 157.412 136.449 156.463 135.992L156.938 135.078C157.86 135.535 158.81 135.967 159.759 136.398L159.311 137.338ZM153.642 134.621C152.692 134.139 151.77 133.656 150.847 133.199L151.348 132.31C152.271 132.793 153.193 133.275 154.116 133.732L153.642 134.621ZM241.286 133.428L240.284 133.123C240.601 132.158 240.864 131.193 241.075 130.254L242.104 130.457C241.893 131.447 241.603 132.437 241.286 133.428ZM94.4473 132.463L93.3926 132.361C93.5244 131.193 93.6562 130.203 93.8144 129.314L94.8428 129.492C94.7109 130.355 94.5791 131.295 94.4473 132.463ZM148.104 131.701C147.182 131.193 146.259 130.685 145.362 130.178L145.89 129.314C146.76 129.822 147.683 130.33 148.605 130.838L148.104 131.701ZM142.646 128.578C141.75 128.045 140.854 127.486 139.983 126.928L140.563 126.09C141.434 126.623 142.304 127.182 143.2 127.715L142.646 128.578ZM242.604 127.41L241.55 127.308C241.629 126.496 241.682 125.683 241.682 124.871C241.682 124.693 241.682 124.516 241.682 124.338L242.736 124.312C242.736 124.49 242.736 124.693 242.736 124.871C242.736 125.709 242.684 126.547 242.604 127.41ZM95.5547 126.572L94.5527 126.293C94.8955 125.226 95.2646 124.287 95.7393 123.398L96.6885 123.855C96.2402 124.693 95.8711 125.582 95.5547 126.572ZM137.347 125.226C136.45 124.642 135.58 124.033 134.763 123.449L135.396 122.637C136.213 123.221 137.083 123.805 137.953 124.389L137.347 125.226ZM132.258 121.596C131.388 120.935 130.57 120.275 129.806 119.641L130.491 118.879C131.229 119.514 132.047 120.148 132.891 120.808L132.258 121.596ZM98.376 121.469L97.585 120.808C98.1914 120.148 98.8769 119.514 99.6416 118.955L99.9844 118.701L100.617 119.514L100.274 119.767C99.5625 120.25 98.9297 120.834 98.376 121.469ZM241.418 121.392C241.26 120.428 241.049 119.437 240.759 118.498L241.761 118.219C242.051 119.209 242.288 120.224 242.473 121.24L241.418 121.392ZM103.148 117.711L102.542 116.873C103.386 116.289 104.282 115.705 105.152 115.146L105.732 115.984C104.862 116.568 103.992 117.127 103.148 117.711ZM127.459 117.558C126.642 116.771 125.903 116.035 125.271 115.299L126.088 114.639C126.694 115.349 127.406 116.06 128.197 116.822L127.459 117.558ZM239.678 115.705C239.256 114.816 238.781 113.928 238.228 113.09L239.124 112.557C239.678 113.445 240.205 114.359 240.627 115.299L239.678 115.705ZM108.369 114.385L107.815 113.521C108.712 112.988 109.635 112.48 110.558 111.973L111.085 112.861C110.162 113.369 109.266 113.877 108.369 114.385ZM123.372 112.785C123.082 112.303 122.818 111.846 122.634 111.414C122.423 110.932 122.238 110.449 122.054 109.941L123.056 109.611C123.24 110.094 123.425 110.576 123.609 111.033C123.794 111.439 124.005 111.846 124.269 112.277L123.372 112.785ZM113.827 111.439L113.353 110.551C114.275 110.094 115.225 109.637 116.174 109.18L116.622 110.094C115.699 110.525 114.75 110.982 113.827 111.439ZM236.461 110.652C235.828 109.891 235.143 109.154 234.404 108.443L235.143 107.732C235.907 108.469 236.619 109.23 237.278 110.043L236.461 110.652ZM119.47 108.824L119.048 107.885C119.865 107.529 120.683 107.199 121.5 106.869L121.184 106.945C120.973 105.98 120.762 104.965 120.63 103.924L121.685 103.797C121.843 104.812 122.027 105.803 122.238 106.742L122.001 106.793L122.37 107.656C121.395 108.037 120.419 108.418 119.47 108.824ZM125.297 106.564L124.928 105.599C125.903 105.244 126.905 104.914 127.907 104.584L128.25 105.549C127.248 105.879 126.246 106.209 125.297 106.564ZM232.084 106.463C231.293 105.853 230.449 105.269 229.579 104.711L230.159 103.873C231.056 104.457 231.926 105.066 232.743 105.701L232.084 106.463ZM131.229 104.635L130.913 103.67C131.915 103.365 132.943 103.086 133.945 102.807L134.235 103.797C133.233 104.051 132.205 104.33 131.229 104.635ZM226.942 103.162C226.046 102.705 225.123 102.248 224.147 101.842L224.569 100.928C225.545 101.359 226.521 101.816 227.417 102.299L226.942 103.162ZM137.268 103.01L137.004 102.019C138.006 101.766 139.061 101.537 140.089 101.308L140.326 102.299C139.298 102.527 138.27 102.756 137.268 103.01ZM143.385 101.689L143.174 100.699C144.202 100.496 145.23 100.318 146.285 100.141L146.47 101.131C145.441 101.283 144.413 101.486 143.385 101.689ZM120.287 100.877C120.208 99.912 120.155 98.8964 120.129 97.83L121.184 97.8046C121.21 98.8456 121.263 99.8612 121.342 100.801L120.287 100.877ZM221.273 100.699C220.324 100.369 219.322 100.039 218.32 99.7596L218.61 98.7948C219.639 99.0995 220.667 99.4042 221.643 99.7596L221.273 100.699ZM149.581 100.623L149.423 99.6073C150.451 99.455 151.506 99.3026 152.561 99.1503L152.719 100.166C151.638 100.318 150.583 100.445 149.581 100.623ZM155.804 99.785L155.672 98.7694C156.7 98.6425 157.755 98.5409 158.81 98.4139L158.915 99.4296C157.86 99.5311 156.832 99.6581 155.804 99.785ZM162.053 99.1249L161.947 98.1093C162.976 98.0077 164.03 97.9315 165.085 97.8553L165.164 98.871C164.109 98.9725 163.055 99.0487 162.053 99.1249ZM215.288 98.9979C214.286 98.7694 213.258 98.5663 212.229 98.3886L212.414 97.3983C213.469 97.5761 214.523 97.7792 215.525 98.0077L215.288 98.9979ZM168.328 98.6678L168.249 97.6522C169.304 97.5761 170.358 97.5253 171.413 97.4745L171.466 98.4901C170.437 98.5409 169.383 98.5917 168.328 98.6678ZM174.604 98.3124L174.551 97.2968C175.605 97.246 176.66 97.1952 177.715 97.1698L177.768 98.1854C176.713 98.2362 175.658 98.2616 174.604 98.3124ZM180.905 98.0585L180.853 97.0429C181.907 96.9921 182.962 96.9667 184.017 96.9413L184.043 97.9569C183.015 97.9823 181.96 98.0331 180.905 98.0585ZM209.145 97.9315C208.143 97.8046 207.088 97.703 206.033 97.6268L206.112 96.6112C207.167 96.6874 208.248 96.8143 209.276 96.9159L209.145 97.9315ZM187.207 97.83L187.181 96.8143C188.235 96.7889 189.29 96.7382 190.318 96.6874L190.371 97.703C189.316 97.7538 188.262 97.8046 187.207 97.83ZM193.509 97.6014L193.456 96.5858C194.089 96.5604 194.722 96.535 195.354 96.4843C195.776 96.4589 196.198 96.4335 196.62 96.4335L196.673 97.4491C196.251 97.4745 195.855 97.4745 195.434 97.4999C194.774 97.5253 194.142 97.5507 193.509 97.6014ZM202.922 97.4491C201.92 97.4237 200.918 97.3983 199.89 97.3983H199.784V96.3827H199.89C200.918 96.3827 201.946 96.4081 202.948 96.4335L202.922 97.4491ZM121.157 94.7831H120.103C120.103 93.8436 120.129 92.8534 120.155 91.7362L121.21 91.7616C121.184 92.8534 121.184 93.8436 121.157 94.7831ZM121.342 88.7147L120.287 88.6639C120.313 87.9276 120.34 87.1913 120.393 86.455L120.419 85.6425L121.474 85.6932L121.447 86.5057C121.395 87.2421 121.368 87.9784 121.342 88.7147ZM121.605 82.6464L120.551 82.621C120.604 81.5038 120.63 80.5136 120.63 79.5995L121.685 79.6249C121.685 80.5389 121.632 81.5292 121.605 82.6464ZM120.63 76.578C120.604 75.4862 120.577 74.5214 120.498 73.5819L121.553 73.5057C121.605 74.4706 121.658 75.4608 121.685 76.5526L120.63 76.578ZM120.208 70.5858C120.05 69.5448 119.865 68.5546 119.628 67.6659L120.656 67.412C120.894 68.3514 121.104 69.3671 121.263 70.4335L120.208 70.5858ZM118.679 64.8475C118.283 63.9081 117.782 63.0448 117.255 62.2577L118.125 61.6991C118.705 62.537 119.206 63.451 119.654 64.4667L118.679 64.8475ZM59.9326 60.912C58.957 60.912 58.0078 60.8866 57.085 60.8358L57.1377 59.8202C58.0342 59.871 58.957 59.8964 59.9326 59.8964H60.2754V60.912H59.9326ZM63.4658 60.8104L63.4131 59.7948C64.415 59.744 65.4434 59.6425 66.5244 59.5409L66.6299 60.5565C65.5225 60.6581 64.4678 60.7596 63.4658 60.8104ZM53.9209 60.5057C52.8398 60.3534 51.7852 60.1503 50.7832 59.8964L51.0469 58.9061C52.0225 59.1346 53.0508 59.3378 54.0791 59.4901L53.9209 60.5057ZM69.7676 60.1757L69.6357 59.16C70.6113 59.0331 71.6396 58.8807 72.7471 58.703L72.9053 59.6932C71.7715 59.8964 70.7432 60.0487 69.7676 60.1757ZM115.304 60.0741C114.565 59.4393 113.748 58.8807 112.852 58.3983L113.353 57.5096C114.328 58.0175 115.225 58.6268 116.016 59.3124L115.304 60.0741ZM75.9902 59.2108L75.8057 58.2206C76.834 58.0428 77.8623 57.8651 78.8906 57.6874L79.0752 58.6776C78.0732 58.8553 77.0449 59.0331 75.9902 59.2108ZM47.6982 58.9823C46.6963 58.6014 45.6943 58.1952 44.7715 57.7128L45.2725 56.8241C46.1689 57.2811 47.1182 57.6874 48.0674 58.0428L47.6982 58.9823ZM82.2129 58.119L82.0283 57.1288C83.0566 56.951 84.1113 56.7733 85.1396 56.5956L85.3242 57.5858C84.2695 57.7636 83.2412 57.9413 82.2129 58.119ZM110.03 57.2811C109.081 57.0018 108.079 56.7479 107.024 56.5702L107.209 55.58C108.29 55.7831 109.345 56.037 110.32 56.3417L110.03 57.2811ZM88.4092 57.078L88.251 56.0624C89.3584 55.8846 90.3867 55.7577 91.3887 55.6053L91.5205 56.621C90.5186 56.7479 89.5166 56.9003 88.4092 57.078ZM94.6318 56.2909L94.5264 55.2753C95.6338 55.1737 96.6885 55.0975 97.6904 55.0468L97.7432 56.0624C96.7412 56.1132 95.7129 56.1893 94.6318 56.2909ZM103.966 56.1386C102.964 56.0624 101.936 56.0116 100.854 55.9862V54.9706C101.962 54.9706 103.017 55.0214 104.045 55.1229L103.966 56.1386ZM42.0293 56.1132C41.1328 55.5292 40.2627 54.8944 39.4717 54.2596L40.1572 53.4725C40.9219 54.1073 41.7656 54.6913 42.6357 55.2753L42.0293 56.1132ZM37.1514 52.1268C36.4131 51.3651 35.7275 50.5526 35.1211 49.7401L35.9912 49.1561C36.5713 49.9432 37.2305 50.7303 37.9424 51.4413L37.1514 52.1268ZM33.4072 47.0995C32.9063 46.1854 32.458 45.246 32.0889 44.2811L33.0908 43.9257C33.4336 44.8651 33.8555 45.7538 34.3564 46.6425L33.4072 47.0995ZM31.1924 41.3104C30.9551 40.3202 30.7705 39.3046 30.665 38.2635L31.7197 38.162C31.8252 39.1522 31.9834 40.1425 32.2207 41.0819L31.1924 41.3104ZM31.5615 35.1659H30.5068C30.5068 34.1503 30.5859 33.1093 30.6914 32.0936L31.7461 32.2206C31.6406 33.1854 31.5879 34.1757 31.5615 35.1659Z" fill="#34345D"/>
<path d="M5.27344 212.621C5.0625 211.682 5.03613 211.072 5.00977 211.047L6.06445 210.996C6.06445 210.996 6.09082 211.58 6.30176 212.418L5.27344 212.621Z" fill="#34345D"/>
<path d="M142.119 67.5391C142.119 67.5391 135.264 61.4453 123.135 67.2852C111.006 73.125 109.424 85.8203 108.369 93.4375C107.314 101.055 102.832 111.465 95.9766 117.051C89.1211 122.637 83.3203 128.73 80.6836 142.188C78.0469 155.645 81.7383 165.039 77.7832 177.227C73.8281 189.414 61.4356 206.172 62.2266 219.883C63.0176 233.594 75.1465 232.07 75.1465 232.07H235.986C235.986 232.07 243.712 214.068 237.041 192.207C231.24 173.164 213.838 170.371 209.092 145.488C206.64 132.641 206.982 128.984 197.227 117.051C187.181 104.762 180.352 104.609 175.869 93.4375C171.387 82.2656 168.75 61.1914 142.119 67.5391Z" fill="#1F1F39"/>
<path d="M209.171 186.799L216.976 231.943H175.605L165.322 193.477L209.171 186.799Z" fill="#F9D2DD"/>
<path d="M64.3359 202.871C64.3359 202.871 44.0332 208.457 35.5957 206.934C27.1582 205.41 13.4473 197.032 15.0293 179.258C16.6113 161.485 51.1523 109.18 51.1523 109.18C51.1523 109.18 45.6152 103.086 47.9883 95.723C50.3613 88.3597 58.7988 86.3284 64.3359 86.0745C69.873 85.8206 73.8281 87.0902 73.8281 87.0902L85.957 70.5863C85.957 70.5863 88.5937 67.2855 91.7578 68.8089C94.9219 70.3324 88.5937 80.2347 88.5937 80.2347L82.793 91.6605C82.793 91.6605 81.7383 101.563 79.3652 107.149C76.9922 112.735 75.6738 114.004 75.6738 114.004L63.0176 154.121L77.5195 150.313L64.3359 202.871Z" fill="#FFEBF0"/>
<path d="M51.6797 205.664C60.5654 204.547 64.3359 202.871 64.3359 202.871L77.5195 150.312L64.5469 153.715L51.6797 205.664Z" fill="#F9ACC0"/>
<path d="M209.171 186.799L165.322 193.477L168.961 207.137L213.917 214.322L209.171 186.799Z" fill="#F9ACC0"/>
<path d="M177.188 206.172H213.838C213.838 206.172 207.773 148.535 177.715 139.649C147.656 130.762 126.826 133.555 117.334 136.348C107.842 139.141 67.2363 151.582 67.2363 151.582L58.5352 207.188L82.002 204.902L78.0469 232.07H181.986C181.986 232.07 179.824 216.074 177.188 206.172Z" fill="#3D5CFF"/>
<path d="M177.188 206.172H213.838C213.838 206.172 207.773 148.535 177.715 139.649C147.656 130.762 126.826 133.555 117.334 136.348C107.842 139.141 67.2363 151.582 67.2363 151.582L58.5352 207.188L82.002 204.902L78.0469 232.07H181.986C181.986 232.07 179.824 216.074 177.188 206.172Z" fill="#3D5CFF"/>
<path d="M208.459 182.127C208.301 182.127 208.169 182.076 208.063 181.949C204.029 177.582 193.298 167.401 180.404 166.817C169.752 166.334 167.115 160.037 164.769 154.502C163.266 150.947 161.868 147.571 158.625 145.666C152.745 142.213 146.707 144.067 139.113 146.403C135.738 147.444 132.258 148.51 128.355 149.246C121.526 150.541 117.36 147.571 115.04 144.854C112.562 141.934 111.691 138.76 111.639 138.608C111.56 138.328 111.744 138.049 112.008 137.998C112.298 137.922 112.588 138.1 112.641 138.354C112.641 138.379 113.511 141.477 115.857 144.219C118.969 147.85 123.082 149.196 128.145 148.256C131.968 147.52 135.448 146.453 138.797 145.438C146.364 143.102 152.903 141.096 159.179 144.803C162.712 146.885 164.268 150.567 165.771 154.121C168.091 159.656 170.49 165.369 180.483 165.801C193.772 166.385 204.768 176.821 208.881 181.264C209.065 181.467 209.065 181.797 208.828 181.975C208.696 182.076 208.564 182.127 208.459 182.127Z" fill="#EAEAFF"/>
<path d="M130.096 232.045C129.885 230.674 129.727 229.15 129.674 227.525C129.199 215.846 122.924 214.145 115.673 212.189C112.298 211.275 108.791 210.336 105.759 208.279C99.0879 203.785 99.8789 199.037 100.802 193.527C101.224 191.014 101.672 188.17 101.514 185.021C101.065 176.896 94.2627 174.713 84.876 171.717C83.1094 171.158 81.2637 170.549 79.3652 169.889C74.3291 168.137 71.6396 164.074 71.5869 158.184C71.5342 153.816 72.9316 150.033 72.9844 149.855L73.9863 150.186C73.96 150.211 72.5889 153.994 72.6416 158.184C72.7207 163.668 75.0937 167.299 79.7344 168.924C81.6064 169.584 83.4521 170.168 85.2187 170.727C94.6582 173.748 102.094 176.135 102.595 184.945C102.779 188.195 102.305 191.09 101.883 193.654C100.96 199.24 100.301 203.303 106.418 207.416C109.318 209.371 112.72 210.285 116.016 211.174C123.346 213.154 130.28 215.008 130.781 227.449C130.834 229.023 130.992 230.521 131.203 231.867L130.096 232.045Z" fill="#EAEAFF"/>
<path d="M172.02 190.785C165.586 184.133 160.972 183.447 153.984 182.381C152.745 182.203 151.479 182 150.082 181.771C142.699 180.502 141.697 175.881 140.643 171.006C140.01 168.061 139.324 165.014 137.373 162.094C134.235 157.447 128.936 158.615 121.605 160.24C116.886 161.281 111.56 162.449 105.627 162.297C101.171 162.17 95.1064 160.545 91.3887 153.41C89.2002 149.195 88.8838 145.082 88.8838 144.904L89.9385 144.828C89.9385 144.879 90.2549 148.941 92.3643 152.979C95.1592 158.336 99.6416 161.129 105.68 161.281C111.48 161.434 116.728 160.266 121.395 159.25C128.856 157.6 134.736 156.305 138.296 161.535C140.379 164.607 141.091 167.883 141.724 170.777C142.805 175.703 143.648 179.613 150.319 180.756C151.69 180.984 152.956 181.187 154.195 181.365C161.394 182.457 166.166 183.168 172.837 190.074L172.02 190.785Z" fill="#EAEAFF"/>
<path d="M120.762 94.4528C120.762 94.4528 117.07 91.9137 113.379 94.9606C109.687 98.0074 111.797 104.355 116.807 106.132C121.816 107.91 123.135 106.64 123.135 106.64L120.762 94.4528Z" fill="#F9ACC0"/>
<path d="M120.498 94.4531C120.498 94.4531 119.443 105.117 122.344 111.465C125.244 117.812 131.309 119.59 131.309 119.59C131.309 119.59 131.836 124.16 130.781 128.73C129.727 133.301 128.408 135.84 128.408 135.84C128.408 135.84 129.99 139.141 141.064 139.648C152.139 140.156 153.721 135.84 153.721 135.84C153.721 135.84 152.402 128.73 152.666 123.652C152.93 118.574 154.512 110.703 154.512 110.703C154.512 110.703 161.631 112.988 166.113 108.672C170.596 104.355 169.541 96.2305 164.004 95.7227C158.467 95.2148 155.566 99.7852 155.566 99.7852C155.566 99.7852 147.656 96.2305 144.492 90.3906C141.328 84.5508 141.064 80.4883 141.064 80.4883C141.064 80.4883 125.771 82.5195 120.498 94.4531Z" fill="#F9D2DD"/>
<path d="M128.54 101.055C129.487 101.055 130.254 100.145 130.254 99.0234C130.254 97.9016 129.487 96.9922 128.54 96.9922C127.593 96.9922 126.826 97.9016 126.826 99.0234C126.826 100.145 127.593 101.055 128.54 101.055Z" fill="#1F1F39"/>
<path d="M141.987 101.816C142.934 101.816 143.701 100.907 143.701 99.7852C143.701 98.6633 142.934 97.7539 141.987 97.7539C141.041 97.7539 140.273 98.6633 140.273 99.7852C140.273 100.907 141.041 101.816 141.987 101.816Z" fill="#1F1F39"/>
<path d="M136.582 106.894C136.582 106.894 138.164 107.402 139.219 107.148C140.273 106.894 142.383 105.371 142.383 105.371C142.383 105.371 142.91 105.117 143.174 105.371C143.437 105.625 141.75 108.519 140.273 108.925C138.428 109.433 137.109 108.671 136.318 107.656C135.527 106.64 136.582 106.894 136.582 106.894Z" fill="#F95368"/>
<path d="M135 97.5C134.657 98.0332 134.314 98.5664 133.972 99.0996C133.655 99.6328 133.365 100.191 133.181 100.75C133.102 101.029 133.049 101.309 133.075 101.562C133.075 101.639 133.102 101.689 133.102 101.74L133.181 101.943C133.233 102.07 133.312 102.197 133.392 102.324C133.708 102.781 134.341 103.061 134.974 103.086C134.657 103.188 134.314 103.188 133.972 103.111C133.629 103.035 133.312 102.857 133.075 102.578C132.943 102.451 132.864 102.299 132.759 102.146L132.653 101.918C132.627 101.842 132.601 101.74 132.574 101.639C132.495 101.283 132.574 100.928 132.653 100.598C132.864 99.9629 133.207 99.4043 133.603 98.8711C134.024 98.3633 134.473 97.9063 135 97.5Z" fill="#1F1F39"/>
<path d="M177.188 206.172H187.945C186.706 202.389 182.118 188.906 176.924 180.02C170.859 169.609 163.213 162.246 163.213 162.246C163.213 162.246 169.752 180.477 171.65 186.621C173.522 192.639 178.321 210.945 178.321 210.945C177.952 209.27 177.583 207.645 177.188 206.172Z" fill="#224BF4"/>
<path d="M140.273 93.6917C140.695 93.3362 141.17 93.0823 141.697 92.8792C142.225 92.7014 142.752 92.5745 143.306 92.5491C143.859 92.5237 144.439 92.5745 144.967 92.7522C145.494 92.93 146.021 93.2093 146.312 93.6917C145.811 93.4886 145.31 93.4124 144.809 93.3362C144.308 93.2854 143.807 93.2854 143.332 93.3108C142.831 93.3362 142.33 93.387 141.829 93.4632L140.273 93.6917Z" fill="#1F1F39"/>
<path d="M123.926 91.9137C124.506 91.5582 125.165 91.3805 125.851 91.2789C126.536 91.2027 127.222 91.2281 127.907 91.3805C128.593 91.5328 129.226 91.7867 129.806 92.1422C130.096 92.3199 130.359 92.5484 130.597 92.8023C130.808 93.0562 131.019 93.3609 131.045 93.691C130.86 93.4371 130.597 93.234 130.333 93.0816C130.069 92.9293 129.779 92.8023 129.489 92.6754C128.909 92.4469 128.303 92.2691 127.723 92.1168C127.116 91.9898 126.51 91.8883 125.877 91.8629C125.244 91.8629 124.585 91.8629 123.926 91.9137Z" fill="#1F1F39"/>
<path d="M243.105 231.816H26.8945V232.656H243.105V231.816Z" fill="#1F1F39"/>
<path d="M69.873 110.703C69.8203 110.703 69.7412 110.678 69.7148 110.652C69.5566 110.525 65.9443 107.479 65.1533 102.375C64.7578 99.8867 64.916 96.3574 66.5508 94.5039C67.0254 93.9961 67.5263 93.7168 68.0537 93.7168C69.4248 93.7168 69.9258 94.707 70.7695 96.3574C71.0332 96.8906 71.3496 97.4746 71.7187 98.1602C73.2744 100.877 77.7041 105.168 77.7304 105.219C77.8359 105.32 77.8359 105.473 77.7304 105.574C77.625 105.676 77.4668 105.676 77.3613 105.574C77.1767 105.396 72.8262 101.207 71.2441 98.4141C70.8486 97.7285 70.5586 97.1191 70.2685 96.5859C69.4248 94.9102 69.0293 94.2246 68.0273 94.2246C67.6845 94.2246 67.289 94.4531 66.9199 94.834C65.9707 95.9004 65.0478 98.5156 65.6279 102.299C66.3926 107.225 69.9785 110.246 70.0312 110.271C70.1367 110.373 70.1631 110.525 70.0576 110.627C70.0312 110.678 69.9521 110.703 69.873 110.703Z" fill="#1F1F39"/>
<path d="M60.8027 101.867C59.959 101.867 59.0361 101.74 58.0605 101.436C53.9736 100.115 53.9209 98.2363 53.9209 98.1602C53.9209 98.0078 54.0264 97.9062 54.1846 97.9062C54.3164 97.9062 54.4482 98.0078 54.4482 98.1602C54.4482 98.1855 54.5537 99.7852 58.2188 100.979C61.9893 102.197 65.0215 100.242 65.0479 100.242C65.1797 100.166 65.3379 100.191 65.417 100.318C65.4961 100.445 65.4697 100.598 65.3379 100.674C65.2588 100.674 63.4131 101.842 60.8027 101.867Z" fill="#1F1F39"/>
<path d="M148.184 119.336C148.184 119.336 147.92 119.336 145.02 120.098C145.02 120.098 138.48 121.977 131.361 120.047C131.467 121.316 131.651 125.023 130.781 128.73C130.702 129.086 130.623 129.416 130.544 129.721C132.917 129.746 136.635 129.416 140.537 127.461C147.129 124.16 148.184 119.336 148.184 119.336Z" fill="#F9ACC0"/>
<path d="M49.7021 156.787C49.5703 156.787 49.4648 156.711 49.4385 156.584C49.4121 156.457 49.4912 156.305 49.6494 156.279L66.999 152.877C67.1309 152.851 67.2891 152.928 67.3154 153.08C67.3418 153.207 67.2627 153.359 67.1045 153.385L49.7549 156.787C49.7285 156.787 49.7285 156.787 49.7021 156.787Z" fill="#1F1F39"/>
<path d="M138.27 121.266C137.848 121.266 137.399 121.266 136.978 121.241C135.606 121.19 134.235 120.961 132.864 120.606C132.311 120.453 131.757 120.301 131.23 120.098C131.098 120.047 131.019 119.895 131.071 119.768C131.124 119.641 131.282 119.565 131.414 119.616C131.941 119.793 132.469 119.971 133.022 120.098C134.341 120.453 135.686 120.657 137.03 120.707C142.699 120.961 146.892 119.463 146.944 119.463C147.076 119.412 147.234 119.489 147.287 119.616C147.34 119.742 147.261 119.895 147.129 119.946C147.05 119.971 143.385 121.266 138.27 121.266Z" fill="#1F1F39"/>
<path d="M120.366 105.498C120.208 105.498 120.103 105.397 120.103 105.244C120.103 105.219 120.076 103.746 118.547 101.055C117.044 98.4143 115.778 97.8811 115.778 97.8557C115.646 97.805 115.567 97.6526 115.646 97.5257C115.726 97.3987 115.857 97.3225 115.989 97.3733C116.042 97.3987 117.413 97.9573 119.021 100.776C120.63 103.594 120.63 105.143 120.63 105.219C120.63 105.397 120.524 105.498 120.366 105.498Z" fill="#1F1F39"/>
<path d="M176.977 206.121C176.871 206.121 176.766 206.045 176.713 205.944C175.737 202.744 174.313 197.793 172.942 192.283C170.332 181.746 163.002 162.551 162.923 162.348C162.87 162.221 162.949 162.069 163.081 162.018C163.213 161.967 163.371 162.043 163.424 162.17C163.503 162.373 170.833 181.594 173.443 192.157C174.814 197.666 176.238 202.617 177.188 205.791C177.24 205.918 177.135 206.071 177.003 206.096C177.029 206.096 177.003 206.121 176.977 206.121Z" fill="#1F1F39"/>
<path d="M100.459 44.1797C100.459 44.1797 100.459 44.002 100.459 43.6719C100.433 44.002 100.459 44.1797 100.459 44.1797Z" fill="#EAEAFF"/>
<path d="M118.626 19.373H83.3467C80.3408 19.373 77.915 21.709 77.915 24.6035V39.8125C77.915 42.707 80.3408 45.043 83.3467 45.043H91.4941V54.209C91.4941 54.9453 92.1006 55.5293 92.8652 55.5293H93.2871C93.709 55.6055 94.1836 55.5293 94.5264 55.1992L105.706 45.0684H118.652C121.658 45.0684 124.084 42.7324 124.084 39.8379V24.6035C124.058 21.709 121.632 19.373 118.626 19.373ZM100.195 39.1016C100.195 39.1016 94.9219 37.0703 92.2852 32.2461C89.6484 27.4219 90.9668 24.6289 90.9668 24.6289C90.9668 24.6289 95.7393 24.0195 98.3496 27.6758C100.644 30.875 100.96 34.0742 100.986 35.293C101.092 34.3789 101.725 32.3477 105.205 29.9609C108.896 27.4219 112.324 28.4375 112.324 28.4375C112.324 28.4375 114.697 37.0703 100.195 39.1016Z" fill="white"/>
<path d="M100.195 38.5938C100.195 38.5938 102.305 37.0703 105.469 34.5312C108.633 31.9922 111.006 29.707 111.006 29.707C111.006 29.707 109.16 30.4688 106.787 32.2461C104.414 34.0234 100.195 38.5938 100.195 38.5938Z" fill="white"/>
<path d="M93.0762 26.6602C93.0762 26.6602 93.3398 27.9297 95.7129 32.2461C98.0859 36.5625 100.195 38.5938 100.195 38.5938C100.195 38.5938 98.877 35.8008 97.2949 32.7539C95.7129 29.707 93.0762 26.6602 93.0762 26.6602Z" fill="white"/>
<path d="M221.063 60.7598H185.783C182.777 60.7598 180.352 63.0957 180.352 65.9902V81.1992C180.352 84.0937 182.777 86.4297 185.783 86.4297H198.729L209.909 96.5605C210.252 96.8906 210.727 96.9668 211.148 96.8906H211.57C212.335 96.8906 212.941 96.3066 212.941 95.5703V86.4043H221.089C224.095 86.4043 226.521 84.0684 226.521 81.1738V65.9648C226.494 63.0957 224.068 60.7598 221.063 60.7598ZM202.79 79.8535C202.79 80.1074 202.579 80.2852 202.315 80.2852C202.263 80.2852 202.236 80.2852 202.184 80.2598L196.567 78.4062C196.172 78.2793 195.908 77.9238 195.908 77.5176V67.6914C195.908 67.1582 196.33 66.7519 196.884 66.7266C196.989 66.7266 197.095 66.752 197.2 66.7773L202.157 68.4023C202.526 68.5293 202.79 68.8848 202.79 69.2656V79.8535V79.8535ZM210.278 78.4316L204.662 80.2852C204.425 80.3613 204.161 80.2344 204.082 80.0059C204.056 79.9551 204.056 79.9043 204.056 79.8535V69.2656C204.056 68.8848 204.319 68.5293 204.688 68.4023L209.646 66.7773C210.173 66.5996 210.727 66.8789 210.885 67.3613C210.911 67.4629 210.938 67.5645 210.938 67.666V77.4922C210.938 77.9492 210.674 78.3047 210.278 78.4316Z" fill="white"/>
<path d="M148.843 107.91C151.682 107.91 153.984 106.546 153.984 104.863C153.984 103.181 151.682 101.816 148.843 101.816C146.003 101.816 143.701 103.181 143.701 104.863C143.701 106.546 146.003 107.91 148.843 107.91Z" fill="#F9ACC0"/>
<path d="M124.058 101.816C122.634 101.816 121.368 102.146 120.445 102.705C120.551 104.229 120.735 105.803 121.052 107.326C121.896 107.682 122.924 107.91 124.058 107.91C126.905 107.91 129.199 106.539 129.199 104.863C129.199 103.188 126.905 101.816 124.058 101.816Z" fill="#F9ACC0"/>
<path d="M155.039 107.656C154.644 108.926 154.485 110.094 154.485 110.906C154.512 110.779 154.512 110.703 154.512 110.703C154.512 110.703 156.015 111.186 158.071 111.287C158.045 111.109 157.992 110.932 157.939 110.703C156.885 107.656 160.312 101.816 160.312 101.816C160.312 101.816 156.621 102.578 155.039 107.656Z" fill="#F9ACC0"/>
<path d="M154.644 108.545C154.617 108.545 154.591 108.545 154.564 108.52C154.433 108.469 154.354 108.342 154.406 108.19C154.433 108.114 154.96 106.59 156.806 104.051C158.678 101.487 160.761 100.446 160.866 100.42C160.998 100.37 161.156 100.42 161.209 100.522C161.262 100.649 161.209 100.801 161.104 100.852C161.077 100.852 159.021 101.868 157.254 104.33C155.461 106.819 154.907 108.317 154.907 108.317C154.855 108.469 154.749 108.545 154.644 108.545Z" fill="#1F1F39"/>
<path d="M81.8174 204.928L88.8838 174.18C88.8838 174.18 85.6934 185.885 78.3105 195.279C73.1953 201.805 64.1514 205.512 59.0625 207.162L81.8174 204.928Z" fill="#224BF4"/>
<path d="M82.002 205.156H81.9756C81.8437 205.131 81.7383 205.004 81.7383 204.877C81.7383 204.801 82.8193 196.65 84.6387 188.855C86.458 181.061 90.6768 167.146 90.7031 166.994C90.7559 166.867 90.8877 166.791 91.0195 166.816C91.1514 166.867 91.2305 166.994 91.2041 167.121C91.1514 167.248 86.959 181.162 85.1396 188.932C83.3203 196.701 82.2656 204.826 82.2393 204.902C82.2393 205.055 82.1338 205.156 82.002 205.156Z" fill="#1F1F39"/>
</svg>
