<svg width="282" height="271" viewBox="0 0 282 271" fill="none" xmlns="http://www.w3.org/2000/svg">
<g clip-path="url(#clip0_262_618)">
<path d="M221.2 0H60.4C27.2629 0 0.400024 26.8629 0.400024 60V210.246C0.400024 243.383 27.263 270.246 60.4001 270.246H221.2C254.337 270.246 281.2 243.383 281.2 210.246V60C281.2 26.8629 254.337 0 221.2 0Z" fill="#34345D"/>
<path d="M192.843 25.9852H189.579C189.278 25.9852 189.031 26.2228 189.031 26.5131C189.031 26.8034 189.278 27.0409 189.579 27.0409H192.843C193.144 27.0409 193.391 26.8034 193.391 26.5131C193.391 26.2228 193.144 25.9852 192.843 25.9852ZM186.289 25.9852H183.025C182.724 25.9852 182.477 26.2228 182.477 26.5131C182.477 26.8034 182.724 27.0409 183.025 27.0409H186.289C186.59 27.0409 186.837 26.8034 186.837 26.5131C186.837 26.2228 186.59 25.9852 186.289 25.9852ZM179.735 25.9852H176.472C176.17 25.9852 175.923 26.2228 175.923 26.5131C175.923 26.8034 176.17 27.0409 176.472 27.0409H179.735C180.036 27.0409 180.283 26.8034 180.283 26.5131C180.283 26.2228 180.036 25.9852 179.735 25.9852ZM173.181 25.9852H169.918C169.616 25.9852 169.369 26.2228 169.369 26.5131C169.369 26.8034 169.616 27.0409 169.918 27.0409H173.181C173.483 27.0409 173.729 26.8034 173.729 26.5131C173.729 26.2228 173.483 25.9852 173.181 25.9852ZM166.655 25.9852H163.391C163.09 25.9852 162.843 26.2228 162.843 26.5131C162.843 26.8034 163.09 27.0409 163.391 27.0409H166.655C166.956 27.0409 167.203 26.8034 167.203 26.5131C167.176 26.2228 166.956 25.9852 166.655 25.9852ZM160.101 25.9852H156.81C156.509 25.9852 156.262 26.2228 156.262 26.5131C156.262 26.8034 156.509 27.0409 156.81 27.0409H160.101C160.402 27.0409 160.649 26.8034 160.649 26.5131C160.649 26.2228 160.402 25.9852 160.101 25.9852ZM153.547 25.9852H150.284C149.982 25.9852 149.735 26.2228 149.735 26.5131C149.735 26.8034 149.982 27.0409 150.284 27.0409H153.547C153.849 27.0409 154.095 26.8034 154.095 26.5131C154.095 26.2228 153.849 25.9852 153.547 25.9852ZM146.993 25.9852H143.73C143.428 25.9852 143.181 26.2228 143.181 26.5131C143.181 26.8034 143.428 27.0409 143.73 27.0409H146.993C147.295 27.0409 147.542 26.8034 147.542 26.5131C147.542 26.2228 147.295 25.9852 146.993 25.9852ZM140.467 25.9852H137.204C136.902 25.9852 136.655 26.2228 136.655 26.5131C136.655 26.8034 136.902 27.0409 137.204 27.0409H140.467C140.768 27.0409 141.015 26.8034 141.015 26.5131C140.988 26.2228 140.768 25.9852 140.467 25.9852ZM133.913 25.9852H130.65C130.348 25.9852 130.101 26.2228 130.101 26.5131C130.101 26.8034 130.348 27.0409 130.65 27.0409H133.913C134.215 27.0409 134.461 26.8034 134.461 26.5131C134.461 26.2228 134.215 25.9852 133.913 25.9852ZM127.359 25.9852H124.096C123.794 25.9852 123.547 26.2228 123.547 26.5131C123.547 26.8034 123.794 27.0409 124.096 27.0409H127.359C127.661 27.0409 127.907 26.8034 127.907 26.5131C127.907 26.2228 127.661 25.9852 127.359 25.9852ZM120.805 25.9852H117.542C117.24 25.9852 116.994 26.2228 116.994 26.5131C116.994 26.8034 117.24 27.0409 117.542 27.0409H120.805C121.107 27.0409 121.354 26.8034 121.354 26.5131C121.354 26.2228 121.107 25.9852 120.805 25.9852ZM114.279 25.9852H111.016C110.714 25.9852 110.467 26.2228 110.467 26.5131C110.467 26.8034 110.714 27.0409 111.016 27.0409H114.279C114.58 27.0409 114.827 26.8034 114.827 26.5131C114.8 26.2228 114.553 25.9852 114.279 25.9852ZM107.725 25.9852H104.434C104.133 25.9852 103.886 26.2228 103.886 26.5131C103.886 26.8034 104.133 27.0409 104.434 27.0409H107.725C108.027 27.0409 108.273 26.8034 108.273 26.5131C108.273 26.2228 108.027 25.9852 107.725 25.9852ZM101.171 25.9852H97.908C97.6063 25.9852 97.3595 26.2228 97.3595 26.5131C97.3595 26.8034 97.6063 27.0409 97.908 27.0409H101.171C101.473 27.0409 101.72 26.8034 101.72 26.5131C101.72 26.2228 101.473 25.9852 101.171 25.9852ZM94.6173 25.9852H92.5607C92.5607 25.9852 92.5607 25.9852 92.5333 25.9852C92.5059 25.9852 92.4784 25.9852 92.4236 25.9852H92.3962C92.3413 25.9852 92.3139 25.9852 92.2591 25.9852C92.1768 25.9852 92.0945 26.0116 92.0123 26.0116C91.7106 26.038 91.4912 26.3019 91.5187 26.5922C91.5461 26.8561 91.7929 27.0673 92.0671 27.0673C92.0945 27.0673 92.0945 27.0673 92.122 27.0673C92.4784 27.0409 92.8623 27.0145 93.2463 27.0145H95.3029C95.6045 27.0145 95.8513 26.777 95.8513 26.4867C95.1658 26.2227 94.919 25.9852 94.6173 25.9852ZM88.3926 26.777C88.3377 26.777 88.2555 26.777 88.2006 26.8034C87.186 27.1992 86.2262 27.7271 85.3762 28.3868C85.1294 28.5716 85.102 28.8883 85.2939 29.1258C85.4036 29.2577 85.5681 29.3369 85.7327 29.3369C85.8423 29.3369 85.9795 29.3105 86.0617 29.2314C86.857 28.6507 87.707 28.1493 88.6119 27.8062C88.8862 27.7007 89.0233 27.384 88.9136 27.1201C88.8039 26.8825 88.612 26.777 88.3926 26.777ZM83.5389 30.419C83.3744 30.419 83.2098 30.4981 83.1002 30.6301C82.7985 31.026 82.5243 31.4482 82.2501 31.8969V31.9233V31.9497V31.976V32.0024V32.0288V32.0552C82.2501 32.0552 82.2501 32.0552 82.2501 32.0816V32.108V32.1344V32.1608V32.1872C82.1404 32.3983 82.0581 32.6358 81.9759 32.847C81.8662 33.1109 82.0307 33.4276 82.3049 33.5331C82.3598 33.5595 82.442 33.5595 82.4969 33.5595C82.7162 33.5595 82.9356 33.4276 83.0179 33.2164C83.347 32.3191 83.8405 31.4746 84.4164 30.7093C84.5809 30.4717 84.5535 30.155 84.3067 29.9703C83.7583 30.4717 83.6486 30.419 83.5389 30.419ZM81.4274 35.9875C81.1532 35.9875 80.9064 36.1986 80.879 36.4626C80.879 36.4889 80.879 36.5153 80.879 36.5417V36.5681C80.879 36.6737 80.879 36.8056 80.879 36.9112V36.9376V36.964V36.9904V37.0168V39.392C80.879 39.6823 81.1258 39.9198 81.4274 39.9198C81.7291 39.9198 81.9759 39.6823 81.9759 39.392V37.0168C81.9759 36.7792 81.9759 36.5417 82.0033 36.3042C82.0307 36.0139 81.7839 35.7764 81.5097 35.75C81.4548 35.9875 81.4274 35.9875 81.4274 35.9875ZM81.4 42.2686C81.0984 42.2686 80.8516 42.5061 80.8516 42.7964V45.937C80.8516 46.2273 81.0984 46.4648 81.4 46.4648C81.7016 46.4648 81.9484 46.2273 81.9484 45.937V42.7964C81.9484 42.5061 81.7016 42.2686 81.4 42.2686ZM81.4 48.5761C81.0984 48.5761 80.8516 48.8137 80.8516 49.104V52.2445C80.8516 52.5348 81.0984 52.7723 81.4 52.7723C81.7016 52.7723 81.9484 52.5348 81.9484 52.2445V49.104C81.9484 48.7873 81.7016 48.5761 81.4 48.5761ZM81.4 54.8572C81.0984 54.8572 80.8516 55.0948 80.8516 55.3851V58.5256C80.8516 58.8159 81.0984 59.0535 81.4 59.0535C81.7016 59.0535 81.9484 58.8159 81.9484 58.5256V55.3851C81.9484 55.0948 81.7016 54.8572 81.4 54.8572ZM81.4 61.1648C81.0984 61.1648 80.8516 61.4023 80.8516 61.6926V64.8331C80.8516 65.1234 81.0984 65.361 81.4 65.361C81.7016 65.361 81.9484 65.1234 81.9484 64.8331V61.6926C81.9484 61.4023 81.7016 61.1648 81.4 61.1648ZM81.4 67.4723C81.0984 67.4723 80.8516 67.7098 80.8516 68.0001V71.1406C80.8516 71.4309 81.0984 71.6685 81.4 71.6685C81.7016 71.6685 81.9484 71.4309 81.9484 71.1406V68.0001C81.9484 67.7098 81.7016 67.4723 81.4 67.4723ZM81.4 73.7798C81.0984 73.7798 80.8516 74.0173 80.8516 74.3076V77.4481C80.8516 77.7385 81.0984 77.976 81.4 77.976C81.7016 77.976 81.9484 77.7385 81.9484 77.4481V74.2812C81.9484 74.0173 81.7016 73.7798 81.4 73.7798ZM81.4 80.0609C81.0984 80.0609 80.8516 80.2984 80.8516 80.5887V83.7293C80.8516 84.0196 81.0984 84.2571 81.4 84.2571C81.7016 84.2571 81.9484 84.0196 81.9484 83.7293V80.5887C81.9484 80.2984 81.7016 80.0609 81.4 80.0609ZM81.4 86.3684C81.0984 86.3684 80.8516 86.6059 80.8516 86.8962V90.0368C80.8516 90.3271 81.0984 90.5646 81.4 90.5646C81.7016 90.5646 81.9484 90.3271 81.9484 90.0368V86.8962C81.9484 86.6059 81.7016 86.3684 81.4 86.3684ZM81.4 92.6759C81.0984 92.6759 80.8516 92.9134 80.8516 93.2037V95.4734C80.8516 95.4734 80.8516 95.4734 80.8516 95.4998C80.8516 95.4998 80.8516 95.4998 80.8516 95.5261C80.8516 95.6053 80.8516 95.6845 80.879 95.7637C80.9064 96.0276 81.1532 96.2387 81.4274 96.2387C81.4548 96.2387 81.4548 96.2387 81.4823 96.2387C81.7839 96.2123 82.0033 95.9748 81.9759 95.6845C81.9484 95.4206 81.9484 95.1567 81.9484 94.8664V92.5967C81.9484 92.9134 81.7016 92.6759 81.4 92.6759ZM82.113 98.6931C82.0581 98.6931 81.9759 98.6931 81.921 98.7195C81.6468 98.8251 81.5097 99.1154 81.592 99.4057C81.6468 99.564 81.7291 99.7487 81.8113 99.9071V99.9335V99.9599V99.9863C81.8113 99.9863 81.8113 99.9863 81.8388 100.013C81.8388 100.013 81.8388 100.013 81.8662 100.039C81.8662 100.039 81.8662 100.065 81.8936 100.065C82.0033 100.197 82.1678 100.277 82.3323 100.277C82.442 100.277 82.5517 100.25 82.6614 100.171C82.9082 99.9863 82.963 99.6696 82.7711 99.432C82.1678 98.6667 81.7016 97.8222 81.3452 96.9249C82.5243 98.8251 82.3323 98.6931 82.113 98.6931ZM85.7875 103.47C85.623 103.47 85.4584 103.549 85.3487 103.681C85.1568 103.919 85.2116 104.235 85.4584 104.42C85.5407 104.473 85.623 104.526 85.7052 104.605C85.7052 104.605 85.7052 104.605 85.7327 104.631C85.7327 104.631 85.7327 104.631 85.7601 104.658C85.7601 104.658 85.7601 104.658 85.7875 104.658H85.8149H85.8423H85.8698C86.2811 104.869 86.7198 105.08 87.186 105.238C87.2409 105.265 87.3231 105.265 87.378 105.265C87.5973 105.265 87.7893 105.133 87.899 104.921C88.0087 104.658 87.8716 104.341 87.5973 104.235C86.665 103.892 85.8149 103.417 85.0197 102.837C86.0069 103.496 85.8972 103.47 85.7875 103.47ZM91.5187 105.634C91.2445 105.634 90.9977 105.845 90.9702 106.109C90.9428 106.399 91.1622 106.663 91.4638 106.69H91.4912C91.7655 106.716 92.0671 106.716 92.3413 106.742C92.3413 106.742 92.3413 106.742 92.3687 106.742C92.3687 106.742 92.3688 106.742 92.3962 106.742H92.4236H94.5899C94.8916 106.742 95.1384 106.505 95.1384 106.215C95.1384 105.924 94.8916 105.687 94.5899 105.687H92.4236C92.0945 105.687 91.738 105.66 91.409 105.634C91.5461 105.634 91.5187 105.634 91.5187 105.634ZM101.281 105.687H98.0177C97.716 105.687 97.4692 105.924 97.4692 106.215C97.4692 106.505 97.716 106.742 98.0177 106.742H101.281C101.582 106.742 101.829 106.505 101.829 106.215C101.829 105.924 101.582 105.687 101.281 105.687ZM107.835 105.687H104.571C104.27 105.687 104.023 105.924 104.023 106.215C104.023 106.505 104.27 106.742 104.571 106.742H107.835C108.136 106.742 108.383 106.505 108.383 106.215C108.383 105.924 108.136 105.687 107.835 105.687ZM114.389 105.687H111.125C110.824 105.687 110.577 105.924 110.577 106.215C110.577 106.505 110.824 106.742 111.125 106.742H114.389C114.69 106.742 114.937 106.505 114.937 106.215C114.91 105.924 114.69 105.687 114.389 105.687ZM120.915 105.687H117.652C117.35 105.687 117.103 105.924 117.103 106.215C117.103 106.505 117.35 106.742 117.652 106.742H120.915C121.217 106.742 121.463 106.505 121.463 106.215C121.463 105.924 121.217 105.687 120.915 105.687ZM127.469 105.687H124.206C123.904 105.687 123.657 105.924 123.657 106.215C123.657 106.505 123.904 106.742 124.206 106.742H127.469C127.77 106.742 128.017 106.505 128.017 106.215C128.017 105.924 127.77 105.687 127.469 105.687ZM134.023 105.687H130.759C130.458 105.687 130.211 105.924 130.211 106.215C130.211 106.505 130.458 106.742 130.759 106.742H134.023C134.324 106.742 134.571 106.505 134.571 106.215C134.571 105.924 134.324 105.687 134.023 105.687ZM140.576 105.687H137.313C137.012 105.687 136.765 105.924 136.765 106.215C136.765 106.505 137.012 106.742 137.313 106.742H140.576C140.878 106.742 141.125 106.505 141.125 106.215C141.125 105.924 140.878 105.687 140.576 105.687ZM147.103 105.687H143.84C143.538 105.687 143.291 105.924 143.291 106.215C143.291 106.505 143.538 106.742 143.84 106.742H147.103C147.404 106.742 147.651 106.505 147.651 106.215C147.651 105.924 147.404 105.687 147.103 105.687ZM153.657 105.687H150.393C150.092 105.687 149.845 105.924 149.845 106.215C149.845 106.505 150.092 106.742 150.393 106.742H153.657C153.958 106.742 154.205 106.505 154.205 106.215C154.205 105.924 153.958 105.687 153.657 105.687ZM160.21 105.687H156.947C156.646 105.687 156.399 105.924 156.399 106.215C156.399 106.505 156.646 106.742 156.947 106.742H160.21C160.512 106.742 160.759 106.505 160.759 106.215C160.759 105.924 160.512 105.687 160.21 105.687ZM166.764 105.687H163.501C163.199 105.687 162.953 105.924 162.953 106.215C162.953 106.505 163.199 106.742 163.501 106.742H166.764C167.066 106.742 167.313 106.505 167.313 106.215C167.313 105.924 167.066 105.687 166.764 105.687ZM173.291 105.687H170.027C169.726 105.687 169.479 105.924 169.479 106.215C169.479 106.505 169.726 106.742 170.027 106.742H173.291C173.592 106.742 173.839 106.505 173.839 106.215C173.839 105.924 173.592 105.687 173.291 105.687ZM179.845 105.687H176.581C176.28 105.687 176.033 105.924 176.033 106.215C176.033 106.505 176.28 106.742 176.581 106.742H179.845C180.146 106.742 180.393 106.505 180.393 106.215C180.393 105.924 180.146 105.687 179.845 105.687ZM186.398 105.687H183.135C182.834 105.687 182.587 105.924 182.587 106.215C182.587 106.505 182.834 106.742 183.135 106.742H186.398C186.7 106.742 186.947 106.505 186.947 106.215C186.947 105.924 186.7 105.687 186.398 105.687ZM192.952 105.687H189.689C189.387 105.687 189.141 105.924 189.141 106.215C189.141 106.505 189.387 106.742 189.689 106.742H192.952C193.254 106.742 193.501 106.505 193.501 106.215C193.501 105.924 193.254 105.687 192.952 105.687ZM199.479 105.687H199.369H196.215C195.914 105.687 195.667 105.924 195.667 106.215C195.667 106.505 195.914 106.742 196.215 106.742H199.369H199.396C199.396 106.742 199.396 106.742 199.424 106.742C199.725 106.742 199.972 106.505 199.945 106.215C200.027 105.924 199.78 105.687 199.479 105.687ZM205.374 103.998C205.265 103.998 205.182 104.024 205.073 104.077C204.223 104.605 203.345 105.001 202.385 105.265C202.084 105.344 201.919 105.634 202.029 105.924C202.111 106.162 202.303 106.294 202.55 106.294C202.605 106.294 202.66 106.294 202.714 106.267C203.455 106.056 204.168 105.766 204.826 105.423H204.853H204.881H204.908H204.936C205.1 105.317 205.292 105.212 205.457 105.106C205.703 104.948 205.786 104.631 205.621 104.394C205.731 104.077 205.566 103.998 205.374 103.998ZM209.46 99.5376C209.268 99.5376 209.049 99.6432 208.967 99.8279C208.528 100.699 207.979 101.491 207.321 102.203C207.129 102.414 207.129 102.757 207.376 102.942C207.486 103.021 207.595 103.074 207.733 103.074C207.897 103.074 208.034 103.021 208.144 102.889C208.857 102.098 209.46 101.227 209.954 100.277C210.091 100.013 209.981 99.696 209.707 99.564C209.625 99.564 209.542 99.5376 209.46 99.5376ZM210.557 93.626C210.255 93.626 210.009 93.8635 210.009 94.1538V95.447C210.009 96.0012 209.954 96.5818 209.871 97.136C209.817 97.4263 210.036 97.6902 210.31 97.743C210.338 97.743 210.365 97.743 210.393 97.743C210.667 97.743 210.886 97.5583 210.941 97.2944C211.023 96.8193 211.078 96.3443 211.078 95.8692V95.8428V95.8165V95.7901C211.078 95.7901 211.078 95.7901 211.078 95.7637V94.4705C211.105 93.8635 210.859 93.626 210.557 93.626ZM210.557 87.3449C210.255 87.3449 210.009 87.5824 210.009 87.8727V91.0132C210.009 91.3035 210.255 91.5411 210.557 91.5411C210.859 91.5411 211.105 91.3035 211.105 91.0132V87.8727C211.105 87.5824 210.859 87.3449 210.557 87.3449ZM210.557 81.0374C210.255 81.0374 210.009 81.2749 210.009 81.5652V84.7057C210.009 84.996 210.255 85.2336 210.557 85.2336C210.859 85.2336 211.105 84.996 211.105 84.7057V81.5652C211.105 81.2749 210.859 81.0374 210.557 81.0374ZM210.557 74.7299C210.255 74.7299 210.009 74.9674 210.009 75.2577V78.3982C210.009 78.6885 210.255 78.9261 210.557 78.9261C210.859 78.9261 211.105 78.6885 211.105 78.3982V75.2577C211.105 74.9674 210.859 74.7299 210.557 74.7299ZM210.557 68.4223C210.255 68.4223 210.009 68.6599 210.009 68.9502V72.0907C210.009 72.381 210.255 72.6186 210.557 72.6186C210.859 72.6186 211.105 72.381 211.105 72.0907V68.9502C211.105 68.6599 210.859 68.4223 210.557 68.4223ZM210.557 62.1412C210.255 62.1412 210.009 62.3788 210.009 62.6691V65.8096C210.009 66.0999 210.255 66.3374 210.557 66.3374C210.859 66.3374 211.105 66.0999 211.105 65.8096V62.6691C211.105 62.3788 210.859 62.1412 210.557 62.1412ZM210.557 55.8337C210.255 55.8337 210.009 56.0712 210.009 56.3615V59.5021C210.009 59.7924 210.255 60.0299 210.557 60.0299C210.859 60.0299 211.105 59.7924 211.105 59.5021V56.3615C211.105 56.0712 210.859 55.8337 210.557 55.8337ZM210.557 49.5262C210.255 49.5262 210.009 49.7637 210.009 50.054V53.1946C210.009 53.4849 210.255 53.7224 210.557 53.7224C210.859 53.7224 211.105 53.4849 211.105 53.1946V50.054C211.105 49.7637 210.859 49.5262 210.557 49.5262ZM210.557 43.2187C210.255 43.2187 210.009 43.4562 210.009 43.7465V46.8871C210.009 47.1774 210.255 47.4149 210.557 47.4149C210.859 47.4149 211.105 47.1774 211.105 46.8871V43.7465C211.105 43.4562 210.859 43.2187 210.557 43.2187ZM210.557 36.9376C210.255 36.9376 210.009 37.1751 210.009 37.4654V40.606C210.009 40.8963 210.255 41.1338 210.557 41.1338C210.859 41.1338 211.105 40.8963 211.105 40.606V37.4654C211.105 37.1751 210.859 36.9376 210.557 36.9376ZM208.939 31.2107C208.829 31.2107 208.747 31.2371 208.665 31.2899C208.418 31.4482 208.336 31.7649 208.473 32.0024C208.994 32.8206 209.378 33.6915 209.652 34.6152C209.707 34.8527 209.926 35.011 210.173 35.011C210.228 35.011 210.255 35.011 210.31 34.9846C210.612 34.9055 210.776 34.6152 210.694 34.3513C210.639 34.1665 210.584 33.9554 210.502 33.7706V33.7443C210.502 33.7443 210.502 33.7443 210.502 33.7179C210.502 33.7179 210.502 33.7179 210.502 33.6915V33.6651V33.6387C210.502 33.6123 210.502 33.6123 210.475 33.5859C210.228 32.9525 209.926 32.3191 209.57 31.7385V31.7121C209.57 31.7121 209.57 31.7121 209.57 31.6857C209.323 31.2899 209.131 31.2107 208.939 31.2107ZM204.442 27.1464C204.25 27.1464 204.058 27.252 203.948 27.4367C203.811 27.7007 203.921 28.0174 204.195 28.1493C205.073 28.5716 205.895 29.1258 206.608 29.7856C206.718 29.8911 206.855 29.9175 206.992 29.9175C207.129 29.9175 207.294 29.8647 207.404 29.7592C207.595 29.548 207.595 29.205 207.376 29.0202C207.02 28.7035 206.663 28.4132 206.279 28.1493C206.279 28.1493 206.279 28.1493 206.252 28.1229C206.252 28.1229 206.252 28.1229 206.224 28.0965C206.224 28.0965 206.224 28.0965 206.197 28.0701C206.197 28.0701 206.197 28.0701 206.17 28.0437C206.17 28.0437 206.17 28.0437 206.142 28.0174C206.142 28.0174 206.142 28.0174 206.115 28.0174H206.087H206.06H206.032H206.005C205.95 27.991 205.895 27.9646 205.84 27.9382C204.606 27.1728 204.524 27.1464 204.442 27.1464ZM199.369 25.9852H196.106C195.804 25.9852 195.557 26.2228 195.557 26.5131C195.557 26.8034 195.804 27.0409 196.106 27.0409H199.369C200.054 27.0409 200.713 27.0937 201.371 27.2256C201.398 27.2256 201.453 27.2256 201.48 27.2256C201.727 27.2256 201.974 27.0409 202.029 26.8034C202.084 26.5131 201.892 26.2491 201.59 26.1964C201.042 26.0908 200.466 26.038 199.89 26.0116C199.89 26.0116 199.89 26.0116 199.862 26.0116C199.835 26.0116 199.78 26.0116 199.753 26.0116H199.725C199.725 26.0116 199.725 26.0116 199.698 26.0116C199.396 25.9852 199.396 25.9852 199.369 25.9852C199.396 25.9852 199.396 25.9852 199.369 25.9852C199.396 25.9852 199.396 25.9852 199.369 25.9852C199.396 25.9852 199.396 25.9852 199.369 25.9852C199.396 25.9852 199.396 25.9852 199.369 25.9852Z" fill="#EAEAFF"/>
<path d="M211.105 38.442H80.8516V38.8906H211.105V38.442Z" fill="white"/>
<path d="M94.8093 95.3942H93.3285C91.7929 95.3942 90.5315 94.1802 90.5315 92.7023V53.1419C90.5315 51.6639 91.7929 50.45 93.3285 50.45H94.8093C96.3449 50.45 97.6063 51.6639 97.6063 53.1419V92.6759C97.6063 94.1802 96.3449 95.3942 94.8093 95.3942Z" fill="#EAEAFF"/>
<path d="M108.767 95.3942H106.299C105.038 95.3942 103.996 94.3913 103.996 93.1773V67.3403C103.996 66.1263 105.038 65.1234 106.299 65.1234H108.767C110.028 65.1234 111.07 66.1263 111.07 67.3403V93.1773C111.043 94.3913 110.028 95.3942 108.767 95.3942Z" fill="#EAEAFF"/>
<path d="M121.71 95.3942H120.229C118.694 95.3942 117.432 94.1802 117.432 92.7023V53.1419C117.432 51.6639 118.694 50.45 120.229 50.45H121.71C123.246 50.45 124.507 51.6639 124.507 53.1419V92.6759C124.507 94.1802 123.246 95.3942 121.71 95.3942Z" fill="#EAEAFF"/>
<path d="M136.463 95.3941H134.242C132.898 95.3941 131.829 94.3385 131.829 93.0717V64.1469C131.829 62.8537 132.926 61.8245 134.242 61.8245H136.463C137.807 61.8245 138.876 62.8801 138.876 64.1469V93.0717C138.904 94.3385 137.807 95.3941 136.463 95.3941Z" fill="#EAEAFF"/>
<path d="M150.366 95.3942H147.267C146.17 95.3942 145.266 94.5233 145.266 93.4677V74.6771C145.266 73.6215 146.17 72.7505 147.267 72.7505H150.366C151.463 72.7505 152.368 73.6215 152.368 74.6771V93.4677C152.34 94.5233 151.463 95.3942 150.366 95.3942Z" fill="#EAEAFF"/>
<path d="M163.364 95.3941H161.143C159.799 95.3941 158.73 94.3385 158.73 93.0717V64.1469C158.73 62.8537 159.827 61.8245 161.143 61.8245H163.364C164.708 61.8245 165.777 62.8801 165.777 64.1469V93.0717C165.805 94.3385 164.708 95.3941 163.364 95.3941Z" fill="#EAEAFF"/>
<path d="M199.259 25.9852H92.6978C86.1714 25.9852 80.8516 30.9996 80.8516 37.1487V38.653H211.105V37.1487C211.105 30.9996 205.786 25.9852 199.259 25.9852Z" fill="#EAEAFF"/>
<path d="M182.422 33.9819C183.407 33.9819 184.205 33.2375 184.205 32.3192C184.205 31.4009 183.407 30.6566 182.422 30.6566C181.438 30.6566 180.64 31.4009 180.64 32.3192C180.64 33.2375 181.438 33.9819 182.422 33.9819Z" fill="#FF8870"/>
<path d="M190.457 33.9819C191.441 33.9819 192.239 33.2375 192.239 32.3192C192.239 31.4009 191.441 30.6566 190.457 30.6566C189.472 30.6566 188.674 31.4009 188.674 32.3192C188.674 33.2375 189.472 33.9819 190.457 33.9819Z" fill="#FFD301"/>
<path d="M198.491 33.9819C199.476 33.9819 200.274 33.2375 200.274 32.3192C200.274 31.4009 199.476 30.6566 198.491 30.6566C197.507 30.6566 196.709 31.4009 196.709 32.3192C196.709 33.2375 197.507 33.9819 198.491 33.9819Z" fill="#54CDA2"/>
<path d="M262 123.369H206.553C202.714 123.369 199.588 120.36 199.588 116.666V76.4981C199.588 72.8033 202.714 69.7947 206.553 69.7947H262C265.839 69.7947 268.966 72.8033 268.966 76.4981V116.666C268.966 120.36 265.839 123.369 262 123.369Z" fill="#EAEAFF"/>
<path d="M268.966 83.2805H199.588V83.7556H268.966V83.2805Z" fill="white"/>
<path d="M241.955 78.7677C243.091 78.7677 244.012 77.8815 244.012 76.7884C244.012 75.6952 243.091 74.809 241.955 74.809C240.819 74.809 239.898 75.6952 239.898 76.7884C239.898 77.8815 240.819 78.7677 241.955 78.7677Z" fill="#FF8870"/>
<path d="M251.278 78.7677C252.414 78.7677 253.335 77.8815 253.335 76.7884C253.335 75.6952 252.414 74.809 251.278 74.809C250.143 74.809 249.222 75.6952 249.222 76.7884C249.222 77.8815 250.143 78.7677 251.278 78.7677Z" fill="#FFD301"/>
<path d="M260.602 78.7677C261.738 78.7677 262.659 77.8815 262.659 76.7884C262.659 75.6952 261.738 74.809 260.602 74.809C259.466 74.809 258.545 75.6952 258.545 76.7884C258.545 77.8815 259.466 78.7677 260.602 78.7677Z" fill="#54CDA2"/>
<path d="M248.756 102.256H238.28C237.568 102.256 237.129 101.491 237.513 100.91L243.134 92.4384C243.271 92.2273 243.216 91.937 242.997 91.8314C240.803 90.591 238.171 89.984 235.401 90.2215C229.533 90.7494 224.789 95.2095 224.103 100.831C223.226 108.168 229.176 114.396 236.635 114.396C243.436 114.396 249.002 109.223 249.249 102.731C249.222 102.467 249.03 102.256 248.756 102.256Z" fill="white"/>
<path d="M66.0164 243.159C66.0164 243.159 69.5264 200.247 80.0015 182.564C90.4767 164.882 101.857 153.402 108.849 148.335C115.842 143.294 123.081 139.863 123.081 139.863L117.021 191.538L100.129 242.948L66.0164 243.159Z" fill="#F9D2DD"/>
<path d="M76.5189 189.928L112.935 203.941L117.021 191.537L120.915 158.469L116.226 143.585C116.116 143.637 116.006 143.716 115.924 143.769C115.979 148.15 115.458 162.797 107.149 175.28C99.8549 186.233 84.6358 188.212 77.1496 188.476C76.9302 188.951 76.7109 189.453 76.5189 189.928Z" fill="#F9ACC0"/>
<path d="M96.8934 243.159L102.762 196.314C102.762 196.314 111.208 191.537 115.869 170.504C118.557 158.364 115.869 143.294 115.869 143.294C115.869 143.294 133.639 133.186 152.011 134.031C170.384 134.875 184.068 139.072 184.068 139.072C184.068 139.072 182.888 147.754 182.888 165.727C182.888 183.699 191.06 203.044 191.06 203.044L189.744 243.159H96.8934Z" fill="#3D5CFF"/>
<path d="M162.212 206.422L143.977 185.388L140.055 223.26L190.073 210.513L162.212 206.422Z" fill="#224BF4"/>
<path d="M123.438 139.916H122.862V240.915H123.438V139.916Z" fill="white"/>
<path d="M136.107 135.693H135.531V240.915H136.107V135.693Z" fill="white"/>
<path d="M148.803 139.916H148.227V240.915H148.803V139.916Z" fill="white"/>
<path d="M161.472 139.916H160.896V240.915H161.472V139.916Z" fill="white"/>
<path d="M174.141 136.828H173.565V240.915H174.141V136.828Z" fill="white"/>
<path d="M193.884 34.3777C191.334 29.812 186.014 30.0495 182.971 32.3455C180.969 33.8498 180.722 36.2514 180.777 37.703C177.349 36.5417 173.071 36.8584 169.506 39.4448C165.338 42.4798 165.832 47.1774 166.353 49.3943C160.814 48.972 154.973 50.9514 152.752 55.2003C151.216 58.1562 150.914 61.5079 150.969 64.0942C136.765 63.0913 124.836 71.7213 123.054 84.1515C121.271 96.5818 127.88 103.707 127.88 103.707L154.781 111.335C154.781 111.335 166.463 112.1 172.55 106.769C178.638 101.438 182.45 88.9811 177.87 78.8205C176.581 75.9439 174.333 73.5159 171.728 71.3782C173.181 69.9794 174.881 68.1321 176.362 66.1263C178.281 63.4608 178.83 59.7924 177.651 56.5727C179.049 56.388 180.914 55.9129 183.217 54.6989C187.166 52.6404 188.181 48.3386 187.221 44.6175C188.263 44.6439 189.579 44.5911 191.087 44.3008C194.899 43.509 196.435 38.9433 193.884 34.3777Z" fill="#1F1F39"/>
<path d="M132.761 97.0305C132.761 97.0305 129.855 95.0775 125.193 97.0305C120.531 98.9834 120.833 107.693 127.524 110.49C134.215 113.287 138.026 111.044 138.026 111.044L132.761 97.0305Z" fill="#F9ACC0"/>
<path d="M133.364 110.2C133.255 110.2 133.172 110.147 133.118 110.041L130.869 105.555C128.703 101.227 125.769 99.8015 125.741 99.8015C125.604 99.7488 125.549 99.5904 125.604 99.4585C125.659 99.3265 125.823 99.2737 125.961 99.3265C126.098 99.3793 129.114 100.804 131.363 105.344L133.611 109.83C133.666 109.962 133.611 110.121 133.474 110.173C133.447 110.173 133.392 110.2 133.364 110.2Z" fill="#1F1F39"/>
<path d="M129.114 93.8899C128.703 93.9427 128.401 94.2594 128.428 94.6553C128.566 97.4264 129.251 107.429 132.487 112.707C135.586 117.774 139.891 119.806 141.317 120.387C141.618 120.519 141.81 120.783 141.783 121.099C141.701 123.079 141.372 130.046 140.631 132.896C139.973 135.456 139.315 137.515 139.013 138.359C138.931 138.623 138.986 138.913 139.205 139.125C140.384 140.259 144.909 142.423 152.286 142.423C159.58 142.423 163.528 140.682 164.927 139.89C165.201 139.732 165.366 139.415 165.311 139.098C164.9 137.04 163.364 129.175 163.364 125.296C163.364 121.601 163.748 116.402 163.885 114.66C163.912 114.317 164.159 114.053 164.516 113.974C166.901 113.551 175.813 111.466 175.292 103.681C174.799 95.8693 167.45 96.5554 165.558 96.8721C165.283 96.9249 165.037 97.1097 164.954 97.3736C164.625 98.2709 163.803 100.541 163.364 102.309C163.145 103.1 161.965 103.048 161.856 102.23C161.719 101.306 161.636 100.356 161.636 99.5113C161.636 98.2445 161.773 97.4 161.938 96.8721C162.048 96.4763 161.773 96.054 161.362 95.9748C159.278 95.4998 153.931 93.8635 151.161 89.4034C149.543 86.8171 148.666 84.8641 148.2 83.5446C147.98 82.9112 147.075 82.8584 146.774 83.4654C145.732 85.4975 143.593 88.4797 139.507 90.5382C134.379 93.1246 130.622 93.758 129.114 93.8899Z" fill="#F9D2DD"/>
<path d="M183.519 139.098C183.519 139.098 199.616 143.136 208.884 162.929C215.575 177.233 218.537 207.372 217.906 218.193C217.303 228.3 213.519 239.781 200.987 242.314C188.482 244.848 143.291 242.314 143.291 242.314V213.442L187.303 210.645L183.821 191.3C183.821 191.3 179.461 172.219 180.914 157.651C182.34 143.03 183.519 139.098 183.519 139.098Z" fill="#F9D2DD"/>
<path d="M148.803 95.3415C148.995 94.8664 149.406 94.4706 149.9 94.2066C150.393 93.9691 150.997 93.8636 151.545 93.9163C151.819 93.9427 152.094 93.9955 152.368 94.1011C152.642 94.1803 152.889 94.3122 153.108 94.4969C153.547 94.84 153.849 95.3942 153.766 95.8957C153.629 95.3942 153.273 95.0248 152.889 94.8136C152.478 94.6025 152.011 94.4969 151.518 94.4442C151.024 94.4178 150.558 94.4442 150.092 94.6025C149.626 94.7609 149.187 94.9984 148.803 95.3415Z" fill="#1F1F39"/>
<path d="M133.365 95.6317C133.529 95.1303 133.831 94.6816 134.242 94.3385C134.653 93.9954 135.202 93.7315 135.778 93.7051C136.052 93.6788 136.353 93.7051 136.628 93.7843C136.902 93.8899 137.176 94.0218 137.396 94.2066C137.834 94.6024 138.026 95.1303 138.026 95.6317C137.807 95.1831 137.505 94.7608 137.121 94.5233C136.929 94.3913 136.71 94.3121 136.491 94.2594C136.381 94.2594 136.271 94.2066 136.162 94.2066H135.997H135.832C135.366 94.233 134.928 94.3913 134.516 94.6552C134.077 94.9191 133.694 95.2358 133.365 95.6317Z" fill="#1F1F39"/>
<path d="M143.565 96.7401L142.743 98.9041C142.606 99.2736 142.468 99.6167 142.359 99.9862C142.249 100.356 142.139 100.699 142.057 101.068C141.975 101.411 141.92 101.807 141.975 102.097C142.002 102.256 142.057 102.388 142.167 102.52C142.222 102.599 142.249 102.652 142.331 102.704L142.414 102.784L142.523 102.863C142.798 103.074 143.154 103.206 143.538 103.285C143.922 103.364 144.306 103.417 144.717 103.443C144.333 103.549 143.922 103.575 143.511 103.549C143.099 103.523 142.688 103.417 142.304 103.206C141.92 102.995 141.618 102.625 141.509 102.177C141.426 101.728 141.481 101.332 141.564 100.936C141.728 100.145 142.03 99.432 142.386 98.7194C142.688 98.0596 143.099 97.3734 143.565 96.7401Z" fill="#1F1F39"/>
<path d="M136.271 102.414C137.392 102.414 138.3 101.398 138.3 100.145C138.3 98.8912 137.392 97.8751 136.271 97.8751C135.15 97.8751 134.242 98.8912 134.242 100.145C134.242 101.398 135.15 102.414 136.271 102.414Z" fill="#1F1F39"/>
<path d="M150.832 102.414C151.953 102.414 152.861 101.398 152.861 100.145C152.861 98.8912 151.953 97.8751 150.832 97.8751C149.711 97.8751 148.803 98.8912 148.803 100.145C148.803 101.398 149.711 102.414 150.832 102.414Z" fill="#1F1F39"/>
<path d="M164.9 211.938L153.958 212.624V242.314C153.958 242.314 163.72 242.868 175.43 243.185L164.9 211.938Z" fill="#F9ACC0"/>
<path d="M147.35 110.807C148.47 110.807 149.379 109.791 149.379 108.537C149.379 107.284 148.47 106.267 147.35 106.267C146.229 106.267 145.32 107.284 145.32 108.537C145.32 109.791 146.229 110.807 147.35 110.807Z" fill="#F95368"/>
<path d="M163.446 242.895H65.4405C63.3016 242.895 60.8885 241.206 60.1206 239.121L49.0148 180.506C48.2195 178.447 49.3438 176.732 51.5102 176.732H149.516C151.655 176.732 154.068 178.421 154.836 180.506L165.942 239.121C166.737 241.206 165.613 242.895 163.446 242.895Z" fill="#EAEAFF"/>
<path d="M106.24 214.118C109.819 214.118 112.72 211.326 112.72 207.882C112.72 204.437 109.819 201.645 106.24 201.645C102.661 201.645 99.76 204.437 99.76 207.882C99.76 211.326 102.661 214.118 106.24 214.118Z" fill="white"/>
<g opacity="0.635">
<path opacity="0.635" d="M155.905 110.569C159.267 110.569 161.993 108.962 161.993 106.98C161.993 104.998 159.267 103.391 155.905 103.391C152.543 103.391 149.818 104.998 149.818 106.98C149.818 108.962 152.543 110.569 155.905 110.569Z" fill="#F9ACC0"/>
<path opacity="0.635" d="M134.324 110.57C137.686 110.57 140.412 108.963 140.412 106.981C140.412 104.999 137.686 103.392 134.324 103.392C130.962 103.392 128.237 104.999 128.237 106.981C128.237 108.963 130.962 110.57 134.324 110.57Z" fill="#F9ACC0"/>
</g>
<path d="M157.249 121.152C157.249 121.152 152.779 122.076 148.748 121.759C145.567 121.495 142.715 120.941 141.646 120.703C141.728 120.835 141.783 120.994 141.783 121.152C141.728 122.815 141.481 127.935 140.96 131.234C143.593 130.706 148.529 129.439 151.408 127.064C155.494 123.686 157.249 121.152 157.249 121.152Z" fill="#F9ACC0"/>
<path d="M148.94 122.023C144.717 122.023 141.838 120.888 141.701 120.835C141.564 120.783 141.481 120.624 141.564 120.492C141.618 120.36 141.783 120.281 141.92 120.36C141.947 120.387 145.43 121.733 150.256 121.469C155.11 121.205 158.044 120.36 158.072 120.36C158.209 120.308 158.373 120.387 158.401 120.545C158.455 120.677 158.373 120.835 158.209 120.862C158.181 120.862 155.22 121.706 150.284 121.997C149.818 121.997 149.379 122.023 148.94 122.023Z" fill="#1F1F39"/>
<path d="M168.382 101.702C168.382 101.702 165.859 103.628 164.05 109.039C163.145 111.73 163.419 113.657 163.912 114.897C163.912 114.845 163.912 114.792 163.912 114.739C163.94 114.396 164.187 114.132 164.543 114.053C165.092 113.947 166.024 113.763 167.093 113.419C166.709 111.915 166.216 109.329 166.6 107.112C167.176 103.76 168.382 101.702 168.382 101.702Z" fill="#F9ACC0"/>
<path d="M163.666 111.598C163.501 111.598 163.391 111.466 163.391 111.334C163.391 111.229 163.419 108.695 165.174 105.317C166.929 101.913 169.561 100.488 169.671 100.435C169.808 100.356 169.973 100.409 170.055 100.54C170.137 100.672 170.082 100.831 169.945 100.91C169.918 100.936 167.368 102.309 165.695 105.555C163.995 108.827 163.967 111.308 163.967 111.334C163.94 111.466 163.803 111.598 163.666 111.598Z" fill="#1F1F39"/>
<path d="M184.945 162.956C187.194 152.241 189.881 146.118 191.663 142.925C187.002 139.995 183.492 139.098 183.492 139.098C183.492 139.098 182.312 143.03 180.859 157.598C179.899 167.126 181.435 178.579 182.614 185.362C182.669 179.292 183.163 171.322 184.945 162.956Z" fill="#F9ACC0"/>
<path d="M187.248 210.407L200.109 209.51L185.823 202.226L187.248 210.407Z" fill="#F9ACC0"/>
<path d="M187.303 210.777C187.166 210.777 187.056 210.671 187.029 210.539C187.002 210.407 187.139 210.275 187.276 210.249L200.274 209.061C200.438 209.035 200.548 209.167 200.575 209.299C200.603 209.431 200.466 209.563 200.329 209.589L187.303 210.777C187.303 210.777 187.331 210.75 187.303 210.777Z" fill="#1F1F39"/>
<path d="M242.064 243.94H37.3755C37.2336 243.94 37.12 243.709 37.12 243.421C37.12 243.132 37.2336 242.901 37.3755 242.901H242.064C242.206 242.901 242.32 243.132 242.32 243.421C242.32 243.709 242.206 243.94 242.064 243.94Z" fill="#1F1F39"/>
</g>
<defs>
<clipPath id="clip0_262_618">
<rect width="280.8" height="270.246" fill="white" transform="translate(0.400024)"/>
</clipPath>
</defs>
</svg>
