<svg width="281" height="271" viewBox="0 0 281 271" fill="none" xmlns="http://www.w3.org/2000/svg">
<g clip-path="url(#clip0_232_399)">
<path d="M220.8 0H60C26.8629 0 0 26.8629 0 60V210.246C0 243.383 26.8629 270.246 60 270.246H220.8C253.937 270.246 280.8 243.383 280.8 210.246V60C280.8 26.8629 253.937 0 220.8 0Z" fill="#34345D"/>
<path d="M79.7976 51.4099L77.0555 33.7277L26.5992 37.4225L79.7976 51.4099Z" fill="#DADAF7"/>
<path d="M244.329 216.355C244.247 216.355 244.164 216.329 244.082 216.302C243.808 216.17 243.698 215.854 243.835 215.59C243.835 215.59 244.219 214.851 244.905 212.898C245.014 212.634 245.316 212.476 245.59 212.581C245.865 212.687 246.029 212.977 245.919 213.241C245.179 215.273 244.795 216.012 244.795 216.038C244.713 216.249 244.521 216.355 244.329 216.355ZM246.468 210.602C246.413 210.602 246.358 210.602 246.303 210.575C246.002 210.496 245.865 210.206 245.947 209.916C246.248 208.965 246.55 207.963 246.879 206.881C246.961 206.59 247.263 206.432 247.565 206.511C247.866 206.59 248.031 206.881 247.949 207.171C247.62 208.253 247.318 209.256 247.016 210.206C246.907 210.47 246.687 210.602 246.468 210.602ZM248.25 204.505C248.195 204.505 248.168 204.505 248.113 204.479C247.811 204.4 247.647 204.109 247.729 203.846C247.949 203.001 248.195 202.13 248.442 201.18L248.552 200.784C248.634 200.494 248.936 200.336 249.21 200.388C249.512 200.467 249.676 200.758 249.621 201.022L249.512 201.418C249.265 202.368 249.018 203.265 248.771 204.109C248.716 204.347 248.497 204.505 248.25 204.505ZM249.841 198.356C249.813 198.356 249.758 198.356 249.731 198.356C249.429 198.303 249.237 198.013 249.32 197.723C249.539 196.72 249.758 195.664 249.978 194.635C250.033 194.345 250.307 194.16 250.609 194.213C250.91 194.266 251.102 194.556 251.047 194.82C250.828 195.875 250.608 196.931 250.389 197.934C250.334 198.198 250.087 198.356 249.841 198.356ZM251.075 192.154C251.047 192.154 251.02 192.154 250.992 192.154C250.691 192.101 250.499 191.838 250.526 191.547C250.691 190.518 250.855 189.462 251.02 188.433C251.075 188.143 251.349 187.932 251.651 187.984C251.952 188.037 252.172 188.301 252.117 188.591C251.952 189.647 251.788 190.703 251.623 191.732C251.568 191.97 251.349 192.154 251.075 192.154ZM251.98 185.873C251.952 185.873 251.925 185.873 251.925 185.873C251.623 185.847 251.404 185.583 251.431 185.293C251.541 184.237 251.678 183.181 251.76 182.152C251.788 181.862 252.034 181.651 252.363 181.677C252.665 181.703 252.885 181.967 252.857 182.258C252.775 183.313 252.638 184.369 252.528 185.424C252.501 185.662 252.254 185.873 251.98 185.873ZM252.555 179.566H252.528C252.226 179.539 252.007 179.302 252.007 179.011C252.062 177.956 252.117 176.9 252.144 175.871C252.144 175.581 252.391 175.369 252.693 175.369C252.693 175.369 252.693 175.369 252.72 175.369C253.022 175.369 253.268 175.633 253.241 175.924C253.214 176.979 253.159 178.035 253.076 179.117C253.076 179.328 252.83 179.566 252.555 179.566ZM252.747 173.232C252.446 173.232 252.199 172.994 252.199 172.704C252.199 171.648 252.172 170.593 252.144 169.563C252.144 169.273 252.364 169.036 252.665 169.009C252.967 169.009 253.214 169.22 253.241 169.511C253.268 170.54 253.296 171.622 253.296 172.704C253.296 172.994 253.049 173.232 252.747 173.232ZM63.3445 169.59C62.1654 169.59 61.0411 169.511 59.9991 169.379C59.6974 169.352 59.478 169.088 59.5329 168.798C59.5603 168.508 59.8345 168.297 60.1362 168.349C61.1508 168.481 62.2202 168.534 63.3445 168.534C63.6462 168.534 63.893 168.772 63.893 169.062C63.893 169.352 63.6462 169.59 63.3445 169.59ZM66.6351 169.458C66.3609 169.458 66.1141 169.247 66.0867 168.983C66.0593 168.692 66.2787 168.429 66.5803 168.402C67.5949 168.323 68.6918 168.191 69.8161 168.006C70.1177 167.953 70.3919 168.165 70.4468 168.455C70.5016 168.745 70.2823 169.009 69.9806 169.062C68.8289 169.247 67.732 169.379 66.69 169.458C66.6626 169.458 66.6626 169.458 66.6351 169.458ZM56.873 168.772C56.8181 168.772 56.7633 168.772 56.7084 168.745C55.5841 168.429 54.5147 168.006 53.5549 167.505C53.2807 167.373 53.1984 167.056 53.3355 166.792C53.4726 166.528 53.8017 166.449 54.0759 166.581C54.9534 167.056 55.9406 167.426 57.0101 167.742C57.3117 167.822 57.4762 168.112 57.3666 168.402C57.3117 168.613 57.0923 168.772 56.873 168.772ZM73.1341 168.481C72.8873 168.481 72.6405 168.323 72.5857 168.059C72.5309 167.769 72.7228 167.505 72.997 167.426C74.0116 167.215 75.0811 166.977 76.178 166.687C76.4796 166.608 76.7812 166.792 76.8361 167.056C76.9184 167.346 76.7264 167.637 76.4522 167.69C75.3553 167.98 74.2584 168.217 73.2164 168.429C73.2164 168.481 73.189 168.481 73.1341 168.481ZM79.496 166.898C79.2492 166.898 79.0298 166.739 78.975 166.528C78.8927 166.238 79.0573 165.948 79.3315 165.869C80.3461 165.578 81.3881 165.262 82.4576 164.919C82.7318 164.839 83.0609 164.971 83.1431 165.262C83.2254 165.525 83.0883 165.842 82.7866 165.921C81.7172 166.264 80.6477 166.581 79.6331 166.871C79.6057 166.898 79.5508 166.898 79.496 166.898ZM252.501 166.898C252.226 166.898 251.98 166.687 251.952 166.396C251.87 165.341 251.76 164.285 251.651 163.256C251.623 162.966 251.842 162.702 252.117 162.675C252.418 162.649 252.693 162.834 252.72 163.124C252.857 164.153 252.967 165.209 253.049 166.291C253.076 166.581 252.857 166.845 252.555 166.845C252.528 166.898 252.528 166.898 252.501 166.898ZM51.1692 165.737C51.0321 165.737 50.895 165.684 50.7853 165.605C49.9626 164.866 49.2223 164.021 48.5916 163.098C48.427 162.86 48.4819 162.517 48.7561 162.359C49.0029 162.2 49.3594 162.253 49.5239 162.517C50.1272 163.388 50.8127 164.153 51.5531 164.839C51.7725 165.024 51.7999 165.367 51.5805 165.578C51.4434 165.657 51.3063 165.737 51.1692 165.737ZM85.7482 164.892C85.5288 164.892 85.3094 164.76 85.2272 164.549C85.1175 164.285 85.282 163.968 85.5562 163.863C86.5708 163.52 87.5855 163.124 88.6275 162.754C88.9017 162.649 89.2308 162.781 89.3405 163.045C89.4501 163.309 89.313 163.625 89.0388 163.731C87.9968 164.127 86.9548 164.496 85.9401 164.866C85.8853 164.892 85.803 164.892 85.7482 164.892ZM91.8907 162.596C91.6713 162.596 91.4794 162.464 91.3971 162.279C91.2874 162.015 91.4245 161.699 91.6987 161.593C92.6859 161.197 93.7005 160.775 94.7151 160.326C94.9894 160.221 95.3184 160.326 95.4281 160.59C95.5378 160.854 95.4281 161.171 95.1539 161.277C94.1393 161.699 93.1247 162.147 92.1101 162.543C92.0278 162.57 91.9455 162.596 91.8907 162.596ZM251.705 160.617C251.431 160.617 251.212 160.432 251.157 160.168C250.992 159.297 250.828 158.426 250.636 157.608L250.526 157.08C250.471 156.79 250.636 156.526 250.938 156.447C251.239 156.394 251.513 156.552 251.596 156.843L251.705 157.371C251.897 158.215 252.089 159.086 252.254 159.983C252.309 160.274 252.117 160.538 251.815 160.59C251.788 160.617 251.76 160.617 251.705 160.617ZM47.5221 160.511C47.3027 160.511 47.1108 160.379 47.0011 160.168C46.5898 159.218 46.2607 158.189 45.9865 157.08C45.9042 156.79 46.0962 156.5 46.3978 156.447C46.6994 156.368 47.0011 156.552 47.0559 156.843C47.3027 157.898 47.6318 158.875 48.0157 159.772C48.1254 160.036 47.9883 160.353 47.7141 160.458C47.6592 160.511 47.5769 160.511 47.5221 160.511ZM97.8961 160.01C97.6767 160.01 97.4848 159.904 97.4025 159.719C97.2654 159.456 97.4025 159.139 97.6767 159.007C98.6639 158.558 99.6511 158.11 100.638 157.635C100.912 157.503 101.242 157.608 101.379 157.872C101.516 158.136 101.406 158.453 101.132 158.585C100.145 159.06 99.1301 159.508 98.1429 159.957C98.0606 159.983 97.9783 160.01 97.8961 160.01ZM103.819 157.212C103.627 157.212 103.435 157.107 103.326 156.922C103.189 156.658 103.298 156.341 103.572 156.209C104.532 155.734 105.519 155.233 106.479 154.731C106.753 154.6 107.082 154.679 107.22 154.943C107.357 155.207 107.274 155.523 107 155.655C106.04 156.157 105.053 156.658 104.093 157.133C103.984 157.186 103.901 157.212 103.819 157.212ZM250.307 154.415C250.06 154.415 249.841 154.256 249.786 154.019C249.512 152.937 249.265 151.934 248.991 150.958C248.908 150.667 249.1 150.377 249.375 150.324C249.676 150.245 249.978 150.43 250.033 150.694C250.307 151.696 250.581 152.699 250.828 153.781C250.91 154.072 250.718 154.362 250.417 154.415C250.389 154.415 250.362 154.415 250.307 154.415ZM45.9591 154.388C45.6848 154.388 45.438 154.204 45.4106 153.913C45.2735 152.91 45.1912 151.828 45.1638 150.72C45.1638 150.43 45.3832 150.192 45.6848 150.166C45.9865 150.139 46.2333 150.377 46.2607 150.667C46.2881 151.749 46.3704 152.805 46.5075 153.781C46.5349 154.072 46.3155 154.336 46.0413 154.362C46.0139 154.388 45.9865 154.388 45.9591 154.388ZM109.605 154.177C109.413 154.177 109.221 154.072 109.139 153.913C109.002 153.649 109.084 153.333 109.358 153.201C110.318 152.673 111.251 152.145 112.21 151.617C112.485 151.459 112.814 151.565 112.951 151.802C113.115 152.066 113.006 152.383 112.759 152.515C111.826 153.042 110.867 153.597 109.907 154.098C109.77 154.151 109.687 154.177 109.605 154.177ZM115.254 150.958C115.062 150.958 114.898 150.878 114.788 150.72C114.623 150.482 114.706 150.139 114.98 149.981C115.912 149.427 116.845 148.873 117.75 148.292C117.996 148.134 118.353 148.213 118.517 148.45C118.682 148.688 118.6 149.031 118.353 149.189C117.448 149.77 116.488 150.324 115.556 150.878C115.474 150.931 115.364 150.958 115.254 150.958ZM248.634 148.292C248.387 148.292 248.168 148.134 248.113 147.923C247.811 146.92 247.482 145.89 247.153 144.914C247.071 144.624 247.208 144.333 247.51 144.254C247.811 144.175 248.113 144.307 248.195 144.597C248.524 145.6 248.853 146.629 249.155 147.632C249.237 147.923 249.073 148.213 248.771 148.292C248.744 148.266 248.689 148.292 248.634 148.292ZM45.7123 148.055C45.3832 148.055 45.1638 147.791 45.1638 147.5C45.1912 146.972 45.2187 146.418 45.2461 145.838C45.2735 145.336 45.3283 144.808 45.438 144.281C45.4929 143.99 45.7671 143.806 46.0687 143.832C46.3704 143.885 46.5623 144.149 46.5349 144.439C46.4526 144.94 46.3978 145.442 46.3704 145.89C46.343 146.445 46.3155 146.999 46.2881 147.527C46.2607 147.843 46.0139 148.055 45.7123 148.055ZM120.793 147.527C120.629 147.527 120.437 147.447 120.327 147.289C120.163 147.052 120.217 146.709 120.464 146.55C121.369 145.97 122.274 145.363 123.179 144.756C123.426 144.597 123.782 144.65 123.947 144.888C124.111 145.125 124.057 145.468 123.81 145.627C122.905 146.234 122 146.84 121.095 147.421C121.013 147.5 120.903 147.527 120.793 147.527ZM126.195 143.858C126.031 143.858 125.866 143.779 125.757 143.647C125.565 143.41 125.62 143.093 125.866 142.908C126.744 142.275 127.621 141.641 128.499 141.008C128.746 140.823 129.075 140.876 129.267 141.114C129.459 141.351 129.404 141.668 129.157 141.853C128.307 142.486 127.402 143.146 126.525 143.779C126.415 143.832 126.305 143.858 126.195 143.858ZM246.632 142.248C246.413 142.248 246.194 142.116 246.111 141.905C245.755 140.902 245.371 139.926 244.987 138.95C244.877 138.686 245.014 138.369 245.316 138.263C245.59 138.158 245.919 138.29 246.029 138.58C246.413 139.557 246.797 140.559 247.153 141.562C247.263 141.826 247.098 142.143 246.824 142.222C246.742 142.222 246.687 142.248 246.632 142.248ZM46.7543 141.826C46.6994 141.826 46.6446 141.826 46.5898 141.8C46.2881 141.721 46.151 141.404 46.2333 141.14C46.5623 140.164 46.9462 139.161 47.4124 138.131C47.5221 137.867 47.8512 137.736 48.1254 137.867C48.3996 137.973 48.5367 138.29 48.3996 138.554C47.9334 139.557 47.5495 140.533 47.2479 141.457C47.193 141.694 46.9737 141.826 46.7543 141.826ZM131.406 140.005C131.241 140.005 131.077 139.926 130.967 139.82C130.775 139.583 130.802 139.266 131.049 139.081C131.899 138.422 132.749 137.736 133.572 137.076C133.791 136.891 134.148 136.917 134.34 137.129C134.532 137.34 134.504 137.683 134.285 137.867C133.462 138.554 132.612 139.24 131.735 139.9C131.652 139.952 131.515 140.005 131.406 140.005ZM244.274 136.31C244.055 136.31 243.863 136.178 243.78 135.994C243.369 135.017 242.93 134.041 242.464 133.091C242.327 132.827 242.464 132.51 242.738 132.404C243.013 132.273 243.342 132.404 243.451 132.668C243.89 133.618 244.356 134.621 244.768 135.598C244.877 135.862 244.74 136.178 244.466 136.284C244.411 136.31 244.356 136.31 244.274 136.31ZM49.3319 136.02C49.2497 136.02 49.1674 135.994 49.0851 135.967C48.8109 135.835 48.7287 135.519 48.8658 135.255C49.3594 134.357 49.9078 133.407 50.5111 132.484C50.6756 132.246 51.0047 132.167 51.2515 132.299C51.4983 132.457 51.5805 132.774 51.4434 133.011C50.8676 133.935 50.3191 134.859 49.8255 135.73C49.7158 135.915 49.5239 136.02 49.3319 136.02ZM136.424 135.888C136.287 135.888 136.122 135.835 136.012 135.703C135.821 135.492 135.821 135.149 136.067 134.964C136.89 134.252 137.685 133.539 138.48 132.827C138.7 132.616 139.056 132.642 139.248 132.853C139.468 133.064 139.44 133.407 139.221 133.592C138.426 134.305 137.63 135.044 136.78 135.756C136.671 135.862 136.533 135.888 136.424 135.888ZM141.168 131.534C141.031 131.534 140.894 131.481 140.784 131.375C140.565 131.164 140.565 130.847 140.784 130.636C141.552 129.897 142.32 129.132 143.06 128.367C143.279 128.156 143.608 128.156 143.828 128.34C144.047 128.551 144.047 128.868 143.855 129.079C143.115 129.845 142.347 130.61 141.552 131.375C141.469 131.481 141.332 131.534 141.168 131.534ZM52.7597 130.61C52.65 130.61 52.5403 130.584 52.458 130.531C52.2112 130.372 52.1564 130.029 52.3209 129.792C52.9242 128.947 53.5823 128.05 54.2405 127.205C54.4324 126.968 54.7615 126.915 55.0083 127.1C55.2551 127.285 55.3099 127.601 55.118 127.839C54.4598 128.683 53.8017 129.554 53.2259 130.399C53.1162 130.531 52.9242 130.61 52.7597 130.61ZM241.559 130.531C241.367 130.531 241.148 130.425 241.066 130.24C240.6 129.29 240.078 128.367 239.585 127.443C239.448 127.179 239.557 126.862 239.804 126.73C240.078 126.598 240.408 126.704 240.545 126.942C241.066 127.865 241.559 128.842 242.053 129.792C242.19 130.056 242.08 130.372 241.806 130.504C241.724 130.531 241.642 130.531 241.559 130.531ZM145.665 126.915C145.528 126.915 145.418 126.862 145.309 126.783C145.089 126.598 145.062 126.255 145.254 126.044C145.967 125.252 146.68 124.434 147.365 123.643C147.557 123.405 147.914 123.379 148.133 123.563C148.38 123.748 148.407 124.091 148.215 124.302C147.53 125.121 146.817 125.939 146.076 126.73C145.967 126.862 145.83 126.915 145.665 126.915ZM56.681 125.516C56.5713 125.516 56.4342 125.49 56.3245 125.411C56.0777 125.226 56.0503 124.883 56.2423 124.672C56.9278 123.854 57.6408 123.036 58.3537 122.217C58.5457 122.006 58.9022 121.98 59.1216 122.165C59.3409 122.349 59.3684 122.693 59.1764 122.904C58.4634 123.695 57.7505 124.514 57.0923 125.332C57.0101 125.464 56.8455 125.516 56.681 125.516ZM238.488 124.936C238.296 124.936 238.104 124.83 238.022 124.672C237.473 123.775 236.925 122.851 236.349 121.954C236.185 121.716 236.267 121.373 236.541 121.215C236.788 121.056 237.144 121.135 237.309 121.399C237.885 122.297 238.461 123.22 239.009 124.144C239.146 124.408 239.064 124.725 238.817 124.857C238.68 124.909 238.57 124.936 238.488 124.936ZM149.833 122.006C149.723 122.006 149.614 121.98 149.504 121.901C149.257 121.716 149.202 121.399 149.394 121.162C150.052 120.317 150.683 119.446 151.314 118.602C151.478 118.364 151.835 118.312 152.082 118.47C152.328 118.628 152.383 118.971 152.219 119.209C151.616 120.08 150.957 120.951 150.272 121.795C150.162 121.927 149.998 122.006 149.833 122.006ZM60.9862 120.713C60.8491 120.713 60.712 120.66 60.6023 120.581C60.383 120.396 60.3555 120.053 60.5749 119.842C61.3153 119.077 62.0831 118.285 62.8509 117.52C63.0703 117.309 63.3994 117.309 63.6187 117.52C63.8381 117.731 63.8381 118.048 63.6187 118.259C62.8509 119.024 62.0831 119.789 61.3701 120.555C61.2879 120.66 61.1508 120.713 60.9862 120.713ZM235.033 119.552C234.868 119.552 234.676 119.473 234.567 119.314C233.963 118.444 233.333 117.573 232.702 116.728C232.537 116.491 232.592 116.174 232.839 115.989C233.086 115.831 233.415 115.884 233.607 116.121C234.238 116.966 234.868 117.863 235.499 118.734C235.664 118.971 235.609 119.314 235.335 119.473C235.252 119.526 235.143 119.552 235.033 119.552ZM153.562 116.781C153.453 116.781 153.371 116.754 153.261 116.702C153.014 116.543 152.932 116.227 153.096 115.963C153.672 115.065 154.248 114.168 154.769 113.271C154.906 113.007 155.263 112.928 155.509 113.06C155.784 113.192 155.866 113.535 155.729 113.772C155.208 114.696 154.632 115.62 154.029 116.517C153.919 116.702 153.727 116.781 153.562 116.781ZM65.5657 116.174C65.4286 116.174 65.2915 116.121 65.1818 116.016C64.9624 115.804 64.9624 115.461 65.1818 115.277C65.9496 114.538 66.7723 113.799 67.5675 113.086C67.7869 112.875 68.1433 112.901 68.3353 113.112C68.5547 113.324 68.5273 113.667 68.3079 113.851C67.5126 114.564 66.7174 115.303 65.9222 116.016C65.8399 116.121 65.7028 116.174 65.5657 116.174ZM231.194 114.406C231.029 114.406 230.865 114.326 230.755 114.195C230.097 113.376 229.411 112.532 228.726 111.74C228.534 111.503 228.561 111.186 228.808 111.001C229.027 110.816 229.384 110.843 229.576 111.08C230.289 111.898 230.974 112.717 231.633 113.561C231.825 113.799 231.77 114.115 231.523 114.3C231.441 114.379 231.331 114.406 231.194 114.406ZM70.3919 111.872C70.2274 111.872 70.0903 111.819 69.9806 111.687C69.7887 111.476 69.7887 111.133 70.0355 110.948C70.8581 110.262 71.7082 109.55 72.5308 108.864C72.7502 108.679 73.1067 108.705 73.2987 108.916C73.4906 109.127 73.4632 109.471 73.2438 109.655C72.4212 110.341 71.5711 111.028 70.7484 111.714C70.6662 111.819 70.5291 111.872 70.3919 111.872ZM156.743 111.265C156.661 111.265 156.579 111.239 156.497 111.212C156.222 111.08 156.113 110.764 156.25 110.5C156.743 109.55 157.182 108.6 157.621 107.65C157.731 107.386 158.06 107.254 158.334 107.359C158.608 107.465 158.745 107.781 158.636 108.045C158.197 109.022 157.731 109.998 157.264 110.948C157.155 111.133 156.963 111.265 156.743 111.265ZM226.998 109.523C226.834 109.523 226.697 109.471 226.587 109.339C225.874 108.547 225.106 107.781 224.366 107.016C224.146 106.805 224.174 106.462 224.393 106.277C224.613 106.066 224.969 106.092 225.161 106.304C225.929 107.069 226.669 107.861 227.41 108.652C227.602 108.864 227.602 109.207 227.355 109.391C227.272 109.497 227.135 109.523 226.998 109.523ZM75.4376 107.781C75.273 107.781 75.1085 107.702 74.9988 107.597C74.8069 107.359 74.8343 107.043 75.0811 106.858C75.9312 106.198 76.8087 105.538 77.6862 104.905C77.933 104.72 78.262 104.773 78.454 105.01C78.6459 105.248 78.5911 105.565 78.3443 105.749C77.4668 106.383 76.6167 107.043 75.7666 107.702C75.6844 107.729 75.5473 107.781 75.4376 107.781ZM159.348 105.433C159.294 105.433 159.211 105.433 159.157 105.406C158.882 105.301 158.745 104.984 158.855 104.72C159.239 103.744 159.623 102.741 159.979 101.764C160.089 101.5 160.391 101.342 160.665 101.448C160.939 101.553 161.103 101.843 160.994 102.107C160.637 103.11 160.253 104.113 159.87 105.09C159.787 105.301 159.568 105.433 159.348 105.433ZM222.446 104.958C222.309 104.958 222.172 104.905 222.062 104.799C221.295 104.087 220.472 103.348 219.677 102.662C219.457 102.477 219.43 102.134 219.622 101.923C219.814 101.711 220.17 101.685 220.39 101.87C221.212 102.582 222.035 103.321 222.803 104.034C223.022 104.245 223.022 104.562 222.803 104.773C222.72 104.905 222.583 104.958 222.446 104.958ZM80.6477 103.902C80.4832 103.902 80.3187 103.823 80.209 103.691C80.017 103.453 80.0719 103.137 80.3187 102.952C81.1962 102.318 82.1011 101.711 83.006 101.104C83.2528 100.946 83.6093 100.999 83.7738 101.236C83.9383 101.474 83.8835 101.817 83.6367 101.975C82.7318 102.582 81.8543 103.189 80.9768 103.823C80.8945 103.876 80.7574 103.902 80.6477 103.902ZM217.565 100.735C217.428 100.735 217.318 100.682 217.209 100.603C216.386 99.9433 215.508 99.2835 214.658 98.6237C214.412 98.439 214.384 98.1223 214.549 97.8847C214.741 97.6472 215.07 97.6208 215.317 97.7792C216.194 98.4126 217.044 99.0988 217.894 99.7849C218.114 99.9697 218.168 100.313 217.976 100.524C217.867 100.656 217.702 100.735 217.565 100.735ZM86.0498 100.286C85.8853 100.286 85.6934 100.207 85.5837 100.049C85.4191 99.8113 85.474 99.4682 85.7482 99.3099C86.6531 98.7293 87.5855 98.1487 88.5178 97.5681C88.7646 97.4097 89.1211 97.4889 89.2856 97.7264C89.4501 97.9639 89.3679 98.307 89.1211 98.4654C88.1887 99.0196 87.2838 99.6002 86.3789 100.181C86.2692 100.26 86.1595 100.286 86.0498 100.286ZM161.515 99.4682C161.46 99.4682 161.405 99.4682 161.35 99.4418C161.049 99.3627 160.912 99.0724 160.994 98.7821C161.323 97.7792 161.625 96.7763 161.926 95.7734C162.008 95.4831 162.31 95.3248 162.612 95.404C162.913 95.4831 163.078 95.7735 162.996 96.0638C162.694 97.093 162.392 98.0959 162.063 99.1251C161.954 99.3099 161.762 99.4682 161.515 99.4682ZM91.6165 96.8819C91.4245 96.8819 91.26 96.8027 91.1503 96.618C90.9858 96.3805 91.068 96.0374 91.3423 95.9054C92.2746 95.3512 93.2344 94.8234 94.1941 94.2955C94.4683 94.1372 94.7974 94.2428 94.9345 94.4803C95.0991 94.7442 94.9894 95.0609 94.7426 95.1928C93.8102 95.7207 92.8505 96.2485 91.9181 96.8027C91.8084 96.8555 91.6987 96.8819 91.6165 96.8819ZM212.355 96.8555C212.245 96.8555 212.136 96.8291 212.026 96.7499C211.148 96.1429 210.244 95.5359 209.339 94.9553C209.092 94.797 209.01 94.4539 209.174 94.2164C209.339 93.9788 209.668 93.8997 209.942 94.058C210.847 94.6386 211.779 95.2456 212.657 95.879C212.903 96.0374 212.958 96.3805 212.794 96.618C212.684 96.7763 212.52 96.8555 212.355 96.8555ZM97.3202 93.7149C97.1283 93.7149 96.9363 93.6094 96.8266 93.451C96.6895 93.1871 96.7718 92.8704 97.046 92.7385C98.0058 92.237 98.993 91.7356 99.9527 91.2342C100.227 91.1022 100.556 91.2078 100.693 91.4717C100.83 91.7356 100.721 92.0523 100.446 92.1842C99.4865 92.6593 98.4994 93.1607 97.5396 93.6621C97.4848 93.6885 97.4025 93.7149 97.3202 93.7149ZM206.871 93.3455C206.761 93.3455 206.679 93.3191 206.596 93.2663C205.664 92.7121 204.732 92.1842 203.772 91.6564C203.498 91.5245 203.415 91.1814 203.553 90.9439C203.69 90.6799 204.046 90.6008 204.293 90.7327C205.253 91.2605 206.212 91.7884 207.145 92.3426C207.392 92.5009 207.474 92.8176 207.337 93.0815C207.255 93.2663 207.063 93.3455 206.871 93.3455ZM163.27 93.3455C163.215 93.3455 163.188 93.3455 163.133 93.3191C162.831 93.2399 162.667 92.976 162.721 92.6857C162.968 91.6564 163.215 90.6272 163.434 89.6243C163.489 89.334 163.791 89.1492 164.092 89.202C164.394 89.2548 164.586 89.5451 164.531 89.8354C164.312 90.8647 164.065 91.9203 163.818 92.9496C163.736 93.1871 163.517 93.3455 163.27 93.3455ZM103.161 90.8119C102.969 90.8119 102.75 90.7063 102.667 90.5216C102.53 90.2577 102.64 89.941 102.914 89.809C103.901 89.334 104.916 88.8853 105.903 88.4367C106.177 88.3047 106.507 88.4367 106.644 88.7006C106.781 88.9645 106.644 89.2812 106.369 89.4132C105.382 89.8354 104.395 90.3105 103.408 90.7591C103.326 90.7855 103.243 90.8119 103.161 90.8119ZM201.167 90.2313C201.085 90.2313 201.002 90.2049 200.92 90.1785C199.96 89.7035 198.973 89.2284 197.986 88.7798C197.712 88.6478 197.602 88.3311 197.739 88.0672C197.876 87.8033 198.205 87.6977 198.48 87.8297C199.467 88.2783 200.454 88.7798 201.441 89.2548C201.715 89.3868 201.825 89.7035 201.66 89.9674C201.551 90.1257 201.359 90.2313 201.167 90.2313ZM109.139 88.1728C108.92 88.1728 108.728 88.0408 108.645 87.8561C108.536 87.5922 108.645 87.2755 108.92 87.1699C109.934 86.7476 110.949 86.3518 111.964 85.9559C112.238 85.8503 112.567 85.9823 112.676 86.2462C112.786 86.5101 112.649 86.8268 112.375 86.9324C111.36 87.3282 110.346 87.7241 109.358 88.1464C109.276 88.1464 109.221 88.1728 109.139 88.1728ZM195.216 87.4866C195.134 87.4866 195.079 87.4602 194.997 87.4338C194.01 87.0116 192.995 86.6157 191.981 86.2198C191.706 86.1143 191.569 85.7976 191.679 85.5336C191.789 85.2697 192.118 85.1378 192.392 85.2433C193.406 85.6392 194.448 86.0615 195.436 86.4837C195.71 86.5893 195.847 86.906 195.71 87.1699C195.628 87.381 195.436 87.4866 195.216 87.4866ZM164.559 87.1435C164.531 87.1435 164.504 87.1435 164.476 87.1435C164.175 87.0907 163.983 86.8268 164.038 86.5365C164.23 85.5073 164.367 84.4516 164.504 83.4223C164.531 83.132 164.805 82.9209 165.107 82.9737C165.409 83.0001 165.628 83.264 165.573 83.5543C165.436 84.5836 165.272 85.6656 165.08 86.6949C165.052 86.9588 164.833 87.1435 164.559 87.1435ZM115.254 85.824C115.035 85.824 114.815 85.692 114.733 85.4809C114.623 85.217 114.761 84.9003 115.062 84.7947C116.104 84.4252 117.146 84.0557 118.161 83.739C118.435 83.6335 118.764 83.7918 118.846 84.0557C118.956 84.3196 118.792 84.6363 118.517 84.7155C117.503 85.0586 116.461 85.4017 115.446 85.7712C115.364 85.7976 115.309 85.824 115.254 85.824ZM189.129 85.1378C189.074 85.1378 188.992 85.1378 188.937 85.1114C187.922 84.7419 186.88 84.3988 185.838 84.0821C185.564 84.003 185.399 83.6863 185.482 83.4223C185.564 83.1584 185.893 83.0001 186.167 83.0793C187.209 83.4223 188.251 83.7654 189.293 84.1349C189.567 84.2405 189.732 84.5308 189.622 84.8211C189.567 85.0058 189.348 85.1378 189.129 85.1378ZM121.451 83.7654C121.205 83.7654 121.013 83.6335 120.93 83.396C120.848 83.1057 121.013 82.8153 121.287 82.7362C122.329 82.4195 123.398 82.1028 124.44 81.8389C124.742 81.7597 125.044 81.918 125.126 82.2084C125.208 82.4987 125.044 82.789 124.742 82.8681C123.7 83.1584 122.658 83.4487 121.616 83.7654C121.561 83.7654 121.506 83.7654 121.451 83.7654ZM182.904 83.132C182.849 83.132 182.794 83.132 182.739 83.1057C181.697 82.8153 180.655 82.525 179.586 82.2347C179.284 82.1556 179.12 81.8653 179.202 81.575C179.284 81.2847 179.586 81.1263 179.887 81.2055C180.957 81.4958 182.026 81.7861 183.068 82.0764C183.37 82.1556 183.535 82.4459 183.425 82.7362C183.343 82.9737 183.123 83.132 182.904 83.132ZM127.759 82.05C127.512 82.05 127.292 81.8917 127.237 81.6541C127.155 81.3638 127.347 81.0735 127.621 81.0207C128.691 80.7568 129.76 80.5193 130.83 80.2818C131.131 80.229 131.406 80.3874 131.488 80.6777C131.543 80.968 131.378 81.2319 131.077 81.311C130.035 81.5486 128.965 81.7861 127.896 82.05C127.868 82.0236 127.813 82.05 127.759 82.05ZM176.542 81.4694C176.487 81.4694 176.46 81.4694 176.405 81.443C175.363 81.2055 174.293 80.968 173.224 80.7304C172.922 80.6777 172.73 80.3874 172.813 80.0971C172.867 79.8067 173.169 79.622 173.471 79.7012C174.54 79.9123 175.637 80.1498 176.679 80.4137C176.981 80.4929 177.145 80.7568 177.09 81.0471C177.008 81.311 176.789 81.4694 176.542 81.4694ZM165.409 80.8624C165.381 80.8624 165.381 80.8624 165.354 80.8624C165.052 80.836 164.833 80.5721 164.86 80.2818C164.97 79.2261 165.025 78.1705 165.08 77.1412C165.107 76.8509 165.354 76.6398 165.656 76.6398C165.957 76.6662 166.204 76.9037 166.177 77.194C166.122 78.2497 166.039 79.3053 165.957 80.361C165.93 80.6513 165.683 80.8624 165.409 80.8624ZM134.175 80.6513C133.928 80.6513 133.682 80.4665 133.627 80.229C133.572 79.9387 133.764 79.6748 134.066 79.622C135.135 79.4109 136.232 79.2261 137.301 79.0678C137.603 79.015 137.877 79.2261 137.932 79.5164C137.987 79.8067 137.767 80.0707 137.466 80.1234C136.396 80.2818 135.327 80.4665 134.257 80.6777C134.23 80.6513 134.203 80.6513 134.175 80.6513ZM170.098 80.1498C170.07 80.1498 170.043 80.1498 169.988 80.1498C168.919 79.9651 167.822 79.8067 166.752 79.6484C166.451 79.5956 166.231 79.3317 166.286 79.0414C166.341 78.7511 166.615 78.54 166.917 78.5927C168.014 78.7511 169.111 78.9094 170.18 79.0942C170.482 79.147 170.674 79.4109 170.619 79.7012C170.591 79.9651 170.372 80.1498 170.098 80.1498ZM140.647 79.622C140.373 79.622 140.153 79.4373 140.098 79.1734C140.071 78.8831 140.263 78.6191 140.565 78.5927C141.661 78.4608 142.758 78.3288 143.828 78.2233C144.129 78.1969 144.404 78.408 144.431 78.6983C144.458 78.9886 144.239 79.2525 143.937 79.2789C142.868 79.3845 141.771 79.5164 140.702 79.6484C140.702 79.622 140.674 79.622 140.647 79.622ZM163.599 79.2789C163.571 79.2789 163.571 79.2789 163.544 79.2789C162.475 79.1734 161.378 79.0678 160.281 79.015C159.979 78.9886 159.76 78.7511 159.76 78.4608C159.787 78.1705 160.034 77.9594 160.336 77.9594C161.433 78.0385 162.557 78.1177 163.626 78.2233C163.928 78.2497 164.147 78.5136 164.12 78.8039C164.12 79.0678 163.873 79.2789 163.599 79.2789ZM147.173 79.015C146.899 79.015 146.652 78.8039 146.625 78.5136C146.597 78.2233 146.844 77.9594 147.146 77.9594C148.243 77.8802 149.34 77.8274 150.436 77.801C150.738 77.801 150.985 78.0121 151.012 78.3024C151.012 78.5928 150.793 78.8303 150.491 78.8567C149.422 78.8831 148.325 78.9358 147.228 79.015C147.201 79.015 147.173 79.015 147.173 79.015ZM157.045 78.8303C157.018 78.8303 157.018 78.8303 157.045 78.8303C155.976 78.8039 154.906 78.7775 153.837 78.7775H153.754C153.453 78.7775 153.206 78.54 153.206 78.2497C153.206 77.9594 153.453 77.7218 153.754 77.7218H153.837C154.906 77.7218 155.976 77.7482 157.045 77.7746C157.347 77.7746 157.593 78.0385 157.566 78.3288C157.566 78.6191 157.319 78.8303 157.045 78.8303ZM165.71 74.5549C165.409 74.5549 165.162 74.3174 165.162 74.0271V73.6576C165.162 72.7339 165.135 71.8102 165.107 70.8865C165.107 70.5962 165.326 70.3587 165.628 70.3323C165.93 70.3323 166.177 70.5434 166.204 70.8337C166.231 71.7574 166.259 72.7075 166.259 73.6312V74.0007C166.259 74.3174 166.012 74.5549 165.71 74.5549ZM165.436 68.221C165.162 68.221 164.915 68.0099 164.888 67.746C164.778 66.6903 164.668 65.6346 164.531 64.6318C164.476 64.3415 164.696 64.0776 164.997 64.0248C165.299 63.972 165.573 64.1831 165.628 64.4734C165.793 65.5027 165.902 66.5847 166.012 67.6404C166.039 67.9307 165.82 68.1946 165.518 68.221C165.464 68.221 165.464 68.221 165.436 68.221ZM164.531 61.9663C164.284 61.9663 164.038 61.7815 163.983 61.544C163.763 60.5148 163.517 59.4855 163.27 58.4826C163.188 58.1923 163.38 57.902 163.654 57.8492C163.955 57.7701 164.257 57.9548 164.312 58.2187C164.586 59.2216 164.833 60.2772 165.052 61.3329C165.107 61.6232 164.915 61.8871 164.613 61.9399C164.586 61.9399 164.559 61.9663 164.531 61.9663ZM162.859 55.8171C162.639 55.8171 162.42 55.6852 162.337 55.4476C162.008 54.4448 161.625 53.4683 161.213 52.5182C161.104 52.2543 161.241 51.9376 161.515 51.832C161.789 51.7265 162.118 51.8584 162.228 52.1223C162.639 53.0988 163.023 54.1017 163.38 55.1309C163.462 55.3948 163.325 55.7115 163.023 55.7907C162.968 55.8171 162.913 55.8171 162.859 55.8171ZM160.391 49.9846C160.199 49.9846 160.007 49.8791 159.897 49.6943C159.403 48.7707 158.882 47.847 158.334 46.9497C158.169 46.7121 158.252 46.369 158.526 46.2371C158.773 46.0787 159.129 46.1579 159.266 46.4218C159.842 47.3191 160.363 48.2692 160.857 49.2457C160.994 49.5096 160.884 49.8263 160.61 49.9583C160.555 49.9583 160.473 49.9846 160.391 49.9846ZM157.018 44.5481C156.853 44.5481 156.689 44.4689 156.579 44.3369C155.948 43.4924 155.263 42.6743 154.577 41.8825C154.385 41.6714 154.413 41.3283 154.632 41.1436C154.851 40.9588 155.208 40.9852 155.4 41.1964C156.113 41.9881 156.798 42.859 157.456 43.7299C157.621 43.9674 157.566 44.2841 157.319 44.4689C157.237 44.5217 157.127 44.5481 157.018 44.5481ZM152.74 39.7448C152.603 39.7448 152.466 39.6921 152.356 39.5865C151.588 38.8739 150.765 38.1614 149.943 37.5016C149.696 37.3169 149.669 36.9738 149.861 36.7626C150.052 36.5251 150.409 36.4987 150.628 36.6835C151.478 37.3696 152.329 38.0822 153.124 38.8212C153.343 39.0323 153.343 39.349 153.124 39.5601C153.014 39.6921 152.877 39.7448 152.74 39.7448ZM87.75 38.2142C87.558 38.2142 87.3661 38.1086 87.2564 37.9238C87.1193 37.6599 87.229 37.3432 87.5032 37.2113C87.558 37.1849 88.6275 36.6571 90.5196 35.8653C90.7938 35.7598 91.1229 35.8653 91.2326 36.1292C91.3423 36.3932 91.2326 36.7099 90.9584 36.8154C89.0937 37.6072 87.9968 38.135 87.9968 38.135C87.9145 38.1878 87.8323 38.2142 87.75 38.2142ZM147.639 35.7598C147.53 35.7598 147.42 35.7334 147.338 35.6806C146.68 35.2583 146.021 34.8625 145.336 34.4666C145.089 34.3346 144.815 34.1763 144.568 34.0443C144.294 33.9124 144.212 33.5693 144.349 33.3318C144.486 33.0679 144.842 32.9887 145.089 33.1206C145.363 33.2526 145.61 33.4109 145.884 33.5429C146.57 33.9388 147.283 34.361 147.941 34.7833C148.188 34.9416 148.27 35.2847 148.078 35.5222C147.996 35.6806 147.804 35.7598 147.639 35.7598ZM93.7828 35.6806C93.5634 35.6806 93.3441 35.5486 93.2618 35.3375C93.1521 35.0736 93.2892 34.7569 93.5634 34.6513C94.578 34.2555 95.6201 33.886 96.6621 33.5429C96.9363 33.4373 97.2654 33.5957 97.3751 33.8596C97.4848 34.1235 97.3202 34.4402 97.046 34.5458C96.004 34.8889 94.9894 35.2847 93.9748 35.6542C93.9199 35.6542 93.8651 35.6806 93.7828 35.6806ZM100.008 33.5429C99.7882 33.5429 99.5688 33.4109 99.4865 33.1734C99.4043 32.8831 99.5414 32.5928 99.843 32.5136C100.885 32.1969 101.955 31.8803 102.997 31.59C103.298 31.5108 103.6 31.6691 103.682 31.9594C103.764 32.2497 103.6 32.54 103.298 32.6192C102.256 32.9095 101.214 33.2262 100.172 33.5429C100.117 33.5429 100.062 33.5429 100.008 33.5429ZM141.881 32.6984C141.799 32.6984 141.744 32.672 141.661 32.6456C140.674 32.2497 139.66 31.8539 138.645 31.5372C138.371 31.458 138.206 31.1413 138.288 30.8774C138.371 30.6135 138.7 30.4551 138.974 30.5343C140.043 30.8774 141.086 31.2469 142.1 31.6691C142.374 31.7747 142.511 32.0914 142.374 32.3553C142.292 32.5664 142.1 32.6984 141.881 32.6984ZM106.315 31.8011C106.068 31.8011 105.848 31.6427 105.794 31.4052C105.711 31.1149 105.903 30.8246 106.205 30.7718C107.274 30.5079 108.371 30.2704 109.441 30.0593C109.742 30.0065 110.017 30.1912 110.099 30.4551C110.154 30.7454 109.962 31.0093 109.687 31.0885C108.645 31.2996 107.576 31.5372 106.507 31.8011C106.424 31.7747 106.369 31.8011 106.315 31.8011ZM135.656 30.6926C135.601 30.6926 135.574 30.6926 135.519 30.6663C134.477 30.4287 133.407 30.2176 132.338 30.0593C132.036 30.0065 131.844 29.7426 131.872 29.4523C131.927 29.162 132.201 28.9772 132.502 29.0036C133.599 29.1883 134.724 29.3995 135.766 29.637C136.067 29.7162 136.232 29.9801 136.177 30.2704C136.122 30.5343 135.903 30.6926 135.656 30.6926ZM112.759 30.4815C112.485 30.4815 112.265 30.2968 112.21 30.0329C112.155 29.7426 112.347 29.4787 112.649 29.4259C113.746 29.2411 114.843 29.0828 115.94 28.9508C116.241 28.9244 116.516 29.1092 116.543 29.3995C116.57 29.6898 116.378 29.9537 116.077 29.9801C115.007 30.112 113.938 30.2704 112.841 30.4551C112.841 30.4815 112.786 30.4815 112.759 30.4815ZM129.157 29.6898C129.13 29.6898 129.13 29.6898 129.102 29.6898C128.033 29.6106 126.963 29.5314 125.839 29.505C125.537 29.505 125.291 29.2411 125.318 28.9508C125.318 28.6605 125.565 28.423 125.894 28.4494C127.018 28.4758 128.142 28.555 129.212 28.6341C129.514 28.6605 129.733 28.9244 129.705 29.2147C129.678 29.4787 129.431 29.6898 129.157 29.6898ZM119.285 29.6898C119.011 29.6898 118.764 29.4787 118.737 29.2147C118.709 28.9244 118.929 28.6605 119.23 28.6341C120.355 28.555 121.451 28.4758 122.548 28.4494C122.548 28.4494 122.548 28.4494 122.576 28.4494C122.877 28.4494 123.124 28.6869 123.124 28.9508C123.124 29.2411 122.905 29.4787 122.603 29.505C121.534 29.5314 120.437 29.5842 119.34 29.6898C119.34 29.6898 119.313 29.6898 119.285 29.6898Z" fill="#EAEAFF"/>
<path d="M72.668 41.3812L79.7977 51.4098L56.4891 45.2871L72.668 41.3812Z" fill="#EAE9FF"/>
<path d="M26.5992 37.4225L72.668 41.3812L58.957 53.5211L26.5992 37.4225Z" fill="#F4F3FD"/>
<path d="M77.0555 33.728L86.3789 25.8106L26.5992 37.4228L77.0555 33.728Z" fill="#F4F3FD"/>
<path d="M44.1218 203.292C44.1218 203.292 40.2005 215.511 38.9665 224.537C37.7599 233.562 37.2663 243.908 37.2663 243.908H73.8471L80.8123 211.447L44.1218 203.292Z" fill="#F9D2DD"/>
<path d="M44.1218 203.292C44.1218 203.292 40.2005 215.511 38.9665 224.537C37.7599 233.562 37.2663 243.908 37.2663 243.908H73.8471L80.8123 211.447L44.1218 203.292Z" fill="#DA5742"/>
<path d="M44.1218 203.292C44.1218 203.292 42.7233 207.646 41.3248 213.083L77.741 225.698L80.7848 211.447L44.1218 203.292Z" fill="#C43D28"/>
<path d="M73.8471 244.04L76.8635 217.833L41.5441 209.678C41.5441 209.678 42.1474 207.145 43.354 203.054C47.0011 190.756 56.352 164.497 72.1195 152.726C100.09 131.877 127.32 132.59 149.175 135.572C176.323 139.267 195.299 163.811 200.728 171.2C207.967 181.07 216.084 197.143 216.084 197.143L178.873 212.291L184.33 244.013H73.8471V244.04Z" fill="#3D5CFF"/>
<path d="M189.513 133.619L170.016 130.821C166.56 130.32 164.175 127.232 164.696 123.907L171.634 79.2264C172.155 75.9011 175.363 73.605 178.818 74.1065L198.315 76.9039C201.77 77.4054 204.156 80.4931 203.635 83.8184L196.697 128.499C196.204 131.824 192.968 134.12 189.513 133.619Z" fill="#B7B8D1"/>
<path d="M268.652 243.459H12.1479V244.33H268.652V243.459Z" fill="#1F1F39"/>
<path d="M189.513 133.619L170.016 130.821C166.56 130.32 164.175 127.232 164.696 123.907L171.634 79.2264C172.155 75.9011 175.363 73.605 178.818 74.1065L198.315 76.9039C201.77 77.4054 204.156 80.4931 203.635 83.8184L196.697 128.499C196.204 131.824 192.968 134.12 189.513 133.619Z" fill="#1F1F39"/>
<path d="M207.748 200.573L178.9 212.317C178.9 212.317 183.507 231.002 203.772 240.899C224.037 250.796 248.47 238.524 250.307 221.343C251.843 206.934 247.29 174.472 237.611 152.647C227.931 130.821 213.424 106.937 202.812 96.7502C192.2 86.5632 177.09 87.7244 173.471 88.305C169.851 88.8856 166.807 91.4984 168.946 93.8472C171.058 96.1696 183.452 97.3308 183.452 97.3308C183.452 97.3308 173.964 96.0904 168.124 99.2046C163.983 101.421 164.23 104.087 164.833 105.539C165.436 106.99 167.849 107.65 167.849 107.65C167.849 107.65 165.354 109.26 165.93 111.872C166.752 115.567 170.454 115.382 170.454 115.382C170.454 115.382 169.549 116.544 170.454 118.576C171.359 120.608 174.376 121.479 178.023 122.059C181.643 122.64 185.29 121.479 188.004 124.962C190.719 128.446 207.748 200.573 207.748 200.573Z" fill="#DA5742"/>
<path d="M166.231 100.841C166.122 100.841 166.012 100.788 165.93 100.709C165.765 100.551 165.793 100.287 165.957 100.155C166.506 99.6798 167.136 99.2575 167.904 98.8353C170.372 97.5157 173.745 96.8032 177.941 96.6976C181.039 96.6184 183.397 96.9087 183.48 96.9351C183.699 96.9615 183.864 97.1726 183.836 97.3838C183.809 97.5949 183.589 97.7532 183.37 97.7269C183.288 97.7269 173.937 96.5393 168.288 99.5478C167.575 99.9173 166.972 100.34 166.506 100.762C166.423 100.788 166.314 100.841 166.231 100.841Z" fill="#1F1F39"/>
<path d="M179.037 213.188C178.845 213.188 178.653 213.056 178.599 212.872L169.522 178.801C169.467 178.563 169.604 178.326 169.851 178.273C170.098 178.22 170.345 178.352 170.4 178.589L179.476 212.661C179.531 212.898 179.394 213.136 179.147 213.188C179.12 213.188 179.065 213.188 179.037 213.188Z" fill="#1F1F39"/>
<path d="M77.0281 218.124C77.0006 218.124 76.9732 218.124 76.9458 218.124C76.699 218.071 76.5345 217.86 76.5893 217.622L82.6495 184.422C82.7044 184.185 82.9238 184.026 83.1705 184.079C83.4173 184.132 83.5819 184.343 83.527 184.58L77.4668 217.781C77.4394 217.992 77.2474 218.124 77.0281 218.124Z" fill="#1F1F39"/>
<path d="M268.652 243.459H12.1479V244.33H268.652V243.459Z" fill="#1F1F39"/>
<path d="M167.027 107.808C166.89 107.808 166.725 107.729 166.67 107.597C166.56 107.412 166.643 107.175 166.835 107.069C167.027 106.963 171.88 104.588 177.365 104.06C182.876 103.533 184.604 104.06 184.659 104.087C184.878 104.166 184.988 104.377 184.906 104.588C184.823 104.799 184.604 104.905 184.385 104.826C184.385 104.826 182.684 104.324 177.42 104.852C172.072 105.354 167.219 107.755 167.164 107.755C167.164 107.808 167.081 107.808 167.027 107.808Z" fill="#1F1F39"/>
<path d="M168.672 115.989C168.535 115.989 168.37 115.91 168.315 115.778C168.206 115.593 168.288 115.356 168.48 115.25C168.672 115.145 173.526 112.77 179.01 112.242C184.522 111.714 186.249 112.242 186.304 112.268C186.524 112.347 186.633 112.558 186.551 112.77C186.469 112.981 186.249 113.086 186.03 113.007C186.03 113.007 184.33 112.506 179.065 113.033C173.718 113.535 168.864 115.936 168.809 115.936C168.809 115.989 168.727 115.989 168.672 115.989Z" fill="#1F1F39"/>
<path d="M168.096 99.5739C167.959 99.5739 167.822 99.4948 167.74 99.3628C167.63 99.1781 167.712 98.9405 167.904 98.835C170.427 97.489 173.608 96.9348 176.432 96.7501C173.142 96.1431 169.687 95.2722 168.617 94.0846C168.48 93.9262 168.48 93.6623 168.645 93.5303C168.809 93.3984 169.083 93.3984 169.22 93.5567C170.729 95.2194 178.462 96.3806 182.41 96.8028C183.014 96.8556 183.397 96.9084 183.48 96.9084L183.397 97.7002C183.315 97.7002 183.041 97.6738 182.575 97.621C180.189 97.4098 172.977 97.0404 168.315 99.5211C168.233 99.5475 168.151 99.5739 168.096 99.5739Z" fill="#1F1F39"/>
<path d="M208.598 204.347L207.721 200.573L178.873 212.318C178.873 212.318 180.189 217.701 184.549 224.22L208.598 204.347Z" fill="#C43D28"/>
<path d="M210.737 213.769C210.518 213.769 210.353 213.637 210.298 213.426L207.282 200.758C207.227 200.521 207.392 200.283 207.611 200.23C207.858 200.178 208.105 200.336 208.159 200.547L211.176 213.215C211.231 213.452 211.066 213.69 210.847 213.743C210.792 213.743 210.765 213.769 210.737 213.769Z" fill="#1F1F39"/>
<path d="M82.485 187.747L66.0867 215.353L76.8635 217.833L76.1505 224.115L82.485 187.747Z" fill="#224BF4"/>
<path d="M169.961 180.542L179.092 213.479L178.873 212.317L188.662 208.332L169.961 180.542Z" fill="#224BF4"/>
<path d="M43.9978 200.806L43.7694 201.839L78.6103 208.976L78.8387 207.944L43.9978 200.806Z" fill="#EAEAFF"/>
<path d="M205.483 191.414L176.065 202.784L176.474 203.764L205.892 192.394L205.483 191.414Z" fill="#EAEAFF"/>
<path d="M59.5055 204.585L58.436 204.347C58.4908 204.084 64.3591 178.722 75.8215 164.549C87.2838 150.351 107.11 142.302 107.302 142.222L107.713 143.199C107.521 143.278 87.9694 151.222 76.6716 165.209C65.3463 179.197 59.5603 204.347 59.5055 204.585Z" fill="#EAEAFF"/>
<path d="M55.6664 203.213L55.118 203.107C55.118 203.107 55.3922 201.919 55.8858 199.993L56.4068 200.125C55.9132 202.051 55.6664 203.213 55.6664 203.213ZM57.2843 197.064L56.7633 196.932C57.0649 195.929 57.3666 194.899 57.6682 193.87L58.1892 194.029C57.8602 195.031 57.5585 196.061 57.2843 197.064ZM59.1764 190.994L58.6554 190.835C58.9844 189.806 59.3409 188.803 59.6974 187.827L60.2184 188.011C59.862 188.988 59.5055 189.991 59.1764 190.994ZM61.3153 185.029L60.7943 184.844C61.1782 183.841 61.5895 182.839 61.9734 181.889L62.4944 182.073C62.1105 183.023 61.6992 184.026 61.3153 185.029ZM63.7559 179.144L63.2623 178.933C63.701 177.956 64.1672 176.98 64.6059 176.03L65.0995 176.267C64.6608 177.191 64.1946 178.167 63.7559 179.144ZM66.5529 173.443L66.0593 173.206C66.5803 172.229 67.1013 171.306 67.6223 170.408L68.0885 170.672C67.5949 171.543 67.0739 172.467 66.5529 173.443ZM69.8161 167.954L69.3499 167.664C69.9532 166.74 70.5839 165.843 71.1872 165.025L71.6259 165.341C71.0227 166.159 70.392 167.03 69.8161 167.954ZM73.6277 162.834L73.189 162.491C73.8745 161.673 74.5875 160.855 75.3279 160.063L75.7392 160.406C75.0262 161.224 74.3133 162.016 73.6277 162.834ZM77.9604 158.11L77.5765 157.741C78.3443 156.975 79.1121 156.21 79.9073 155.497L80.2912 155.867C79.496 156.606 78.7282 157.345 77.9604 158.11ZM82.7044 153.729L82.3479 153.333C83.1705 152.621 84.0206 151.934 84.8707 151.275L85.2272 151.697C84.3497 152.33 83.4996 153.017 82.7044 153.729ZM87.7774 149.744L87.4484 149.322C88.3259 148.688 89.2308 148.081 90.1357 147.474L90.4373 147.923C89.5598 148.504 88.6549 149.111 87.7774 149.744ZM93.2069 146.181L92.9053 145.733C93.8376 145.178 94.7974 144.624 95.7572 144.123L96.0314 144.571C95.0716 145.073 94.1393 145.627 93.2069 146.181ZM98.9107 143.093L98.6639 142.618C99.6785 142.143 100.666 141.668 101.653 141.272L101.872 141.747C100.912 142.17 99.8979 142.618 98.9107 143.093ZM104.916 140.586L104.724 140.085C105.739 139.742 106.287 139.583 106.315 139.583L106.452 140.085C106.479 140.085 105.903 140.243 104.916 140.586Z" fill="#EAEAFF"/>
<path d="M203.032 189.859C202.565 188.935 202.044 187.985 201.523 187.035L202.017 186.797C202.538 187.747 203.059 188.697 203.525 189.621L203.032 189.859ZM199.96 184.264C199.439 183.34 198.891 182.416 198.342 181.519L198.809 181.255C199.357 182.179 199.905 183.102 200.454 184.026L199.96 184.264ZM196.642 178.801C196.066 177.903 195.491 176.98 194.887 176.109L195.353 175.819C195.929 176.689 196.533 177.613 197.108 178.51L196.642 178.801ZM193.105 173.443C192.502 172.572 191.871 171.675 191.24 170.831L191.679 170.514C192.31 171.358 192.94 172.256 193.544 173.127L193.105 173.443ZM189.321 168.271C188.662 167.426 188.004 166.582 187.319 165.763L187.758 165.447C188.416 166.265 189.101 167.109 189.759 167.98L189.321 168.271ZM185.262 163.309C184.549 162.491 183.836 161.673 183.123 160.907L183.535 160.564C184.248 161.33 184.988 162.148 185.701 162.966L185.262 163.309ZM180.902 158.585C180.134 157.82 179.366 157.054 178.599 156.342L178.983 155.972C179.75 156.685 180.546 157.45 181.313 158.216L180.902 158.585ZM176.186 154.204C175.363 153.492 174.513 152.805 173.663 152.172L173.992 151.75C174.842 152.383 175.692 153.069 176.515 153.782L176.186 154.204ZM171.03 150.272C170.153 149.665 169.22 149.084 168.315 148.504L168.617 148.055C169.549 148.636 170.482 149.216 171.359 149.823L171.03 150.272ZM165.518 146.894C164.586 146.366 163.599 145.864 162.639 145.389L162.886 144.914C163.873 145.389 164.833 145.891 165.793 146.419L165.518 146.894ZM159.678 144.017C158.69 143.595 157.676 143.173 156.661 142.777L156.853 142.275C157.868 142.671 158.91 143.093 159.897 143.516L159.678 144.017ZM153.59 141.695C152.575 141.352 151.506 141.035 150.464 140.718L150.628 140.217C151.67 140.533 152.74 140.85 153.782 141.193L153.59 141.695ZM147.31 139.874C146.241 139.61 145.171 139.372 144.102 139.161L144.212 138.633C145.281 138.844 146.378 139.082 147.42 139.346L147.31 139.874ZM140.894 138.58C139.797 138.422 138.727 138.264 137.658 138.132L137.713 137.604C138.782 137.736 139.879 137.868 140.976 138.053L140.894 138.58ZM134.367 137.842C132.941 137.762 131.954 137.736 131.46 137.736C131.214 137.736 131.104 137.736 131.104 137.736L131.077 137.208C131.077 137.208 131.214 137.208 131.46 137.208C131.954 137.208 132.969 137.235 134.395 137.314L134.367 137.842Z" fill="#EAEAFF"/>
<path d="M200.235 194.134C200.097 193.844 186.606 165.605 167.493 152.383C148.407 139.187 127.457 139.583 127.265 139.583L127.237 138.528C127.457 138.528 148.736 138.105 168.151 151.512C187.511 164.893 201.112 193.395 201.249 193.685L200.235 194.134Z" fill="#EAEAFF"/>
<path d="M77.0281 218.124C77.0006 218.124 76.9732 218.124 76.9458 218.124C76.699 218.071 76.5345 217.86 76.5893 217.622L82.6495 184.422C82.7044 184.185 82.9238 184.026 83.1705 184.079C83.4173 184.132 83.5819 184.343 83.527 184.58L77.4668 217.781C77.4394 217.992 77.2474 218.124 77.0281 218.124Z" fill="#1F1F39"/>
<path d="M179.037 213.188C178.845 213.188 178.653 213.056 178.599 212.872L169.522 178.801C169.467 178.563 169.604 178.326 169.851 178.273C170.098 178.22 170.345 178.352 170.4 178.589L179.476 212.661C179.531 212.898 179.394 213.136 179.147 213.188C179.12 213.188 179.065 213.188 179.037 213.188Z" fill="#1F1F39"/>
<path d="M100.693 141.272C101.05 146.076 110.647 149.295 122.137 148.504C133.627 147.685 142.621 143.146 142.265 138.343C142.155 136.891 141.223 135.598 139.632 134.516C128.142 133.54 115.474 133.804 102.256 137.578C101.159 138.765 100.611 140.006 100.693 141.272Z" fill="#224BF4"/>
<path d="M145.281 91.4986L142.566 78.9891C142.566 78.9891 151.945 70.8342 145.281 61.2278C138.618 51.6214 126.223 55.3953 126.223 55.3953C126.223 55.3953 122.576 43.4665 108.07 44.3374C93.5634 45.2083 94.4684 61.5181 94.4684 61.5181C94.4684 61.5181 91.6439 57.5594 85.3917 60.3569C80.8671 62.389 83.2802 69.673 83.2802 69.673C83.2802 69.673 72.3937 70.5439 69.679 80.7309C66.69 91.8944 73.6003 97.331 76.6441 98.7825C79.6605 100.234 82.4027 99.6534 82.4027 99.6534C82.4027 99.6534 76.6441 102.847 78.783 108.97C80.8945 115.092 89.9712 114.512 89.9712 114.512L108.262 129.423L145.281 91.4986Z" fill="#FF7F2D"/>
<path d="M138.014 93.5308C138.014 93.5308 141.14 90.2583 145.336 91.0236C149.531 91.789 150.82 96.8033 149.01 101.844C147.173 106.885 139.605 108.389 139.605 108.389L138.014 93.5308Z" fill="#F9ACC0"/>
<path d="M103.819 105.169C103.819 105.169 102.613 101.976 97.759 102.557C92.9327 103.137 91.3971 109.55 94.7426 114.195C98.088 118.84 106.232 118.259 106.232 118.259C106.232 118.259 108.042 125.253 108.645 134.279C109.249 143.305 109.249 141.853 109.249 141.853C109.249 141.853 114.404 146.208 124.687 144.176C134.97 142.143 134.367 137.472 134.367 137.472C134.367 137.472 134.066 136.021 132.859 132.22C131.652 128.42 131.049 124.356 131.049 124.356C131.049 124.356 143.745 119.711 142.539 105.143C141.332 90.5749 136.177 80.6782 136.177 80.6782H132.859C132.859 80.6782 132.557 85.0328 128.938 86.2204C125.318 87.408 120.464 84.1883 120.464 84.1883C120.464 84.1883 119.861 89.4401 114.404 91.4722C108.947 93.5044 104.422 92.6335 104.422 92.6335C104.422 92.6335 106.561 102.266 103.819 105.169Z" fill="#F9D2DD"/>
<path d="M141.936 102.847C141.716 102.847 141.552 102.689 141.552 102.477C141.552 102.372 141.552 99.8647 142.347 97.5687C143.142 95.2463 144.733 93.7156 144.787 93.6364C144.952 93.4781 145.199 93.4781 145.336 93.6364C145.5 93.7947 145.5 94.0323 145.336 94.1642C145.309 94.1906 143.828 95.6421 143.087 97.8062C142.32 99.9967 142.32 102.451 142.32 102.477C142.32 102.689 142.155 102.847 141.936 102.847Z" fill="#1F1F39"/>
<path d="M105.355 114.353C105.19 114.353 105.053 114.274 104.971 114.142C104.943 114.116 103.024 111.16 100.721 109.761C98.4171 108.363 95.3184 107.94 95.291 107.94C95.0442 107.914 94.8797 107.677 94.9071 107.439C94.9345 107.201 95.1813 107.043 95.4281 107.07C95.5652 107.096 98.7187 107.545 101.187 109.022C103.655 110.527 105.629 113.535 105.711 113.667C105.848 113.878 105.766 114.142 105.574 114.274C105.519 114.327 105.437 114.353 105.355 114.353Z" fill="#1F1F39"/>
<path d="M112.293 101.686C112.293 100.92 112.594 100.208 113.06 99.5745C113.554 98.9675 114.24 98.4397 115.035 98.1758C115.446 98.0438 115.83 97.9647 116.269 97.9647C116.68 97.9383 117.119 97.9911 117.503 98.123C118.298 98.3605 119.011 98.9147 119.258 99.6273C118.545 99.337 117.914 99.2314 117.283 99.2314C117.146 99.2314 116.982 99.2578 116.845 99.2578C116.707 99.2842 116.543 99.2842 116.406 99.337C116.324 99.3634 116.269 99.3634 116.186 99.3634L115.967 99.4162C115.803 99.4426 115.693 99.4954 115.528 99.5481C114.98 99.7329 114.431 99.9968 113.91 100.366C113.389 100.736 112.868 101.158 112.293 101.686Z" fill="#1F1F39"/>
<path d="M130.144 96.4339C130.117 95.7213 130.391 95.0088 130.857 94.4282C131.323 93.8476 132.036 93.3725 132.832 93.1878C133.023 93.1614 133.243 93.1086 133.435 93.0822C133.627 93.0822 133.819 93.0558 134.011 93.0822C134.395 93.0822 134.778 93.1614 135.135 93.267C135.491 93.3725 135.848 93.5573 136.15 93.7948C136.287 93.9267 136.424 94.0587 136.534 94.1907C136.643 94.349 136.753 94.5073 136.78 94.6921C136.451 94.5601 136.122 94.481 135.821 94.4546C135.519 94.4018 135.217 94.4018 134.916 94.4018C134.614 94.4282 134.34 94.4282 134.038 94.481C133.901 94.481 133.736 94.5337 133.599 94.5337C133.462 94.5601 133.325 94.5865 133.188 94.6129C132.667 94.7449 132.173 94.956 131.68 95.2727C131.186 95.563 130.693 95.9589 130.144 96.4339Z" fill="#1F1F39"/>
<path d="M124.386 97.3047C125.181 97.7533 125.894 98.3339 126.525 98.9937C126.854 99.3104 127.128 99.6799 127.402 100.049C127.676 100.419 127.896 100.841 128.06 101.29C128.088 101.422 128.142 101.501 128.17 101.633C128.197 101.765 128.225 101.897 128.225 102.055C128.225 102.345 128.17 102.609 128.033 102.873C127.786 103.375 127.402 103.718 127.018 103.982C126.195 104.509 125.318 104.8 124.386 104.905C125.181 104.457 125.949 104.008 126.552 103.454C126.854 103.19 127.1 102.873 127.237 102.557C127.292 102.398 127.32 102.24 127.32 102.108C127.32 102.029 127.32 101.95 127.292 101.87C127.292 101.791 127.237 101.686 127.21 101.606C127.073 101.237 126.881 100.868 126.662 100.524C126.442 100.155 126.223 99.8119 125.949 99.4688C125.482 98.7298 124.934 98.0436 124.386 97.3047Z" fill="#1F1F39"/>
<path d="M119.861 109.841L132.859 107.228C132.859 107.228 135.272 114.802 132.557 117.415C129.843 120.028 122.85 120.45 121.068 115.673C119.285 110.896 119.861 109.841 119.861 109.841Z" fill="#F95368"/>
<path d="M133.846 113.799C132.173 113.113 129.843 112.612 127.128 113.324C124.44 114.037 122.685 115.462 121.589 116.676C123.947 120.344 130.062 119.816 132.557 117.388C133.435 116.57 133.764 115.224 133.846 113.799Z" fill="#F9ACC0"/>
<path d="M139.485 104.601C142.67 103.948 144.914 101.893 144.498 100.012C144.081 98.1297 141.162 97.1333 137.977 97.7861C134.792 98.4389 132.548 100.494 132.964 102.375C133.381 104.257 136.3 105.254 139.485 104.601Z" fill="#F9ACC0"/>
<path d="M114.746 110.54C117.93 109.888 120.175 107.833 119.758 105.951C119.342 104.069 116.422 103.073 113.238 103.726C110.053 104.378 107.809 106.433 108.225 108.315C108.641 110.197 111.561 111.193 114.746 110.54Z" fill="#F9ACC0"/>
<path d="M124.276 126.52C120.382 126.52 118.819 125.676 118.737 125.649C118.517 125.517 118.435 125.253 118.572 125.042C118.709 124.831 118.984 124.752 119.175 124.884C119.203 124.91 121.314 125.966 126.634 125.544C130.775 125.227 133.353 123.591 133.38 123.591C133.599 123.459 133.874 123.512 134.011 123.723C134.148 123.934 134.093 124.198 133.874 124.33C133.764 124.409 131.077 126.098 126.689 126.441C125.812 126.494 124.989 126.52 124.276 126.52Z" fill="#1F1F39"/>
<path d="M115.24 95.4365C116.8 94.5693 117.618 93.1193 117.065 92.1978C116.512 91.2764 114.799 91.2325 113.238 92.0997C111.677 92.9669 110.86 94.4169 111.413 95.3384C111.966 96.2598 113.679 96.3038 115.24 95.4365Z" fill="#1F1F39"/>
<path d="M135.035 88.6991C135.095 87.6367 133.685 86.6994 131.885 86.6056C130.086 86.5119 128.578 87.2971 128.519 88.3595C128.459 89.4219 129.869 90.3592 131.669 90.453C133.468 90.5468 134.975 89.7615 135.035 88.6991Z" fill="#1F1F39"/>
<path d="M145.281 91.4986L142.566 78.9891C142.566 78.9891 151.945 70.8342 145.281 61.2278C138.618 51.6214 126.223 55.3953 126.223 55.3953C126.223 55.3953 122.576 43.4665 108.07 44.3374C93.5634 45.2083 94.4684 61.5181 94.4684 61.5181C94.4684 61.5181 91.6439 57.5594 85.3917 60.3569C80.8671 62.389 83.2802 69.673 83.2802 69.673C83.2802 69.673 72.3937 70.5439 69.679 80.7309C66.69 91.8944 73.6003 97.331 76.6441 98.7825C79.6605 100.234 82.4027 99.6534 82.4027 99.6534C82.4027 99.6534 76.6441 102.847 78.783 108.97C80.8945 115.092 89.9712 114.512 89.9712 114.512L108.262 129.423L145.281 91.4986Z" fill="#F99A3D"/>
<path d="M138.014 93.5308C138.014 93.5308 141.14 90.2583 145.336 91.0236C149.531 91.789 150.738 96.2755 148.901 101.316C147.064 106.357 139.577 108.415 139.577 108.415L138.014 93.5308Z" fill="#C43D28"/>
<path d="M103.819 105.169C103.819 105.169 102.613 101.976 97.759 102.557C92.9327 103.137 91.3971 109.55 94.7426 114.195C98.088 118.84 106.232 118.259 106.232 118.259C106.232 118.259 108.042 125.253 108.645 134.279C109.249 143.305 109.249 141.853 109.249 141.853C109.249 141.853 114.404 146.208 124.687 144.175C134.97 142.143 134.367 137.472 134.367 137.472C134.367 137.472 134.066 136.021 132.859 132.22C131.652 128.42 131.049 124.356 131.049 124.356C131.049 124.356 143.745 119.711 142.539 105.143C141.332 90.5749 135.629 78.303 135.629 78.303H132.311C132.311 78.303 132.009 82.6575 128.389 83.8451C124.77 85.0327 119.916 81.813 119.916 81.813C119.916 81.813 119.313 87.0649 113.856 89.097C108.399 91.1291 103.874 90.2582 103.874 90.2582C103.874 90.2582 106.561 102.266 103.819 105.169Z" fill="#DA5742"/>
<path d="M130.802 124.514C121.753 127.945 119.011 125.306 119.011 125.306C122.329 134.015 127.868 135.678 134.148 136.549C133.928 135.73 133.545 134.358 132.859 132.273C131.652 128.499 131.049 124.409 131.049 124.409" fill="#C43D28"/>
<path d="M104.176 104.747C104.066 104.905 103.956 105.064 103.847 105.196C103.847 105.196 102.64 102.002 97.7864 102.583C92.9601 103.163 91.4245 109.577 94.77 114.221C97.8687 118.576 106.287 122.746 107.247 122.693C107.494 121.03 105.163 107.201 104.176 104.747Z" fill="#C43D28"/>
<path d="M141.936 102.847C141.716 102.847 141.552 102.689 141.552 102.477C141.552 102.372 141.552 99.8647 142.347 97.5687C143.142 95.2463 144.733 93.7156 144.787 93.6364C144.952 93.4781 145.199 93.4781 145.336 93.6364C145.5 93.7947 145.5 94.0323 145.336 94.1642C145.309 94.1906 143.828 95.6421 143.087 97.8062C142.32 99.9967 142.32 102.451 142.32 102.477C142.32 102.689 142.155 102.847 141.936 102.847Z" fill="#1F1F39"/>
<path d="M105.355 114.353C105.19 114.353 105.053 114.274 104.971 114.142C104.943 114.116 103.024 111.16 100.721 109.761C98.4171 108.363 95.3184 107.94 95.291 107.94C95.0442 107.914 94.8797 107.677 94.9071 107.439C94.9345 107.201 95.1813 107.043 95.4281 107.07C95.5652 107.096 98.7187 107.545 101.187 109.022C103.655 110.527 105.629 113.535 105.711 113.667C105.848 113.878 105.766 114.142 105.574 114.274C105.519 114.327 105.437 114.353 105.355 114.353Z" fill="#1F1F39"/>
<path d="M112.293 101.686C112.293 100.92 112.594 100.208 113.06 99.5745C113.554 98.9675 114.24 98.4397 115.035 98.1758C115.446 98.0438 115.83 97.9647 116.269 97.9647C116.68 97.9383 117.119 97.9911 117.503 98.123C118.298 98.3605 119.011 98.9147 119.258 99.6273C118.545 99.337 117.914 99.2314 117.283 99.2314C117.146 99.2314 116.982 99.2578 116.845 99.2578C116.707 99.2842 116.543 99.2842 116.406 99.337C116.324 99.3634 116.269 99.3634 116.186 99.3634L115.967 99.4162C115.803 99.4426 115.693 99.4954 115.528 99.5481C114.98 99.7329 114.431 99.9968 113.91 100.366C113.389 100.736 112.868 101.158 112.293 101.686Z" fill="#1F1F39"/>
<path d="M130.144 96.4339C130.117 95.7213 130.391 95.0088 130.857 94.4282C131.323 93.8476 132.036 93.3725 132.832 93.1878C133.023 93.1614 133.243 93.1086 133.435 93.0822C133.627 93.0822 133.819 93.0558 134.011 93.0822C134.395 93.0822 134.778 93.1614 135.135 93.267C135.491 93.3725 135.848 93.5573 136.15 93.7948C136.287 93.9267 136.424 94.0587 136.534 94.1907C136.643 94.349 136.753 94.5073 136.78 94.6921C136.451 94.5601 136.122 94.481 135.821 94.4546C135.519 94.4018 135.217 94.4018 134.916 94.4018C134.614 94.4282 134.34 94.4282 134.038 94.481C133.901 94.481 133.736 94.5337 133.599 94.5337C133.462 94.5601 133.325 94.5865 133.188 94.6129C132.667 94.7449 132.173 94.956 131.68 95.2727C131.186 95.563 130.693 95.9589 130.144 96.4339Z" fill="#1F1F39"/>
<path d="M124.386 97.3047C125.181 97.7533 125.894 98.3339 126.525 98.9937C126.854 99.3104 127.128 99.6799 127.402 100.049C127.676 100.419 127.896 100.841 128.06 101.29C128.088 101.422 128.142 101.501 128.17 101.633C128.197 101.765 128.225 101.897 128.225 102.055C128.225 102.345 128.17 102.609 128.033 102.873C127.786 103.375 127.402 103.718 127.018 103.982C126.195 104.509 125.318 104.8 124.386 104.905C125.181 104.457 125.949 104.008 126.552 103.454C126.854 103.19 127.1 102.873 127.237 102.557C127.292 102.398 127.32 102.24 127.32 102.108C127.32 102.029 127.32 101.95 127.292 101.87C127.292 101.791 127.237 101.686 127.21 101.606C127.073 101.237 126.881 100.868 126.662 100.524C126.442 100.155 126.223 99.8119 125.949 99.4688C125.482 98.7298 124.934 98.0436 124.386 97.3047Z" fill="#1F1F39"/>
<path d="M119.861 109.841L132.859 107.228C132.859 107.228 135.272 114.802 132.557 117.415C129.843 120.028 122.85 120.45 121.068 115.673C119.285 110.896 119.861 109.841 119.861 109.841Z" fill="white"/>
<path d="M133.846 113.799C132.173 113.113 129.843 112.612 127.128 113.324C124.44 114.037 122.685 115.462 121.589 116.676C123.947 120.344 130.062 119.816 132.557 117.388C133.435 116.57 133.764 115.224 133.846 113.799Z" fill="#F9D2DD"/>
<path d="M139.485 104.601C142.67 103.948 144.914 101.893 144.498 100.012C144.081 98.1297 141.162 97.1333 137.977 97.7861C134.792 98.4389 132.548 100.494 132.964 102.375C133.381 104.257 136.3 105.254 139.485 104.601Z" fill="#C43D28"/>
<path d="M114.746 110.54C117.93 109.888 120.175 107.833 119.758 105.951C119.342 104.069 116.422 103.073 113.238 103.726C110.053 104.378 107.809 106.433 108.225 108.315C108.641 110.197 111.561 111.193 114.746 110.54Z" fill="#C43D28"/>
<path d="M123.947 126.573C120.327 126.573 118.819 125.807 118.737 125.755C118.517 125.649 118.435 125.385 118.572 125.174C118.682 124.963 118.956 124.884 119.175 124.989C119.203 125.016 121.314 126.045 126.634 125.57C128.088 125.438 129.513 125.042 130.885 124.435C131.104 124.329 131.378 124.435 131.488 124.646C131.598 124.857 131.488 125.121 131.268 125.227C129.815 125.887 128.28 126.309 126.716 126.441C125.674 126.52 124.742 126.573 123.947 126.573Z" fill="#1F1F39"/>
<path d="M115.24 95.4365C116.8 94.5693 117.618 93.1193 117.065 92.1978C116.512 91.2764 114.799 91.2325 113.238 92.0997C111.677 92.9669 110.86 94.4169 111.413 95.3384C111.966 96.2598 113.679 96.3038 115.24 95.4365Z" fill="white"/>
<path d="M135.035 88.6991C135.095 87.6367 133.685 86.6994 131.885 86.6056C130.086 86.5119 128.578 87.2971 128.519 88.3595C128.459 89.4219 129.869 90.3592 131.669 90.453C133.468 90.5468 134.975 89.7615 135.035 88.6991Z" fill="white"/>
<path d="M125.208 203.951C124.66 203.951 124.111 203.951 123.536 203.951V203.424C124.66 203.45 125.729 203.45 126.826 203.424V203.951C126.305 203.951 125.757 203.951 125.208 203.951ZM130.144 203.872L130.117 203.344C131.186 203.318 132.283 203.292 133.407 203.239L133.435 203.767C132.311 203.82 131.186 203.846 130.144 203.872ZM120.245 203.846C119.203 203.82 118.079 203.767 116.954 203.688L116.982 203.16C118.106 203.213 119.23 203.265 120.272 203.318L120.245 203.846ZM136.725 203.608L136.698 203.081C137.767 203.028 138.864 202.949 139.989 202.896L140.016 203.424C138.892 203.503 137.795 203.556 136.725 203.608ZM113.664 203.503C112.539 203.424 111.442 203.345 110.373 203.265L110.428 202.738C111.497 202.817 112.594 202.896 113.719 202.975L113.664 203.503ZM143.307 203.213L143.252 202.685C144.404 202.606 145.5 202.526 146.542 202.421L146.597 202.949C145.555 203.028 144.458 203.133 143.307 203.213ZM107.082 203.028C105.931 202.922 104.806 202.843 103.792 202.738L103.847 202.21C104.861 202.289 105.958 202.394 107.137 202.5L107.082 203.028ZM149.861 202.658L149.806 202.131C151.095 202.025 152.191 201.893 153.069 201.814L153.124 202.342C152.274 202.447 151.149 202.553 149.861 202.658ZM100.501 202.421C98.6913 202.236 97.5122 202.104 97.3751 202.104H97.2654V201.576H97.4299C97.4299 201.576 98.6365 201.708 100.583 201.893L100.501 202.421ZM156.442 202.025L156.36 201.497C157.402 201.365 158.416 200.969 159.266 200.389L159.595 200.811C158.663 201.471 157.566 201.893 156.442 202.025ZM93.9748 201.26C92.9601 200.732 92.1101 199.993 91.4519 199.069L91.9181 198.779C92.5214 199.623 93.3166 200.31 94.249 200.811L93.9748 201.26ZM161.816 198.383L161.323 198.145C161.816 197.248 162.063 196.245 162.063 195.216H162.612C162.612 196.298 162.337 197.406 161.816 198.383ZM90.2728 196.034C90.2454 195.77 90.218 195.48 90.218 195.216V195.19L90.5744 192.841L91.1229 192.92L90.7664 195.242C90.7664 195.48 90.7938 195.744 90.8212 195.981L90.2728 196.034ZM161.926 194.292L161.46 191.152L162.008 191.073L162.475 194.213L161.926 194.292ZM91.5891 189.753L91.0406 189.674L91.5068 186.533L92.0552 186.612L91.5891 189.753ZM160.966 188.038L160.5 184.897L161.049 184.818L161.515 187.958L160.966 188.038ZM92.5488 183.498L92.0004 183.419L92.4666 180.279L93.015 180.358L92.5488 183.498ZM160.007 181.756L159.54 178.616L160.089 178.537L160.555 181.677L160.007 181.756ZM93.5086 177.244L92.9601 177.164L93.4263 174.024L93.9748 174.103L93.5086 177.244ZM159.047 175.502L158.581 172.361L159.129 172.282L159.595 175.423L159.047 175.502ZM94.3861 170.962L93.8376 170.883C93.9748 169.801 94.4135 168.746 95.0716 167.848L95.5104 168.139C94.9071 168.983 94.5232 169.96 94.3861 170.962ZM157.977 169.326C157.566 168.402 156.935 167.558 156.113 166.898L156.469 166.502C157.347 167.215 158.032 168.112 158.471 169.115L157.977 169.326ZM126.36 167.268C125.537 167.268 124.715 167.268 123.865 167.241V166.713C124.989 166.74 126.086 166.74 127.155 166.74V167.268C126.881 167.268 126.634 167.268 126.36 167.268ZM130.473 167.215V166.687C131.57 166.661 132.667 166.634 133.764 166.582L133.791 167.109C132.667 167.162 131.543 167.188 130.473 167.215ZM120.574 167.136C119.505 167.083 118.408 167.03 117.283 166.977L117.311 166.45C118.435 166.502 119.532 166.581 120.601 166.608L120.574 167.136ZM137.055 166.951L137.027 166.423C138.124 166.37 139.221 166.291 140.318 166.212L140.373 166.74C139.248 166.819 138.151 166.898 137.055 166.951ZM113.993 166.766C112.896 166.687 111.799 166.608 110.702 166.502L110.757 165.975C111.854 166.08 112.951 166.159 114.048 166.238L113.993 166.766ZM143.608 166.45L143.554 165.922C144.678 165.816 145.775 165.711 146.817 165.579L146.872 166.106C145.857 166.238 144.733 166.344 143.608 166.45ZM107.411 166.186C106.315 166.08 105.19 165.948 104.121 165.816L104.176 165.288C105.245 165.42 106.342 165.526 107.439 165.658L107.411 166.186ZM97.8687 166.159L97.6219 165.684C98.6365 165.183 99.7608 164.892 100.912 164.892V165.42C99.843 165.42 98.801 165.684 97.8687 166.159ZM150.162 165.684L150.08 165.156C151.204 164.998 151.807 164.892 151.807 164.892H151.862C152.383 164.892 152.932 164.945 153.425 165.051L153.316 165.579C152.85 165.473 152.356 165.42 151.89 165.42C151.78 165.447 151.177 165.552 150.162 165.684Z" fill="#EAEAFF"/>
<path d="M125.373 201.471C116.132 201.471 102.256 199.966 101.488 199.887C97.9509 199.861 95.0716 197.09 95.0716 193.659V193.58L98.1155 173.549C98.1429 170.144 101.022 167.373 104.587 167.373H104.669C104.779 167.4 115.995 168.957 126.36 168.957C138.919 168.957 148.051 167.4 148.133 167.373H148.243C151.78 167.373 154.687 170.144 154.714 173.549L157.758 193.606V193.633C157.758 197.063 154.879 199.835 151.341 199.861C150.574 199.966 137.082 201.471 125.373 201.471ZM96.1685 193.712C96.1959 196.536 98.5816 198.832 101.543 198.832H101.598C101.735 198.858 115.967 200.415 125.373 200.415C137.274 200.415 151.095 198.858 151.232 198.832H151.286C154.221 198.832 156.634 196.536 156.661 193.712L153.617 173.654V173.628C153.617 170.804 151.232 168.482 148.297 168.455C147.53 168.587 138.535 170.039 126.36 170.039C116.241 170.039 105.327 168.561 104.56 168.455C101.625 168.482 99.2398 170.778 99.2398 173.628V173.707L96.1685 193.712Z" fill="#EAEAFF"/>
</g>
<defs>
<clipPath id="clip0_232_399">
<rect width="280.8" height="270.246" fill="white"/>
</clipPath>
</defs>
</svg>
