<svg id="Layer_3_copy" data-name="Layer 3 copy" xmlns="http://www.w3.org/2000/svg" viewBox="0 0 923.32 717.65"><defs><style>.cls-1{fill:#34345d;}.cls-2{fill:#f68714;}.cls-3{fill:#51aee5;}.cls-4{fill:#3fb5a0;}.cls-5{fill:#b71d2d;}</style></defs><g id="Layer_2" data-name="Layer 2"><path class="cls-1" d="M613.13,494.65A14.28,14.28,0,0,1,613,466.1l238.72-1.37.6,0a27.89,27.89,0,0,0,21-7.55,33.79,33.79,0,0,0,.27-49.34,27.81,27.81,0,0,0-21.3-7.83l-1.1,0H612.81a14.27,14.27,0,1,1,0-28.54H850.73a56.12,56.12,0,0,1,42.45,15.52,62.31,62.31,0,0,1-.56,91.23,56.35,56.35,0,0,1-41.85,15l-237.56,1.37Z" transform="translate(-247 -306.3)"/><path class="cls-1" d="M584.6,628.35a14.05,14.05,0,0,1-.1-28.1L763,598.89c16.51-2.31,29-16.8,28.65-33.28A33.17,33.17,0,0,0,763,533.93H584.37a14.05,14.05,0,0,1,0-28.1H763.91a15.16,15.16,0,0,1,1.64.09c30.14,3.55,53.42,28.92,54.15,59,.74,31.07-23.05,58.28-54.14,62-.52.06-1,.08-1.55.09l-179.3,1.37Z" transform="translate(-247 -306.3)"/><path class="cls-1" d="M584.72,770.72a14.22,14.22,0,0,1-.07-28.43l265-1.37c.33,0,.72,0,1.07,0a36.05,36.05,0,0,0,26.82-9.34A31.27,31.27,0,0,0,888,709a31.6,31.6,0,0,0-10.2-23.18,35.8,35.8,0,0,0-27.17-9.7c-.33,0-.66,0-1,0H584.37a14.22,14.22,0,1,1,0-28.43H849.21a64.6,64.6,0,0,1,48.16,17.45,58.82,58.82,0,0,1-.65,87.35,64.43,64.43,0,0,1-47.47,16.79l-264.46,1.38Z" transform="translate(-247 -306.3)"/><path class="cls-2" d="M847,457.82H578.66a8.5,8.5,0,1,1,0-17H846.53a7.78,7.78,0,0,0,6.47-7.95,7.7,7.7,0,0,0-6.46-7.6H578.66a8.51,8.51,0,1,1,0-17H847c.23,0,.47,0,.7,0a24.88,24.88,0,0,1,0,49.5Z" transform="translate(-247 -306.3)"/><path class="cls-3" d="M854.22,733.9H589.16a8.46,8.46,0,0,1,0-16.91H853.79c3.61-.46,6.43-4,6.36-8s-2.85-7.2-6.36-7.64H589.16a8.46,8.46,0,0,1,0-16.91H854.22c.23,0,.47,0,.71,0,12.35,1,21.85,11.43,22.11,24.17.25,13.08-9.46,24.15-22.11,25.21A5.74,5.74,0,0,1,854.22,733.9Z" transform="translate(-247 -306.3)"/><path class="cls-4" d="M757.84,591.59H589.4a8.29,8.29,0,1,1,0-16.58H756.24c.83-1,2.27-3.85,2.21-8.23-.05-4.11-1.42-6.79-2.2-7.74H589.4a8.29,8.29,0,1,1,0-16.58H757.84a8.89,8.89,0,0,1,1.15.08c9.4,1.24,16.34,11.34,16.51,24,.17,13.16-6.77,23.65-16.5,24.95A9,9,0,0,1,757.84,591.59Z" transform="translate(-247 -306.3)"/><path class="cls-5" d="M499.92,771.51l27.19-24a2.44,2.44,0,0,1,3.22,0L558,771.52a2.45,2.45,0,0,0,4.06-1.89l-.66-294.47a22,22,0,0,0-21.9-22.08H518.6a22,22,0,0,0-21.89,22.06q-.43,147.26-.86,294.5A2.45,2.45,0,0,0,499.92,771.51Z" transform="translate(-247 -306.3)"/><rect class="cls-5" x="215.16" y="96.94" width="31.07" height="29.8" rx="5.09"/><rect class="cls-1" x="269.18" y="102.94" width="36.43" height="34.94" rx="4.89"/><rect class="cls-3" x="319.64" y="162.41" width="27.35" height="26.23" rx="4.07"/><rect class="cls-1" x="202.12" y="55.15" width="23.57" height="22.61" rx="4.38"/><rect class="cls-5" x="306.71" y="9.73" width="16.78" height="16.1" rx="4.09"/><rect class="cls-2" x="260.47" width="26.92" height="25.83" rx="4.65"/><rect class="cls-4" x="246.79" y="46.93" width="37.5" height="35.97" rx="4.94"/><rect class="cls-3" x="300.94" y="42.77" width="44.74" height="44.74" rx="8.04"/><path class="cls-1" d="M334.28,991.1a95.77,95.77,0,0,0,11-2.45A64.82,64.82,0,0,0,354.9,985a25,25,0,0,0,7-4.66l14.45,29.13a130,130,0,0,1-24.23,10.13Q338.36,1024,319,1024a77,77,0,0,1-28.78-5.24,69.62,69.62,0,0,1-22.84-14.56,66,66,0,0,1-15-22A69.71,69.71,0,0,1,247,954.74a70.49,70.49,0,0,1,5.48-28,66.46,66.46,0,0,1,37-36.35,71.82,71.82,0,0,1,27.15-5.13,70.94,70.94,0,0,1,27.85,5.36,59.34,59.34,0,0,1,21.79,15.73,72,72,0,0,1,14,25.29q4.89,14.91,4.19,33.79H280.56q3.27,13.51,13.63,20T320,992h3.49A67.56,67.56,0,0,0,334.28,991.1Zm-40.44-70a32.82,32.82,0,0,0-12.11,17.37h68.51q-2.57-12.12-11.65-18.18t-22.37-6.06Q302.93,914.19,293.84,921.06Z" transform="translate(-247 -306.3)"/><path class="cls-1" d="M481.91,989.7q7.21-2.34,7.22-7.93a8.81,8.81,0,0,0-4.54-7.92q-4.54-2.79-17.13-5.36L457,966.62q-22.37-4.18-35-14t-12.58-26.8q0-18.65,14.57-29.59t40.2-11a147.82,147.82,0,0,1,30.18,3,90.48,90.48,0,0,1,25.51,9.09L508,927.71a76.28,76.28,0,0,0-10-4.32,110,110,0,0,0-23.89-5.47,103.91,103.91,0,0,0-11.77-.7q-20.5,0-20.51,8.62c0,2.95,1.56,5.4,4.66,7.34s8.78,3.69,17,5.25l10.25,1.86q26.81,5.13,38.34,15.38t11.53,28a34.66,34.66,0,0,1-3.73,16,36.22,36.22,0,0,1-11.18,12.82,55.92,55.92,0,0,1-18.76,8.51,102.27,102.27,0,0,1-26.22,3,138.8,138.8,0,0,1-16-.93,145.81,145.81,0,0,1-15.73-2.68,127,127,0,0,1-14.57-4.19,74.31,74.31,0,0,1-12.47-5.71l12.35-31.7a80.46,80.46,0,0,0,21.44,9.56A90.83,90.83,0,0,0,464.66,992,56.64,56.64,0,0,0,481.91,989.7Z" transform="translate(-247 -306.3)"/><path class="cls-1" d="M550.54,927.12a66,66,0,0,1,14.68-22,67.53,67.53,0,0,1,22.37-14.56,74,74,0,0,1,28.09-5.25,98.77,98.77,0,0,1,24.47,2.8,100.1,100.1,0,0,1,21,7.92l-13,29.37a64.46,64.46,0,0,0-14.22-6,60.66,60.66,0,0,0-16.78-2.21,42.57,42.57,0,0,0-15.38,2.68,32.75,32.75,0,0,0-11.88,7.69,34.87,34.87,0,0,0-7.58,11.89,44.79,44.79,0,0,0,0,30.52,32.86,32.86,0,0,0,19.46,19.35A42.79,42.79,0,0,0,617.07,992a63.51,63.51,0,0,0,16.78-2.1,55.32,55.32,0,0,0,14.22-6.06l13,29.6a95.5,95.5,0,0,1-21,7.8,103,103,0,0,1-24.47,2.68,74,74,0,0,1-28.09-5.24,68.37,68.37,0,0,1-22.37-14.45,64.62,64.62,0,0,1-14.68-21.9,75.41,75.41,0,0,1,0-55.24Z" transform="translate(-247 -306.3)"/><path class="cls-1" d="M798.38,890V1014.4q-7,2.33-13.51,4.08t-13.17,3a128.62,128.62,0,0,1-13.87,1.86q-7.22.58-15.61.58a97.17,97.17,0,0,1-23.42-2.68,49.27,49.27,0,0,1-18.88-9,42.31,42.31,0,0,1-12.58-16.54q-4.55-10.26-4.55-25.64V890h32.63V960.8q0,17.94,6.06,24.59T741.29,992a98.23,98.23,0,0,0,11.3-.7,99.69,99.69,0,0,0,13.17-2.57V890Z" transform="translate(-247 -306.3)"/><path class="cls-1" d="M912.23,991.1a96.25,96.25,0,0,0,10.95-2.45,64.82,64.82,0,0,0,9.67-3.61,25.12,25.12,0,0,0,7-4.66l14.45,29.13a130,130,0,0,1-24.23,10.13Q916.31,1024,897,1024a77,77,0,0,1-28.78-5.24,69.62,69.62,0,0,1-22.84-14.56,65.83,65.83,0,0,1-15-22A69.71,69.71,0,0,1,825,954.74a70.49,70.49,0,0,1,5.48-28,66.46,66.46,0,0,1,37.05-36.35,71.82,71.82,0,0,1,27.15-5.13,71,71,0,0,1,27.85,5.36,59.34,59.34,0,0,1,21.79,15.73,71.81,71.81,0,0,1,14,25.29q4.9,14.91,4.2,33.79H858.51q3.25,13.51,13.63,20T897.89,992h3.5A67.56,67.56,0,0,0,912.23,991.1Zm-40.44-70a32.78,32.78,0,0,0-12.12,17.37h68.52q-2.57-12.12-11.65-18.18t-22.37-6.06Q880.88,914.19,871.79,921.06Z" transform="translate(-247 -306.3)"/><path class="cls-1" d="M987.85,832.16h32.62v189H987.85Z" transform="translate(-247 -306.3)"/><path class="cls-1" d="M1089.57,1021.62a62.59,62.59,0,0,1-19.81-7.45,40.27,40.27,0,0,1-13.63-13.4q-5.13-8.28-5.13-20.39a38.89,38.89,0,0,1,17.13-33.33,57.81,57.81,0,0,1,19.34-8.39,102.48,102.48,0,0,1,24.59-2.8q5.36,0,11.77.35t13.86,1.52v-1.87q0-11.18-8.39-15.14t-21.9-4a73,73,0,0,0-11.19.94,116.84,116.84,0,0,0-12.23,2.56q-6.18,1.63-12,3.73t-10.72,4.43l4.2-33.33a94.38,94.38,0,0,1,20.27-6.87,113.05,113.05,0,0,1,26.11-2.92,91.92,91.92,0,0,1,23.3,2.8,50.78,50.78,0,0,1,18.53,8.85A40.71,40.71,0,0,1,1165.89,913q4.42,10,4.43,24.23v76.44a147.74,147.74,0,0,1-27.5,7.57,166.75,166.75,0,0,1-29.6,2.68A116.39,116.39,0,0,1,1089.57,1021.62Zm37.4-59.31a86.33,86.33,0,0,0-11.42-.81,80.46,80.46,0,0,0-11.76.81,34.7,34.7,0,0,0-9.68,2.8,17.45,17.45,0,0,0-6.64,5.24,12.86,12.86,0,0,0-2.44,7.93q0,9.09,8.27,12.7t20.39,3.61a84.34,84.34,0,0,0,12.35-.93,63.07,63.07,0,0,0,11.65-2.8V964.29A102,102,0,0,0,1127,962.31Z" transform="translate(-247 -306.3)"/></g></svg>