<svg width="294" height="294" viewBox="0 0 294 294" fill="none" xmlns="http://www.w3.org/2000/svg">
<g clip-path="url(#clip0_403_4122)">
<path opacity="0.1" d="M147 293.998C228.186 293.998 294 228.184 294 146.999C294 65.8137 228.186 0 147 0C65.8142 0 0 65.8137 0 146.999C0 228.184 65.8142 293.998 147 293.998Z" fill="#808080" fill-opacity="0.72"/>
<path d="M83.4008 102.906C83.9322 102.31 84.5759 101.825 85.2949 101.478C86.0139 101.13 86.7943 100.928 87.5915 100.883C88.3886 100.837 89.1869 100.949 89.9408 101.212C90.6947 101.475 91.3894 101.884 91.9853 102.415L111.389 119.722L103.295 128.797L83.8909 111.491C83.295 110.959 82.8097 110.316 82.4625 109.597C82.1154 108.877 81.9133 108.097 81.8678 107.3C81.8223 106.503 81.9342 105.704 82.1973 104.95C82.4603 104.197 82.8692 103.502 83.4008 102.906Z" fill="white"/>
<path d="M103.342 129.643L83.4915 111.938C82.8368 111.354 82.3035 110.647 81.922 109.857C81.5406 109.067 81.3185 108.209 81.2685 107.333C81.2184 106.458 81.3413 105.58 81.6303 104.752C81.9192 103.924 82.3685 103.16 82.9524 102.506C83.5364 101.851 84.2435 101.318 85.0336 100.936C85.8236 100.555 86.6811 100.333 87.557 100.283C88.4329 100.233 89.31 100.356 90.1384 100.644C90.9667 100.933 91.7301 101.383 92.3848 101.967L112.237 119.672L103.342 129.643ZM87.9435 101.472C87.8373 101.472 87.7307 101.475 87.6238 101.481C86.5418 101.543 85.5025 101.925 84.6373 102.578C83.7721 103.23 83.1199 104.125 82.7631 105.148C82.4064 106.172 82.3611 107.278 82.633 108.327C82.9049 109.376 83.4818 110.321 84.2908 111.042L103.246 127.949L110.541 119.771L91.5856 102.864C90.5857 101.966 89.289 101.471 87.9453 101.472H87.9435Z" fill="#656771"/>
<path d="M190.703 128.796L182.609 119.721L202.013 102.415C203.216 101.342 204.797 100.79 206.407 100.882C208.016 100.974 209.524 101.702 210.597 102.906C211.671 104.109 212.222 105.689 212.13 107.299C212.038 108.909 211.31 110.417 210.107 111.49L190.703 128.796Z" fill="white"/>
<path d="M190.656 129.643L181.763 119.672L201.615 101.967C202.937 100.787 204.674 100.182 206.443 100.283C208.212 100.384 209.868 101.183 211.048 102.506C212.227 103.828 212.833 105.565 212.731 107.333C212.63 109.102 211.831 110.759 210.508 111.938L190.656 129.643ZM183.459 119.77L190.753 127.948L209.709 111.043C210.246 110.564 210.684 109.983 210.996 109.335C211.309 108.687 211.491 107.984 211.532 107.266C211.574 106.547 211.473 105.828 211.236 105.148C210.999 104.469 210.63 103.843 210.151 103.306C209.672 102.769 209.092 102.331 208.444 102.019C207.796 101.706 207.093 101.524 206.374 101.483C205.656 101.441 204.936 101.542 204.257 101.779C203.577 102.016 202.951 102.385 202.414 102.864L183.459 119.77Z" fill="#656771"/>
<path d="M198.784 140.053C203.112 159.22 209.038 171.551 206.087 178.633C204.536 182.356 201.353 185.477 196.083 185.477C187.869 185.477 187.869 175.79 179.654 175.79C171.439 175.79 171.44 185.477 163.226 185.477C155.012 185.477 155.013 175.79 146.8 175.79C138.586 175.79 138.586 185.477 130.372 185.477C122.159 185.477 122.159 175.79 113.946 175.79C105.733 175.79 105.734 185.477 97.5215 185.477C92.6454 185.477 89.8891 182.606 88.141 179.287C83.9402 171.314 93.7308 153.77 97.5215 138.3C101.71 121.205 101.357 99.9113 101.919 87.0689C103.003 62.3028 122.013 42.1831 146.805 42.1831C171.597 42.1831 189.885 62.3449 191.691 87.0689C192.665 100.398 194.822 122.508 198.784 140.053Z" fill="white"/>
<path d="M196.083 186.083C191.695 186.083 189.515 183.512 187.407 181.023C185.388 178.642 183.481 176.394 179.654 176.394C175.827 176.394 173.922 178.642 171.902 181.023C169.793 183.51 167.613 186.083 163.226 186.083C158.839 186.083 156.659 183.512 154.551 181.023C152.532 178.642 150.625 176.394 146.8 176.394C142.974 176.394 141.068 178.642 139.048 181.023C136.94 183.51 134.76 186.083 130.372 186.083C125.985 186.083 123.804 183.512 121.7 181.026C119.681 178.645 117.774 176.396 113.948 176.396C110.122 176.396 108.217 178.645 106.198 181.026C104.09 183.512 101.91 186.086 97.5237 186.086C93.1603 186.086 89.9168 183.955 87.6073 179.572C84.6785 174.013 88.1961 164.185 91.921 153.781C93.7706 148.613 95.6821 143.27 96.9358 138.16C100.285 124.488 100.709 108.423 101.05 95.5135C101.13 92.4603 101.206 89.5759 101.318 87.0461C101.856 74.7871 106.73 63.3775 115.045 54.9181C119.178 50.6829 124.119 47.3202 129.575 45.0294C135.031 42.7387 140.892 41.5663 146.809 41.5818C152.689 41.5679 158.51 42.7439 163.923 45.039C169.336 47.3341 174.228 50.7008 178.306 54.9365C186.429 63.3 191.399 74.698 192.3 87.0286C193.168 98.9182 195.242 121.599 199.379 139.924C200.783 146.139 202.353 151.629 203.739 156.473C206.633 166.587 208.724 173.895 206.65 178.87C205.523 181.563 202.658 186.083 196.083 186.083ZM179.654 175.184C184.042 175.184 186.222 177.755 188.33 180.244C190.35 182.625 192.257 184.874 196.083 184.874C201.955 184.874 204.522 180.819 205.529 178.402C207.439 173.818 205.394 166.681 202.57 156.804C201.182 151.944 199.604 146.437 198.194 140.189C194.039 121.786 191.958 99.0378 191.088 87.115C189.241 61.8457 170.204 42.7903 146.805 42.7903C123.062 42.7903 103.611 62.2518 102.522 87.0971C102.411 89.6162 102.335 92.4952 102.253 95.5431C101.929 107.826 101.485 124.647 98.1049 138.446C96.8382 143.616 94.9142 148.991 93.0542 154.188C89.422 164.334 85.9913 173.919 88.6721 179.007C90.7523 182.954 93.6453 184.872 97.517 184.872C101.343 184.872 103.248 182.624 105.268 180.242C107.375 177.756 109.555 175.183 113.942 175.183C118.328 175.183 120.509 177.754 122.616 180.242C124.635 182.624 126.542 184.872 130.368 184.872C134.194 184.872 136.101 182.623 138.12 180.242C140.228 177.756 142.408 175.183 146.795 175.183C151.182 175.183 153.362 177.754 155.47 180.242C157.489 182.624 159.395 184.872 163.221 184.872C167.048 184.872 168.955 182.623 170.974 180.242C173.086 177.757 175.266 175.184 179.654 175.184Z" fill="#656771"/>
<path d="M129.938 89.965C132.686 89.965 134.913 87.7374 134.913 84.9896C134.913 82.2417 132.686 80.0142 129.938 80.0142C127.19 80.0142 124.963 82.2417 124.963 84.9896C124.963 87.7374 127.19 89.965 129.938 89.965Z" fill="#656771"/>
<path d="M164.056 89.965C166.804 89.965 169.031 87.7374 169.031 84.9896C169.031 82.2417 166.804 80.0142 164.056 80.0142C161.308 80.0142 159.08 82.2417 159.08 84.9896C159.08 87.7374 161.308 89.965 164.056 89.965Z" fill="#656771"/>
<path d="M155.908 98.418C156.195 98.4173 156.479 98.4806 156.739 98.6033C156.998 98.7261 157.227 98.9051 157.409 99.1275C157.591 99.3499 157.721 99.6099 157.789 99.8888C157.858 100.168 157.863 100.458 157.805 100.74C156.739 105.728 152.306 108.864 146.998 108.864C141.691 108.864 137.258 105.729 136.191 100.74C136.134 100.458 136.139 100.168 136.208 99.8887C136.276 99.6098 136.406 99.3497 136.588 99.1273C136.77 98.9049 136.999 98.7259 137.258 98.6032C137.518 98.4805 137.802 98.4172 138.089 98.418H155.908Z" fill="white"/>
<path d="M146.998 109.469C141.28 109.469 136.7 106.012 135.599 100.866C135.521 100.5 135.526 100.12 135.613 99.7561C135.701 99.3918 135.869 99.0519 136.106 98.7615C136.344 98.4652 136.646 98.2263 136.989 98.0624C137.333 97.8985 137.708 97.8138 138.089 97.8145H155.909C156.289 97.8139 156.665 97.8986 157.008 98.0625C157.351 98.2264 157.653 98.4653 157.892 98.7615C158.128 99.052 158.297 99.3919 158.384 99.7561C158.472 100.12 158.477 100.5 158.399 100.866C157.296 106.012 152.714 109.469 146.998 109.469ZM138.088 99.0234C137.888 99.0232 137.691 99.0678 137.51 99.154C137.33 99.2402 137.171 99.3657 137.046 99.5213C136.923 99.6719 136.836 99.8482 136.79 100.037C136.745 100.226 136.742 100.423 136.782 100.613C137.76 105.186 141.865 108.258 146.997 108.258C152.129 108.258 156.234 105.186 157.212 100.613C157.253 100.423 157.25 100.226 157.204 100.037C157.158 99.8481 157.071 99.6718 156.948 99.5213C156.822 99.3657 156.664 99.2401 156.484 99.154C156.303 99.0678 156.106 99.0232 155.907 99.0234H138.088Z" fill="#656771"/>
<path d="M263.952 236.07C237.095 271.281 194.702 294 147.002 294C99.3031 294 56.9097 271.281 30.0533 236.07C60.7111 224.536 101.815 217.484 147.002 217.484C192.19 217.484 233.292 224.536 263.952 236.07Z" fill="#808080" fill-opacity="0.72"/>
<path d="M276.289 76.9887L200.846 76.6663C200.846 64.0666 207.943 61.586 215.488 59.5398C223.033 57.4936 226.427 43.6446 239.537 42.8566C247.279 42.3909 251.34 44.3834 254.702 46.949C254.707 46.9535 254.707 46.958 254.711 46.958C263.136 56.0227 270.386 66.1123 276.289 76.9887Z" fill="white"/>
<path d="M61.0886 170.609L1.93119 170.864C0.920723 164.688 0.307532 158.453 0.0953979 152.197C13.0534 150.362 11.7281 140.063 27.2025 140.999C38.6829 141.689 41.665 153.818 48.2694 155.609C54.8738 157.4 61.0886 159.579 61.0886 170.609Z" fill="white"/>
</g>
<defs>
<clipPath id="clip0_403_4122">
<rect width="294" height="294" fill="white"/>
</clipPath>
</defs>
</svg>
