<svg width="50" height="49" viewBox="0 0 50 49" fill="none" xmlns="http://www.w3.org/2000/svg">
<path d="M2.16199 37.0161V34.9399C2.16199 26.9134 8.66876 20.4066 16.6953 20.4066C24.7218 20.4066 31.2285 26.9134 31.2285 34.9399V37.0161" stroke="#808080" stroke-width="3.07695" stroke-linecap="round"/>
<path d="M27.0761 24.5591C27.0761 18.826 31.7238 14.1782 37.457 14.1782C43.1902 14.1782 47.8379 18.826 47.8379 24.5591V25.5972" stroke="#808080" stroke-width="3.07695" stroke-linecap="round"/>
<path d="M16.6952 20.4066C21.2817 20.4066 25 16.6883 25 12.1018C25 7.51527 21.2817 3.79712 16.6952 3.79712C12.1087 3.79712 8.3905 7.51527 8.3905 12.1018C8.3905 16.6883 12.1087 20.4066 16.6952 20.4066Z" stroke="#808080" stroke-width="3.07695" stroke-linecap="round" stroke-linejoin="round"/>
<path d="M37.4571 14.1782C40.8971 14.1782 43.6856 11.3895 43.6856 7.94961C43.6856 4.50969 40.8971 1.72107 37.4571 1.72107C34.017 1.72107 31.2285 4.50969 31.2285 7.94961C31.2285 11.3895 34.017 14.1782 37.4571 14.1782Z" stroke="#808080" stroke-width="3.07695" stroke-linecap="round" stroke-linejoin="round"/>
</svg>
