<svg width="50" height="53" viewBox="0 0 50 53" fill="none" xmlns="http://www.w3.org/2000/svg">
<path d="M2.16199 37.016V34.9399C2.16199 26.9133 8.66876 20.4066 16.6953 20.4066C24.7218 20.4066 31.2285 26.9133 31.2285 34.9399V37.016" stroke="#34345D" stroke-width="3.07695" stroke-linecap="round"/>
<path d="M27.076 24.5591C27.076 18.8259 31.7238 14.1782 37.457 14.1782C43.1901 14.1782 47.8379 18.8259 47.8379 24.5591V25.5972" stroke="#34345D" stroke-width="3.07695" stroke-linecap="round"/>
<path d="M16.6952 20.4065C21.2817 20.4065 25 16.6883 25 12.1018C25 7.51524 21.2817 3.79709 16.6952 3.79709C12.1087 3.79709 8.3905 7.51524 8.3905 12.1018C8.3905 16.6883 12.1087 20.4065 16.6952 20.4065Z" stroke="#34345D" stroke-width="3.07695" stroke-linecap="round" stroke-linejoin="round"/>
<path d="M37.4571 14.1781C40.8971 14.1781 43.6856 11.3895 43.6856 7.94955C43.6856 4.50963 40.8971 1.72101 37.4571 1.72101C34.017 1.72101 31.2285 4.50963 31.2285 7.94955C31.2285 11.3895 34.017 14.1781 37.4571 14.1781Z" stroke="#34345D" stroke-width="3.07695" stroke-linecap="round" stroke-linejoin="round"/>
<line x1="36.094" y1="50.279" x2="14.7908" y2="50.279" stroke="#34345D" stroke-width="4" stroke-linecap="round"/>
</svg>
