<svg width="118" height="114" viewBox="0 0 118 114" fill="none" xmlns="http://www.w3.org/2000/svg">
<path d="M9.54351 91.1954C9.49473 91.1949 9.44696 91.1814 9.40501 91.1563L3.11977 87.496C3.0779 87.4716 3.04309 87.4366 3.01879 87.3944C2.99449 87.3523 2.98156 87.3044 2.98126 87.2557V79.935C2.98107 79.8858 2.99378 79.8374 3.0181 79.7947C3.04242 79.752 3.07749 79.7166 3.11977 79.692L9.40501 76.0316C9.44712 76.0071 9.49489 75.9942 9.54351 75.9942C9.59214 75.9942 9.6399 76.0071 9.68201 76.0316L15.9673 79.692C16.0095 79.7166 16.0446 79.752 16.0689 79.7947C16.0932 79.8374 16.106 79.8858 16.1058 79.935V87.2557C16.1055 87.3044 16.0925 87.3523 16.0682 87.3944C16.0439 87.4366 16.0091 87.4716 15.9673 87.496L9.68201 91.1563C9.64007 91.1814 9.59229 91.1949 9.54351 91.1954ZM3.52419 87.0936L9.53243 90.5919L15.5407 87.0936V80.0943L9.54351 76.596L3.52419 80.0943V87.0936Z" fill="#EBEBEB"/>
<path d="M22.1167 91.1954C22.0679 91.1949 22.0202 91.1814 21.9782 91.1563L15.6902 87.496C15.6483 87.4716 15.6135 87.4366 15.5892 87.3944C15.5649 87.3523 15.552 87.3044 15.5517 87.2557V79.935C15.5515 79.8858 15.5642 79.8374 15.5885 79.7947C15.6129 79.752 15.6479 79.7166 15.6902 79.692L21.9782 76.0316C22.0203 76.0071 22.0681 75.9942 22.1167 75.9942C22.1653 75.9942 22.2131 76.0071 22.2552 76.0316L28.5405 79.692C28.5827 79.7166 28.6178 79.752 28.6421 79.7947C28.6664 79.8374 28.6792 79.8858 28.679 79.935V87.2557C28.6787 87.3044 28.6657 87.3523 28.6414 87.3944C28.6171 87.4366 28.5823 87.4716 28.5405 87.496L22.2552 91.1563C22.2133 91.1814 22.1655 91.1949 22.1167 91.1954ZM16.1057 87.0936L22.1167 90.5919L28.125 87.0936V80.0943L22.1167 76.596L16.1057 80.0943V87.0936Z" fill="#EBEBEB"/>
<path d="M22.1167 76.5511C22.0432 76.5511 21.9727 76.5217 21.9208 76.4693C21.8688 76.4169 21.8397 76.3458 21.8397 76.2717V71.9436C21.8397 71.8695 21.8688 71.7984 21.9208 71.746C21.9727 71.6936 22.0432 71.6642 22.1167 71.6642C22.1901 71.6642 22.2606 71.6936 22.3125 71.746C22.3645 71.7984 22.3937 71.8695 22.3937 71.9436V76.2857C22.3901 76.3573 22.3594 76.4249 22.3078 76.4743C22.2562 76.5237 22.1878 76.5512 22.1167 76.5511Z" fill="#EBEBEB"/>
<path d="M28.4019 80.2144C28.3402 80.2147 28.2801 80.1942 28.2312 80.1561C28.1823 80.118 28.1474 80.0645 28.1321 80.0041C28.1169 79.9437 28.122 79.8799 28.1468 79.8228C28.1716 79.7658 28.2146 79.7187 28.269 79.6891L31.9254 77.6689C31.9895 77.6338 32.0646 77.6256 32.1346 77.646C32.2046 77.6664 32.2638 77.7138 32.2994 77.7779C32.3171 77.81 32.3283 77.8453 32.3324 77.8818C32.3365 77.9182 32.3335 77.9552 32.3235 77.9905C32.3134 78.0258 32.2966 78.0587 32.2739 78.0874C32.2513 78.1162 32.2232 78.1401 32.1914 78.1579L28.5349 80.1781C28.4943 80.2013 28.4486 80.2138 28.4019 80.2144Z" fill="#EBEBEB"/>
<path d="M4.40219 86.7135C4.32872 86.7135 4.25827 86.6841 4.20632 86.6317C4.15437 86.5793 4.12518 86.5082 4.12518 86.4341V80.8458C4.12518 80.7717 4.15437 80.7006 4.20632 80.6482C4.25827 80.5958 4.32872 80.5664 4.40219 80.5664C4.47565 80.5664 4.54611 80.5958 4.59806 80.6482C4.65001 80.7006 4.67919 80.7717 4.67919 80.8458V86.4341C4.67919 86.5082 4.65001 86.5793 4.59806 86.6317C4.54611 86.6841 4.47565 86.7135 4.40219 86.7135Z" fill="#EBEBEB"/>
<path d="M17.3744 86.7135C17.3009 86.7135 17.2304 86.6841 17.1785 86.6317C17.1265 86.5793 17.0974 86.5082 17.0974 86.4341V80.8458C17.0974 80.7717 17.1265 80.7006 17.1785 80.6482C17.2304 80.5958 17.3009 80.5664 17.3744 80.5664C17.4478 80.5664 17.5183 80.5958 17.5702 80.6482C17.6222 80.7006 17.6514 80.7717 17.6514 80.8458V86.4341C17.6514 86.5082 17.6222 86.5793 17.5702 86.6317C17.5183 86.6841 17.4478 86.7135 17.3744 86.7135Z" fill="#EBEBEB"/>
<path d="M14.549 80.8237C14.5005 80.824 14.4527 80.8115 14.4105 80.7874L9.61833 77.9765C9.55803 77.9378 9.51488 77.8771 9.49788 77.8071C9.48089 77.7371 9.49136 77.6632 9.52711 77.6008C9.56287 77.5384 9.62114 77.4924 9.68976 77.4723C9.75837 77.4522 9.83203 77.4597 9.89533 77.4931L14.6847 80.304C14.7163 80.3225 14.7438 80.347 14.7659 80.3763C14.788 80.4056 14.8041 80.4389 14.8134 80.4745C14.8227 80.5101 14.8249 80.5471 14.8199 80.5835C14.8149 80.62 14.8029 80.6551 14.7845 80.6868C14.7602 80.7281 14.7258 80.7624 14.6845 80.7864C14.6433 80.8103 14.5966 80.8232 14.549 80.8237Z" fill="#EBEBEB"/>
<path d="M27.0364 80.8237C26.9878 80.824 26.9401 80.8115 26.8979 80.7874L22.1084 77.9765C22.0481 77.9378 22.005 77.8771 21.988 77.8071C21.971 77.7371 21.9815 77.6632 22.0172 77.6008C22.053 77.5384 22.1113 77.4924 22.1799 77.4723C22.2485 77.4522 22.3221 77.4597 22.3854 77.4931L27.1749 80.304C27.2064 80.3225 27.234 80.347 27.256 80.3763C27.2781 80.4056 27.2942 80.4389 27.3035 80.4745C27.3128 80.5101 27.315 80.5471 27.31 80.5835C27.3051 80.62 27.293 80.6551 27.2746 80.6868C27.2501 80.7285 27.2152 80.763 27.1734 80.787C27.1317 80.8111 27.0844 80.8237 27.0364 80.8237Z" fill="#EBEBEB"/>
<path d="M97.9302 57.7944C97.8815 57.7938 97.8337 57.7803 97.7917 57.7552L91.5065 54.0949C91.4646 54.0705 91.4298 54.0355 91.4055 53.9934C91.3812 53.9512 91.3683 53.9034 91.368 53.8546V46.534C91.3678 46.4847 91.3805 46.4363 91.4048 46.3936C91.4291 46.351 91.4642 46.3155 91.5065 46.2909L97.7917 42.6306C97.8338 42.606 97.8816 42.5931 97.9302 42.5931C97.9789 42.5931 98.0266 42.606 98.0687 42.6306L104.354 46.2909C104.396 46.3155 104.431 46.351 104.456 46.3936C104.48 46.4363 104.493 46.4847 104.492 46.534V53.8546C104.492 53.9034 104.479 53.9512 104.455 53.9934C104.431 54.0355 104.396 54.0705 104.354 54.0949L98.0687 57.7552C98.0268 57.7803 97.979 57.7938 97.9302 57.7944ZM91.922 53.6926L97.9302 57.1908L103.938 53.6926V46.6933L97.9302 43.195L91.922 46.6933V53.6926Z" fill="#EBEBEB"/>
<path d="M97.9301 43.1641C97.8566 43.1641 97.7862 43.1347 97.7342 43.0823C97.6823 43.0299 97.6531 42.9588 97.6531 42.8847V38.5286C97.6531 38.4545 97.6823 38.3834 97.7342 38.331C97.7862 38.2786 97.8566 38.2492 97.9301 38.2492C98.0035 38.2492 98.074 38.2786 98.126 38.331C98.1779 38.3834 98.2071 38.4545 98.2071 38.5286V42.8847C98.2071 42.9588 98.1779 43.0299 98.126 43.0823C98.074 43.1347 98.0035 43.1641 97.9301 43.1641Z" fill="#EBEBEB"/>
<path d="M109.872 42.175C109.798 42.175 109.728 42.1455 109.676 42.0931C109.624 42.0407 109.595 41.9696 109.595 41.8955V37.5507C109.595 37.4765 109.624 37.4055 109.676 37.3531C109.728 37.3007 109.798 37.2712 109.872 37.2712C109.945 37.2712 110.016 37.3007 110.068 37.3531C110.12 37.4055 110.149 37.4765 110.149 37.5507V41.8955C110.149 41.9696 110.12 42.0407 110.068 42.0931C110.016 42.1455 109.945 42.175 109.872 42.175Z" fill="#EBEBEB"/>
<path d="M104.215 46.8133C104.166 46.8134 104.117 46.8 104.074 46.7744C104.031 46.7488 103.995 46.7121 103.972 46.668C103.954 46.6357 103.943 46.6003 103.939 46.5637C103.935 46.5271 103.938 46.4901 103.949 46.4548C103.959 46.4194 103.976 46.3865 103.999 46.3579C104.022 46.3293 104.05 46.3055 104.082 46.288L107.739 44.2678C107.771 44.2495 107.806 44.2376 107.842 44.233C107.879 44.2283 107.915 44.2309 107.951 44.2406C107.986 44.2504 108.019 44.267 108.048 44.2897C108.077 44.3123 108.102 44.3405 108.12 44.3726C108.138 44.4047 108.15 44.4401 108.154 44.4768C108.159 44.5135 108.156 44.5507 108.147 44.5864C108.137 44.6221 108.121 44.6555 108.098 44.6847C108.076 44.714 108.048 44.7384 108.016 44.7568L104.354 46.7769C104.312 46.8019 104.264 46.8145 104.215 46.8133Z" fill="#EBEBEB"/>
<path d="M115.448 46.8133C115.401 46.8134 115.355 46.8009 115.315 46.7769L111.658 44.7568C111.627 44.7384 111.599 44.714 111.576 44.6847C111.554 44.6555 111.537 44.6221 111.528 44.5864C111.518 44.5507 111.515 44.5135 111.52 44.4768C111.525 44.4401 111.536 44.4047 111.555 44.3726C111.573 44.3405 111.597 44.3123 111.626 44.2897C111.655 44.267 111.688 44.2504 111.724 44.2406C111.759 44.2309 111.796 44.2283 111.832 44.233C111.869 44.2376 111.904 44.2495 111.935 44.2678L115.592 46.288C115.624 46.3055 115.652 46.3293 115.675 46.3579C115.698 46.3865 115.715 46.4194 115.726 46.4548C115.736 46.4901 115.739 46.5271 115.735 46.5637C115.731 46.6003 115.72 46.6357 115.703 46.668C115.678 46.7138 115.641 46.7517 115.596 46.7774C115.551 46.803 115.5 46.8155 115.448 46.8133Z" fill="#EBEBEB"/>
<path d="M103.016 53.3124C102.942 53.3124 102.872 53.283 102.82 53.2306C102.768 53.1782 102.739 53.1071 102.739 53.033V47.4448C102.739 47.3707 102.768 47.2996 102.82 47.2472C102.872 47.1948 102.942 47.1653 103.016 47.1653C103.089 47.1653 103.16 47.1948 103.212 47.2472C103.264 47.2996 103.293 47.3707 103.293 47.4448V53.033C103.293 53.1071 103.264 53.1782 103.212 53.2306C103.16 53.283 103.089 53.3124 103.016 53.3124Z" fill="#EBEBEB"/>
<path d="M93.0438 47.4225C92.9957 47.4225 92.9485 47.4099 92.9067 47.3859C92.865 47.3619 92.8301 47.3273 92.8056 47.2856C92.7872 47.2539 92.7751 47.2188 92.7702 47.1824C92.7652 47.1459 92.7674 47.1089 92.7767 47.0733C92.7859 47.0377 92.8021 47.0044 92.8241 46.9751C92.8462 46.9459 92.8738 46.9213 92.9053 46.9028L97.7058 44.0919C97.7373 44.0717 97.7726 44.0581 97.8095 44.052C97.8463 44.0459 97.884 44.0473 97.9203 44.0563C97.9566 44.0653 97.9907 44.0815 98.0206 44.1042C98.0505 44.1268 98.0755 44.1552 98.0942 44.1879C98.1129 44.2205 98.1249 44.2566 98.1294 44.294C98.1339 44.3314 98.1309 44.3694 98.1205 44.4055C98.11 44.4417 98.0925 44.4754 98.0688 44.5046C98.0452 44.5338 98.0159 44.5578 97.9828 44.5753L93.1934 47.3862C93.1479 47.4123 93.0961 47.4249 93.0438 47.4225Z" fill="#EBEBEB"/>
<path d="M64.3931 26.9582C64.3443 26.9577 64.2966 26.9442 64.2546 26.9191L57.9694 23.2588C57.9275 23.2344 57.8927 23.1994 57.8684 23.1572C57.8441 23.1151 57.8312 23.0672 57.8309 23.0185V15.6951C57.8307 15.6458 57.8434 15.5974 57.8677 15.5547C57.892 15.512 57.9271 15.4766 57.9694 15.452L64.2546 11.7916C64.2967 11.7671 64.3445 11.7542 64.3931 11.7542C64.4417 11.7542 64.4895 11.7671 64.5316 11.7916L70.8169 15.452C70.8591 15.4766 70.8942 15.512 70.9185 15.5547C70.9429 15.5974 70.9556 15.6458 70.9554 15.6951V23.0157C70.9551 23.0645 70.9421 23.1123 70.9178 23.1544C70.8935 23.1966 70.8587 23.2316 70.8169 23.256L64.5316 26.9163C64.4899 26.9424 64.4421 26.9569 64.3931 26.9582ZM58.3849 22.8564L64.3931 26.3547L70.4014 22.8564V15.8711L64.3931 12.3561L58.3849 15.8543V22.8564Z" fill="#EBEBEB"/>
<path d="M70.6784 15.9743C70.6167 15.9747 70.5565 15.9541 70.5077 15.916C70.4588 15.8779 70.4239 15.8244 70.4086 15.7641C70.3934 15.7037 70.3985 15.6399 70.4233 15.5828C70.4481 15.5257 70.4911 15.4786 70.5455 15.449L74.2019 13.4289C74.2662 13.3918 74.3425 13.3821 74.4139 13.4017C74.4853 13.4214 74.5461 13.4688 74.5828 13.5337C74.6195 13.5985 74.6292 13.6754 74.6098 13.7475C74.5903 13.8195 74.5432 13.8808 74.4789 13.9179L70.8225 15.938C70.779 15.964 70.7289 15.9766 70.6784 15.9743Z" fill="#EBEBEB"/>
<path d="M59.5068 22.4875C59.4333 22.4875 59.3629 22.4581 59.3109 22.4057C59.259 22.3533 59.2298 22.2822 59.2298 22.2081V16.6198C59.2298 16.5457 59.259 16.4746 59.3109 16.4222C59.3629 16.3698 59.4333 16.3404 59.5068 16.3404C59.5803 16.3404 59.6507 16.3698 59.7027 16.4222C59.7546 16.4746 59.7838 16.5457 59.7838 16.6198V22.2081C59.7838 22.2822 59.7546 22.3533 59.7027 22.4057C59.6507 22.4581 59.5803 22.4875 59.5068 22.4875Z" fill="#EBEBEB"/>
<path d="M69.4513 16.5836C69.4018 16.5845 69.353 16.5719 69.31 16.5473L64.5261 13.7364C64.493 13.7189 64.4637 13.6949 64.4401 13.6657C64.4164 13.6366 64.3989 13.6029 64.3885 13.5667C64.3781 13.5305 64.375 13.4925 64.3795 13.4551C64.384 13.4177 64.396 13.3816 64.4147 13.349C64.4334 13.3164 64.4584 13.2879 64.4883 13.2653C64.5182 13.2427 64.5523 13.2264 64.5886 13.2174C64.6249 13.2085 64.6626 13.207 64.6995 13.2131C64.7363 13.2192 64.7716 13.2328 64.8031 13.253L69.5925 16.0611C69.624 16.0796 69.6516 16.1042 69.6737 16.1335C69.6958 16.1627 69.7119 16.1961 69.7212 16.2316C69.7304 16.2672 69.7326 16.3043 69.7277 16.3407C69.7227 16.3771 69.7107 16.4122 69.6922 16.4439C69.6678 16.4866 69.6327 16.5219 69.5904 16.5465C69.5481 16.571 69.5001 16.5838 69.4513 16.5836Z" fill="#EBEBEB"/>
<path d="M64.6647 25.561C64.6034 25.5615 64.5436 25.5414 64.4948 25.5039C64.446 25.4664 64.411 25.4136 64.3951 25.3538C64.3793 25.294 64.3836 25.2307 64.4073 25.1736C64.431 25.1165 64.4728 25.069 64.5262 25.0385L69.3128 22.2276C69.3444 22.2092 69.3794 22.1972 69.4156 22.1924C69.4518 22.1876 69.4886 22.1901 69.5239 22.1997C69.5592 22.2093 69.5922 22.2258 69.6211 22.2484C69.65 22.2709 69.6742 22.299 69.6923 22.331C69.7287 22.3948 69.7386 22.4706 69.7199 22.5417C69.7012 22.6129 69.6555 22.6737 69.5926 22.711L64.8032 25.5331C64.7602 25.5543 64.7125 25.564 64.6647 25.561Z" fill="#EBEBEB"/>
<path d="M86.3486 82.6259C86.2133 81.6982 86.0283 80.7785 85.7946 79.8709C86.4993 79.7077 87.1909 79.492 87.8639 79.2254C88.0108 79.1624 88.1269 79.0431 88.1866 78.8938C88.2464 78.7445 88.2449 78.5773 88.1824 78.4291C88.12 78.2809 88.0017 78.1638 87.8537 78.1035C87.7056 78.0432 87.5399 78.0448 87.393 78.1078C86.7738 78.353 86.1366 78.5492 85.4872 78.6945C85.2517 77.8563 84.9636 76.9566 84.6035 76.0094C82.8279 71.3404 80.2185 68.0768 77.0524 66.5736C74.1715 65.2044 70.8724 65.5565 67.612 66.0986C67.4652 64.9166 67.3655 63.7291 67.263 62.5779C67.0082 59.6022 66.7755 56.9198 65.9195 55.0338C65.6195 54.3233 65.155 53.6957 64.565 53.2036C64.0168 52.7636 63.4061 52.4095 62.7534 52.153C62.7156 52.1357 62.6767 52.1208 62.637 52.1083H62.6121C60.4348 51.2896 57.9169 51.4685 55.4266 51.7311C55.446 51.6752 55.4681 51.6221 55.4875 51.5663C57.4598 46.4083 59.4958 41.0715 55.1967 36.8216C53.3269 34.9719 50.9059 34.0275 47.7951 33.9297C45.787 33.911 43.782 34.0917 41.809 34.4689C43.1941 29.1237 44.5126 23.6137 39.6456 18.6234C36.3742 15.2704 30.1831 14.9184 21.2442 17.584C20.6625 17.7572 20.0835 17.9388 19.5184 18.126C19.5461 17.6873 19.5766 17.2515 19.6071 16.8184C20.0143 10.9702 20.3689 5.92123 17.391 3.97931C17.3254 3.92993 17.2503 3.8947 17.1706 3.87578C17.0908 3.85685 17.0081 3.85465 16.9274 3.86931C16.8468 3.88397 16.77 3.91517 16.7019 3.96098C16.6337 4.00679 16.5755 4.06624 16.5311 4.13564C16.4866 4.20504 16.4567 4.28291 16.4433 4.36443C16.4299 4.44595 16.4332 4.52938 16.4531 4.60955C16.4729 4.68972 16.5089 4.76493 16.5587 4.8305C16.6086 4.89608 16.6713 4.95064 16.7429 4.99078C19.114 6.54432 18.7678 11.4927 18.4049 16.7262C18.3633 17.3213 18.3218 17.9276 18.283 18.534C15.094 19.6554 11.9772 20.9759 8.95071 22.4877C8.88087 22.5244 8.81887 22.5746 8.76827 22.6354C8.71766 22.6963 8.67943 22.7666 8.65577 22.8424C8.6321 22.9181 8.62346 22.9979 8.63034 23.077C8.63722 23.1561 8.65949 23.2331 8.69587 23.3036C8.73224 23.374 8.78202 23.4365 8.84236 23.4876C8.90269 23.5386 8.9724 23.5772 9.04751 23.6011C9.12262 23.6249 9.20166 23.6336 9.28011 23.6267C9.35855 23.6198 9.43488 23.5973 9.50472 23.5606C12.3297 22.1521 15.235 20.914 18.2054 19.8528C17.8703 26.12 18.1639 32.4851 23.1112 35.3826H23.1334C28.017 38.2159 33.7787 37.1457 39.352 36.1119L40.1609 35.961C38.9947 40.6132 38.2218 45.3521 41.9088 49.6858C45.2328 53.5976 49.579 53.511 53.6011 53.1142C52.0582 57.3669 51.0167 61.6391 53.9806 65.2687C54.6844 66.15 55.5764 66.8597 56.59 67.3447C59.4764 68.7167 63.0248 68.0992 66.4874 67.4984L66.5788 67.4817C67.1771 71.4745 68.396 75.2745 71.6979 77.4735C74.2882 79.2029 77.2931 80.1952 80.3958 80.3459H80.4124H80.5288C81.2628 80.38 81.9982 80.3697 82.731 80.3151C83.4069 80.2648 84.0357 80.1838 84.598 80.086C84.8222 80.9647 85.0016 81.8544 85.1354 82.7516C85.1483 82.8518 85.186 82.947 85.2451 83.0286C85.3041 83.1102 85.3826 83.1754 85.4733 83.2182C85.5766 83.2684 85.6922 83.2869 85.8057 83.2713C85.8834 83.265 85.9591 83.2432 86.0285 83.2074C86.0978 83.1715 86.1595 83.1221 86.2099 83.0622C86.2603 83.0022 86.2985 82.9328 86.3223 82.858C86.3462 82.7831 86.3551 82.7042 86.3486 82.6259ZM19.4353 19.4309C23.848 17.9388 28.9699 16.7066 33.1111 17.0978L20.1888 29.7524C19.1971 26.7962 19.2248 23.0856 19.4353 19.4309ZM23.3799 34.128C22.2028 33.3407 21.2659 32.2388 20.6736 30.9455L34.5986 17.3213C36.2606 17.6706 37.7038 18.3523 38.7924 19.47C38.9864 19.6684 39.1692 19.8696 39.3465 20.0679L23.3799 34.128ZM29.2164 35.9554C27.58 35.8559 25.9768 35.4464 24.4907 34.7483L40.0888 21.018C40.8413 22.0867 41.3726 23.2973 41.6511 24.5777C41.5366 24.5961 41.4299 24.6475 41.3437 24.7258L29.3798 35.7263C29.3078 35.7882 29.2517 35.8668 29.2164 35.9554ZM39.1609 34.9467C36.377 35.4636 33.546 35.9889 30.8369 36.0085L41.8423 25.8937C42.0888 28.6487 41.3409 31.5183 40.5708 34.4829L40.5154 34.698L39.1609 34.9467ZM40.5182 43.8069C40.1664 41.2307 40.762 38.5344 41.4766 35.7486C44.942 35.1451 48.2217 34.7679 50.989 35.6536L40.5182 43.8069ZM42.424 48.4005C41.6739 47.4237 41.118 46.3098 40.7869 45.1202C40.8107 45.1079 40.833 45.0929 40.8534 45.0755L52.2106 36.232L52.277 36.1789C53.0491 36.5683 53.7557 37.0774 54.3712 37.6878C54.6389 37.9491 54.8879 38.2292 55.1163 38.526L42.424 48.4005ZM45.9142 50.6358C45.8344 50.6927 45.7698 50.7687 45.7263 50.8569C45.6828 50.9452 45.6617 51.043 45.6649 51.1415C44.7388 50.6903 43.9023 50.0719 43.1968 49.317L55.7535 39.5375C56.3026 40.6114 56.5724 41.8084 56.5374 43.0162L45.9142 50.6358ZM46.6871 51.5579L56.3989 44.5949C56.0776 46.6737 55.2355 48.8755 54.3767 51.1332C54.2798 51.379 54.1884 51.6277 54.0997 51.8736C51.5624 52.1418 49.0028 52.3402 46.6871 51.5607V51.5579ZM53.3546 60.7673C53.0998 58.3672 53.9308 55.7379 54.9474 53.0052C57.2382 52.7593 59.4376 52.5302 61.3406 52.9857L53.3546 60.7673ZM54.9252 64.531C54.3456 63.8312 53.9079 63.0233 53.6371 62.1532C53.6658 62.1333 53.6927 62.1108 53.7175 62.0862L62.6149 53.4244C63.0488 53.6234 63.4571 53.8748 63.8309 54.1732C64.1744 54.462 64.4569 54.8173 64.6619 55.2182L55.6898 65.3218C55.4143 65.0762 55.1587 64.809 54.9252 64.5227V64.531ZM65.6508 59.0573L60.831 66.9955C59.3074 66.9955 57.8975 66.7524 56.6759 66.0371L65.1799 56.4504C65.421 57.282 65.5979 58.1311 65.709 58.9903C65.687 59.007 65.6675 59.0268 65.6508 59.049V59.0573ZM66.3073 66.3389C64.9223 66.5792 63.5678 66.8166 62.2714 66.9284L65.9223 60.9154C65.9805 61.4994 66.0331 62.0974 66.083 62.6981C66.1882 63.8828 66.2907 65.1011 66.4403 66.3137L66.3073 66.3389ZM67.781 67.3084C69.2271 67.0421 70.6911 66.887 72.1605 66.8446L70.8918 75.213C69.0525 73.1873 68.2353 70.3149 67.7893 67.3L67.781 67.3084ZM72.3821 76.4955C72.2242 76.3922 72.0718 76.2804 71.925 76.1658C71.9547 76.1072 71.9743 76.0439 71.9832 75.9786L73.3682 66.8809C74.0543 66.9312 74.7336 67.051 75.3959 67.2386L74.8225 77.8395C73.972 77.4603 73.1555 77.0078 72.3821 76.4872V76.4955ZM75.9388 78.2894C75.9758 78.2144 75.9974 78.1327 76.0025 78.0491L76.5565 67.6856C77.3478 68.0651 78.0856 68.549 78.7504 69.1246C78.7435 69.1728 78.7435 69.2217 78.7504 69.2699L79.8446 79.136C78.5123 79.0169 77.2001 78.7297 75.9388 78.281V78.2894ZM82.6257 79.1556C82.0966 79.1919 81.5731 79.2059 81.0578 79.1975L80.0883 70.4602C82.2739 73.0001 83.5758 76.3754 84.3127 78.9516C83.7974 79.0298 83.2296 79.1025 82.6257 79.1472V79.1556Z" fill="#EBEBEB"/>
<path d="M69.6479 67.6743C69.5648 67.6743 69.4817 67.6743 69.3959 67.6743C69.4795 67.6631 69.5643 67.6631 69.6479 67.6743Z" fill="#EBEBEB"/>
<path d="M28.4571 18.8464C30.3911 12.3396 26.7297 5.48329 20.279 3.53239C13.8282 1.58149 7.03102 5.27479 5.09694 11.7816C3.16285 18.2884 6.82431 25.1447 13.275 27.0956C19.7258 29.0466 26.523 25.3533 28.4571 18.8464Z" fill="#EBEBEB"/>
<path d="M21.7403 26.4442C27.6873 23.9901 30.536 17.1377 28.103 11.1391C25.67 5.1404 18.8768 2.26697 12.9298 4.72109C6.98283 7.17521 4.13418 14.0276 6.56714 20.0262C9.00011 26.0249 15.7934 28.8983 21.7403 26.4442Z" fill="#DBDBDB"/>
<path d="M19.0637 26.4405C25.0076 25.478 29.0525 19.8374 28.0984 13.8418C27.1442 7.84623 21.5522 3.76611 15.6083 4.72859C9.66442 5.69107 5.61947 11.3317 6.57365 17.3272C7.52783 23.3228 13.1198 27.4029 19.0637 26.4405Z" fill="#EBEBEB"/>
<path opacity="0.5" d="M27.9864 13.2668C23.0252 16.2873 14.8813 21.2637 10.3079 23.9907C9.01838 22.8942 7.99819 21.5113 7.32733 19.9504L22.4075 5.854C23.818 6.60322 25.0485 7.65525 26.0124 8.93599C26.9763 10.2167 27.6501 11.6951 27.9864 13.2668Z" fill="#EBEBEB"/>
<path opacity="0.5" d="M28.2274 15.9717C28.1875 17.1943 27.944 18.4014 27.5072 19.5426L13.9118 26.0278C13.3189 25.83 12.7443 25.5804 12.1944 25.2817C16.3024 22.89 23.8064 18.5339 28.2274 15.9717Z" fill="#EBEBEB"/>
<path d="M17.4409 5.39032H17.2303V7.05562H17.4409V5.39032Z" fill="#C7C7C7"/>
<path d="M12.3705 6.70217L12.1882 6.80835L13.0136 8.25055L13.196 8.14437L12.3705 6.70217Z" fill="#C7C7C7"/>
<path d="M8.63303 10.3923L8.52777 10.5762L9.95753 11.4088L10.0628 11.2249L8.63303 10.3923Z" fill="#C7C7C7"/>
<path d="M8.87586 15.4798H7.22491V15.6922H8.87586V15.4798Z" fill="#C7C7C7"/>
<path d="M9.95656 19.7629L8.52679 20.5956L8.63206 20.7795L10.0618 19.9468L9.95656 19.7629Z" fill="#C7C7C7"/>
<path d="M13.0123 22.9198L12.1879 24.3625L12.3703 24.4686L13.1947 23.0258L13.0123 22.9198Z" fill="#C7C7C7"/>
<path d="M17.4409 24.1165H17.2303V25.7818H17.4409V24.1165Z" fill="#C7C7C7"/>
<path d="M21.6531 22.922L21.4708 23.0281L22.2962 24.4703L22.4786 24.3642L21.6531 22.922Z" fill="#C7C7C7"/>
<path d="M24.7104 19.7556L24.6052 19.9395L26.0349 20.7722L26.1402 20.5883L24.7104 19.7556Z" fill="#C7C7C7"/>
<path d="M27.4436 15.4798H25.7926V15.6922H27.4436V15.4798Z" fill="#C7C7C7"/>
<path d="M26.036 10.3982L24.6063 11.2309L24.7115 11.4148L26.1413 10.5821L26.036 10.3982Z" fill="#C7C7C7"/>
<path d="M22.2955 6.70086L21.4708 8.14349L21.6531 8.24957L22.4779 6.80694L22.2955 6.70086Z" fill="#C7C7C7"/>
<path d="M17.4936 6.14458L17.8509 16.3292L16.8177 16.3152L17.2138 6.14178L17.4936 6.14458Z" fill="#C7C7C7"/>
<path d="M23.7814 12.0347L16.9893 16.4075L16.4962 15.491L23.6485 11.786L23.7814 12.0347Z" fill="#A6A6A6"/>
<path d="M17.6874 15.586C17.6863 15.6566 17.6645 15.7253 17.6247 15.7834C17.585 15.8415 17.5291 15.8865 17.464 15.9126C17.399 15.9388 17.3277 15.9449 17.2593 15.9302C17.1908 15.9156 17.1281 15.8808 17.0792 15.8303C17.0303 15.7798 16.9973 15.7158 16.9844 15.6464C16.9714 15.577 16.9792 15.5053 17.0066 15.4403C17.034 15.3753 17.0799 15.32 17.1384 15.2813C17.197 15.2426 17.2656 15.2222 17.3356 15.2227C17.3825 15.2227 17.4289 15.2322 17.4721 15.2505C17.5154 15.2689 17.5545 15.2958 17.5873 15.3296C17.6201 15.3635 17.6458 15.4036 17.663 15.4476C17.6802 15.4916 17.6885 15.5387 17.6874 15.586Z" fill="#C7C7C7"/>
<path d="M1.96167 102.612L16.2025 102.542L30.4433 102.52L58.925 102.473L87.4066 102.52L101.647 102.542L115.888 102.612L101.647 102.679L87.4066 102.705L58.925 102.752L30.4433 102.705L16.2025 102.679L1.96167 102.612Z" fill="#263238"/>
<path d="M58.925 114.406C84.9738 114.406 106.091 112.414 106.091 109.955C106.091 107.497 84.9738 105.504 58.925 105.504C32.8761 105.504 11.7593 107.497 11.7593 109.955C11.7593 112.414 32.8761 114.406 58.925 114.406Z" fill="#EBEBEB"/>
<path opacity="0.5" d="M85.3985 30.842C85.3985 30.842 88.9995 27.5393 87.7696 25.1168C86.0384 21.7387 78.8113 24.3456 77.2905 18.5142C76.1437 14.1051 79.8002 10.5426 77.0357 7.11976C75.1798 4.80901 66.9804 5.44328 66.9804 5.44328C72.2629 1.28281 79.9387 -0.424409 84.5314 3.4315C88.6588 6.88505 86.7946 12.1464 88.5813 14.7673C91.1159 18.4835 96.9302 18.6065 96.8277 23.5018C96.7086 29.1739 89.3929 30.5458 88.8887 31.2639L85.3985 30.842Z" fill="#FFC727"/>
<path d="M97.293 24.7621L96.2487 24.9577L96.0132 26.0698L95.7805 24.9577L94.7335 24.7621L95.775 24.5051L96.0132 23.4517L96.2514 24.5051L97.293 24.7621Z" fill="#EBEBEB"/>
<path d="M84.6034 17.6061L83.5563 17.8017L83.3236 18.9138L83.0909 17.8017L82.0438 17.6061L83.0854 17.3491L83.3236 16.2985L83.5618 17.3491L84.6034 17.6061Z" fill="#EBEBEB"/>
<path d="M87.0106 14.2504L86.4261 14.3593L86.2932 14.9824L86.163 14.3593L85.5785 14.2504L86.1602 14.1051L86.2932 13.5183L86.4289 14.1051L87.0106 14.2504Z" fill="#EBEBEB"/>
<path d="M78.7364 11.4116L78.1519 11.5205L78.0217 12.1408L77.8887 11.5205L77.3043 11.4116L77.886 11.2663L78.0217 10.6795L78.1547 11.2663L78.7364 11.4116Z" fill="#EBEBEB"/>
<path d="M90.9441 28.6822L90.3596 28.7912L90.2266 29.4143L90.0964 28.7912L89.512 28.6822L90.0937 28.5397L90.2266 27.9501L90.3624 28.5397L90.9441 28.6822Z" fill="#EBEBEB"/>
<path d="M83.1464 2.06814L82.5619 2.17711L82.429 2.8002L82.2988 2.17711L81.7143 2.06814L82.296 1.92564L82.429 1.33887L82.5619 1.92564L83.1464 2.06814Z" fill="#EBEBEB"/>
<path d="M93.6504 22.2474C93.609 22.2527 93.5709 22.2731 93.5433 22.3047C93.5157 22.3364 93.5004 22.3771 93.5004 22.4192C93.5004 22.4614 93.5157 22.5021 93.5433 22.5337C93.5709 22.5653 93.609 22.5857 93.6504 22.5911C93.6918 22.5857 93.7299 22.5653 93.7575 22.5337C93.7851 22.5021 93.8004 22.4614 93.8004 22.4192C93.8004 22.3771 93.7851 22.3364 93.7575 22.3047C93.7299 22.2731 93.6918 22.2527 93.6504 22.2474Z" fill="#EBEBEB"/>
<path d="M73.9526 1.89771C73.9112 1.90305 73.8731 1.92344 73.8455 1.95507C73.8179 1.9867 73.8027 2.0274 73.8027 2.06954C73.8027 2.11169 73.8179 2.15238 73.8455 2.18401C73.8731 2.21565 73.9112 2.23604 73.9526 2.24138C73.9941 2.23604 74.0322 2.21565 74.0598 2.18401C74.0874 2.15238 74.1026 2.11169 74.1026 2.06954C74.1026 2.0274 74.0874 1.9867 74.0598 1.95507C74.0322 1.92344 73.9941 1.90305 73.9526 1.89771Z" fill="#EBEBEB"/>
<path d="M79.2102 7.18408C79.1654 7.18408 79.1224 7.20204 79.0907 7.234C79.059 7.26597 79.0412 7.30932 79.0412 7.35452C79.0412 7.39973 79.059 7.44308 79.0907 7.47504C79.1224 7.50701 79.1654 7.52496 79.2102 7.52496C79.255 7.52496 79.298 7.50701 79.3297 7.47504C79.3613 7.44308 79.3791 7.39973 79.3791 7.35452C79.3791 7.30932 79.3613 7.26597 79.3297 7.234C79.298 7.20204 79.255 7.18408 79.2102 7.18408Z" fill="#EBEBEB"/>
<path d="M70.7671 4.04639C70.7355 4.04639 70.7052 4.05904 70.6828 4.08158C70.6605 4.10411 70.6479 4.13467 70.6479 4.16653C70.6479 4.1984 70.6605 4.22896 70.6828 4.25149C70.7052 4.27402 70.7355 4.28668 70.7671 4.28668C70.7986 4.28668 70.8289 4.27402 70.8513 4.25149C70.8736 4.22896 70.8862 4.1984 70.8862 4.16653C70.8862 4.13467 70.8736 4.10411 70.8513 4.08158C70.8289 4.05904 70.7986 4.04639 70.7671 4.04639Z" fill="#EBEBEB"/>
<path d="M87.0411 21.2805C87.0122 21.2849 86.986 21.2996 86.967 21.3219C86.948 21.3442 86.9375 21.3727 86.9375 21.4021C86.9375 21.4315 86.948 21.4599 86.967 21.4822C86.986 21.5045 87.0122 21.5192 87.0411 21.5236C87.0699 21.5192 87.0962 21.5045 87.1152 21.4822C87.1342 21.4599 87.1446 21.4315 87.1446 21.4021C87.1446 21.3727 87.1342 21.3442 87.1152 21.3219C87.0962 21.2996 87.0699 21.2849 87.0411 21.2805Z" fill="#EBEBEB"/>
<path d="M77.7946 17.486C77.7631 17.486 77.7328 17.4986 77.7104 17.5212C77.6881 17.5437 77.6755 17.5742 77.6755 17.6061C77.6755 17.638 77.6881 17.6685 77.7104 17.6911C77.7328 17.7136 77.7631 17.7263 77.7946 17.7263C77.8262 17.7263 77.8565 17.7136 77.8789 17.6911C77.9012 17.6685 77.9138 17.638 77.9138 17.6061C77.9138 17.5742 77.9012 17.5437 77.8789 17.5212C77.8565 17.4986 77.8262 17.486 77.7946 17.486Z" fill="#EBEBEB"/>
<path d="M94.2848 19.6572C94.2036 19.6647 94.1282 19.7026 94.0733 19.7633C94.0184 19.824 93.988 19.9033 93.988 19.9855C93.988 20.0677 94.0184 20.1469 94.0733 20.2076C94.1282 20.2684 94.2036 20.3062 94.2848 20.3138C94.3659 20.3062 94.4413 20.2684 94.4962 20.2076C94.5512 20.1469 94.5816 20.0677 94.5816 19.9855C94.5816 19.9033 94.5512 19.824 94.4962 19.7633C94.4413 19.7026 94.3659 19.6647 94.2848 19.6572Z" fill="#EBEBEB"/>
<path d="M80.9525 19.3304C80.8714 19.3379 80.7959 19.3758 80.741 19.4365C80.6861 19.4973 80.6557 19.5765 80.6557 19.6587C80.6557 19.7409 80.6861 19.8201 80.741 19.8809C80.7959 19.9416 80.8714 19.9794 80.9525 19.987C81.0336 19.9794 81.1091 19.9416 81.164 19.8809C81.2189 19.8201 81.2493 19.7409 81.2493 19.6587C81.2493 19.5765 81.2189 19.4973 81.164 19.4365C81.1091 19.3758 81.0336 19.3379 80.9525 19.3304Z" fill="#EBEBEB"/>
<path d="M42.676 65.2938C44.0829 66.1887 45.582 66.9269 47.1468 67.4956C44.6261 64.0476 44.6538 55.9698 44.989 57.1042C46.6039 62.5304 50.7313 68.3562 52.2188 68.5769C52.2188 68.5769 52.2354 68.5769 52.2437 68.5769C56.2243 68.8368 59.7782 67.7024 62.7228 66.0622C62.725 66.0568 62.725 66.0508 62.7228 66.0454C59.4791 62.1644 59.2686 53.958 59.4957 54.447C61.9638 59.6804 66.7338 62.5695 67.5289 62.522C70.3986 59.8341 71.8695 57.2132 71.4346 56.9868C68.2685 55.2712 65.4402 50.5827 62.8475 45.6035C60.2935 40.697 58.5899 33.2758 55.0913 28.9561C51.903 25.0024 45.8421 24.5301 42.5181 26.799C33.8257 32.7505 40.7092 64.0588 42.676 65.2938Z" fill="#263238"/>
<path d="M43.1357 26.4274C42.3962 26.8069 41.7418 27.3357 41.2133 27.981C40.6911 28.5961 40.2274 29.2593 39.8283 29.962C39.0861 31.3514 38.5051 32.8224 38.097 34.346C37.2577 37.3525 37.3463 43.1643 37.4045 46.2379C37.5181 49.3149 37.9253 52.3737 38.6205 55.3719C38.7812 56.1235 38.9945 56.864 39.1746 57.6072L39.8117 59.8285L40.5402 62.0219L41.3435 64.193L40.6898 61.9828L40.0887 59.7475L39.5347 57.5122C39.3768 56.7634 39.1912 56.0229 39.0554 55.2769C38.4326 52.2904 38.0702 49.2546 37.9724 46.2043C37.8616 43.1643 37.7895 37.4028 38.5264 34.4159C38.8843 32.9096 39.4083 31.4485 40.0887 30.0598C40.4431 29.3534 40.8633 28.6826 41.3435 28.0564C41.5936 27.7401 41.8658 27.4423 42.1579 27.1651C42.4484 26.8747 42.7775 26.6264 43.1357 26.4274Z" fill="#263238"/>
<path d="M71.7753 56.1347C70.7985 55.1605 69.8739 54.1345 69.0053 53.0611C68.1271 52.0077 67.2961 50.9264 66.5261 49.8087C65.756 48.6911 65.0219 47.5567 64.371 46.3831C63.72 45.2096 63.1134 44.0025 62.4818 42.8122C61.1882 40.44 59.5788 35.363 58.13 33.0579C57.3987 31.9095 56.6425 30.7723 55.8032 29.6826C55.3763 29.1357 54.9195 28.6133 54.4348 28.1178C53.9547 27.5894 53.372 27.1662 52.7229 26.8745C53.3343 27.2118 53.8759 27.6642 54.3184 28.2073C54.766 28.7214 55.1831 29.2616 55.5677 29.8251C56.3517 30.9427 57.0608 32.0855 57.7395 33.2507C59.1023 35.5838 60.7117 40.6495 61.961 43.0302C62.612 44.2149 63.2297 45.408 63.9 46.5899C64.5786 47.7786 65.3298 48.9237 66.1493 50.0183C67.7992 52.2568 69.6857 54.3077 71.7753 56.1347Z" fill="#263238"/>
<path d="M49.0664 55.5759C54.4486 60.7506 64.4374 68.4959 68.5814 69.7002C73.188 71.0386 82.3513 59.7838 88.3734 52.9019C89.5701 51.5327 79.6173 41.4934 78.4012 43.019C75.2683 47.009 68.9581 56.0173 67.8224 56.0648C66.8917 56.1123 57.9971 52.8795 52.9971 50.9963C45.0388 48.001 45.2798 51.9323 49.0664 55.5759Z" fill="#D3766A"/>
<path d="M75.9997 45.5253L85.9304 57.4702C85.9304 57.4702 74.6202 70.2338 70.0607 70.2869C65.5012 70.34 53.0637 60.1302 49.0804 55.8775C45.0971 51.6249 45.5929 48.4954 51.6344 50.4374C57.6758 52.3793 67.0331 55.5646 67.8724 55.3662C68.7117 55.1678 75.9997 45.5253 75.9997 45.5253Z" fill="#EBEBEB"/>
<path d="M82.4705 60.1582C79.116 54.813 74.7864 49.7109 74.0939 48.7665C74.0606 48.7218 73.9942 48.7665 74.0302 48.8224C74.7559 49.7137 79.0772 56.0871 82.3985 60.2224C82.4483 60.2699 82.5148 60.2085 82.4705 60.1582Z" fill="#263238"/>
<path d="M74.0411 68.6048C72.5426 69.6107 71.1464 70.2813 70.0606 70.2813C65.5011 70.3372 53.0608 60.1246 49.0802 55.8747C47.3767 54.0529 46.493 52.4407 46.5124 51.337C53.1079 55.5003 68.4789 65.1289 74.0411 68.6048Z" fill="#C7C7C7"/>
<path d="M85.0272 56.752L76.1631 45.9666C76.2905 45.6565 76.9941 44.9216 77.6146 43.9101C77.6146 43.9101 78.9858 40.3085 78.9996 36.7963C78.9996 33.8485 78.6894 29.4672 80.26 29.4142C82.5536 29.3303 83.6173 34.818 84.0383 38.0061C85.4234 36.9555 86.7142 36.1816 87.6394 36.0083C90.6865 35.4327 94.9496 48.7971 92.9025 51.2028C90.9053 53.522 86.7364 56.5452 85.0272 56.752Z" fill="#D3766A"/>
<g opacity="0.7">
<path d="M94.0356 58.0207C93.8216 59.8653 93.1004 61.6128 91.9535 63.0658C90.8067 64.5187 89.2799 65.6192 87.5456 66.2429C85.8114 66.8666 83.9387 66.9887 82.1393 66.5954C80.3399 66.202 78.6853 65.309 77.3626 64.0171C76.0399 62.7251 75.1017 61.0858 74.654 59.2844C74.2063 57.4829 74.2669 55.591 74.8291 53.8225C75.3912 52.054 76.4325 50.4792 77.8352 49.2762C79.2379 48.0732 80.9462 47.2898 82.7671 47.0146L84.4596 32.337L83.6673 32.2448L83.8474 30.6745L90.5675 31.4652L90.3875 33.0355L89.5925 32.9433L87.8972 47.6349C89.9085 48.4466 91.5993 49.9032 92.7086 51.7801C93.8179 53.657 94.2843 55.85 94.0356 58.0207Z" fill="#EBEBEB"/>
<path d="M94.0355 58.0206C93.8213 59.8651 93.1029 61.6132 91.9607 63.0696L91.7502 63.349C91.6754 63.4385 91.5951 63.5195 91.5148 63.6033C91.3569 63.771 91.2045 63.9442 91.0411 64.1035C90.7066 64.4196 90.3522 64.7136 89.9801 64.9836C89.6076 65.2532 89.2191 65.4996 88.8167 65.7213C88.6117 65.8247 88.4012 65.9169 88.1935 66.0147C88.0882 66.0622 87.9857 66.1152 87.8805 66.1572L87.5536 66.2717C86.6898 66.5859 85.7859 66.7741 84.8694 66.8305L84.1824 66.8557C83.9525 66.8557 83.7254 66.8333 83.4955 66.8222C83.0368 66.7901 82.5807 66.7285 82.1298 66.6378C80.3221 66.2423 78.659 65.3474 77.3266 64.0532L77.0745 63.8129L76.8474 63.553C76.6978 63.377 76.5371 63.2093 76.3958 63.0249C76.1154 62.6624 75.8591 62.2816 75.6285 61.8849C75.3962 61.4843 75.1899 61.069 75.0108 60.6415C74.9277 60.4236 74.8557 60.2029 74.7781 59.9849C74.7421 59.8759 74.7006 59.767 74.6673 59.6552L74.587 59.3171C74.128 57.4994 74.1821 55.5885 74.7431 53.8002C75.304 52.0118 76.3495 50.4173 77.7615 49.1967C79.1815 47.9801 80.9069 47.1824 82.7476 46.8916L82.6423 47.0006C82.9193 44.5529 83.1963 42.1052 83.4733 39.6604L84.3431 32.3258L84.44 32.4487L83.6478 32.3537H83.5398V32.2447L83.7254 30.6716V30.5682H83.8306L90.548 31.3785H90.6311V31.4624L90.4455 33.0355V33.1165H90.3652L89.5702 33.0215L89.6561 32.9544L87.9331 47.6348L87.9109 47.5957C89.9249 48.4165 91.6154 49.8825 92.7221 51.7678C93.8288 53.6531 94.2903 55.8531 94.0355 58.029V58.0206ZM94.0355 58.0206C94.2804 55.8515 93.8106 53.6613 92.6987 51.7883C91.5868 49.9153 89.8945 48.4635 87.8832 47.6572H87.8555V47.6292L89.5176 32.946V32.8678H89.5951L90.3929 32.9572L90.3015 33.0299L90.4788 31.4568L90.5535 31.5518L83.8306 30.7806L83.947 30.6884L83.7697 32.2615L83.6755 32.1385L84.4678 32.228L84.5786 32.2419L84.5647 32.3537L83.7337 39.6939C83.4567 42.1416 83.1658 44.5864 82.8777 47.0341V47.1263L82.7836 47.1431C80.9854 47.4211 79.2983 48.1947 77.9083 49.3784C76.5163 50.566 75.4815 52.1229 74.921 53.8729C74.3605 55.6228 74.2966 57.4961 74.7366 59.2808L74.8141 59.6133C74.8446 59.7251 74.8862 59.8312 74.9222 59.9402C74.997 60.1553 75.0662 60.3733 75.1465 60.5884C75.3204 61.0114 75.5221 61.4221 75.7504 61.8179C75.9744 62.2166 76.2252 62.5993 76.5011 62.9635C76.6396 63.1451 76.7947 63.3127 76.9415 63.486L77.1659 63.7458L77.4124 63.9833C78.7229 65.271 80.3632 66.1651 82.1492 66.5651C82.5953 66.6575 83.0468 66.721 83.501 66.7551C83.7281 66.7551 83.9553 66.7942 84.1824 66.7942L84.8666 66.7719C85.7777 66.7152 86.6761 66.527 87.5342 66.213L87.8583 66.1013C87.9636 66.0594 88.066 66.0063 88.1685 65.9616C88.3763 65.8638 88.5868 65.7744 88.7918 65.6822C89.1933 65.4646 89.581 65.222 89.9525 64.9557C90.3244 64.6895 90.6788 64.3992 91.0134 64.0867C91.1796 63.9274 91.3319 63.757 91.4898 63.5921C91.5674 63.5083 91.6505 63.4273 91.7253 63.3407L91.9358 63.0613C93.0866 61.6106 93.8137 59.865 94.0355 58.0206Z" fill="#263238"/>
</g>
<path d="M92.2737 57.8138C92.1337 59.0215 91.7282 60.1825 91.0868 61.2121C90.4453 62.2416 89.5842 63.1138 88.5661 63.7649C87.548 64.416 86.3987 64.8297 85.2019 64.9758C84.0051 65.1218 82.7911 64.9966 81.6485 64.6092C80.5058 64.2218 79.4633 63.5821 78.5969 62.7365C77.7305 61.891 77.0622 60.8611 76.6407 59.7219C76.2191 58.5827 76.055 57.363 76.1602 56.1517C76.2654 54.9403 76.6374 53.768 77.249 52.7201C78.7821 53.5926 80.4341 54.2328 82.1519 54.6201C85.5868 55.4025 88.3402 53.7567 91.415 53.0889C92.1653 54.5411 92.4645 56.1876 92.2737 57.8138Z" fill="#FFC727"/>
<path d="M76.1825 55.9223C76.1825 55.9223 76.6035 50.2837 82.4927 49.0571L76.1825 55.9223Z" fill="#EBEBEB"/>
<path d="M83.1187 37.8385C82.8417 39.4368 84.8721 38.8388 84.8721 38.8388C84.8721 38.8388 82.1686 40.4063 82.5259 42.1639C82.8721 43.8543 85.2959 43.044 85.4621 43.0021C85.3209 43.0887 82.8721 44.5948 83.4123 46.3215C83.9663 48.1154 86.2599 46.8804 86.4067 46.8021C86.2987 46.9251 84.8749 48.5624 85.5757 49.7807C86.7862 51.8735 90.5396 47.7857 92.4842 47.794C92.4842 47.794 92.8499 51.1219 92.8803 51.2169C92.8803 51.2169 96.5285 47.4001 96.39 44.7512C96.378 44.364 96.2335 43.993 95.981 43.7011C95.7286 43.4092 95.3836 43.2146 95.005 43.1502C95.005 43.1502 96.3152 42.0493 95.9329 40.6774C95.7362 39.9733 94.4426 39.6631 94.4426 39.6631C94.4426 39.6631 95.4565 38.741 95.041 37.5396C94.7141 36.5812 93.4676 36.4219 93.4676 36.4219C93.4676 36.4219 94.0216 35.0779 93.3817 34.2089C92.0909 32.4375 83.6921 34.4157 83.1187 37.8385Z" fill="#D3766A"/>
<path d="M93.2903 36.3521C93.318 36.3521 93.318 36.3046 93.2903 36.3046C90.3706 36.2767 87.1546 37.1429 84.7585 38.8585C84.681 38.9171 84.7364 39.068 84.8361 39.0233C87.6394 37.7352 90.2266 36.8159 93.2903 36.3521Z" fill="#263238"/>
<path d="M94.498 39.624C94.5312 39.624 94.5229 39.5625 94.498 39.5625C91.4897 39.5485 87.8942 40.6299 85.3568 42.9322C85.2682 43.0105 85.2682 43.1697 85.3762 43.0859C87.1795 41.6833 91.739 40.0263 94.498 39.624Z" fill="#263238"/>
<path d="M86.2849 47.0117C88.7973 44.8965 91.728 43.8096 94.897 43.125C94.9385 43.125 94.9191 43.0608 94.8831 43.058C93.2432 42.9658 91.2682 43.6168 89.7751 44.2483C88.3758 44.8091 87.1473 45.7313 86.2129 46.9223C86.1768 46.9698 86.2322 47.0564 86.2849 47.0117Z" fill="#263238"/>
<path d="M84.8195 38.822C84.7253 38.8891 84.9275 38.9533 84.8361 39.0232C84.4483 39.3194 82.2683 41.3088 82.7087 42.2672C83.0633 43.0356 84.332 43.0859 84.8278 42.9126L86.0743 42.4795L85.0549 43.3178C84.5986 43.6895 84.2056 44.1341 83.8915 44.6338C83.7335 44.8569 83.6237 45.1109 83.5693 45.3795C83.5149 45.6481 83.5171 45.9253 83.5757 46.193C83.6353 46.442 83.7779 46.6628 83.9796 46.8184C84.1813 46.9741 84.4299 47.0551 84.6838 47.048C85.2491 47.0248 85.7992 46.8565 86.2821 46.559L87.6422 45.785L86.6117 46.9613C86.3241 47.2873 86.0801 47.6499 85.886 48.0399C85.685 48.4012 85.5944 48.8143 85.6256 49.2274C85.648 49.4121 85.7211 49.5868 85.8365 49.732C85.952 49.8771 86.1054 49.9868 86.2793 50.0489C86.6896 50.1309 87.1146 50.0921 87.5037 49.9371C88.3497 49.616 89.1694 49.2283 89.9552 48.7775C90.3596 48.5652 90.7668 48.35 91.1851 48.1544C91.592 47.9351 92.0405 47.8056 92.5008 47.7744C92.0533 47.8567 91.6255 48.0246 91.2405 48.269C90.8443 48.4925 90.4565 48.7384 90.0687 48.9815C89.2966 49.4956 88.4786 49.9362 87.6255 50.2975C87.1669 50.5004 86.6595 50.5635 86.1657 50.4792C85.9013 50.4034 85.6646 50.2515 85.4845 50.0421C85.3045 49.8326 85.1889 49.5747 85.1519 49.3C85.0967 48.7896 85.1931 48.2742 85.4289 47.8191C85.6396 47.3819 85.9059 46.9742 86.2211 46.6065L86.5508 47.006C85.9854 47.3677 85.336 47.5739 84.6671 47.604C84.2964 47.6089 83.9353 47.4845 83.645 47.2519C83.3679 47.0134 83.169 46.6958 83.0744 46.341C82.9982 46.0027 82.9941 45.6519 83.0624 45.3118C83.1306 44.9717 83.2697 44.6502 83.4705 44.3684C83.8245 43.8241 84.2642 43.3418 84.7724 42.9406L84.9995 43.3513C84.3624 43.5497 82.9386 43.6503 82.2295 42.527C81.537 40.9288 84.2932 39.1182 84.8195 38.822Z" fill="#263238"/>
<path d="M84.8722 38.8389C84.5423 38.8691 84.2097 38.8483 83.886 38.7774C83.7557 38.7517 83.6345 38.6916 83.5348 38.6033C83.435 38.5149 83.3603 38.4014 83.3182 38.2745C83.2653 37.9824 83.299 37.6811 83.4151 37.4083C83.5232 37.1009 83.6561 36.7824 83.8029 36.4611C83.5138 36.6745 83.2722 36.9467 83.0938 37.2602C82.8781 37.5987 82.8035 38.0093 82.886 38.403C82.9547 38.6117 83.084 38.7947 83.2572 38.9283C83.4271 39.0453 83.6253 39.1139 83.8306 39.1267C84.1993 39.1446 84.5641 39.0438 84.8722 38.8389Z" fill="#263238"/>
<path d="M35.6262 80.4352C35.6262 80.4352 36.0195 84.9226 36.604 91.4162C36.6206 91.6034 36.6372 91.7934 36.6566 91.975C36.9336 95.1631 37.2688 98.7955 37.6123 102.593H57.8336C56.3849 91.1619 55.1328 81.3154 55.0248 80.4771V80.4156L35.6262 80.4352Z" fill="#37474F"/>
<path d="M38.46 83.0058C38.5837 84.5761 38.7139 86.1464 38.8506 87.7167C38.8894 88.1721 38.9337 88.6248 38.9725 89.0774V89.0914C39.3631 93.5983 39.7758 98.1081 40.2356 102.609H40.5265C40.0334 97.9767 39.5736 93.3413 39.1082 88.7002C39.0584 88.1973 39.0085 87.6971 38.9559 87.1914C38.8174 85.7943 38.6789 84.414 38.5348 83.0225C38.5265 82.9583 38.4545 82.9583 38.46 83.0058Z" fill="#263238"/>
<path d="M30.906 80.4351C30.906 80.4351 31.8284 85.6993 33.122 93.073C33.147 93.1903 33.1664 93.3077 33.1885 93.4334C33.6844 96.2527 34.2301 99.3682 34.8007 102.607H48.8864L49.2077 100.469L49.2687 100.05L49.2853 99.941L49.518 98.3707L49.6094 97.7839L52.2215 80.4351H30.906Z" fill="#263238"/>
<path d="M25.4878 102.612H44.6205C44.6205 102.528 44.6205 102.464 44.6205 102.411C44.6205 102.358 44.6205 102.28 44.6205 102.28C44.7286 102.221 44.8338 102.16 44.9419 102.104C46.0665 101.486 47.0554 101.006 47.867 100.64L48.2687 100.458C48.6371 100.296 48.9667 100.162 49.241 100.053C49.9446 99.7734 50.349 99.6477 50.349 99.6477C50.3711 99.5862 50.3933 99.5304 50.4127 99.4717C53.1828 92.3522 54.8448 81.5054 55.011 80.4967V80.4185H27.7066C27.7066 80.4185 26.6651 90.6227 25.4878 102.612Z" fill="#37474F"/>
<path d="M28.1774 102.612H28.4323C28.9337 96.2221 29.399 89.8291 29.8838 83.4389C29.8838 83.3328 29.7314 83.3328 29.7259 83.4389C29.2125 89.8282 28.6964 96.2193 28.1774 102.612Z" fill="#263238"/>
<path d="M51.3379 99.1364C49.0211 99.9867 46.7819 101.038 44.6455 102.28C44.5624 102.327 44.6178 102.459 44.7064 102.42C46.9613 101.444 49.2604 100.508 51.4598 99.4074C51.4954 99.3911 51.5232 99.3612 51.537 99.3243C51.5507 99.2873 51.5494 99.2464 51.5332 99.2104C51.5171 99.1745 51.4874 99.1465 51.4508 99.1326C51.4142 99.1187 51.3736 99.1201 51.3379 99.1364Z" fill="#263238"/>
<path d="M52.0553 83.5312C52.0553 83.453 51.9112 83.4362 51.9112 83.5312C51.9118 86.0694 51.786 88.6059 51.5345 91.1313C51.4292 92.302 50.4957 98.776 48.4874 98.3038C48.1495 98.2256 47.9778 97.8903 47.9334 97.3762C47.8697 96.7615 48.0996 96.0043 48.2104 95.3924C48.4348 94.0372 48.6149 92.6764 48.7284 91.3073C48.9635 88.7584 48.9366 86.1919 48.6481 83.6486C48.645 83.6335 48.6368 83.6199 48.625 83.6102C48.6131 83.6005 48.5983 83.5952 48.583 83.5952C48.5677 83.5952 48.5529 83.6005 48.541 83.6102C48.5292 83.6199 48.521 83.6335 48.5179 83.6486C48.5179 87.186 48.4293 90.7178 47.9057 94.2216C47.6537 95.8981 46.8116 98.4408 48.5567 98.6922C50.3018 98.9437 51.4874 94.7106 51.7035 93.5482C52.2769 90.3098 52.3073 86.8116 52.0553 83.5312Z" fill="#263238"/>
<path d="M48.5346 98.4657C48.3557 98.9025 48.2049 99.3505 48.0831 99.8068C47.9525 100.16 47.8886 100.534 47.8948 100.911C47.8948 100.983 47.9945 100.989 48.0333 100.941C48.2416 100.609 48.3994 100.248 48.5014 99.8683C48.6537 99.452 48.8172 99.0301 48.9585 98.6221C48.9715 98.5675 48.9642 98.5099 48.9379 98.4603C48.9115 98.4107 48.8681 98.3726 48.8157 98.3533C48.7634 98.334 48.7058 98.3348 48.6539 98.3555C48.6021 98.3762 48.5597 98.4154 48.5346 98.4657Z" fill="#263238"/>
<path d="M39.4239 85.6489C39.4275 85.3671 39.3987 85.0858 39.3381 84.8107C39.3349 84.8021 39.3292 84.7948 39.3218 84.7896C39.3144 84.7844 39.3056 84.7816 39.2965 84.7816C39.2875 84.7816 39.2786 84.7844 39.2712 84.7896C39.2638 84.7948 39.2581 84.8021 39.255 84.8107C39.1986 85.0489 39.167 85.2924 39.1608 85.5372C39.1331 85.8166 39.0971 86.096 39.0666 86.3754C39.0076 86.9451 38.9095 87.5099 38.773 88.0659C38.519 89.1198 37.9878 90.0851 37.2356 90.86C36.4885 91.6012 35.6049 92.1878 34.6345 92.5868C33.5514 93.0478 32.4185 93.2211 31.2966 93.5536C31.2495 93.5536 31.2634 93.6346 31.3105 93.6346C32.5453 93.6325 33.7681 93.3896 34.9115 92.9193C35.9271 92.5343 36.8518 91.9395 37.6262 91.173C38.4031 90.381 38.9501 89.3895 39.2079 88.3062C39.3336 87.7491 39.4059 87.1811 39.4239 86.6101C39.4423 86.29 39.4423 85.9691 39.4239 85.6489Z" fill="#263238"/>
<path d="M57.5538 85.6854L55.2436 72.7178C55.2436 72.7178 57.6785 68.9597 57.3239 64.5198C57.0663 61.2898 50.1218 49.9903 49.5429 49.4315C47.1772 47.1962 43.1884 48.0931 41.5513 49.3421C32.4794 56.2603 29.0334 71.1056 25.9614 85.6854H57.5538Z" fill="#FFC727"/>
<path d="M46.6372 71.5135C47.9434 71.4362 49.2535 71.4567 50.5568 71.5749C51.2022 71.642 51.8421 71.7398 52.4958 71.8544C52.8144 71.9102 53.1329 71.9549 53.4543 71.9969C53.7893 72.0516 54.1298 72.0648 54.4681 72.036C54.473 72.0377 54.4772 72.0409 54.4802 72.0452C54.4832 72.0494 54.4848 72.0545 54.4848 72.0597C54.4848 72.0649 54.4832 72.07 54.4802 72.0743C54.4772 72.0785 54.473 72.0818 54.4681 72.0835C54.1545 72.1463 53.8371 72.1883 53.518 72.2092C53.2073 72.2167 52.8964 72.2046 52.5872 72.1729C51.928 72.1086 51.2742 72.0164 50.6205 71.9466C49.2964 71.8097 47.9723 71.6671 46.6399 71.628C46.5735 71.6224 46.5735 71.5163 46.6372 71.5135Z" fill="#263238"/>
<path d="M43.6205 73.1452C44.6655 72.8693 45.7254 72.6548 46.795 72.5025C47.3296 72.4271 47.8642 72.3852 48.4044 72.3573C48.662 72.3433 48.9196 72.3349 49.1772 72.3293C49.4348 72.3237 49.7451 72.3572 50.0304 72.3461C50.0581 72.3461 50.0664 72.3908 50.0304 72.3936C49.7534 72.4103 49.4985 72.4746 49.2326 72.5081L48.4321 72.6059C47.8974 72.673 47.3628 72.7456 46.8282 72.8071C45.7562 72.93 44.6925 73.0642 43.626 73.2262C43.5734 73.243 43.5651 73.1592 43.6205 73.1452Z" fill="#263238"/>
<path d="M50.0139 49.9205L53.1468 64.6009L55.975 102.601H62.4375C62.4375 102.601 55.7479 72.0305 55.7728 71.7846C55.7977 71.5387 58.7201 68.3003 57.903 63.8632C57.0858 59.4261 50.5789 50.3256 50.0139 49.9205Z" fill="#EBEBEB"/>
<path d="M50.6952 51.1024C50.9971 51.8568 51.3074 52.6085 51.6204 53.3573C51.9334 54.1061 52.2409 54.8605 52.5594 55.6066C53.1929 57.0968 53.8392 58.587 54.4985 60.0772L54.5622 59.7978C53.8614 60.3734 52.4431 61.695 52.4431 61.695L54.9583 65.1541C54.9583 65.1541 54.7339 75.6601 54.6536 76.6101C54.8392 75.6713 55.3821 65.0424 55.3821 65.0424L52.8891 61.614L52.8254 61.9465C53.5123 61.3569 54.1938 60.7645 54.8724 60.161L55.0082 60.0381L54.9334 59.876C54.2501 58.4044 53.5567 56.9366 52.8531 55.4724C52.504 54.7376 52.1439 54.0111 51.7866 53.2818C51.4293 52.5526 51.0664 51.8261 50.6952 51.1024Z" fill="#DBDBDB"/>
<path d="M43.9862 49.6494C44.1496 50.2306 46.7563 53.6199 49.4044 53.3656C50.2659 53.2818 50.3656 48.7888 50.3656 48.7888L50.4266 48.434L51.2825 43.4437L45.3518 40.0097L44.5208 39.5598C44.5208 39.5598 44.374 40.9401 44.2106 42.6585C44.2106 42.7367 44.194 42.8178 44.1857 42.9044C44.1773 42.991 44.1635 43.0916 44.1552 43.1838C44.1275 43.4381 44.0998 43.7007 44.0804 43.9634C44.061 44.1618 44.0444 44.3545 44.0333 44.5641C44.0222 44.7737 44.0056 44.9804 43.989 45.19C43.8643 47.2632 43.9197 49.4036 43.9862 49.6494Z" fill="#D3766A"/>
<path d="M44.1994 42.6585C44.7594 44.0195 45.6066 45.2411 46.6819 46.2385C47.7573 47.2359 49.0351 47.9851 50.4265 48.434L51.2824 43.4437L45.3517 40.0097L44.5207 39.5598C44.5207 39.5598 44.3628 40.9289 44.1994 42.6585Z" fill="#263238"/>
<path d="M57.7533 34.6504C59.6092 43.329 54.6647 45.4302 52.8088 45.827C51.1246 46.193 45.3296 47.224 42.6067 38.7774C39.8837 30.3307 43.2853 26.7235 47.0941 25.684C50.903 24.6446 55.8974 25.969 57.7533 34.6504Z" fill="#D3766A"/>
<path d="M55.878 33.3848C55.6752 33.3819 55.4726 33.3679 55.2713 33.3428C55.0563 33.3592 54.842 33.3032 54.6619 33.1836C54.6115 33.1353 54.5786 33.0713 54.5686 33.0018C54.5585 32.9324 54.5719 32.8616 54.6065 32.8008C54.6931 32.6933 54.8064 32.6108 54.9349 32.5617C55.0633 32.5126 55.2023 32.4987 55.3378 32.5214C55.6219 32.5221 55.8955 32.6297 56.1051 32.8231C56.1467 32.8704 56.1742 32.9284 56.1848 32.9906C56.1953 33.0528 56.1884 33.1168 56.1647 33.1752C56.1411 33.2337 56.1017 33.2843 56.051 33.3213C56.0004 33.3583 55.9404 33.3803 55.878 33.3848Z" fill="#263238"/>
<path d="M50.1024 35.62C50.3018 35.5669 50.4791 35.483 50.673 35.4104C50.8836 35.3637 51.0733 35.2489 51.2132 35.0835C51.2472 35.0227 51.2605 34.9523 51.251 34.8831C51.2415 34.814 51.2097 34.7499 51.1605 34.7007C51.0478 34.6198 50.9158 34.5707 50.778 34.5585C50.6402 34.5462 50.5017 34.5712 50.3766 34.6308C50.1049 34.7104 49.8726 34.8898 49.7257 35.1338C49.6954 35.1914 49.6824 35.2567 49.6881 35.3217C49.6939 35.3866 49.7181 35.4485 49.7579 35.4999C49.7977 35.5513 49.8515 35.59 49.9126 35.6113C49.9737 35.6326 50.0396 35.6356 50.1024 35.62Z" fill="#263238"/>
<path d="M51.5789 36.707C51.5789 36.6875 51.5373 36.7433 51.5401 36.7685C51.6592 37.3608 51.6952 38.0594 51.1938 38.35C51.1772 38.35 51.1938 38.3863 51.1938 38.3807C51.8393 38.1795 51.7839 37.2519 51.5789 36.707Z" fill="#263238"/>
<path d="M50.9473 36.1788C49.9833 36.2682 50.2271 38.2045 51.1218 38.1347C52.0165 38.0648 51.7534 36.1006 50.9473 36.1788Z" fill="#263238"/>
<path d="M50.5817 36.324C50.4294 36.4554 50.2881 36.6705 50.0887 36.718C49.8892 36.7655 49.6565 36.5895 49.4792 36.4163C49.4599 36.3967 49.446 36.4162 49.4488 36.4414C49.4903 36.813 49.6787 37.1763 50.0804 37.179C50.482 37.1818 50.6648 36.8214 50.7092 36.4386C50.7175 36.366 50.6454 36.271 50.5817 36.324Z" fill="#263238"/>
<path d="M54.8891 35.9329C54.8891 35.9105 54.939 35.958 54.939 35.9832C54.9611 36.5895 55.0886 37.2769 55.6426 37.4389C55.662 37.4389 55.662 37.4752 55.6426 37.4725C54.975 37.425 54.8143 36.5113 54.8891 35.9329Z" fill="#263238"/>
<path d="M55.3822 35.268C56.3379 35.1255 56.5456 37.0674 55.6592 37.1959C54.7728 37.3245 54.5789 35.3853 55.3822 35.268Z" fill="#263238"/>
<path d="M55.7701 35.3407C55.9501 35.4301 56.1357 35.6062 56.3407 35.6034C56.5457 35.6006 56.7313 35.3798 56.8642 35.1675C56.8781 35.1451 56.8975 35.1675 56.9003 35.187C56.9446 35.5587 56.8449 35.9554 56.4543 36.0532C56.0637 36.151 55.8061 35.8437 55.6731 35.4776C55.6482 35.3994 55.6981 35.2904 55.7701 35.3407Z" fill="#263238"/>
<path d="M52.2298 41.3481C52.3849 41.4766 52.5428 41.6582 52.7617 41.661C52.9844 41.6383 53.1997 41.5678 53.3932 41.4542C53.3974 41.4527 53.4019 41.4524 53.4062 41.4534C53.4105 41.4545 53.4144 41.4568 53.4174 41.4601C53.4204 41.4634 53.4223 41.4676 53.423 41.472C53.4236 41.4764 53.4229 41.4809 53.4209 41.485C53.3449 41.61 53.2369 41.7121 53.1082 41.7805C52.9795 41.8488 52.8349 41.8809 52.6896 41.8733C52.5649 41.8516 52.4493 41.793 52.3576 41.7049C52.2659 41.6169 52.2022 41.5034 52.1744 41.3788C52.1633 41.3453 52.2077 41.3285 52.2298 41.3481Z" fill="#263238"/>
<path d="M54.4126 38.8333C54.4126 38.8333 54.6591 39.7106 54.7173 40.1326C54.7173 40.1717 54.6259 40.2052 54.4846 40.2332C54.4846 40.2332 54.4846 40.2332 54.468 40.2332C54.1179 40.3497 53.7427 40.3668 53.3835 40.2825C53.0244 40.1982 52.6952 40.0159 52.432 39.7554C52.3988 39.719 52.4459 39.6687 52.4874 39.6883C53.0705 39.9853 53.7335 40.0834 54.3766 39.9677C54.3766 39.8448 53.9029 38.4784 53.9694 38.4645C54.2985 38.4474 54.6284 38.4756 54.95 38.5483C54.4902 36.707 53.7395 34.9522 53.3074 33.1109C53.2935 33.0466 53.3877 33.0131 53.4126 33.069C54.3295 34.8516 54.9029 36.9584 55.4292 38.8473C55.4957 39.0764 54.5899 38.8808 54.4126 38.8333Z" fill="#263238"/>
<path d="M42.1137 38.5622C43.6095 38.6795 43.953 35.5138 43.953 35.5138C43.953 35.5138 47.0001 35.5138 47.9945 31.1158C47.907 32.4327 47.4401 33.6952 46.6511 34.7482C46.6511 34.7482 52.0111 34.1893 54.2659 29.6517C54.2659 29.6517 53.3656 31.9568 52.5236 32.7755C52.5236 32.7755 54.7701 32.144 55.867 30.3027C55.867 30.3027 56.8061 32.9124 57.529 33.6333C57.529 33.6333 57.3102 24.1752 48.6206 25.181C48.6206 25.181 43.1802 25.5443 41.2273 29.8892C39.2744 34.234 42.1137 38.5622 42.1137 38.5622Z" fill="#263238"/>
<path d="M47.1995 35.3572C47.1995 35.3572 41.9779 36.3631 40.9918 37.2181C40.5874 37.5702 41.0417 39.4814 41.3713 39.7161C41.579 39.8642 44.4183 38.5761 47.4654 38.157C47.4682 38.157 46.9059 36.5615 47.1995 35.3572Z" fill="#455A64"/>
<path opacity="0.2" d="M57.9278 37.5227C57.8625 37.6261 57.7894 37.7242 57.709 37.8161C57.3877 38.1765 56.9639 38.3442 56.2464 38.1598C55.7783 38.0396 55.4154 37.5786 54.6509 37.6652C54.1756 37.7009 53.7194 37.8682 53.3323 38.1486C53.0788 38.3291 52.8364 38.5251 52.6066 38.7354C52.5484 38.7829 52.4902 38.8359 52.4321 38.889C52.3795 38.9392 52.323 38.985 52.2631 39.0259C52.1753 39.0924 52.0827 39.1522 51.9861 39.2048C50.8531 39.8167 48.975 39.8418 48.2548 39.3026C47.5956 38.8108 47.0942 37.3718 47.1717 35.9831C47.1849 35.6849 47.2295 35.3889 47.3047 35.1002C47.3779 34.8163 47.4868 34.5431 47.6288 34.2871C47.6565 34.2396 47.6814 34.1949 47.7091 34.153C47.7897 34.0318 47.8825 33.9194 47.9861 33.8177C48.6703 33.1052 49.9889 32.5324 51.421 32.1859L51.8614 32.0909C52.18 32.0238 52.5013 31.9707 52.8199 31.9288C53.1883 31.8813 53.5567 31.8478 53.9113 31.8366C55.1689 31.7863 56.2741 31.9652 56.8558 32.4346C57.2662 32.7931 57.5733 33.2563 57.745 33.7758C57.8382 34.0235 57.9141 34.2774 57.9722 34.5358C58.1566 35.3607 58.196 36.2118 58.0885 37.0505C58.0631 37.2162 58.0087 37.3761 57.9278 37.5227Z" fill="#EBEBEB"/>
<g opacity="0.2">
<path d="M57.9278 37.5227C57.8625 37.6261 57.7894 37.7242 57.709 37.8161L54.77 36.3241C54.6762 36.2773 54.6031 36.1971 54.5648 36.0989C54.5265 36.0008 54.5258 35.8918 54.5627 35.7931C54.5997 35.6945 54.6718 35.6132 54.7649 35.5652C54.858 35.5172 54.9654 35.5058 55.0664 35.5333C55.0949 35.5401 55.1227 35.5494 55.1495 35.5613L58.0857 37.0477C58.0615 37.2143 58.008 37.3751 57.9278 37.5227Z" fill="#EBEBEB"/>
<path d="M53.3324 38.1487C53.0789 38.3293 52.8365 38.5252 52.6066 38.7355L47.1663 35.9833C47.1794 35.6851 47.224 35.3891 47.2992 35.1003L53.3324 38.1487Z" fill="#EBEBEB"/>
<path d="M51.6288 35.989C51.6011 36.0486 51.5533 36.0965 51.494 36.1241C51.4347 36.1517 51.3677 36.1573 51.3047 36.1399C51.2844 36.1349 51.2649 36.1274 51.2465 36.1175L47.6233 34.2873C47.651 34.2398 47.6759 34.1951 47.7036 34.1532C47.7842 34.0321 47.877 33.9197 47.9806 33.8179L51.5097 35.6034C51.5432 35.6202 51.573 35.6436 51.5972 35.6724C51.6215 35.7011 51.6398 35.7345 51.6509 35.7705C51.662 35.8065 51.6658 35.8445 51.662 35.882C51.6582 35.9196 51.6469 35.956 51.6288 35.989Z" fill="#EBEBEB"/>
<path d="M57.9583 34.536L52.806 31.9291C53.1744 31.8816 53.5428 31.848 53.8974 31.8369L57.7311 33.776C57.8243 34.0237 57.9002 34.2776 57.9583 34.536Z" fill="#EBEBEB"/>
<path d="M56.9501 34.832C56.935 34.8603 56.9111 34.8828 56.882 34.896C56.853 34.9091 56.8204 34.9121 56.7894 34.9046H56.759L51.4072 32.1971L51.8477 32.1021L56.8864 34.6504C56.9181 34.6666 56.9424 34.6945 56.9542 34.7283C56.9661 34.7621 56.9646 34.7992 56.9501 34.832Z" fill="#EBEBEB"/>
<path d="M52.277 39.0262C52.1892 39.0927 52.0966 39.1525 52 39.2051L49.2299 37.808C49.2133 37.7994 49.1986 37.7876 49.1865 37.7733C49.1744 37.7589 49.1653 37.7423 49.1596 37.7244C49.154 37.7065 49.1519 37.6876 49.1535 37.6689C49.1551 37.6501 49.1603 37.6319 49.169 37.6152C49.1828 37.5858 49.2066 37.5623 49.236 37.549C49.2655 37.5357 49.2987 37.5334 49.3296 37.5425H49.3601L52.277 39.0262Z" fill="#EBEBEB"/>
</g>
<path d="M49.0082 39.8336C48.6963 39.7594 48.4054 39.6142 48.1578 39.4089C47.1495 38.5343 46.4515 35.8492 47.5844 34.0749C48.3462 32.8846 50.6315 32.119 52.3628 31.8396C53.9639 31.5797 56.0054 31.5602 56.9306 32.3174C58.4569 33.5552 58.4652 36.612 58.0608 37.5704C57.7838 38.2242 57.058 38.5092 56.2104 38.2912C56.0333 38.2396 55.8623 38.1683 55.7007 38.0789C55.3844 37.8913 55.0232 37.7946 54.6564 37.7995C53.9472 37.8358 53.5483 38.1208 52.5234 38.9926C52.0346 39.3843 51.4662 39.6628 50.8587 39.8081C50.2512 39.9535 49.6195 39.9622 49.0082 39.8336ZM47.8227 34.223C46.8005 35.824 47.4044 38.3695 48.3434 39.1854C49.1994 39.9314 51.2187 39.7246 52.3434 38.7718C53.3378 37.9336 53.8115 37.5536 54.6425 37.5117C55.0579 37.5032 55.4675 37.6116 55.8253 37.8246C55.9698 37.9037 56.122 37.9674 56.2796 38.0146C56.8336 38.1571 57.5345 38.0873 57.8004 37.4558C58.1688 36.5812 58.1549 33.6725 56.7533 32.5353C56.0414 31.9569 54.3766 31.7977 52.4071 32.119C50.2077 32.4794 48.4071 33.3037 47.8227 34.2202V34.223Z" fill="#455A64"/>
<path d="M44.1164 39.1518C44.1164 39.1518 41.8644 36.6371 40.7148 37.4893C39.5652 38.3415 41.4959 42.136 43.0167 42.4964C43.2087 42.5562 43.4108 42.5763 43.6106 42.5553C43.8105 42.5343 44.0042 42.4728 44.1799 42.3744C44.3556 42.276 44.5097 42.1427 44.6331 41.9827C44.7564 41.8226 44.8464 41.6391 44.8976 41.443L44.1164 39.1518Z" fill="#D3766A"/>
<path d="M41.2965 38.5651C41.2922 38.5667 41.2886 38.5695 41.286 38.5733C41.2834 38.577 41.282 38.5815 41.282 38.586C41.282 38.5906 41.2834 38.595 41.286 38.5988C41.2886 38.6025 41.2922 38.6054 41.2965 38.607C42.3657 38.8864 43.0222 39.7749 43.5125 40.7166C43.1635 40.3757 42.7231 40.2192 42.266 40.6467C42.2411 40.6691 42.266 40.7082 42.2992 40.697C42.4709 40.6168 42.663 40.5922 42.849 40.6268C43.0351 40.6613 43.2059 40.7532 43.338 40.8898C43.5585 41.1192 43.7535 41.3722 43.9197 41.6442C43.9807 41.7308 44.1386 41.661 44.0887 41.5604C44.0897 41.552 44.0897 41.5436 44.0887 41.5352C43.9447 40.2248 42.7064 38.5204 41.2965 38.5651Z" fill="#263238"/>
<path d="M43.2355 42.555C43.2355 42.6512 43.2638 42.7452 43.3168 42.8251C43.3697 42.9051 43.445 42.9674 43.5331 43.0042C43.6211 43.041 43.7181 43.0506 43.8116 43.0319C43.905 43.0131 43.9909 42.9668 44.0583 42.8988C44.1257 42.8308 44.1717 42.7442 44.1902 42.6499C44.2088 42.5556 44.1993 42.4578 44.1628 42.369C44.1263 42.2801 44.0646 42.2042 43.9853 42.1508C43.906 42.0974 43.8129 42.0688 43.7175 42.0688C43.6542 42.0688 43.5916 42.0814 43.5331 42.1059C43.4746 42.1303 43.4215 42.1661 43.3767 42.2112C43.3319 42.2564 43.2964 42.31 43.2722 42.369C43.248 42.428 43.2355 42.4912 43.2355 42.555Z" fill="#EBEBEB"/>
<path d="M50.3379 49.2637L50.1024 51.7393C49.9889 54.4496 49.6371 55.5338 49.0581 55.5757C47.1551 55.707 44.1828 50.6999 43.9778 49.6493C43.7729 48.5987 50.3379 49.2637 50.3379 49.2637Z" fill="#D3766A"/>
<path d="M22.51 102.612H48.2078L43.8754 48.3083C43.8754 48.3083 42.953 48.2441 40.6621 49.8451C38.2162 51.5523 35.7315 55.0478 32.3714 62.3768C24.6152 79.2981 22.51 102.612 22.51 102.612Z" fill="#EBEBEB"/>
<path d="M42.9779 54.3099C42.1165 57.104 34.6927 75.4587 31.9919 78.7446C29.9393 81.2426 23.4851 84.4558 21.7621 77.8589C20.6153 73.4637 33.8312 55.7237 39.7896 50.5294C42.5264 48.146 44.7979 48.431 42.9779 54.3099Z" fill="#EBEBEB"/>
<path d="M26.0168 81.7903C27.1184 81.7338 28.1939 81.4323 29.1664 80.9073C30.1358 80.3993 31.0007 79.7099 31.7148 78.876C32.0714 78.4623 32.3981 78.0234 32.6927 77.5627C32.9863 77.0989 33.2467 76.6127 33.5237 76.1265C34.0417 75.1486 34.5264 74.1483 34.9946 73.1396C35.9586 71.1362 36.8505 69.0993 37.7646 67.0652L40.4571 60.9488C40.0887 62.0022 39.687 63.0416 39.2965 64.0866C38.9059 65.1316 38.4654 66.1571 38.0583 67.1909C37.2143 69.2548 36.3214 71.2983 35.3796 73.3212C34.8976 74.3271 34.399 75.3246 33.8644 76.3082C33.5874 76.7971 33.3104 77.2861 33.0112 77.7583C32.7051 78.2346 32.3564 78.6816 31.9697 79.0939C31.2057 79.9263 30.2908 80.6035 29.2744 81.0889C28.7667 81.3247 28.2355 81.5055 27.69 81.6282C27.1424 81.7604 26.5793 81.815 26.0168 81.7903Z" fill="#263238"/>
<path d="M39.4434 63.4078C39.639 63.0845 39.8555 62.7747 40.0915 62.4802C40.3215 62.1868 40.5541 61.9018 40.7979 61.6056C40.6807 61.9736 40.4925 62.3145 40.2439 62.6087C40.015 62.9112 39.7456 63.1801 39.4434 63.4078Z" fill="#263238"/>
<path d="M43.8754 48.3082C43.4849 49.2079 40.7841 57.2494 40.0583 59.06L39.9918 59.2249L40.1331 59.3394C41.1026 60.1106 42.0767 60.8771 43.0555 61.639L43.0056 61.2618L40.291 64.8942L40.2023 65.0143L40.255 65.1512C41.0417 67.1574 46.0222 76.3948 46.4627 77.3784C46.1219 76.3557 41.5237 66.9646 40.748 64.9584L40.712 65.2155L43.4322 61.6027L43.5929 61.3875L43.3824 61.2255C42.3999 60.4692 41.4147 59.7176 40.4267 58.9706L40.5015 59.25C41.1968 57.4143 43.5541 49.2358 43.8754 48.3082Z" fill="#DBDBDB"/>
<path d="M29.2025 89.0998C29.1 92.3689 29.2495 96.0655 29.9393 96.7445C31.2301 98.0186 34.6705 97.9125 35.7564 97.9013C36.8423 97.8901 40.6899 97.9013 41.5929 95.8867C41.9918 95.0038 42.097 90.4409 42.086 88.8259C42.086 88.1721 41.9364 84.9449 41.8865 84.5844C41.8865 84.4978 41.6483 84.509 41.64 84.5649C41.5846 84.9337 41.6206 86.2721 41.6012 86.5208C35.4018 87.3255 31.5625 86.6521 29.5736 86.2665C29.5736 85.663 29.5736 85.1936 29.5736 84.59C31.5113 84.9485 33.4762 85.1355 35.4462 85.1488C37.5992 85.1042 39.7487 84.9503 41.8865 84.6878C41.9364 84.6878 41.9004 84.4391 41.8256 84.4419C41.0167 84.4419 38.2245 84.7213 35.3963 84.7213C33.3786 84.683 31.365 84.5244 29.3659 84.2463C29.2523 84.2938 29.2495 87.5322 29.2025 89.0998ZM30.3105 96.3645C29.6263 95.571 29.5404 93.291 29.5432 91.9246C29.5432 90.0442 29.5432 88.5437 29.5432 86.6633C34.316 87.7809 39.5708 87.2221 41.5624 86.8253C41.5624 86.9064 41.5984 90.8712 41.5624 92.1342C41.5153 93.7492 41.4655 95.2077 40.8505 96.046C40.3242 96.7669 38.8367 97.4878 35.4212 97.485C32.9697 97.4878 30.8866 97.0351 30.316 96.3729L30.3105 96.3645Z" fill="#DBDBDB"/>
<path d="M24.9809 46.8665C25.9006 43.1755 27.521 38.0622 28.9698 37.1122C30.4878 36.1175 35.9697 32.8344 37.4877 32.4851C39.0057 32.1358 44.6898 32.9517 45.7978 33.7844C46.6953 34.4494 45.6011 36.5059 42.4571 36.6903C39.5181 36.8635 38.8062 36.7601 37.9918 37.0116C37.1774 37.2631 34.9642 39.6549 35.3603 40.8619C35.593 41.5744 37.46 42.5859 38.737 42.1668C40.014 41.7477 40.6178 40.3394 42.1303 39.3475C43.6427 38.3556 46.0776 38.7691 46.1468 39.4509C46.2161 40.1327 45.3712 40.3562 43.8726 42.4825C42.9087 43.8517 42.4322 46.358 40.3297 48.6632C39.2771 49.8227 37.3104 52.9997 37.3104 52.9997L24.9809 46.8665Z" fill="#D3766A"/>
<path d="M28.9697 37.112C30.3548 35.3713 33.7425 32.3312 36.8616 31.5042C38.9696 30.9453 45.5651 35.1365 45.2161 36.4526C44.867 37.7686 43.6787 37.6457 41.9391 37.2405C41.3075 37.0924 38.0444 35.4886 37.3879 36.1452C36.4461 37.0841 35.0057 40.4957 35.0057 40.4957L28.9697 37.112Z" fill="#D3766A"/>
<path d="M45.1025 35.8995C44.3962 34.3683 42.5873 33.3848 40.7729 32.5801C40.7425 32.5661 40.7231 32.6108 40.7508 32.622C41.2134 32.8315 44.1247 34.5779 45.0776 35.9219C45.0887 35.9442 45.1081 35.9247 45.1025 35.8995Z" fill="#263238"/>
<path d="M28.9697 37.1122C30.3548 35.3714 33.7425 32.3314 36.8616 31.5043C38.9696 30.9455 44.0083 35.9275 43.6593 37.2491C43.3103 38.5707 41.5901 38.4869 39.7812 37.6179C39.194 37.3385 37.2882 35.662 36.6455 36.3103C35.7037 37.2519 33.399 39.5906 33.399 39.5906L28.9697 37.1122Z" fill="#D3766A"/>
<path d="M34.7314 38.1347C34.953 37.8552 35.0278 37.763 35.255 37.4948C35.4821 37.2266 35.712 36.9583 35.9558 36.7069C36.152 36.4697 36.3872 36.2684 36.6511 36.1117C36.9207 35.9935 37.2211 35.9671 37.507 36.0363C38.1552 36.1704 38.7009 36.6566 39.2217 37.0394C39.8034 37.4669 41.0277 38.1905 42.025 38.1933C42.2978 38.2084 42.5707 38.1646 42.8255 38.0648C43.0181 38.0015 43.1923 37.8911 43.3324 37.7435C43.8393 37.0589 43.3934 36.1648 42.9114 35.5082C42.0139 34.2927 40.7313 33.3427 39.4765 32.5408C39.1663 32.3424 38.8533 32.1552 38.5402 31.9652C38.1923 31.7249 37.7975 31.562 37.3824 31.4874C36.6982 31.4092 35.4987 31.9876 35.1275 32.1608C35.0998 32.1748 35.086 32.1273 35.1137 32.1133C35.5624 31.8954 36.6982 31.1493 37.7979 31.3281C38.1946 31.4331 38.5697 31.6081 38.9059 31.8451C39.2715 32.0546 39.6316 32.2781 39.9862 32.5073C40.6811 32.951 41.3406 33.449 41.9585 33.9965C42.5803 34.5073 43.1041 35.1285 43.5042 35.8295C43.6683 36.1408 43.7459 36.4911 43.7288 36.8433C43.7118 37.1954 43.6006 37.5364 43.4072 37.8301C43.0499 38.3023 42.3934 38.3554 42.0942 38.361C41.7999 38.3662 41.5063 38.3304 41.2216 38.2548C40.5933 38.0434 39.9805 37.7876 39.3879 37.4892C38.8145 37.1819 38.3214 36.7152 37.7258 36.4582C37.5858 36.3919 37.4341 36.3543 37.2796 36.3476C37.1251 36.3409 36.9707 36.3652 36.8256 36.4191C36.5557 36.5622 36.3083 36.7449 36.0915 36.9611C35.6345 37.3244 35.2125 37.7304 34.8311 38.1738C34.7259 38.2995 34.6372 38.2464 34.7314 38.1347Z" fill="#263238"/>
<path d="M27.9143 38.6489C28.4462 37.8107 29.5763 34.2174 30.4074 33.1696C31.2384 32.1218 34.8588 28.5844 36.3353 28.9169C38.194 29.336 35.8643 32.5493 34.7259 33.8402C33.5874 35.1311 33.496 37.5508 33.496 37.5508L27.9143 38.6489Z" fill="#D3766A"/>
<path d="M36.3436 31.6552C35.9447 32.0631 35.5818 32.5241 35.2356 32.9684C34.8731 33.3784 34.5408 33.8145 34.2411 34.2733C33.9815 34.7479 33.8009 35.2624 33.7065 35.7961C33.6539 36.0559 33.6151 36.3186 33.5846 36.584C33.5541 36.8495 33.5458 37.168 33.5098 37.4558C33.5115 37.4607 33.5147 37.465 33.5189 37.468C33.5231 37.471 33.5282 37.4727 33.5334 37.4727C33.5386 37.4727 33.5436 37.471 33.5478 37.468C33.552 37.465 33.5552 37.4607 33.5569 37.4558C33.6471 36.931 33.7721 36.413 33.9309 35.905C34.0823 35.3759 34.2972 34.8673 34.5708 34.3906C35.1248 33.4462 35.8588 32.6303 36.4128 31.6887C36.4267 31.6608 36.3713 31.6272 36.3436 31.6552Z" fill="#263238"/>
<path d="M33.4683 37.9559C33.4495 38.4035 33.4952 38.8515 33.604 39.2859C33.7004 39.7216 33.8263 40.1501 33.9807 40.5684C34.1291 40.9873 34.3002 41.3978 34.4932 41.7978C34.676 42.2002 34.9142 42.5718 35.1414 42.963C35.6287 43.7329 35.9915 44.5761 36.2162 45.4609C36.4237 46.3466 36.4734 47.2624 36.363 48.1656C36.3719 47.2699 36.2563 46.3774 36.0195 45.514C35.7586 44.6648 35.3859 43.8547 34.9115 43.1055C34.6702 42.7222 34.4519 42.3247 34.2577 41.9152C34.0677 41.5011 33.9058 41.0744 33.773 40.6382C33.5209 39.7749 33.3049 38.8556 33.4683 37.9559Z" fill="#263238"/>
<path d="M38.086 42.2477C38.6916 42.1943 39.2533 41.907 39.6538 41.4458C40.0361 41.0602 40.3934 40.6467 40.7812 40.2639C41.1458 39.8674 41.5657 39.5266 42.0278 39.2524C42.5728 38.9844 43.153 38.7962 43.7507 38.6936C44.3204 38.5455 44.9179 38.5455 45.4876 38.6936C45.9502 38.8361 46.4709 39.2245 46.3186 39.7917C46.2308 40.0474 46.0964 40.2843 45.9225 40.4902C45.7574 40.6958 45.5788 40.89 45.3878 41.0714C45.0056 41.443 44.5901 41.7867 44.2438 42.1891C43.7784 42.7479 43.5097 43.4269 43.2023 44.0723C43.0887 44.3126 42.3713 45.9304 42.0942 46.4837C41.8582 46.957 41.58 47.4078 41.2632 47.8304C40.9498 48.2188 40.6131 48.5874 40.2549 48.9341C39.8653 49.3116 39.517 49.7304 39.2162 50.1831C39.2162 50.2054 39.1746 50.1831 39.1829 50.1607C39.5181 49.2638 40.2494 48.5876 40.9087 47.9254C41.7618 47.0732 43.3546 43.0832 43.6787 42.5299C44.1995 41.6023 45.1136 41.063 45.7396 40.2332C45.8837 40.0432 46.1053 39.7665 46.0637 39.5067C46.0264 39.3862 45.9592 39.2774 45.8686 39.1904C45.7779 39.1034 45.6668 39.0411 45.5457 39.0093C44.9891 38.8592 44.4013 38.8747 43.8532 39.054C43.281 39.1667 42.7234 39.3448 42.1912 39.5849C41.7335 39.8277 41.3119 40.1343 40.9391 40.4958C40.507 40.8982 40.1081 41.3117 39.64 41.6833C39.2079 42.0704 38.65 42.2842 38.0721 42.2841C38.05 42.2924 38.0555 42.2505 38.086 42.2477Z" fill="#263238"/>
<path d="M44.831 33.4602C44.4183 33.3261 44 33.1808 43.5956 33.0523V33.0355C44.0803 33.1529 44.5789 33.2367 45.0665 33.3513C45.2662 33.3779 45.4584 33.4455 45.6313 33.5497C45.8042 33.654 45.9542 33.7928 46.072 33.9576C46.1556 34.1303 46.1937 34.3218 46.1826 34.5137C46.1714 34.7055 46.1114 34.8913 46.0083 35.0529C45.7667 35.3942 45.4561 35.6799 45.0969 35.8911C45.0951 35.8924 45.0931 35.8933 45.0909 35.8938C45.0887 35.8943 45.0865 35.8943 45.0843 35.894C45.0821 35.8936 45.08 35.8927 45.0782 35.8915C45.0763 35.8903 45.0747 35.8888 45.0734 35.8869C45.0721 35.8851 45.0712 35.883 45.0707 35.8808C45.0703 35.8787 45.0702 35.8764 45.0706 35.8742C45.071 35.872 45.0718 35.8699 45.073 35.868C45.0742 35.8661 45.0757 35.8645 45.0776 35.8632C45.5845 35.4552 46.3573 34.6757 45.7978 33.9967C45.5317 33.7301 45.1967 33.5442 44.831 33.4602Z" fill="#263238"/>
<path d="M43.5015 37.4725C43.957 37.457 44.3988 37.3117 44.7757 37.0534C44.9287 36.9327 45.0433 36.7696 45.1054 36.584C45.1367 36.4828 45.1517 36.3771 45.1497 36.271C45.1576 36.1595 45.1262 36.0486 45.061 35.9581C45.0389 35.9385 45.0804 35.9134 45.0888 35.9385C45.0971 35.9637 45.158 36.0447 45.1857 36.1006C45.2094 36.1478 45.228 36.1975 45.2411 36.2487C45.2661 36.351 45.2717 36.4572 45.2577 36.5616C45.2259 36.7903 45.1162 37.0007 44.9475 37.1568C44.7501 37.3247 44.5167 37.444 44.2657 37.5051C44.0147 37.5662 43.7531 37.5675 43.5015 37.5088C43.4979 37.5074 43.4948 37.5049 43.4927 37.5017C43.4905 37.4984 43.4893 37.4946 43.4893 37.4907C43.4893 37.4868 43.4905 37.483 43.4927 37.4797C43.4948 37.4765 43.4979 37.474 43.5015 37.4725Z" fill="#263238"/>
<path d="M37.3186 52.9995C36.8643 56.6039 31.7397 75.5621 30.0916 78.4652C28.4434 81.3683 24.1747 83.2153 22.136 78.7055C20.0972 74.1958 23.9836 50.6133 24.9836 46.8663C25.5376 44.7819 37.482 51.6946 37.3186 52.9995Z" fill="#D3766A"/>
<path d="M39.2328 55.1035L23.8368 48.8615C23.8368 48.8615 20.7704 70.7703 21.5876 77.2722C22.1748 81.9384 27.798 84.4252 31.2827 77.4986C34.7675 70.5719 39.2328 55.1035 39.2328 55.1035Z" fill="#EBEBEB"/>
<path d="M37.6566 57.9396C35.3381 57.1013 25.9753 53.2538 24.0086 52.287C23.8729 52.22 23.8812 52.1166 24.0335 52.1669C31.0417 54.5503 35.4544 56.8918 37.6871 57.8446C37.7425 57.8697 37.7148 57.9731 37.6566 57.9396Z" fill="#263238"/>
<path d="M34.6982 69.7533C35.8062 66.6797 36.8228 63.6062 37.6981 60.4795C37.9419 59.6022 38.1801 58.7248 38.4073 57.8447C38.6344 56.9645 38.8505 56.1486 39.0333 55.2908C38.7037 55.126 37.2771 54.4526 37.1164 54.3408C37.1063 54.3326 37.0993 54.3213 37.0963 54.3086C37.0933 54.2958 37.0947 54.2825 37.1001 54.2706C37.1055 54.2588 37.1146 54.2491 37.1261 54.243C37.1376 54.237 37.1508 54.2351 37.1635 54.2374C37.3436 54.2793 38.9862 54.9443 39.3435 55.1399C39.3934 55.1651 38.9724 56.8444 38.7895 57.6547C38.6067 58.465 38.41 59.2529 38.2051 60.0464C37.7988 61.6186 37.3528 63.1815 36.8671 64.735C36.3464 66.4115 35.784 68.0665 35.1802 69.7002C34.6566 71.1056 33.291 73.693 34.6982 69.7533Z" fill="#263238"/>
<path d="M63.6148 91.2793H62.5234V112.755H63.6148V91.2793Z" fill="#263238"/>
<path d="M86.8749 111.249H63.6148V112.752H86.8749V111.249Z" fill="#263238"/>
<path d="M71.5648 89.8543L71.4845 107.832C71.4819 108.394 71.258 108.933 70.8618 109.329C70.4657 109.724 69.9299 109.945 69.3723 109.943C68.8147 109.94 68.281 109.714 67.8885 109.315C67.496 108.915 67.277 108.375 67.2796 107.812L67.3599 89.8348L71.5648 89.8543Z" fill="#EBEBEB"/>
<path d="M71.2961 95.0542L71.2407 107.818C71.2396 108.064 71.1905 108.308 71.0961 108.535C71.0017 108.762 70.8638 108.968 70.6905 109.141C70.5171 109.314 70.3116 109.452 70.0857 109.545C69.8597 109.638 69.6178 109.685 69.3737 109.684C69.1296 109.683 68.8882 109.634 68.6631 109.538C68.438 109.443 68.2337 109.304 68.0619 109.129C67.89 108.954 67.754 108.747 67.6616 108.519C67.5692 108.291 67.5222 108.047 67.5233 107.801L67.5787 95.0374L71.2961 95.0542Z" fill="#C7C7C7"/>
<path d="M72.2296 88.2724L66.7062 88.2471L66.6936 91.0412L72.217 91.0665L72.2296 88.2724Z" fill="#FFC727"/>
<path d="M78.0385 89.8543L77.9581 107.832C77.9556 108.394 77.7316 108.933 77.3355 109.329C76.9394 109.724 76.4036 109.945 75.846 109.943C75.2884 109.94 74.7546 109.714 74.3621 109.315C73.9697 108.915 73.7506 108.375 73.7532 107.812L73.8335 89.8348L78.0385 89.8543Z" fill="#EBEBEB"/>
<path d="M77.7752 95.0542L77.7198 107.818C77.7176 108.315 77.5197 108.791 77.1695 109.141C76.8194 109.491 76.3457 109.687 75.8528 109.684C75.3598 109.682 74.8879 109.482 74.5409 109.129C74.1939 108.776 74.0002 108.298 74.0024 107.801L74.0606 95.0374L77.7752 95.0542Z" fill="#37474F"/>
<path d="M78.7086 88.2743L73.1852 88.249L73.1726 91.0431L78.696 91.0684L78.7086 88.2743Z" fill="#455A64"/>
<path d="M86.8721 99.2984V101.307H63.6148V99.2984H67.3904V99.9718C67.3904 100.304 68.3211 100.57 69.4624 100.57C70.6036 100.57 71.5344 100.304 71.5344 99.9718V99.2984H73.8834V99.9718C73.8834 100.304 74.8086 100.57 75.9526 100.57C77.0966 100.57 78.0218 100.304 78.0218 99.9718V99.2984H80.3625V99.9718C80.3625 100.304 81.2877 100.57 82.4317 100.57C83.5758 100.57 84.5037 100.304 84.5037 99.9718V99.2984H86.8721Z" fill="#455A64"/>
<path d="M86.8749 101.308H63.6148V102.118H86.8749V101.308Z" fill="#263238"/>
<path d="M87.9636 91.2793H86.8722V112.755H87.9636V91.2793Z" fill="#263238"/>
<path d="M43.7618 110.134H23.4103C23.4103 110.134 26.1222 101.059 27.4573 97.8848C27.6678 98.0651 27.8972 98.2216 28.1415 98.3514C28.3357 98.4558 28.5399 98.54 28.7509 98.6029C28.8815 98.6456 29.0147 98.6792 29.1498 98.7035H29.1941L29.3271 98.7203C30.4739 98.8153 32.1387 97.9379 33.7592 97.34C34.4508 97.0552 35.1811 96.8771 35.9254 96.8119C37.3492 96.7504 38.8699 97.4797 39.7508 97.991C41.0638 101.143 43.7618 110.134 43.7618 110.134Z" fill="#FFC727"/>
<path d="M33.7481 97.3454C32.0528 97.9741 30.2966 98.9157 29.1498 98.7034C28.5238 98.5862 27.9398 98.3037 27.4573 97.8847C27.3576 97.3259 29.0723 96.6217 31.2218 96.8118C32.0767 96.921 32.9216 97.0995 33.7481 97.3454Z" fill="#FFC727"/>
<g opacity="0.2">
<path d="M33.7481 97.3454C32.0528 97.9741 30.2966 98.9157 29.1498 98.7034C28.5238 98.5862 27.9398 98.3037 27.4573 97.8847C27.3576 97.3259 29.0723 96.6217 31.2218 96.8118C32.0767 96.921 32.9216 97.0995 33.7481 97.3454Z" fill="black"/>
</g>
<path opacity="0.3" d="M26.2386 103.956C26.194 103.956 26.1498 103.948 26.1084 103.931C26.0289 103.896 25.9666 103.83 25.935 103.748C25.9033 103.667 25.9049 103.576 25.9394 103.495C27.6291 99.603 30.3272 93.2045 30.3715 92.5981V85.5625C30.379 85.4799 30.4169 85.4032 30.4776 85.3473C30.5383 85.2914 30.6175 85.2604 30.6997 85.2604C30.7819 85.2604 30.8612 85.2914 30.9219 85.3473C30.9826 85.4032 31.0205 85.4799 31.028 85.5625V92.6205C31.028 93.3581 27.5876 101.341 26.5322 103.772C26.5055 103.827 26.4638 103.874 26.4118 103.907C26.3599 103.94 26.2998 103.957 26.2386 103.956Z" fill="#EBEBEB"/>
<path opacity="0.3" d="M27.7206 102.375C27.7125 102.377 27.7037 102.377 27.6956 102.375C27.6877 102.372 27.6805 102.367 27.6745 102.36C27.6685 102.354 27.6638 102.347 27.6607 102.339C27.6576 102.331 27.6561 102.322 27.6564 102.313C27.6567 102.305 27.6587 102.296 27.6624 102.288C29.0086 99.156 31.5848 93.1123 31.5848 92.6205V86.4203C31.5848 86.4025 31.5918 86.3855 31.6043 86.3729C31.6167 86.3603 31.6336 86.3533 31.6513 86.3533C31.6599 86.3533 31.6684 86.355 31.6763 86.3584C31.6842 86.3618 31.6914 86.3668 31.6973 86.3731C31.7033 86.3793 31.7079 86.3868 31.7109 86.3949C31.714 86.403 31.7154 86.4117 31.715 86.4203V92.6205C31.715 93.266 27.9422 101.967 27.7815 102.339C27.7761 102.35 27.7673 102.36 27.7565 102.366C27.7457 102.372 27.7331 102.376 27.7206 102.375Z" fill="#EBEBEB"/>
<g opacity="0.2">
<path d="M43.7618 110.134H23.4103C23.4103 110.134 26.1222 101.059 27.4573 97.8847L27.5986 97.5494C28.6845 94.962 29.6152 92.6848 29.6152 92.4054V83.8218H37.5348V92.4054C37.5348 92.6848 38.5708 95.2274 39.7508 97.9936C41.0638 101.143 43.7618 110.134 43.7618 110.134Z" fill="#EBEBEB"/>
<path d="M43.7618 110.134L33.6151 110.193L23.4103 110.226H23.2884L23.3216 110.109C23.9754 107.922 24.6494 105.741 25.3438 103.565C25.6956 102.481 26.0501 101.394 26.4241 100.316C26.798 99.237 27.1969 98.1612 27.6484 97.1162C28.1 96.0712 28.521 95.0094 28.9393 93.9505L29.244 93.1541L29.3853 92.7546C29.43 92.6343 29.4625 92.5098 29.4822 92.383V90.6701L29.4961 83.8217V83.696H29.6207L37.5403 83.7127H37.6483V83.8217V90.6729V92.3858C37.6659 92.5179 37.6994 92.6474 37.748 92.7713L37.8727 93.1793L38.1774 93.9784C38.5929 95.0374 39.0306 96.0908 39.4682 97.1442C40.3413 99.2536 41.1086 101.406 41.7674 103.593C42.4516 105.753 43.1136 107.946 43.7618 110.134ZM43.7618 110.134C43.0859 107.955 42.3906 105.782 41.676 103.615C41.3131 102.531 40.9475 101.453 40.568 100.38C40.1885 99.3068 39.784 98.2423 39.3242 97.1973C38.8644 96.1522 38.4406 95.0933 38.0195 94.0315L37.7093 93.2324L37.5625 92.8272C37.5067 92.6855 37.4694 92.5371 37.4517 92.3858V90.6646L37.435 83.8133L37.5431 83.9223L29.6235 83.9391L29.7481 83.8133V90.6618V92.3746C29.7294 92.5315 29.6913 92.6855 29.6346 92.8328L29.4878 93.238L29.1775 94.0371C28.7565 95.0989 28.3133 96.1495 27.8728 97.2028C27.4324 98.2562 27.0169 99.3068 26.6402 100.385C26.2634 101.464 25.9005 102.542 25.546 103.624C24.8405 105.792 24.1573 107.968 23.4961 110.151L23.4103 110.034L33.557 110.067L43.7618 110.134Z" fill="#263238"/>
<path d="M29.6871 85.7273C29.9975 85.6534 30.3156 85.6177 30.6345 85.6211C30.9544 85.6162 31.2736 85.6518 31.5846 85.7273C30.9595 85.8655 30.3122 85.8655 29.6871 85.7273Z" fill="#263238"/>
<path d="M29.6871 86.7194C29.8352 86.6488 29.997 86.6121 30.1608 86.6121C30.3246 86.6121 30.4864 86.6488 30.6345 86.7194C30.4857 86.7875 30.3242 86.8227 30.1608 86.8227C29.9974 86.8227 29.8359 86.7875 29.6871 86.7194Z" fill="#263238"/>
<path d="M29.6871 87.4764C29.8348 87.4051 29.9971 87.3697 30.1608 87.373C30.3247 87.3683 30.4872 87.4037 30.6345 87.4764C30.4874 87.55 30.3249 87.5864 30.1608 87.5826C29.9969 87.585 29.8346 87.5486 29.6871 87.4764Z" fill="#263238"/>
<path d="M29.6871 88.2365C29.8352 88.1659 29.997 88.1292 30.1608 88.1292C30.3246 88.1292 30.4864 88.1659 30.6345 88.2365C30.4857 88.3046 30.3242 88.3398 30.1608 88.3398C29.9974 88.3398 29.8359 88.3046 29.6871 88.2365Z" fill="#263238"/>
<path d="M29.6871 88.9323C29.9976 88.8593 30.3157 88.8246 30.6345 88.8289C30.9542 88.823 31.2735 88.8577 31.5846 88.9323C30.9599 89.0738 30.3118 89.0738 29.6871 88.9323Z" fill="#263238"/>
<path d="M29.6871 89.9241C29.8346 89.8519 29.9969 89.8155 30.1608 89.8179C30.3249 89.8141 30.4874 89.8505 30.6345 89.9241C30.4857 89.9921 30.3242 90.0274 30.1608 90.0274C29.9974 90.0274 29.8359 89.9921 29.6871 89.9241Z" fill="#263238"/>
<path d="M29.6871 90.6812C29.8359 90.6131 29.9974 90.5779 30.1608 90.5779C30.3242 90.5779 30.4857 90.6131 30.6345 90.6812C30.4864 90.7518 30.3246 90.7884 30.1608 90.7884C29.997 90.7884 29.8352 90.7518 29.6871 90.6812Z" fill="#263238"/>
<path d="M29.6871 91.4414C29.8346 91.3692 29.9969 91.3328 30.1608 91.3352C30.3249 91.3314 30.4874 91.3679 30.6345 91.4414C30.4872 91.5141 30.3247 91.5496 30.1608 91.5448C29.9971 91.5482 29.8348 91.5128 29.6871 91.4414Z" fill="#263238"/>
</g>
<path d="M6.31913 99.1309H8.14737C8.45584 99.1309 8.7613 99.1921 9.04629 99.3112C9.33128 99.4303 9.59023 99.6048 9.80836 99.8248C10.0265 100.045 10.1995 100.306 10.3176 100.594C10.4356 100.881 10.4964 101.189 10.4964 101.5V110.344H3.9729V101.5C3.9729 100.872 4.22 100.27 4.65993 99.8258C5.09985 99.3816 5.69662 99.1316 6.31913 99.1309Z" fill="#DBDBDB"/>
<path d="M8.9174 97.4852H5.55457V99.455H8.9174V97.4852Z" fill="#DBDBDB"/>
<path d="M9.51021 96.5659H4.96179V98.3206H9.51021V96.5659Z" fill="#FFC727"/>
<path d="M9.33296 103.291H4.51862V107.728H9.33296V103.291Z" fill="#EBEBEB"/>
<path d="M14.1805 99.1309H16.0088C16.6317 99.1309 17.2292 99.3805 17.6697 99.8248C18.1103 100.269 18.3578 100.872 18.3578 101.5V110.344H11.8343V101.5C11.8343 100.872 12.0814 100.27 12.5213 99.8258C12.9612 99.3816 13.558 99.1316 14.1805 99.1309Z" fill="#DBDBDB"/>
<path d="M16.7761 97.4852H13.4133V99.455H16.7761V97.4852Z" fill="#DBDBDB"/>
<path d="M17.3689 96.5659H12.8204V98.3206H17.3689V96.5659Z" fill="#455A64"/>
<path d="M17.1915 103.291H12.3772V107.728H17.1915V103.291Z" fill="#EBEBEB"/>
<path d="M113.32 102.562H110.863C110.863 102.562 110.276 93.439 104.802 92.9808C101.905 92.7405 99.2347 94.8193 97.1544 97.158C99.2125 94.8026 102.863 91.7598 106.343 91.7598C111.586 91.7598 113.32 102.562 113.32 102.562Z" fill="#263238"/>
<path d="M97.099 74.3019L100.869 66.551L102.143 68.2917L98.9106 74.3019H97.099Z" fill="#263238"/>
<path d="M102.404 67.0542L98.1047 75.2766L100.06 76.3168L104.359 68.0944L102.404 67.0542Z" fill="#455A64"/>
<path d="M100.063 76.3277L101.235 76.0064L104.775 69.3926L104.365 68.1046L100.063 76.3277Z" fill="#37474F"/>
<path d="M90.6354 75.162L90.5215 75.111C90.1509 74.9452 89.7172 75.1138 89.5528 75.4876L87.7816 79.5155C87.6172 79.8894 87.7844 80.3268 88.155 80.4926L88.269 80.5436C88.6396 80.7094 89.0732 80.5408 89.2376 80.167L91.0088 76.1391C91.1732 75.7653 91.006 75.3278 90.6354 75.162Z" fill="#37474F"/>
<path d="M95.121 77.8741L95.0071 77.8231C94.6365 77.6573 94.2028 77.8259 94.0384 78.1997L92.2672 82.2276C92.1028 82.6015 92.27 83.0389 92.6406 83.2047L92.7546 83.2557C93.1251 83.4215 93.5588 83.2529 93.7232 82.8791L95.4944 78.8512C95.6588 78.4774 95.4916 78.0399 95.121 77.8741Z" fill="#37474F"/>
<path d="M92.6969 76.9309L92.4944 76.8402C91.9923 76.6156 91.4048 76.8441 91.1821 77.3505L88.9414 82.446C88.7188 82.9524 88.9452 83.545 89.4473 83.7697L89.6498 83.8603C90.1519 84.0849 90.7394 83.8565 90.9621 83.3501L93.2028 78.2545C93.4254 77.7481 93.199 77.1555 92.6969 76.9309Z" fill="#37474F"/>
<path d="M101.249 54.3736L101.047 54.2829C100.545 54.0583 99.957 54.2868 99.7344 54.7932L97.4937 59.8887C97.271 60.3951 97.4975 60.9877 97.9995 61.2124L98.2021 61.303C98.7041 61.5276 99.2916 61.2992 99.5143 60.7928L101.755 55.6972C101.978 55.1908 101.751 54.5982 101.249 54.3736Z" fill="#37474F"/>
<path d="M104.559 55.848L104.357 55.7574C103.855 55.5327 103.267 55.7612 103.044 56.2676L100.804 61.3631C100.581 61.8695 100.808 62.4622 101.31 62.6868L101.512 62.7774C102.014 63.002 102.602 62.7736 102.824 62.2672L105.065 57.1717C105.288 56.6652 105.061 56.0726 104.559 55.848Z" fill="#37474F"/>
<path d="M89.5781 75.2743L97.4922 58.6548C97.4922 58.6548 99.7525 58.7302 103.664 61.4685L95.2567 78.0489C93.1974 77.5207 91.2656 76.5768 89.5781 75.2743Z" fill="#37474F"/>
<path d="M96.8302 79.4403C96.8302 79.4403 89.3732 77.219 87.3234 75.1849L87.9771 73.7012C91.4613 74.2536 94.7401 75.7212 97.4839 77.9566L96.8302 79.4403Z" fill="#455A64"/>
<path d="M103.949 61.9407C103.949 61.9407 100.996 59.4036 96.9908 58.6408L97.675 57.1711C101.908 57.0984 104.631 60.4877 104.631 60.4877L103.949 61.9407Z" fill="#455A64"/>
<path d="M98.4535 71.9436C98.4535 71.9436 95.1903 69.767 92.3787 69.0629C92.3387 69.0471 92.3025 69.023 92.2724 68.992C92.2424 68.961 92.2193 68.9239 92.2046 68.8831C92.1899 68.8424 92.184 68.799 92.1873 68.7558C92.1906 68.7126 92.203 68.6706 92.2236 68.6326L92.9909 66.9868C93.0324 66.9135 93.0983 66.8575 93.177 66.8288C93.2557 66.8001 93.342 66.8007 93.4203 66.8303C95.616 67.3667 97.6815 68.3456 99.4922 69.7083C99.5695 69.7453 99.6292 69.8115 99.6582 69.8926C99.6873 69.9737 99.6834 70.0632 99.6474 70.1414L98.8801 71.7843C98.8627 71.8233 98.8379 71.8585 98.807 71.8876C98.776 71.9168 98.7396 71.9395 98.6999 71.9543C98.6602 71.9692 98.6179 71.9759 98.5756 71.974C98.5333 71.9722 98.4918 71.9618 98.4535 71.9436Z" fill="#455A64"/>
<path d="M103.711 69.9125L104.301 69.6331C104.301 69.6331 112.531 73.3409 112.11 83.2293C111.833 89.7844 107.085 94.3192 107.085 94.3192C107.085 94.3192 112.852 86.8114 110.686 79.8624C108.52 72.9134 103.711 69.9125 103.711 69.9125Z" fill="#455A64"/>
<path d="M111.439 83.9111C110.966 89.9576 107.079 94.3193 107.079 94.3193H101.176C98.4701 90.7288 94.1654 88.6304 94.1654 88.6304L98.8745 89.4686L99.2928 89.2507L100.124 88.8232C100.124 88.8232 101.318 90.6673 103.115 90.6254C103.483 90.618 103.846 90.5363 104.182 90.3851C106.282 89.4686 107.343 83.844 106.362 80.4855C105.381 77.1269 101.085 75.0453 101.085 75.0453L103.711 69.9125C108.406 72.0388 111.91 77.8646 111.439 83.9111Z" fill="#37474F"/>
<path d="M103.127 90.6225C103.127 90.6225 101.581 91.1506 99.3011 89.245L100.132 88.8175C100.132 88.8175 101.326 90.6616 103.124 90.6197L103.127 90.6225Z" fill="#455A64"/>
<path d="M110.863 102.562H93.2734C93.7139 101.869 94.4729 100.623 95.4895 99.2508L95.5532 99.1613C95.5809 99.125 95.6086 99.0915 95.6335 99.0552C95.6489 99.031 95.6656 99.0077 95.6834 98.9853L95.8357 98.7869L95.8801 98.7283L96.0435 98.5159C96.1321 98.4013 96.2291 98.2784 96.3371 98.1471C96.4451 98.0158 96.4895 97.9599 96.567 97.8677C96.6889 97.7224 96.8163 97.5687 96.9548 97.4094L97.1709 97.1607C99.2512 94.8221 101.922 92.7432 104.819 92.9835C110.276 93.439 110.863 102.562 110.863 102.562Z" fill="#455A64"/>
<path d="M98.3197 87.3337L81.0172 85.8774L80.8343 88.0882L98.1368 89.5446L98.3197 87.3337Z" fill="#263238"/>
<path d="M102.137 87.6771L98.2997 87.3535L98.1165 89.5643L101.953 89.8879L102.137 87.6771Z" fill="#37474F"/>
<path d="M96.736 101.1C96.736 101.219 96.7011 101.335 96.6356 101.434C96.5702 101.533 96.4772 101.61 96.3683 101.656C96.2595 101.701 96.1398 101.713 96.0242 101.69C95.9087 101.667 95.8026 101.609 95.7193 101.525C95.636 101.441 95.5793 101.334 95.5563 101.218C95.5333 101.101 95.5451 100.98 95.5902 100.871C95.6353 100.761 95.7116 100.667 95.8095 100.601C95.9075 100.535 96.0226 100.5 96.1404 100.5C96.2984 100.5 96.4499 100.563 96.5615 100.676C96.6732 100.788 96.736 100.941 96.736 101.1Z" fill="#263238"/>
<path d="M109.107 101.101C109.107 101.219 109.072 101.335 109.007 101.434C108.942 101.533 108.849 101.61 108.74 101.655C108.631 101.701 108.512 101.713 108.396 101.69C108.281 101.667 108.175 101.61 108.091 101.526C108.008 101.443 107.951 101.336 107.928 101.219C107.904 101.103 107.916 100.982 107.961 100.873C108.005 100.763 108.081 100.669 108.179 100.602C108.276 100.536 108.391 100.5 108.509 100.5C108.587 100.499 108.665 100.515 108.738 100.545C108.81 100.575 108.876 100.619 108.932 100.675C108.987 100.731 109.031 100.797 109.061 100.87C109.092 100.943 109.107 101.021 109.107 101.101Z" fill="#263238"/>
<path d="M104.199 94.92C104.199 95.0388 104.164 95.1549 104.098 95.2537C104.033 95.3525 103.94 95.4295 103.831 95.475C103.722 95.5204 103.602 95.5323 103.487 95.5092C103.371 95.486 103.265 95.4288 103.182 95.3447C103.099 95.2607 103.042 95.1537 103.019 95.0372C102.996 94.9206 103.008 94.7998 103.053 94.6901C103.098 94.5803 103.174 94.4865 103.272 94.4205C103.37 94.3545 103.485 94.3192 103.603 94.3192C103.761 94.3192 103.912 94.3825 104.024 94.4952C104.136 94.6078 104.199 94.7606 104.199 94.92Z" fill="#263238"/>
<path d="M99.6223 62.6755C99.6223 62.7943 99.5874 62.9105 99.522 63.0093C99.4565 63.1081 99.3635 63.1851 99.2547 63.2305C99.1459 63.276 99.0261 63.2879 98.9106 63.2647C98.7951 63.2415 98.6889 63.1843 98.6056 63.1003C98.5224 63.0163 98.4656 62.9092 98.4427 62.7927C98.4197 62.6762 98.4315 62.5554 98.4765 62.4456C98.5216 62.3358 98.598 62.242 98.6959 62.176C98.7938 62.11 98.909 62.0748 99.0268 62.0748C99.1847 62.0748 99.3362 62.1381 99.4479 62.2507C99.5596 62.3634 99.6223 62.5162 99.6223 62.6755Z" fill="#263238"/>
<path d="M94.4646 73.7011C94.4646 73.8199 94.4296 73.936 94.3642 74.0348C94.2987 74.1336 94.2057 74.2106 94.0969 74.2561C93.9881 74.3016 93.8683 74.3135 93.7528 74.2903C93.6373 74.2671 93.5312 74.2099 93.4479 74.1259C93.3646 74.0418 93.3079 73.9348 93.2849 73.8183C93.2619 73.7017 93.2737 73.581 93.3188 73.4712C93.3638 73.3614 93.4402 73.2676 93.5381 73.2016C93.6361 73.1356 93.7512 73.1003 93.869 73.1003C94.0269 73.1003 94.1784 73.1636 94.2901 73.2763C94.4018 73.3889 94.4646 73.5418 94.4646 73.7011Z" fill="#263238"/>
<path d="M105.37 73.9137C105.37 74.0325 105.335 74.1487 105.27 74.2475C105.205 74.3463 105.111 74.4233 105.003 74.4687C104.894 74.5142 104.774 74.5261 104.659 74.5029C104.543 74.4797 104.437 74.4225 104.354 74.3385C104.27 74.2545 104.214 74.1475 104.191 74.0309C104.168 73.9144 104.179 73.7936 104.225 73.6838C104.27 73.5741 104.346 73.4802 104.444 73.4142C104.542 73.3482 104.657 73.313 104.775 73.313C104.933 73.313 105.084 73.3763 105.196 73.4889C105.308 73.6016 105.37 73.7544 105.37 73.9137Z" fill="#263238"/>
<path d="M100.32 91.877C100.649 91.877 100.916 91.6081 100.916 91.2763C100.916 90.9445 100.649 90.6755 100.32 90.6755C99.9915 90.6755 99.7249 90.9445 99.7249 91.2763C99.7249 91.6081 99.9915 91.877 100.32 91.877Z" fill="#263238"/>
</svg>
