<svg width="43" height="52" viewBox="0 0 43 52" fill="none" xmlns="http://www.w3.org/2000/svg">
<line x1="26.5436" y1="20.5439" x2="10.4138" y2="20.5439" stroke="#808080" stroke-width="2" stroke-linecap="round"/>
<line x1="26.5436" y1="36.3333" x2="10.4138" y2="36.3333" stroke="#808080" stroke-width="2" stroke-linecap="round"/>
<line x1="26.5436" y1="25.807" x2="10.4138" y2="25.807" stroke="#808080" stroke-width="2" stroke-linecap="round"/>
<line x1="26.5436" y1="31.0702" x2="10.4138" y2="31.0702" stroke="#808080" stroke-width="2" stroke-linecap="round"/>
<path d="M11.6485 8.12H6.3782C4.04965 8.12 2.16199 9.94666 2.16199 12.2V40.7597C2.16199 43.0131 4.04965 44.8397 6.3782 44.8397H19.0269" stroke="#808080" stroke-width="3.65908" stroke-linecap="round"/>
<path d="M26.4053 8.12H31.6755C34.0042 8.12 35.8918 9.94666 35.8918 12.2V30.5598" stroke="#808080" stroke-width="3.65908" stroke-linecap="round"/>
<path d="M10.5945 13.0159V9.13994C10.5945 8.57662 11.0664 8.11995 11.6485 8.11995C12.2307 8.11995 12.7115 7.66308 12.8112 7.10808C13.1235 5.36946 14.3342 2 19.0269 2C23.7196 2 24.9303 5.36946 25.2427 7.10808C25.3424 7.66308 25.8232 8.11995 26.4053 8.11995C26.9873 8.11995 27.4593 8.57662 27.4593 9.13994V13.0159C27.4593 13.6919 26.8931 14.2399 26.1945 14.2399H11.8593C11.1608 14.2399 10.5945 13.6919 10.5945 13.0159Z" stroke="#808080" stroke-width="3.65908" stroke-linecap="round"/>
<path d="M26.4053 41.7796L30.6215 45.8596L41.162 35.6597" stroke="#808080" stroke-width="3.65908" stroke-linecap="round" stroke-linejoin="round"/>
<ellipse cx="18.932" cy="8.57894" rx="2.26622" ry="2.19298" fill="#808080"/>
</svg>
